%TF.GenerationSoftware,KiCad,Pcbnew,9.0.1-9.0.1-0~ubuntu22.04.1*%
%TF.CreationDate,2025-04-23T20:29:42+02:00*%
%TF.ProjectId,template_board,74656d70-6c61-4746-955f-626f6172642e,rev?*%
%TF.SameCoordinates,Original*%
%TF.FileFunction,Profile,NP*%
%FSLAX46Y46*%
G04 Gerber Fmt 4.6, Leading zero omitted, Abs format (unit mm)*
G04 Created by KiCad (PCBNEW 9.0.1-9.0.1-0~ubuntu22.04.1) date 2025-04-23 20:29:42*
%MOMM*%
%LPD*%
G01*
G04 APERTURE LIST*
%TA.AperFunction,Profile*%
%ADD10C,0.100000*%
%TD*%
G04 APERTURE END LIST*
D10*
X75540500Y-113825000D02*
X107417500Y-113825000D01*
X108370000Y-112872500D02*
G75*
G02*
X107417500Y-113825000I-952500J0D01*
G01*
X107417500Y-76029800D02*
G75*
G02*
X108370000Y-76982300I0J-952500D01*
G01*
X19152500Y-55735200D02*
G75*
G02*
X20105000Y-56687700I0J-952500D01*
G01*
X108370000Y-18892500D02*
X108370000Y-54782700D01*
X18200000Y-18892500D02*
G75*
G02*
X19152500Y-17940000I952500J0D01*
G01*
X75540500Y-113825000D02*
G75*
G02*
X74588000Y-112872500I0J952500D01*
G01*
X19152500Y-113825000D02*
X53315500Y-113825000D01*
X18200000Y-76982300D02*
X18200000Y-112872500D01*
X19152500Y-113825000D02*
G75*
G02*
X18200000Y-112872500I0J952500D01*
G01*
X54268000Y-112872500D02*
G75*
G02*
X53315500Y-113825000I-952500J0D01*
G01*
X108370000Y-54782700D02*
G75*
G02*
X107417500Y-55735200I-952500J0D01*
G01*
X73635500Y-111920000D02*
G75*
G02*
X74588000Y-112872500I0J-952500D01*
G01*
X20105000Y-75077300D02*
G75*
G02*
X19152500Y-76029800I-952500J0D01*
G01*
X55220500Y-111920000D02*
X73635500Y-111920000D01*
X107417500Y-76029800D02*
G75*
G02*
X106465000Y-75077300I0J952500D01*
G01*
X74588000Y-18892500D02*
G75*
G02*
X73635500Y-19845000I-952500J0D01*
G01*
X75540500Y-17940000D02*
X107417500Y-17940000D01*
X20105000Y-56687700D02*
X20105000Y-75077300D01*
X74588000Y-18892500D02*
G75*
G02*
X75540500Y-17940000I952500J0D01*
G01*
X106465000Y-56687700D02*
G75*
G02*
X107417500Y-55735200I952500J0D01*
G01*
X107417500Y-17940000D02*
G75*
G02*
X108370000Y-18892500I0J-952500D01*
G01*
X106465000Y-56687700D02*
X106465000Y-75077300D01*
X108370000Y-76982300D02*
X108370000Y-112872500D01*
X19152500Y-55735200D02*
G75*
G02*
X18200000Y-54782700I0J952500D01*
G01*
X53315500Y-17940000D02*
G75*
G02*
X54268000Y-18892500I0J-952500D01*
G01*
X18200000Y-18892500D02*
X18200000Y-54782700D01*
X19152500Y-17940000D02*
X53315500Y-17940000D01*
X55220500Y-19845000D02*
X73635500Y-19845000D01*
X55220500Y-19845000D02*
G75*
G02*
X54268000Y-18892500I0J952500D01*
G01*
X18200000Y-76982300D02*
G75*
G02*
X19152500Y-76029800I952500J0D01*
G01*
X54268000Y-112872500D02*
G75*
G02*
X55220500Y-111920000I952500J0D01*
G01*
M02*
