M48
; DRILL file {KiCad 8.0.7-8.0.7-0~ubuntu22.04.1} date 2024-12-14T16:55:51+0100
; FORMAT={-:-/ absolute / inch / decimal}
; #@! TF.CreationDate,2024-12-14T16:55:51+01:00
; #@! TF.GenerationSoftware,Kicad,Pcbnew,8.0.7-8.0.7-0~ubuntu22.04.1
; #@! TF.FileFunction,Plated,1,4,PTH
FMAT,2
INCH
; #@! TA.AperFunction,Plated,PTH,ViaDrill
T1C0.0118
; #@! TA.AperFunction,Plated,PTH,ViaDrill
T2C0.0138
; #@! TA.AperFunction,Plated,PTH,ComponentDrill
T3C0.0236
; #@! TA.AperFunction,Plated,PTH,ComponentDrill
T4C0.0315
; #@! TA.AperFunction,Plated,PTH,ComponentDrill
T5C0.0350
; #@! TA.AperFunction,Plated,PTH,ComponentDrill
T6C0.0390
; #@! TA.AperFunction,Plated,PTH,ComponentDrill
T7C0.0394
; #@! TA.AperFunction,Plated,PTH,ComponentDrill
T8C0.0512
; #@! TA.AperFunction,Plated,PTH,ComponentDrill
T9C0.0618
; #@! TA.AperFunction,Plated,PTH,ComponentDrill
T10C0.1063
%
G90
G05
T1
X3.5831Y-2.935
X3.5912Y-2.7791
X3.5928Y-2.7446
X3.611Y-2.9606
X3.639Y-3.0693
X3.664Y-3.0943
X3.8622Y-2.5669
X5.2087Y-2.7327
X5.4094Y-2.685
X5.6499Y-2.7333
X5.6541Y-2.6877
X5.6921Y-2.6737
X5.6996Y-2.5344
X5.752Y-2.6654
X5.7626Y-2.6268
X5.795Y-2.6497
X5.8228Y-2.635
X5.937Y-2.3937
X6.2083Y-2.7732
X6.2674Y-2.8435
X6.2694Y-2.8121
X6.3071Y-3.0197
X6.3098Y-2.5441
X6.325Y-2.597
X6.3335Y-2.5205
X6.3565Y-2.5953
X6.378Y-2.4803
X6.3881Y-2.5222
X6.3881Y-2.5557
X6.5571Y-2.5157
X6.5866Y-2.7244
X6.624Y-2.4291
T2
X3.6169Y-2.6783
X3.6614Y-2.8899
X3.7146Y-3.0689
X3.7248Y-2.8563
X3.7537Y-3.4441
X3.7537Y-3.4821
X3.7874Y-3.7323
X3.7992Y-3.6551
X3.7992Y-3.7724
X3.8583Y-2.9333
X3.8638Y-2.9681
X3.8642Y-2.7772
X3.8835Y-2.7996
X3.9028Y-3.0256
X3.9134Y-2.8791
X3.9358Y-2.5362
X3.9575Y-3.9417
X3.9579Y-3.8732
X3.9579Y-3.9071
X3.9579Y-3.9728
X3.9579Y-4.0016
X3.9579Y-4.0339
X3.9579Y-4.0673
X3.9579Y-4.1016
X3.9579Y-4.1327
X3.9579Y-4.1657
X3.9646Y-3.0571
X3.9646Y-3.0866
X3.9685Y-3.3583
X3.9701Y-3.1172
X3.9764Y-4.5591
X3.9764Y-4.5945
X3.9843Y-3.4646
X4.0008Y-3.0228
X4.0079Y-4.5591
X4.0079Y-4.5945
X4.0083Y-3.815
X4.01Y-3.2542
X4.0433Y-4.5591
X4.0433Y-4.5945
X4.0512Y-3.1169
X4.0787Y-4.5591
X4.0787Y-4.5945
X4.0866Y-2.7244
X4.0984Y-3.3701
X4.1187Y-3.4215
X4.1291Y-2.6602
X4.1299Y-4.4567
X4.1299Y-4.4921
X4.1299Y-4.5276
X4.1299Y-4.563
X4.1299Y-4.5945
X4.1339Y-2.7844
X4.141Y-3.3992
X4.1614Y-4.4567
X4.1614Y-4.4921
X4.1614Y-4.5276
X4.1614Y-4.563
X4.1614Y-4.5945
X4.1654Y-2.7835
X4.1831Y-4.2854
X4.1835Y-4.0481
X4.1835Y-4.1083
X4.1835Y-4.1378
X4.1835Y-4.1674
X4.1835Y-4.1969
X4.1835Y-4.2559
X4.1835Y-4.0777
X4.1835Y-4.2264
X4.1929Y-3.4016
X4.1965Y-2.6618
X4.1969Y-4.4567
X4.1969Y-4.4921
X4.1969Y-4.5276
X4.1969Y-4.563
X4.1969Y-4.5945
X4.2096Y-3.3384
X4.213Y-4.0492
X4.213Y-4.0787
X4.213Y-4.1083
X4.213Y-4.1378
X4.213Y-4.1673
X4.213Y-3.0441
X4.213Y-4.1969
X4.213Y-4.2264
X4.213Y-4.2559
X4.2146Y-4.2854
X4.2244Y-3.563
X4.2323Y-4.4567
X4.2323Y-4.4921
X4.2323Y-4.5276
X4.2323Y-4.563
X4.2323Y-4.5945
X4.2425Y-4.0492
X4.2425Y-4.0787
X4.2425Y-4.1083
X4.2425Y-4.1378
X4.2425Y-4.1673
X4.2425Y-4.1969
X4.2598Y-2.6624
X4.2913Y-3.8703
X4.2913Y-4.0378
X4.2947Y-2.6844
X4.3177Y-2.4762
X4.3311Y-3.9213
X4.3311Y-3.9843
X4.3449Y-2.4762
X4.3587Y-3.9213
X4.3587Y-3.9843
X4.378Y-2.4762
X4.3783Y-3.6969
X4.3902Y-3.9213
X4.3902Y-3.9843
X4.423Y-3.9543
X4.4358Y-3.285
X4.4366Y-2.874
X4.4492Y-3.9843
X4.4521Y-3.9252
X4.4764Y-2.6614
X4.4886Y-3.9252
X4.4886Y-3.9843
X4.5079Y-2.6614
X4.524Y-3.9252
X4.524Y-3.9843
X4.5354Y-2.6614
X4.5555Y-3.9843
X4.5555Y-3.9252
X4.5906Y-2.6815
X4.6106Y-3.1087
X4.622Y-2.6815
X4.6339Y-2.7835
X4.6358Y-4.2303
X4.6358Y-4.2598
X4.6358Y-4.2894
X4.6358Y-4.3189
X4.6358Y-4.3484
X4.6358Y-4.3761
X4.6358Y-4.4075
X4.6535Y-2.6815
X4.6634Y-4.2307
X4.6634Y-4.2602
X4.6634Y-4.2898
X4.6634Y-4.3193
X4.6634Y-4.3488
X4.6634Y-4.3765
X4.6634Y-4.4079
X4.6693Y-2.8081
X4.6887Y-2.8368
X4.689Y-2.6815
X4.6929Y-2.8661
X4.6929Y-4.378
X4.6949Y-4.3484
X4.6949Y-4.4075
X4.6949Y-4.2303
X4.6949Y-4.2598
X4.6949Y-4.2894
X4.6949Y-4.3189
X4.7244Y-4.2303
X4.7244Y-4.2598
X4.7244Y-4.2894
X4.7244Y-4.3189
X4.7244Y-4.3484
X4.7244Y-4.378
X4.7244Y-4.4075
X4.7283Y-2.7362
X4.7478Y-2.7961
X4.7559Y-2.7677
X4.7559Y-2.8346
X4.7598Y-3.1362
X4.8031Y-2.7244
X4.8798Y-2.8383
X4.8937Y-2.622
X4.9136Y-2.9604
X4.9764Y-2.622
X4.992Y-2.8446
X4.9921Y-2.9685
X5.0Y-2.6929
X5.0386Y-2.4614
X5.0591Y-2.9646
X5.0685Y-2.4614
X5.1008Y-2.6339
X5.1169Y-2.4748
X5.1654Y-2.9654
X5.2059Y-2.6843
X5.2173Y-2.6488
X5.2283Y-2.8337
X5.2535Y-2.6488
X5.3051Y-2.9724
X5.3661Y-2.5354
X5.4083Y-2.65
X5.4434Y-2.9405
X5.5701Y-2.5049
X5.6654Y-2.3927
X5.7323Y-2.748
X5.7378Y-2.4083
X5.7756Y-2.7598
X5.8081Y-2.7382
X5.8346Y-2.7136
X5.8386Y-2.8819
X5.8425Y-2.7884
X5.8425Y-2.8179
X5.8425Y-2.8514
X5.8494Y-3.0033
X5.8724Y-2.9807
X5.8933Y-2.9594
X5.8965Y-2.3947
X5.9201Y-2.9339
X5.9555Y-2.9291
X5.9945Y-2.9291
X6.172Y-2.6819
X6.2035Y-2.6819
X6.3298Y-2.6507
X6.3445Y-2.7677
X6.3571Y-2.7089
X6.3587Y-2.6565
X6.374Y-2.7677
X6.4094Y-2.7598
X6.4154Y-2.8622
X6.4252Y-3.1654
X6.4488Y-2.8622
X6.4783Y-2.8622
X6.489Y-2.6224
X6.4929Y-2.6843
X6.5276Y-3.1831
X6.5394Y-3.2327
X6.5433Y-2.8819
X6.5558Y-2.811
X6.563Y-3.1831
X6.5913Y-2.6236
X6.5917Y-2.6799
X6.6024Y-2.878
X6.6045Y-2.8138
X6.6825Y-2.7165
X6.7008Y-2.6535
X6.7205Y-2.9173
X6.7219Y-2.7972
X6.7219Y-2.8446
X6.7305Y-2.7184
X6.7492Y-2.4713
X6.7492Y-2.5311
T4
X3.4949Y-2.4807
X3.4949Y-2.5807
X3.7949Y-2.4807
X3.7949Y-2.5807
T5
X3.485Y-3.3079
X3.485Y-3.3879
X3.485Y-3.4679
X3.485Y-3.5479
X3.5551Y-3.2679
X3.5551Y-3.3479
X3.5551Y-3.4279
X3.5551Y-3.5079
X3.7449Y-3.1376
X3.7449Y-3.2278
X3.7449Y-3.5876
X3.7449Y-3.6778
X6.4906Y-3.1398
X6.4906Y-3.2299
X6.4906Y-3.5898
X6.4906Y-3.6799
X6.6803Y-3.3097
X6.6803Y-3.3897
X6.6803Y-3.4697
X6.6803Y-3.5497
X6.7504Y-3.2697
X6.7504Y-3.3497
X6.7504Y-3.4297
X6.7504Y-3.5097
T6
X3.2602Y-2.7421
X3.2602Y-2.9193
T7
X4.4969Y-2.4409
X4.5969Y-2.4409
X4.6969Y-2.4409
X4.7969Y-2.4409
X4.8969Y-2.4409
T8
X3.3583Y-2.6925
X3.3583Y-2.9685
T9
X3.5201Y-3.0876
X3.5201Y-3.7278
X6.7154Y-3.0898
X6.7154Y-3.7299
T10
X3.815Y-3.9783
X3.815Y-4.2618
X6.4232Y-3.9803
X6.4232Y-4.2638
T3
G00X3.5571Y-3.8543
M15
G01X3.6004Y-3.8543
M16
G05
G00X3.5571Y-4.3858
M15
G01X3.6004Y-4.3858
M16
G05
G00X6.6811Y-3.8563
M15
G01X6.6378Y-3.8563
M16
G05
G00X6.6811Y-4.3878
M15
G01X6.6378Y-4.3878
M16
G05
G00X6.778Y-2.6409
M15
G01X6.8213Y-2.6409
M16
G05
G00X6.778Y-2.9811
M15
G01X6.8213Y-2.9811
M16
G05
G00X6.9492Y-2.6409
M15
G01X6.9807Y-2.6409
M16
G05
G00X6.9492Y-2.9811
M15
G01X6.9807Y-2.9811
M16
G05
M30
