M48
; DRILL file {KiCad 9.0.1-9.0.1-0~ubuntu22.04.1} date 2025-04-23T20:29:42+0200
; FORMAT={-:-/ absolute / inch / decimal}
; #@! TF.CreationDate,2025-04-23T20:29:42+02:00
; #@! TF.GenerationSoftware,Kicad,Pcbnew,9.0.1-9.0.1-0~ubuntu22.04.1
; #@! TF.FileFunction,Plated,1,4,PTH
FMAT,2
INCH
; #@! TA.AperFunction,Plated,PTH,ViaDrill
T1C0.0118
; #@! TA.AperFunction,Plated,PTH,ComponentDrill
T2C0.0236
; #@! TA.AperFunction,Plated,PTH,ComponentDrill
T3C0.0402
; #@! TA.AperFunction,Plated,PTH,ComponentDrill
T4C0.0591
; #@! TA.AperFunction,Plated,PTH,ComponentDrill
T5C0.1260
%
G90
G05
T1
X1.689Y-1.3465
X1.7913Y-1.3504
X1.8858Y-1.3504
X1.9921Y-1.3504
X2.2933Y-2.0925
X2.2933Y-2.2185
X2.3002Y-2.2835
X2.3425Y-2.248
X2.4055Y-2.1772
X2.4272Y-1.9626
X2.4311Y-1.8839
X2.435Y-2.0295
X2.4562Y-2.564
X2.4562Y-2.5876
X2.4562Y-2.6388
X2.4565Y-2.613
X2.4601Y-2.3947
X2.4601Y-2.4341
X2.4892Y-2.2953
X2.4921Y-2.4685
X2.4956Y-2.5404
X2.5039Y-2.1102
X2.5192Y-2.5404
X2.5428Y-2.5404
X2.5472Y-2.1032
X2.5625Y-2.0404
X2.5664Y-2.5404
X2.6024Y-2.4134
X2.6024Y-2.4449
X2.606Y-1.3859
X2.6063Y-2.5079
X2.6083Y-1.4154
X2.6102Y-2.3819
X2.6216Y-2.6388
X2.626Y-2.3071
X2.6373Y-2.0148
X2.6457Y-2.7283
X2.6688Y-2.6388
X2.6693Y-2.4961
X2.746Y-1.8995
X2.7598Y-1.8268
X2.7992Y-3.4055
X2.7992Y-3.437
X2.8012Y-1.4016
X2.8049Y-2.0411
X2.8189Y-2.1457
X2.8346Y-1.7323
X2.8346Y-1.7835
X2.8386Y-1.9843
X2.8433Y-2.1538
X2.844Y-2.5039
X2.8467Y-1.4031
X2.8701Y-2.4252
X2.878Y-2.1535
X2.8898Y-2.752
X2.8937Y-3.5433
X2.8937Y-3.5827
X2.8937Y-3.622
X2.8937Y-3.6614
X2.8976Y-2.4567
X2.8996Y-2.7106
X2.9213Y-2.4921
X2.9286Y-2.6348
X2.9331Y-3.7205
X2.9331Y-3.7795
X2.9331Y-3.8386
X2.9331Y-3.8976
X2.9331Y-3.9567
X2.9331Y-4.0157
X2.9331Y-4.0748
X2.9409Y-2.6614
X2.9488Y-1.3878
X2.9488Y-1.4173
X2.9488Y-1.4469
X2.9488Y-1.9055
X2.9508Y-1.3583
X2.9606Y-1.9528
X2.968Y-2.6348
X2.9724Y-3.5433
X2.9764Y-2.9882
X2.9902Y-1.6811
X2.9961Y-2.5
X3.0315Y-2.0039
X3.0315Y-3.7205
X3.0315Y-3.8976
X3.0315Y-3.9567
X3.0315Y-4.0157
X3.0315Y-4.0748
X3.0359Y-1.8828
X3.0472Y-1.6831
X3.0472Y-2.4921
X3.0551Y-3.5512
X3.063Y-2.4528
X3.0861Y-2.1545
X3.0861Y-2.1939
X3.0866Y-2.4409
X3.122Y-2.4449
X3.1299Y-3.7205
X3.1299Y-3.7795
X3.1299Y-3.8386
X3.1299Y-3.9567
X3.1299Y-4.0157
X3.1299Y-4.0748
X3.1496Y-2.4409
X3.1656Y-2.1219
X3.1732Y-1.9705
X3.175Y-2.4367
X3.1929Y-1.8307
X3.1969Y-1.748
X3.201Y-2.1219
X3.2047Y-2.4331
X3.2283Y-3.7205
X3.2283Y-3.7795
X3.2283Y-3.8386
X3.2283Y-3.9567
X3.2283Y-4.0157
X3.2283Y-4.0748
X3.2323Y-1.378
X3.2362Y-1.8839
X3.2364Y-2.1219
X3.2677Y-1.3504
X3.2679Y-2.1219
X3.2717Y-1.748
X3.2953Y-2.0453
X3.3026Y-1.6845
X3.3268Y-3.7205
X3.3268Y-3.7795
X3.3268Y-3.8386
X3.3268Y-3.9567
X3.3268Y-4.0157
X3.3268Y-4.0748
X3.3307Y-2.2756
X3.3504Y-1.4094
X3.3583Y-1.7028
X3.3606Y-2.2745
X3.3622Y-1.5197
X3.3901Y-2.2745
X3.3996Y-1.939
X3.4173Y-1.9724
X3.4213Y-1.6654
X3.4252Y-2.2756
X3.4252Y-3.7205
X3.4252Y-4.0748
X3.4331Y-2.0118
X3.4764Y-1.8189
X3.5236Y-3.7205
X3.5236Y-4.0748
X3.5276Y-2.9882
X3.5295Y-1.7028
X3.563Y-2.0394
X3.564Y-2.1526
X3.5945Y-1.8386
X3.5945Y-1.9252
X3.6102Y-1.6811
X3.6112Y-2.0507
X3.6181Y-1.8504
X3.622Y-3.5433
X3.622Y-3.6024
X3.622Y-3.6614
X3.622Y-3.7205
X3.622Y-4.0748
X3.6457Y-1.7992
X3.6476Y-1.7598
X3.7087Y-1.5118
X3.7205Y-3.5433
X3.7205Y-3.6024
X3.7205Y-3.6614
X3.7205Y-3.7205
X3.7205Y-3.7795
X3.7205Y-3.8386
X3.7205Y-3.8976
X3.7205Y-3.9567
X3.7205Y-4.0157
X3.7205Y-4.0748
X3.7382Y-1.7992
X3.7474Y-1.8557
X3.748Y-1.378
X3.748Y-2.5157
X3.755Y-1.7746
X3.7618Y-1.9094
X3.7683Y-1.8766
X3.7756Y-1.378
X3.7759Y-1.7537
X3.8051Y-1.8583
X3.8071Y-2.209
X3.8189Y-3.5433
X3.8189Y-3.6024
X3.8189Y-3.6614
X3.8189Y-3.7205
X3.8189Y-3.7795
X3.8189Y-3.8386
X3.8189Y-3.8976
X3.8189Y-3.9567
X3.8189Y-4.0157
X3.8189Y-4.0748
X3.8209Y-2.4469
X3.8307Y-2.7028
X3.8307Y-2.7323
X3.8346Y-1.688
X3.8366Y-2.209
X3.8465Y-3.1004
X3.8777Y-3.3566
X3.8898Y-2.3268
X3.9011Y-1.5955
X3.9016Y-2.0098
X3.9016Y-3.0906
X3.9173Y-3.5433
X3.9173Y-3.6024
X3.9173Y-3.6614
X3.9173Y-3.7205
X3.9173Y-3.7795
X3.9173Y-3.8386
X3.9173Y-3.8976
X3.9173Y-3.9567
X3.9173Y-4.0157
X3.9173Y-4.0748
X3.9213Y-2.5197
X3.937Y-2.7047
X3.9538Y-1.9289
X3.9857Y-2.0119
X4.0Y-1.2008
X4.0Y-1.2244
X4.0Y-1.248
X4.0Y-1.2717
X4.0Y-1.2953
X4.0153Y-2.0119
X4.0157Y-3.5433
X4.0157Y-3.6024
X4.0157Y-3.6614
X4.0157Y-3.7205
X4.0157Y-3.7795
X4.0157Y-3.8386
X4.0157Y-3.8976
X4.0157Y-3.9567
X4.0157Y-4.0157
X4.0157Y-4.0748
X4.0192Y-1.7785
X4.0236Y-1.2008
X4.0236Y-1.2244
X4.0236Y-1.248
X4.0236Y-1.2717
X4.0236Y-1.2953
X4.0472Y-1.2008
X4.0472Y-1.2244
X4.0472Y-1.248
X4.0472Y-1.2717
X4.0472Y-1.2953
X4.0472Y-2.3543
X4.0512Y-2.0945
X4.0556Y-2.2866
X4.0748Y-2.3091
X4.0748Y-2.3504
X4.0748Y-2.563
X4.0748Y-2.6535
X4.0748Y-2.8504
X4.0748Y-2.9252
X4.1063Y-1.1654
X4.1063Y-1.189
X4.1063Y-1.2126
X4.1063Y-1.2362
X4.1063Y-1.2598
X4.1063Y-1.8228
X4.1142Y-3.5433
X4.1142Y-3.6024
X4.1142Y-3.6614
X4.1142Y-3.7205
X4.1142Y-3.7795
X4.1142Y-3.8386
X4.1142Y-3.8976
X4.1142Y-3.9567
X4.1142Y-4.0157
X4.1142Y-4.0748
X4.1234Y-1.7939
X4.1299Y-1.1654
X4.1299Y-1.189
X4.1299Y-1.2126
X4.1299Y-1.2362
X4.1299Y-1.2598
X4.1443Y-1.773
X4.1457Y-1.7441
X4.1535Y-1.1654
X4.1535Y-1.189
X4.1535Y-1.2126
X4.1535Y-1.2362
X4.1535Y-1.2598
X4.1535Y-2.8504
X4.1693Y-1.7953
X4.2028Y-1.7224
X4.2126Y-3.5433
X4.2126Y-3.6024
X4.2126Y-3.6614
X4.2126Y-3.7205
X4.2126Y-3.7795
X4.2126Y-3.8386
X4.2126Y-3.8976
X4.2126Y-3.9567
X4.2126Y-4.0157
T3
X1.2661Y-0.9063
X1.2661Y-1.0063
X1.2661Y-1.1063
X1.2661Y-1.2063
X1.3661Y-0.9063
X1.3661Y-1.0063
X1.3661Y-1.1063
X1.3661Y-1.2063
X1.4661Y-0.9063
X1.4661Y-1.0063
X1.4661Y-1.1063
X1.4661Y-1.2063
X1.5661Y-0.9063
X1.5661Y-1.0063
X1.5661Y-1.1063
X1.5661Y-1.2063
X1.6661Y-0.9063
X1.6661Y-1.0063
X1.6661Y-1.1063
X1.6661Y-1.2063
X1.7661Y-0.9063
X1.7661Y-1.0063
X1.7661Y-1.1063
X1.7661Y-1.2063
X1.8661Y-0.9063
X1.8661Y-1.0063
X1.8661Y-1.1063
X1.8661Y-1.2063
X1.9661Y-0.9063
X1.9661Y-1.0063
X1.9661Y-1.1063
X1.9661Y-1.2063
X2.0661Y-0.9063
X2.0661Y-1.0063
X2.0661Y-1.1063
X2.0661Y-1.2063
X2.1661Y-0.9063
X2.1661Y-1.0063
X2.1661Y-1.1063
X2.1661Y-1.2063
X2.2661Y-0.9063
X2.2661Y-1.0063
X2.2661Y-1.1063
X2.2661Y-1.2063
X2.3661Y-0.9063
X2.3661Y-1.0063
X2.3661Y-1.1063
X2.3661Y-1.2063
X2.4661Y-0.9063
X2.4661Y-1.0063
X2.4661Y-1.1063
X2.4661Y-1.2063
X2.5661Y-0.9063
X2.5661Y-1.0063
X2.5661Y-1.1063
X2.5661Y-1.2063
X2.6661Y-0.9063
X2.6661Y-1.0063
X2.6661Y-1.1063
X2.6661Y-1.2063
X2.7661Y-0.9063
X2.7661Y-1.0063
X2.7661Y-1.1063
X2.7661Y-1.2063
X2.8661Y-0.9063
X2.8661Y-1.0063
X2.8661Y-1.1063
X2.8661Y-1.2063
X2.9661Y-0.9063
X2.9661Y-1.0063
X2.9661Y-1.1063
X2.9661Y-1.2063
X3.0661Y-0.9063
X3.0661Y-1.0063
X3.0661Y-1.1063
X3.0661Y-1.2063
X3.1661Y-0.9063
X3.1661Y-1.0063
X3.1661Y-1.1063
X3.1661Y-1.2063
X3.2661Y-0.9063
X3.2661Y-1.0063
X3.2661Y-1.1063
X3.2661Y-1.2063
X3.3661Y-0.9063
X3.3661Y-1.0063
X3.3661Y-1.1063
X3.3661Y-1.2063
X3.4661Y-0.9063
X3.4661Y-1.0063
X3.4661Y-1.1063
X3.4661Y-1.2063
X3.5661Y-0.9063
X3.5661Y-1.0063
X3.5661Y-1.1063
X3.5661Y-1.2063
X3.6661Y-0.9063
X3.6661Y-1.0063
X3.6661Y-1.1063
X3.6661Y-1.2063
X3.7661Y-0.9063
X3.7661Y-1.0063
X3.7661Y-1.1063
X3.7661Y-1.2063
T4
X3.4307Y-3.7858
X3.4307Y-3.9858
X3.5307Y-3.8858
X3.6307Y-3.7858
X3.6307Y-3.9858
T5
X0.9146Y-4.2844
X1.0646Y-0.9094
X3.9646Y-0.9094
X4.0646Y-4.2844
T2
G00X3.9469Y-3.0591
M15
G01X3.9902Y-3.0591
M16
G05
G00X3.9469Y-3.3992
M15
G01X3.9902Y-3.3992
M16
G05
G00X4.1173Y-3.0591
M15
G01X4.1488Y-3.0591
M16
G05
G00X4.1173Y-3.3992
M15
G01X4.1488Y-3.3992
M16
G05
M30
