%TF.GenerationSoftware,KiCad,Pcbnew,8.0.7-8.0.7-0~ubuntu22.04.1*%
%TF.CreationDate,2024-12-14T16:55:50+01:00*%
%TF.ProjectId,mini_module_template,6d696e69-5f6d-46f6-9475-6c655f74656d,rev?*%
%TF.SameCoordinates,Original*%
%TF.FileFunction,Copper,L4,Bot*%
%TF.FilePolarity,Positive*%
%FSLAX46Y46*%
G04 Gerber Fmt 4.6, Leading zero omitted, Abs format (unit mm)*
G04 Created by KiCad (PCBNEW 8.0.7-8.0.7-0~ubuntu22.04.1) date 2024-12-14 16:55:50*
%MOMM*%
%LPD*%
G01*
G04 APERTURE LIST*
G04 Aperture macros list*
%AMRoundRect*
0 Rectangle with rounded corners*
0 $1 Rounding radius*
0 $2 $3 $4 $5 $6 $7 $8 $9 X,Y pos of 4 corners*
0 Add a 4 corners polygon primitive as box body*
4,1,4,$2,$3,$4,$5,$6,$7,$8,$9,$2,$3,0*
0 Add four circle primitives for the rounded corners*
1,1,$1+$1,$2,$3*
1,1,$1+$1,$4,$5*
1,1,$1+$1,$6,$7*
1,1,$1+$1,$8,$9*
0 Add four rect primitives between the rounded corners*
20,1,$1+$1,$2,$3,$4,$5,0*
20,1,$1+$1,$4,$5,$6,$7,0*
20,1,$1+$1,$6,$7,$8,$9,0*
20,1,$1+$1,$8,$9,$2,$3,0*%
G04 Aperture macros list end*
%TA.AperFunction,ComponentPad*%
%ADD10R,2.000000X0.900000*%
%TD*%
%TA.AperFunction,ComponentPad*%
%ADD11RoundRect,1.025000X-1.025000X1.025000X-1.025000X-1.025000X1.025000X-1.025000X1.025000X1.025000X0*%
%TD*%
%TA.AperFunction,ComponentPad*%
%ADD12C,4.100000*%
%TD*%
%TA.AperFunction,ComponentPad*%
%ADD13R,1.600000X1.600000*%
%TD*%
%TA.AperFunction,ComponentPad*%
%ADD14O,1.600000X1.600000*%
%TD*%
%TA.AperFunction,ComponentPad*%
%ADD15R,1.500000X1.500000*%
%TD*%
%TA.AperFunction,ComponentPad*%
%ADD16C,1.500000*%
%TD*%
%TA.AperFunction,ComponentPad*%
%ADD17C,2.300000*%
%TD*%
%TA.AperFunction,ComponentPad*%
%ADD18C,2.100000*%
%TD*%
%TA.AperFunction,ComponentPad*%
%ADD19C,1.750000*%
%TD*%
%TA.AperFunction,ComponentPad*%
%ADD20O,2.100000X1.000000*%
%TD*%
%TA.AperFunction,ComponentPad*%
%ADD21O,1.800000X1.000000*%
%TD*%
%TA.AperFunction,ComponentPad*%
%ADD22RoundRect,1.025000X1.025000X-1.025000X1.025000X1.025000X-1.025000X1.025000X-1.025000X-1.025000X0*%
%TD*%
%TA.AperFunction,ComponentPad*%
%ADD23R,1.700000X1.700000*%
%TD*%
%TA.AperFunction,ComponentPad*%
%ADD24O,1.700000X1.700000*%
%TD*%
%TA.AperFunction,ViaPad*%
%ADD25C,0.550000*%
%TD*%
%TA.AperFunction,ViaPad*%
%ADD26C,0.600000*%
%TD*%
%TA.AperFunction,ViaPad*%
%ADD27C,0.650000*%
%TD*%
%TA.AperFunction,Conductor*%
%ADD28C,0.300000*%
%TD*%
%TA.AperFunction,Conductor*%
%ADD29C,0.254000*%
%TD*%
%TA.AperFunction,Conductor*%
%ADD30C,1.270000*%
%TD*%
%TA.AperFunction,Conductor*%
%ADD31C,0.750000*%
%TD*%
%TA.AperFunction,Conductor*%
%ADD32C,0.508000*%
%TD*%
%TA.AperFunction,Conductor*%
%ADD33C,0.200000*%
%TD*%
G04 APERTURE END LIST*
D10*
%TO.P,J2,*%
%TO.N,*%
X169150000Y-97950000D03*
X169150000Y-111450000D03*
D11*
%TO.P,J2,1,Pin_1*%
%TO.N,GND*%
X163150000Y-101100000D03*
D12*
%TO.P,J2,2,Pin_2*%
%TO.N,VCC*%
X163150000Y-108300000D03*
%TD*%
D13*
%TO.P,SW5,1*%
%TO.N,Net-(R24-Pad2)*%
X88770000Y-63010000D03*
D14*
%TO.P,SW5,2*%
%TO.N,Net-(R39-Pad2)*%
X88770000Y-65550000D03*
%TO.P,SW5,3*%
%TO.N,/CAN/CAN2-*%
X96390000Y-65550000D03*
%TO.P,SW5,4*%
%TO.N,/CAN/CAN1+*%
X96390000Y-63010000D03*
%TD*%
D15*
%TO.P,J8,1*%
%TO.N,/CAN/CAN1-*%
X88519999Y-90116000D03*
D16*
%TO.P,J8,2*%
%TO.N,/CAN/CAN1+*%
X90300000Y-89100000D03*
%TO.P,J8,3*%
%TO.N,GND*%
X88519999Y-88084000D03*
%TO.P,J8,4*%
%TO.N,/CAN/CAN2-*%
X90300000Y-87068000D03*
%TO.P,J8,5*%
%TO.N,/CAN/CAN2+*%
X88519999Y-86052000D03*
%TO.P,J8,6*%
%TO.N,+12V*%
X90300000Y-85036000D03*
%TO.P,J8,7*%
%TO.N,/CAN/USB_DOWNSTREAM_D-*%
X88519999Y-84020000D03*
%TO.P,J8,8*%
%TO.N,/CAN/USB_DOWNSTREAM_D+*%
X90299999Y-83004001D03*
%TO.P,J8,9*%
%TO.N,GND*%
X95119999Y-93416000D03*
%TO.P,J8,10*%
%TO.N,Net-(J8-Pad10)*%
X95119999Y-91126000D03*
%TO.P,J8,11*%
%TO.N,GND*%
X95119999Y-81986000D03*
%TO.P,J8,12*%
%TO.N,Net-(J8-Pad12)*%
X95119999Y-79696000D03*
D17*
%TO.P,J8,SH*%
%TO.N,Net-(C45-Pad1)*%
X89409999Y-94686000D03*
X89409999Y-78426000D03*
%TD*%
D18*
%TO.P,SW2,*%
%TO.N,*%
X85300000Y-75400000D03*
X85300000Y-68390000D03*
D19*
%TO.P,SW2,1,1*%
%TO.N,GND*%
X82810000Y-74150000D03*
%TO.P,SW2,2,2*%
%TO.N,/MCU/NRST*%
X82810000Y-69650000D03*
%TD*%
D15*
%TO.P,J7,1*%
%TO.N,/CAN/CAN1-*%
X171460000Y-83050000D03*
D16*
%TO.P,J7,2*%
%TO.N,/CAN/CAN1+*%
X169679999Y-84066000D03*
%TO.P,J7,3*%
%TO.N,GND*%
X171460000Y-85082000D03*
%TO.P,J7,4*%
%TO.N,/CAN/CAN2-*%
X169679999Y-86098000D03*
%TO.P,J7,5*%
%TO.N,/CAN/CAN2+*%
X171460000Y-87114000D03*
%TO.P,J7,6*%
%TO.N,+12V*%
X169679999Y-88130000D03*
%TO.P,J7,7*%
%TO.N,/CAN/USB_UPSTREAM_D-*%
X171460000Y-89146000D03*
%TO.P,J7,8*%
%TO.N,/CAN/USB_UPSTREAM_D+*%
X169680000Y-90161999D03*
%TO.P,J7,9*%
%TO.N,GND*%
X164860000Y-79750000D03*
%TO.P,J7,10*%
%TO.N,Net-(J7-Pad10)*%
X164860000Y-82040000D03*
%TO.P,J7,11*%
%TO.N,GND*%
X164860000Y-91180000D03*
%TO.P,J7,12*%
%TO.N,Net-(J7-Pad12)*%
X164860000Y-93470000D03*
D17*
%TO.P,J7,SH*%
%TO.N,Net-(C44-Pad1)*%
X170570000Y-78480000D03*
X170570000Y-94740000D03*
%TD*%
D20*
%TO.P,J4,S1,SHIELD*%
%TO.N,Net-(J4-SHIELD)*%
X172710000Y-75720000D03*
D21*
X176910000Y-75720000D03*
D20*
X172710000Y-67080000D03*
D21*
X176910000Y-67080000D03*
%TD*%
D10*
%TO.P,J6,*%
%TO.N,*%
X90900000Y-111400000D03*
X90900000Y-97900000D03*
D22*
%TO.P,J6,1,Pin_1*%
%TO.N,GND*%
X96900000Y-108250000D03*
D12*
%TO.P,J6,2,Pin_2*%
%TO.N,VCC*%
X96900000Y-101050000D03*
%TD*%
D23*
%TO.P,J1,1,Pin_1*%
%TO.N,+3V3*%
X124379999Y-62000000D03*
D24*
%TO.P,J1,2,Pin_2*%
%TO.N,/MCU/NRST*%
X121839999Y-62000000D03*
%TO.P,J1,3,Pin_3*%
%TO.N,/MCU/SWDIO*%
X119300000Y-62000000D03*
%TO.P,J1,4,Pin_4*%
%TO.N,/MCU/SWCLK*%
X116759999Y-62000000D03*
%TO.P,J1,5,Pin_5*%
%TO.N,GND*%
X114219999Y-62000000D03*
%TD*%
D25*
%TO.N,GND*%
X115709999Y-101200001D03*
X94610000Y-72550000D03*
X107010000Y-107350001D03*
X107759999Y-105100001D03*
X104100000Y-85600000D03*
X129560000Y-66900000D03*
X167430000Y-68070000D03*
X107049999Y-108850001D03*
X99400000Y-73130000D03*
X114009999Y-99700001D03*
X98140000Y-75390000D03*
D26*
X166550000Y-63900000D03*
D25*
X136300000Y-64400000D03*
X107759999Y-102850001D03*
X112344999Y-100438001D03*
X166100000Y-82110000D03*
X107010000Y-108100001D03*
X126798001Y-72253356D03*
X123947000Y-72093000D03*
X148400000Y-70825000D03*
X107759999Y-106600001D03*
X169735000Y-68998000D03*
D26*
X157689998Y-70439998D03*
D25*
X133440000Y-67280000D03*
D27*
X166517500Y-71400000D03*
D25*
X171430000Y-62770000D03*
X141480000Y-63625000D03*
X124300000Y-66598000D03*
X106259999Y-108100002D03*
X114909999Y-101200001D03*
X100800000Y-85300000D03*
X107009999Y-105850001D03*
D27*
X166200000Y-73200000D03*
D25*
X111509999Y-99600001D03*
X131200000Y-75320000D03*
X128740000Y-62520000D03*
X107010000Y-77320000D03*
X106259999Y-105100001D03*
X167700000Y-73100000D03*
X98640000Y-71110000D03*
X114500000Y-67600000D03*
X127980000Y-62520000D03*
X110709999Y-99600001D03*
X114009999Y-101200001D03*
D26*
X168250000Y-61700000D03*
D25*
X113700000Y-67600000D03*
D26*
X146100000Y-67700000D03*
D25*
X96500000Y-95820000D03*
X114909999Y-99700001D03*
X112690000Y-73000000D03*
X107009999Y-104350001D03*
X148200000Y-68925000D03*
X115200000Y-67600000D03*
X107759999Y-105850001D03*
X120100000Y-69500000D03*
X101854949Y-82657716D03*
D27*
X107300000Y-90500000D03*
D25*
X99130000Y-76850000D03*
X106259999Y-102821367D03*
X111509999Y-101200001D03*
X145600000Y-69800000D03*
X161470000Y-68806826D03*
X100841441Y-79178023D03*
D26*
X144579600Y-67912800D03*
X132300000Y-69410000D03*
D25*
X107009999Y-105100001D03*
D27*
X170700000Y-74100000D03*
D25*
X102900000Y-79170000D03*
X104615077Y-86905026D03*
X148300000Y-73200000D03*
X107009999Y-102850001D03*
D26*
X137400000Y-68200000D03*
D25*
X120800000Y-72000000D03*
X106924321Y-84796000D03*
X134750000Y-75500000D03*
X106259999Y-106601186D03*
X96500000Y-92840000D03*
X127000000Y-68400000D03*
X110009999Y-99600000D03*
X157570000Y-68119999D03*
D27*
X170200000Y-67400000D03*
D25*
X171430000Y-64290000D03*
X120900000Y-79660000D03*
X107759999Y-104350001D03*
X106259999Y-104350001D03*
X164820000Y-66610000D03*
X101200000Y-88000000D03*
X110009999Y-101200001D03*
D26*
X162000000Y-63000000D03*
D25*
X167420000Y-66640000D03*
X113084558Y-99700002D03*
D26*
X160200000Y-76700000D03*
D25*
X99970000Y-64420000D03*
X110709999Y-101200001D03*
D26*
X150800000Y-60800000D03*
X146370000Y-66720000D03*
D25*
X107010000Y-106600001D03*
X163200000Y-80400000D03*
X117110000Y-78960000D03*
X143900000Y-60775000D03*
X109670000Y-62894997D03*
X106260000Y-103573891D03*
X107009999Y-103600001D03*
X113009999Y-101200001D03*
X106260000Y-107350001D03*
X106249999Y-108850002D03*
X111200000Y-62894997D03*
X106259999Y-105852962D03*
X110360000Y-62894997D03*
X107759999Y-103600001D03*
X115710000Y-99700001D03*
X112670000Y-83440000D03*
X162800000Y-70100000D03*
%TO.N,/MCU/NRST*%
X106500000Y-86400000D03*
X124804652Y-75195348D03*
%TO.N,+5V*%
X100530000Y-105810000D03*
X98150000Y-70540000D03*
X150370000Y-74520000D03*
X149690000Y-75170000D03*
X100530000Y-100910000D03*
X100520000Y-100120000D03*
X151270000Y-74400000D03*
X164550000Y-72700000D03*
X98000000Y-74505000D03*
X100530000Y-102460000D03*
X163800000Y-72700000D03*
X149160000Y-75710000D03*
X100530000Y-104180000D03*
X148575000Y-76285000D03*
X100530000Y-101640000D03*
X152260000Y-74400000D03*
X145740000Y-61170000D03*
X100530000Y-103310000D03*
X164920000Y-68180000D03*
X100530000Y-104970000D03*
X100530000Y-99240000D03*
X111209999Y-93900001D03*
X95345000Y-88445000D03*
X95345000Y-87480000D03*
X101809998Y-96900001D03*
X100530000Y-98380000D03*
X94350000Y-77950000D03*
X162950000Y-72700000D03*
%TO.N,+3V3*%
X119250001Y-108200000D03*
X118450000Y-108210001D03*
X120000000Y-107450000D03*
X137370000Y-67310000D03*
X129970000Y-62860000D03*
X120000000Y-111950000D03*
X132230000Y-68180000D03*
X119250001Y-108950000D03*
X117750000Y-109700000D03*
X132520000Y-67280000D03*
X126400000Y-66598000D03*
X119200001Y-111200000D03*
X118450000Y-109710000D03*
X117750000Y-110450000D03*
X156770000Y-68119999D03*
X118450000Y-108960001D03*
X117750000Y-111950000D03*
X132800000Y-71975000D03*
X149770000Y-60825000D03*
X91870000Y-68030000D03*
D26*
X98100000Y-65200000D03*
D25*
X119250001Y-109700000D03*
X128500000Y-75300000D03*
X120000000Y-111200000D03*
X117750000Y-107450000D03*
X120000000Y-109700000D03*
X117750000Y-111154002D03*
X126800000Y-75400000D03*
X120000000Y-108950000D03*
X103800000Y-69200000D03*
X93000190Y-73404543D03*
X118450000Y-111960000D03*
X117750000Y-108950000D03*
X116600000Y-68110000D03*
D26*
X144770000Y-64375000D03*
D25*
X105180763Y-86339340D03*
X118200000Y-68110000D03*
X119250001Y-107450000D03*
X120000000Y-110450000D03*
X138262500Y-74687500D03*
X119250000Y-111950000D03*
X118450000Y-111164003D03*
X120000000Y-108200000D03*
X118450000Y-110460000D03*
X108200000Y-67624997D03*
X117400000Y-68110000D03*
X117750000Y-108200000D03*
X119250000Y-110450000D03*
X118450000Y-107460001D03*
X119100000Y-68110000D03*
%TO.N,/USB/USB_CONN_D-*%
X170735000Y-71048000D03*
X170735000Y-72252000D03*
%TO.N,/MCU/USR_LED1*%
X106590000Y-67609999D03*
%TO.N,/MCU/USR_LED2*%
X101620000Y-76780000D03*
X104880000Y-67569999D03*
D26*
%TO.N,/USB/USB_PROT_D-*%
X159243114Y-71427170D03*
D25*
X160776587Y-67326587D03*
%TO.N,/USB/USB_PROT_D+*%
X161511768Y-67474942D03*
D26*
X159192074Y-72225542D03*
D25*
%TO.N,Net-(C45-Pad1)*%
X96200000Y-94800000D03*
D27*
%TO.N,VCC*%
X101000000Y-116700000D03*
X107500000Y-115000000D03*
X104900000Y-115000000D03*
X102700000Y-116700000D03*
X105700000Y-115000000D03*
X106600000Y-115900000D03*
X102700000Y-115800000D03*
X104900000Y-114100000D03*
X107500000Y-114100000D03*
X106600000Y-114100000D03*
X105700000Y-115900000D03*
X107500000Y-115900000D03*
X106600000Y-115000000D03*
X104900000Y-115900000D03*
X101800000Y-115800000D03*
X105700000Y-113200000D03*
X105700000Y-114100000D03*
X106600000Y-116700000D03*
X103600000Y-115800000D03*
X107500000Y-116700000D03*
X104900000Y-113200000D03*
X107500000Y-113200000D03*
X101800000Y-116700000D03*
X101000000Y-115800000D03*
X104900000Y-116700000D03*
X103600000Y-116700000D03*
X105700000Y-116700000D03*
X106600000Y-113200000D03*
D26*
%TO.N,/STLINK/USB_D+*%
X147193541Y-67303432D03*
X143614400Y-68268400D03*
D25*
%TO.N,/MCU/USB_D+*%
X120800000Y-70300000D03*
X146700000Y-70100000D03*
%TO.N,/MCU/USB_D-*%
X147526711Y-69550000D03*
X120593958Y-71021146D03*
%TO.N,/MCU/SWCLK*%
X121998000Y-69200000D03*
X109085000Y-68185000D03*
D26*
%TO.N,/STLINK/USB_D-*%
X147900000Y-66928038D03*
X143507705Y-69425872D03*
D25*
%TO.N,/CAN/CAN1-*%
X166700000Y-80850000D03*
D26*
X93066404Y-78595363D03*
X91010000Y-74550000D03*
D25*
%TO.N,/POWER/5V_COIL*%
X109000000Y-102560001D03*
X108999999Y-98305001D03*
%TO.N,/USB/VBUS*%
X167755000Y-71470000D03*
D26*
X167300000Y-69200000D03*
D25*
X170955000Y-69048000D03*
D26*
%TO.N,/USB/USB_UPSTREAM_D-*%
X160655228Y-65964132D03*
X162258333Y-64915000D03*
X160269479Y-64620521D03*
%TO.N,/USB/USB_UPSTREAM_D+*%
X160870521Y-64019479D03*
X162258333Y-64065000D03*
X161454013Y-65920000D03*
%TO.N,/CAN/CAN1+*%
X92430006Y-77958965D03*
X91720000Y-75200000D03*
D25*
X165800000Y-80850000D03*
D26*
%TO.N,/CAN/CAN2+*%
X91217377Y-70589602D03*
%TO.N,/CAN/CAN2-*%
X91257628Y-69712839D03*
D25*
%TO.N,/CAN/USB_UPSTREAM_D-*%
X161149997Y-70300000D03*
%TO.N,/CAN/USB_UPSTREAM_D+*%
X161900000Y-70300000D03*
%TO.N,/CAN/USB_DOWNSTREAM_D-*%
X148400000Y-71575000D03*
%TO.N,/CAN/USB_DOWNSTREAM_D+*%
X148400000Y-72425000D03*
%TO.N,/CAN/RXD2_LED*%
X100700000Y-78400000D03*
X118600000Y-71326472D03*
%TO.N,/CAN/TXD2_LED*%
X100700000Y-77649997D03*
X117701472Y-70701472D03*
%TO.N,/MCU/I2C3_SDA*%
X119200000Y-72798000D03*
X105000000Y-70722499D03*
%TO.N,/MCU/I2C3_SCL*%
X105800000Y-70700000D03*
X119093636Y-72055578D03*
%TD*%
D28*
%TO.N,/MCU/USR_LED2*%
X103625000Y-70465000D02*
X104660000Y-69430000D01*
X103625000Y-74775000D02*
X103625000Y-70465000D01*
X101620000Y-76780000D02*
X103625000Y-74775000D01*
D29*
%TO.N,/MCU/NRST*%
X106650643Y-85398000D02*
X106298000Y-85750643D01*
X107202000Y-85398000D02*
X106650643Y-85398000D01*
X124804652Y-75195348D02*
X124700000Y-75300000D01*
X106298000Y-85750643D02*
X106298000Y-86298000D01*
X124700000Y-75300000D02*
X117300000Y-75300000D01*
X117300000Y-75300000D02*
X107202000Y-85398000D01*
X106400000Y-86400000D02*
X106500000Y-86400000D01*
X106298000Y-86298000D02*
X106400000Y-86400000D01*
D30*
%TO.N,+12V*%
X92290000Y-94980000D02*
X90655000Y-96615000D01*
X172480000Y-104830000D02*
X167070000Y-99420000D01*
X92270000Y-89268291D02*
X92290000Y-89288291D01*
X90300000Y-85036000D02*
X91776000Y-85036000D01*
X172480000Y-117620000D02*
X172480000Y-104830000D01*
X167070000Y-90530470D02*
X169470470Y-88130000D01*
X171235000Y-118865000D02*
X172480000Y-117620000D01*
X92270000Y-85530000D02*
X92270000Y-89268291D01*
X87000000Y-98410000D02*
X87000000Y-116110000D01*
X89755000Y-118865000D02*
X171235000Y-118865000D01*
X91776000Y-85036000D02*
X92270000Y-85530000D01*
X87000000Y-116110000D02*
X89755000Y-118865000D01*
X90655000Y-96615000D02*
X88795000Y-96615000D01*
X167070000Y-99420000D02*
X167070000Y-90530470D01*
X88795000Y-96615000D02*
X87000000Y-98410000D01*
X92290000Y-89288291D02*
X92290000Y-94980000D01*
X169470470Y-88130000D02*
X169679999Y-88130000D01*
D31*
%TO.N,+5V*%
X150340000Y-74520000D02*
X148575000Y-76285000D01*
X100530000Y-102460000D02*
X100530000Y-103310000D01*
X165900000Y-65600000D02*
X165900000Y-67200000D01*
X100530000Y-101640000D02*
X100530000Y-102460000D01*
D32*
X95345000Y-88445000D02*
X100530000Y-93630000D01*
D31*
X145740000Y-61170000D02*
X146245000Y-61675000D01*
X117900000Y-76350000D02*
X100530000Y-93720000D01*
X164550000Y-72700000D02*
X162950000Y-72700000D01*
D32*
X98150000Y-70540000D02*
X97911000Y-70779000D01*
D31*
X100530000Y-104970000D02*
X100530000Y-105810000D01*
D28*
X102909999Y-95800001D02*
X109309999Y-95800001D01*
D31*
X148510000Y-76350000D02*
X117900000Y-76350000D01*
X165900000Y-67200000D02*
X164920000Y-68180000D01*
X164550000Y-72700000D02*
X164920000Y-72330000D01*
D28*
X101809998Y-96900001D02*
X102909999Y-95800001D01*
D31*
X100530000Y-93720000D02*
X100530000Y-101640000D01*
D32*
X100530000Y-93630000D02*
X100530000Y-93720000D01*
D31*
X100530000Y-104180000D02*
X100530000Y-104970000D01*
X100530000Y-105810000D02*
X100530000Y-105910000D01*
D32*
X95345000Y-88445000D02*
X95345000Y-87480000D01*
D28*
X109309999Y-95800001D02*
X111209999Y-93900001D01*
D31*
X150370000Y-74520000D02*
X150340000Y-74520000D01*
D32*
X94350000Y-77950000D02*
X97795000Y-74505000D01*
X97911000Y-74416000D02*
X98000000Y-74505000D01*
X97911000Y-70779000D02*
X97911000Y-74416000D01*
D31*
X150370000Y-74520000D02*
X150490000Y-74400000D01*
X150490000Y-74400000D02*
X152260000Y-74400000D01*
X100530000Y-103310000D02*
X100530000Y-104180000D01*
X146245000Y-61675000D02*
X161975000Y-61675000D01*
X161975000Y-61675000D02*
X165900000Y-65600000D01*
X148575000Y-76285000D02*
X148510000Y-76350000D01*
X164920000Y-72330000D02*
X164920000Y-68180000D01*
D32*
X97795000Y-74505000D02*
X98000000Y-74505000D01*
D29*
%TO.N,/USB/USB_CONN_D-*%
X170335000Y-71852000D02*
X170335000Y-71448000D01*
X170335000Y-71448000D02*
X170735000Y-71048000D01*
X170735000Y-72252000D02*
X170335000Y-71852000D01*
D28*
%TO.N,/MCU/USR_LED2*%
X104365000Y-69725000D02*
X104880000Y-69210000D01*
X104880000Y-69210000D02*
X104880000Y-67569999D01*
D33*
%TO.N,/USB/USB_PROT_D-*%
X159900000Y-71620000D02*
X159970000Y-71550000D01*
X159435944Y-71620000D02*
X159900000Y-71620000D01*
X159243114Y-71427170D02*
X159435944Y-71620000D01*
X160870000Y-68027967D02*
X160870000Y-67420000D01*
X159970000Y-68927967D02*
X160870000Y-68027967D01*
X160870000Y-67420000D02*
X160776587Y-67326587D01*
X159970000Y-71550000D02*
X159970000Y-68927967D01*
%TO.N,/USB/USB_PROT_D+*%
X161270000Y-67716710D02*
X161511768Y-67474942D01*
X161270000Y-68193653D02*
X161270000Y-67716710D01*
X159347616Y-72070000D02*
X160070000Y-72070000D01*
X160070000Y-72070000D02*
X160370000Y-71770000D01*
X159192074Y-72225542D02*
X159347616Y-72070000D01*
X160370000Y-71770000D02*
X160370000Y-69093653D01*
X160370000Y-69093653D02*
X161270000Y-68193653D01*
D28*
%TO.N,Net-(C45-Pad1)*%
X96086000Y-94686000D02*
X96200000Y-94800000D01*
D29*
%TO.N,/STLINK/USB_D+*%
X146749000Y-68646000D02*
X143992000Y-68646000D01*
X147193541Y-67303432D02*
X147193541Y-68201459D01*
X147193541Y-68201459D02*
X146749000Y-68646000D01*
X143992000Y-68646000D02*
X143614400Y-68268400D01*
%TO.N,/MCU/SWDIO*%
X119600000Y-62300000D02*
X119300000Y-62000000D01*
X119600000Y-62000000D02*
X119300000Y-62000000D01*
D28*
%TO.N,/MCU/USB_D+*%
X121200000Y-70700000D02*
X146100000Y-70700000D01*
X120800000Y-70300000D02*
X121200000Y-70700000D01*
X146100000Y-70700000D02*
X146700000Y-70100000D01*
%TO.N,/MCU/USB_D-*%
X120772812Y-71200000D02*
X146800000Y-71200000D01*
X146800000Y-71200000D02*
X147526711Y-70473289D01*
X147526711Y-70473289D02*
X147526711Y-69550000D01*
X120593958Y-71021146D02*
X120772812Y-71200000D01*
D29*
%TO.N,/MCU/SWCLK*%
X116759999Y-62580001D02*
X116720000Y-62620000D01*
X121998000Y-69200000D02*
X121598000Y-68800000D01*
X116759999Y-62000000D02*
X116759999Y-62580001D01*
X121598000Y-68800000D02*
X109700000Y-68800000D01*
X109700000Y-68800000D02*
X109085000Y-68185000D01*
%TO.N,/STLINK/USB_D-*%
X147870000Y-66958038D02*
X147870000Y-68320000D01*
X147090000Y-69100000D02*
X143833577Y-69100000D01*
X147900000Y-66928038D02*
X147870000Y-66958038D01*
X147870000Y-68320000D02*
X147090000Y-69100000D01*
X143833577Y-69100000D02*
X143507705Y-69425872D01*
D31*
%TO.N,Net-(J4-SHIELD)*%
X176910000Y-75720000D02*
X172710000Y-75720000D01*
X176910000Y-67080000D02*
X176910000Y-75720000D01*
X172710000Y-67267988D02*
X176910000Y-67267988D01*
D28*
%TO.N,/CAN/CAN1-*%
X103555734Y-65300000D02*
X150300000Y-65300000D01*
X91000000Y-77714266D02*
X91000000Y-74560000D01*
X93695734Y-71340000D02*
X96035734Y-69000000D01*
X166550001Y-78455735D02*
X166550001Y-80700001D01*
X91120000Y-74440000D02*
X91120000Y-73045734D01*
X166550001Y-80700001D02*
X166700000Y-80850000D01*
X150300000Y-65300000D02*
X152900000Y-67900000D01*
X159350000Y-77550000D02*
X165644266Y-77550000D01*
X152900000Y-67900000D02*
X152900000Y-71100000D01*
X92160767Y-78608965D02*
X92147165Y-78595363D01*
X93066404Y-78595363D02*
X92712847Y-78595363D01*
X92147165Y-78595363D02*
X91881097Y-78595363D01*
X91881097Y-78595363D02*
X91000000Y-77714266D01*
X165644266Y-77550000D02*
X166550001Y-78455735D01*
X99855734Y-69000000D02*
X103555734Y-65300000D01*
X91000000Y-74560000D02*
X91010000Y-74550000D01*
X152900000Y-71100000D02*
X159350000Y-77550000D01*
X92699245Y-78608965D02*
X92160767Y-78608965D01*
X92825734Y-71340000D02*
X93695734Y-71340000D01*
X91010000Y-74550000D02*
X91120000Y-74440000D01*
X91120000Y-73045734D02*
X92825734Y-71340000D01*
X96035734Y-69000000D02*
X99855734Y-69000000D01*
X92712847Y-78595363D02*
X92699245Y-78608965D01*
%TO.N,/POWER/5V_COIL*%
X108999999Y-98305001D02*
X109000000Y-98305002D01*
X109000000Y-98305002D02*
X109000000Y-102560001D01*
D29*
%TO.N,/USB/VBUS*%
X168533000Y-71470000D02*
X170955000Y-69048000D01*
D28*
X167755000Y-69655000D02*
X167300000Y-69200000D01*
D29*
X167755000Y-71470000D02*
X168533000Y-71470000D01*
D28*
X167755000Y-71470000D02*
X167755000Y-69655000D01*
D33*
%TO.N,/USB/USB_UPSTREAM_D-*%
X160552322Y-64620521D02*
X160269479Y-64620521D01*
X160846801Y-64915000D02*
X160552322Y-64620521D01*
X162258333Y-64915000D02*
X160846801Y-64915000D01*
%TO.N,/USB/USB_UPSTREAM_D+*%
X161858334Y-64464999D02*
X161033198Y-64464999D01*
X161033198Y-64464999D02*
X160870521Y-64302322D01*
X160870521Y-64302322D02*
X160870521Y-64019479D01*
X162258333Y-64065000D02*
X161858334Y-64464999D01*
D28*
%TO.N,/CAN/CAN1+*%
X165949999Y-80700001D02*
X165800000Y-80850000D01*
X91730000Y-75210000D02*
X91720000Y-75200000D01*
X91730000Y-77595734D02*
X91730000Y-75210000D01*
X165949999Y-78704265D02*
X165949999Y-80700001D01*
X92430006Y-77958965D02*
X92393609Y-77995362D01*
X96284266Y-69600000D02*
X100104266Y-69600000D01*
X152300000Y-68100000D02*
X152300000Y-71300000D01*
X165395734Y-78150000D02*
X165949999Y-78704265D01*
X93944266Y-71940000D02*
X96284266Y-69600000D01*
X152300000Y-71300000D02*
X159150000Y-78150000D01*
X150100000Y-65900000D02*
X152300000Y-68100000D01*
X103804266Y-65900000D02*
X150100000Y-65900000D01*
X92393609Y-77995362D02*
X92129628Y-77995362D01*
X91720000Y-75200000D02*
X91720000Y-73294266D01*
X100104266Y-69600000D02*
X103804266Y-65900000D01*
X92129628Y-77995362D02*
X91730000Y-77595734D01*
X91720000Y-73294266D02*
X93074266Y-71940000D01*
X93074266Y-71940000D02*
X93944266Y-71940000D01*
X159150000Y-78150000D02*
X165395734Y-78150000D01*
%TO.N,/CAN/CAN2+*%
X167510000Y-77710000D02*
X167510000Y-86300000D01*
X88884517Y-70742589D02*
X91064390Y-70742589D01*
X144865734Y-62680000D02*
X145685734Y-63500000D01*
X167510000Y-86300000D02*
X168300000Y-87090000D01*
X88529876Y-76270124D02*
X88529876Y-71097230D01*
D29*
X87548000Y-86052000D02*
X88519999Y-86052000D01*
D28*
X82770000Y-79404266D02*
X84734266Y-77440000D01*
X82770000Y-84685734D02*
X82770000Y-79404266D01*
D29*
X87100000Y-86500000D02*
X87548000Y-86052000D01*
D28*
X91375883Y-70431096D02*
X92843170Y-70431096D01*
X102614266Y-64210000D02*
X134774266Y-64210000D01*
X84734266Y-77440000D02*
X87360000Y-77440000D01*
X88529876Y-71097230D02*
X88884517Y-70742589D01*
X155120000Y-70184266D02*
X161665734Y-76730000D01*
X166530000Y-76730000D02*
X167510000Y-77710000D01*
X155120000Y-65904266D02*
X155120000Y-70184266D01*
X84584266Y-86500000D02*
X82770000Y-84685734D01*
X87360000Y-77440000D02*
X88529876Y-76270124D01*
X92843170Y-70431096D02*
X95514266Y-67760000D01*
X91217377Y-70589602D02*
X91375883Y-70431096D01*
X91064390Y-70742589D02*
X91217377Y-70589602D01*
X99064266Y-67760000D02*
X102614266Y-64210000D01*
X95514266Y-67760000D02*
X99064266Y-67760000D01*
X136304266Y-62680000D02*
X144865734Y-62680000D01*
D29*
X168324000Y-87114000D02*
X168300000Y-87090000D01*
X171460000Y-87114000D02*
X168324000Y-87114000D01*
D28*
X161665734Y-76730000D02*
X166530000Y-76730000D01*
X145685734Y-63500000D02*
X152715734Y-63500000D01*
X152715734Y-63500000D02*
X155120000Y-65904266D01*
X87100000Y-86500000D02*
X84584266Y-86500000D01*
X134774266Y-64210000D02*
X136304266Y-62680000D01*
%TO.N,/CAN/CAN2-*%
X84295734Y-87060000D02*
X82170000Y-84934266D01*
X88029876Y-70890124D02*
X88677411Y-70242589D01*
X91257628Y-69712839D02*
X91375883Y-69831094D01*
X87209876Y-76800000D02*
X88029876Y-75980000D01*
X168080000Y-77380000D02*
X168080000Y-85940000D01*
X90568000Y-87068000D02*
X90300000Y-87068000D01*
X87209876Y-76810124D02*
X87209876Y-76800000D01*
X102365734Y-63610000D02*
X134525734Y-63610000D01*
X155720000Y-65655734D02*
X155720000Y-69935734D01*
X145934266Y-62900000D02*
X152964266Y-62900000D01*
X82170000Y-79155734D02*
X84445734Y-76880000D01*
X92594640Y-69831094D02*
X95265734Y-67160000D01*
X88029876Y-75980000D02*
X88029876Y-70890124D01*
X152964266Y-62900000D02*
X155720000Y-65655734D01*
D29*
X90300000Y-87068000D02*
X87118000Y-87068000D01*
X168558000Y-86098000D02*
X168550000Y-86090000D01*
D28*
X95265734Y-67160000D02*
X98815734Y-67160000D01*
X82170000Y-84934266D02*
X82170000Y-79155734D01*
X136055734Y-62080000D02*
X145114266Y-62080000D01*
X91375883Y-69831094D02*
X92594640Y-69831094D01*
X98815734Y-67160000D02*
X102365734Y-63610000D01*
X145114266Y-62080000D02*
X145934266Y-62900000D01*
X84445734Y-76880000D02*
X87140000Y-76880000D01*
X168080000Y-85940000D02*
X168230000Y-86090000D01*
X161914266Y-76130000D02*
X166830000Y-76130000D01*
X168230000Y-86090000D02*
X168550000Y-86090000D01*
X90567377Y-70242589D02*
X90948138Y-69861828D01*
X90948138Y-69861828D02*
X91108639Y-69861828D01*
D29*
X87118000Y-87068000D02*
X87110000Y-87060000D01*
D28*
X88677411Y-70242589D02*
X90567377Y-70242589D01*
D29*
X169679999Y-86098000D02*
X168558000Y-86098000D01*
D28*
X155720000Y-69935734D02*
X161914266Y-76130000D01*
X87140000Y-76880000D02*
X87209876Y-76810124D01*
X91108639Y-69861828D02*
X91257628Y-69712839D01*
X87110000Y-87060000D02*
X84295734Y-87060000D01*
X134525734Y-63610000D02*
X136055734Y-62080000D01*
X166830000Y-76130000D02*
X168080000Y-77380000D01*
%TO.N,/CAN/USB_UPSTREAM_D-*%
X177200000Y-88895734D02*
X177200000Y-79700000D01*
X161224998Y-70375001D02*
X161149997Y-70300000D01*
X171460000Y-89146000D02*
X171875998Y-89561998D01*
X163095000Y-75095000D02*
X161224998Y-73224998D01*
X171800000Y-77300000D02*
X169595000Y-75095000D01*
X176533736Y-89561998D02*
X176847867Y-89247867D01*
X177200000Y-79700000D02*
X174800000Y-77300000D01*
X174800000Y-77300000D02*
X171800000Y-77300000D01*
X161224998Y-73224998D02*
X161224998Y-70375001D01*
X171875998Y-89561998D02*
X176533736Y-89561998D01*
X176847867Y-89247867D02*
X177200000Y-88895734D01*
X169595000Y-75095000D02*
X163095000Y-75095000D01*
%TO.N,/CAN/USB_UPSTREAM_D+*%
X177800000Y-79500000D02*
X175100000Y-76800000D01*
X161824999Y-70375001D02*
X161900000Y-70300000D01*
X175100000Y-76800000D02*
X172037918Y-76800000D01*
X169732938Y-74495020D02*
X163202126Y-74495020D01*
X171885398Y-90173000D02*
X171896399Y-90161999D01*
X171034602Y-90173000D02*
X171885398Y-90173000D01*
X163202126Y-74495020D02*
X161824999Y-73117893D01*
X177800000Y-89144266D02*
X177800000Y-79500000D01*
X172037918Y-76800000D02*
X169732938Y-74495020D01*
X176782267Y-90161999D02*
X177800000Y-89144266D01*
X171023601Y-90161999D02*
X171034602Y-90173000D01*
X161824999Y-73117893D02*
X161824999Y-70375001D01*
X169680000Y-90161999D02*
X171023601Y-90161999D01*
X171896399Y-90161999D02*
X176782267Y-90161999D01*
%TO.N,/CAN/USB_DOWNSTREAM_D-*%
X116125734Y-73750000D02*
X126625734Y-73750000D01*
X88519999Y-84020000D02*
X88519999Y-82680001D01*
X126625734Y-73750000D02*
X127775734Y-72600000D01*
X127775734Y-72600000D02*
X146675734Y-72600000D01*
X90300000Y-80900000D02*
X92207106Y-80900000D01*
X146675734Y-72600000D02*
X147700734Y-71575000D01*
X147700734Y-71575000D02*
X148400000Y-71575000D01*
X92207106Y-80900000D02*
X95107106Y-83800000D01*
X88519999Y-82680001D02*
X90300000Y-80900000D01*
X95107106Y-83800000D02*
X106075734Y-83800000D01*
X106075734Y-83800000D02*
X116125734Y-73750000D01*
%TO.N,/CAN/USB_DOWNSTREAM_D+*%
X90600000Y-81600000D02*
X90000000Y-82200000D01*
X148400000Y-72425000D02*
X148275001Y-72300001D01*
X94900000Y-84400000D02*
X92100000Y-81600000D01*
X90000000Y-82704002D02*
X90299999Y-83004001D01*
X116374266Y-74350000D02*
X106324266Y-84400000D01*
X92100000Y-81600000D02*
X90600000Y-81600000D01*
X128024266Y-73200000D02*
X126874266Y-74350000D01*
X126874266Y-74350000D02*
X116374266Y-74350000D01*
X146924266Y-73200000D02*
X128024266Y-73200000D01*
X106324266Y-84400000D02*
X94900000Y-84400000D01*
X90000000Y-82200000D02*
X90000000Y-82704002D01*
X148275001Y-72300001D02*
X147824265Y-72300001D01*
X147824265Y-72300001D02*
X146924266Y-73200000D01*
%TO.N,/CAN/RXD2_LED*%
X100845000Y-78545000D02*
X100700000Y-78400000D01*
X118600000Y-71326472D02*
X116673528Y-71326472D01*
X116673528Y-71326472D02*
X109455000Y-78545000D01*
X109455000Y-78545000D02*
X100845000Y-78545000D01*
%TO.N,/CAN/TXD2_LED*%
X117701472Y-70701472D02*
X116498528Y-70701472D01*
X116498528Y-70701472D02*
X109200000Y-78000000D01*
X109200000Y-78000000D02*
X101183884Y-78000000D01*
X101183884Y-78000000D02*
X100833881Y-77649997D01*
X100833881Y-77649997D02*
X100700000Y-77649997D01*
D29*
%TO.N,/MCU/I2C3_SDA*%
X119900000Y-70657947D02*
X118742053Y-69500000D01*
X119200000Y-72798000D02*
X119202571Y-72798000D01*
X110700000Y-69500000D02*
X110600000Y-69500000D01*
X105000000Y-70500000D02*
X106000000Y-69500000D01*
X119202571Y-72798000D02*
X119900000Y-72100571D01*
X105000000Y-70722499D02*
X105000000Y-70500000D01*
X118742053Y-69500000D02*
X110700000Y-69500000D01*
X106000000Y-69500000D02*
X110700000Y-69500000D01*
X119900000Y-72100571D02*
X119900000Y-70657947D01*
%TO.N,/MCU/I2C3_SCL*%
X119096479Y-72055578D02*
X119093636Y-72055578D01*
X119400000Y-70800000D02*
X119400000Y-71752057D01*
X118600000Y-70000000D02*
X119400000Y-70800000D01*
X106500000Y-70000000D02*
X118600000Y-70000000D01*
X119400000Y-71752057D02*
X119096479Y-72055578D01*
X105800000Y-70700000D02*
X106500000Y-70000000D01*
%TD*%
%TA.AperFunction,Conductor*%
%TO.N,VCC*%
G36*
X99215807Y-98719685D02*
G01*
X99236292Y-98736162D01*
X99464783Y-98963836D01*
X99498378Y-99025099D01*
X99501258Y-99051230D01*
X99548924Y-112350002D01*
X99550000Y-112650000D01*
X130025000Y-112675000D01*
X160200000Y-112699754D01*
X160200000Y-112699753D01*
X160500000Y-112700000D01*
X160500000Y-110980247D01*
X167949500Y-110980247D01*
X167949500Y-111919752D01*
X167961131Y-111978229D01*
X167961132Y-111978230D01*
X168005447Y-112044552D01*
X168071769Y-112088867D01*
X168071770Y-112088868D01*
X168130247Y-112100499D01*
X168130250Y-112100500D01*
X168130252Y-112100500D01*
X170169750Y-112100500D01*
X170169751Y-112100499D01*
X170184568Y-112097552D01*
X170228229Y-112088868D01*
X170228229Y-112088867D01*
X170228231Y-112088867D01*
X170294552Y-112044552D01*
X170338867Y-111978231D01*
X170338867Y-111978229D01*
X170338868Y-111978229D01*
X170350499Y-111919752D01*
X170350500Y-111919750D01*
X170350500Y-110980249D01*
X170350499Y-110980247D01*
X170338868Y-110921770D01*
X170338867Y-110921769D01*
X170294552Y-110855447D01*
X170228230Y-110811132D01*
X170228229Y-110811131D01*
X170169752Y-110799500D01*
X170169748Y-110799500D01*
X168130252Y-110799500D01*
X168130247Y-110799500D01*
X168071770Y-110811131D01*
X168071769Y-110811132D01*
X168005447Y-110855447D01*
X167961132Y-110921769D01*
X167961131Y-110921770D01*
X167949500Y-110980247D01*
X160500000Y-110980247D01*
X160500000Y-106051362D01*
X160519685Y-105984323D01*
X160536319Y-105963681D01*
X160763681Y-105736319D01*
X160825004Y-105702834D01*
X160851362Y-105700000D01*
X171048638Y-105700000D01*
X171115677Y-105719685D01*
X171136319Y-105736319D01*
X171363681Y-105963681D01*
X171397166Y-106025004D01*
X171400000Y-106051362D01*
X171400000Y-117467062D01*
X171380315Y-117534101D01*
X171363681Y-117554743D01*
X170925243Y-117993181D01*
X170863920Y-118026666D01*
X170837562Y-118029500D01*
X90152437Y-118029500D01*
X90085398Y-118009815D01*
X90064756Y-117993181D01*
X88014345Y-115942769D01*
X87980860Y-115881446D01*
X87978029Y-115856020D01*
X87941270Y-110930247D01*
X89699500Y-110930247D01*
X89699500Y-111869752D01*
X89711131Y-111928229D01*
X89711132Y-111928230D01*
X89755447Y-111994552D01*
X89821769Y-112038867D01*
X89821770Y-112038868D01*
X89880247Y-112050499D01*
X89880250Y-112050500D01*
X89880252Y-112050500D01*
X91919750Y-112050500D01*
X91919751Y-112050499D01*
X91934568Y-112047552D01*
X91978229Y-112038868D01*
X91978229Y-112038867D01*
X91978231Y-112038867D01*
X92044552Y-111994552D01*
X92088867Y-111928231D01*
X92088867Y-111928229D01*
X92088868Y-111928229D01*
X92100499Y-111869752D01*
X92100500Y-111869750D01*
X92100500Y-110930249D01*
X92100499Y-110930247D01*
X92088868Y-110871770D01*
X92088867Y-110871769D01*
X92044552Y-110805447D01*
X91978230Y-110761132D01*
X91978229Y-110761131D01*
X91919752Y-110749500D01*
X91919748Y-110749500D01*
X89880252Y-110749500D01*
X89880247Y-110749500D01*
X89821770Y-110761131D01*
X89821769Y-110761132D01*
X89755447Y-110805447D01*
X89711132Y-110871769D01*
X89711131Y-110871770D01*
X89699500Y-110930247D01*
X87941270Y-110930247D01*
X87913149Y-107162061D01*
X94649500Y-107162061D01*
X94649500Y-109337924D01*
X94649501Y-109337939D01*
X94659696Y-109467484D01*
X94713596Y-109681395D01*
X94804826Y-109882243D01*
X94930449Y-110063568D01*
X95086431Y-110219550D01*
X95267756Y-110345173D01*
X95267757Y-110345173D01*
X95267761Y-110345176D01*
X95401875Y-110406093D01*
X95468604Y-110436403D01*
X95468605Y-110436403D01*
X95468607Y-110436404D01*
X95682515Y-110490304D01*
X95812067Y-110500500D01*
X97987932Y-110500499D01*
X98117485Y-110490304D01*
X98331393Y-110436404D01*
X98532239Y-110345176D01*
X98713567Y-110219551D01*
X98869551Y-110063567D01*
X98995176Y-109882239D01*
X99086404Y-109681393D01*
X99140304Y-109467485D01*
X99150500Y-109337933D01*
X99150499Y-107162068D01*
X99140304Y-107032515D01*
X99086404Y-106818607D01*
X98995176Y-106617761D01*
X98889106Y-106464659D01*
X98869550Y-106436431D01*
X98713568Y-106280449D01*
X98532243Y-106154826D01*
X98331395Y-106063596D01*
X98178236Y-106025004D01*
X98117485Y-106009696D01*
X97987933Y-105999500D01*
X97987931Y-105999500D01*
X95812075Y-105999500D01*
X95812060Y-105999501D01*
X95682515Y-106009696D01*
X95468604Y-106063596D01*
X95267756Y-106154826D01*
X95086431Y-106280449D01*
X94930449Y-106436431D01*
X94804826Y-106617756D01*
X94713596Y-106818604D01*
X94659696Y-107032515D01*
X94649500Y-107162061D01*
X87913149Y-107162061D01*
X87852624Y-99051621D01*
X87871808Y-98984439D01*
X87888607Y-98963351D01*
X88113627Y-98736645D01*
X88174824Y-98702933D01*
X88201634Y-98700000D01*
X99148768Y-98700000D01*
X99215807Y-98719685D01*
G37*
%TD.AperFunction*%
%TD*%
M02*
