%TF.GenerationSoftware,KiCad,Pcbnew,8.0.7-8.0.7-0~ubuntu22.04.1*%
%TF.CreationDate,2024-12-14T16:55:50+01:00*%
%TF.ProjectId,mini_module_template,6d696e69-5f6d-46f6-9475-6c655f74656d,rev?*%
%TF.SameCoordinates,Original*%
%TF.FileFunction,Paste,Top*%
%TF.FilePolarity,Positive*%
%FSLAX46Y46*%
G04 Gerber Fmt 4.6, Leading zero omitted, Abs format (unit mm)*
G04 Created by KiCad (PCBNEW 8.0.7-8.0.7-0~ubuntu22.04.1) date 2024-12-14 16:55:50*
%MOMM*%
%LPD*%
G01*
G04 APERTURE LIST*
G04 Aperture macros list*
%AMRoundRect*
0 Rectangle with rounded corners*
0 $1 Rounding radius*
0 $2 $3 $4 $5 $6 $7 $8 $9 X,Y pos of 4 corners*
0 Add a 4 corners polygon primitive as box body*
4,1,4,$2,$3,$4,$5,$6,$7,$8,$9,$2,$3,0*
0 Add four circle primitives for the rounded corners*
1,1,$1+$1,$2,$3*
1,1,$1+$1,$4,$5*
1,1,$1+$1,$6,$7*
1,1,$1+$1,$8,$9*
0 Add four rect primitives between the rounded corners*
20,1,$1+$1,$2,$3,$4,$5,0*
20,1,$1+$1,$4,$5,$6,$7,0*
20,1,$1+$1,$6,$7,$8,$9,0*
20,1,$1+$1,$8,$9,$2,$3,0*%
%AMRotRect*
0 Rectangle, with rotation*
0 The origin of the aperture is its center*
0 $1 length*
0 $2 width*
0 $3 Rotation angle, in degrees counterclockwise*
0 Add horizontal line*
21,1,$1,$2,0,0,$3*%
G04 Aperture macros list end*
%ADD10RoundRect,0.135000X0.185000X-0.135000X0.185000X0.135000X-0.185000X0.135000X-0.185000X-0.135000X0*%
%ADD11RoundRect,0.150000X-0.587500X-0.150000X0.587500X-0.150000X0.587500X0.150000X-0.587500X0.150000X0*%
%ADD12RoundRect,0.135000X-0.226274X-0.035355X-0.035355X-0.226274X0.226274X0.035355X0.035355X0.226274X0*%
%ADD13RoundRect,0.140000X-0.170000X0.140000X-0.170000X-0.140000X0.170000X-0.140000X0.170000X0.140000X0*%
%ADD14RoundRect,0.200000X0.275000X-0.200000X0.275000X0.200000X-0.275000X0.200000X-0.275000X-0.200000X0*%
%ADD15RoundRect,0.135000X-0.135000X-0.185000X0.135000X-0.185000X0.135000X0.185000X-0.135000X0.185000X0*%
%ADD16RoundRect,0.250000X-0.325000X-0.650000X0.325000X-0.650000X0.325000X0.650000X-0.325000X0.650000X0*%
%ADD17RoundRect,0.140000X0.140000X0.170000X-0.140000X0.170000X-0.140000X-0.170000X0.140000X-0.170000X0*%
%ADD18RoundRect,0.250000X-1.000000X-0.650000X1.000000X-0.650000X1.000000X0.650000X-1.000000X0.650000X0*%
%ADD19R,1.200000X1.400000*%
%ADD20RoundRect,0.218750X-0.256250X0.218750X-0.256250X-0.218750X0.256250X-0.218750X0.256250X0.218750X0*%
%ADD21RoundRect,0.140000X0.219203X0.021213X0.021213X0.219203X-0.219203X-0.021213X-0.021213X-0.219203X0*%
%ADD22RoundRect,0.135000X0.135000X0.185000X-0.135000X0.185000X-0.135000X-0.185000X0.135000X-0.185000X0*%
%ADD23RoundRect,0.140000X0.170000X-0.140000X0.170000X0.140000X-0.170000X0.140000X-0.170000X-0.140000X0*%
%ADD24RoundRect,0.135000X-0.185000X0.135000X-0.185000X-0.135000X0.185000X-0.135000X0.185000X0.135000X0*%
%ADD25RoundRect,0.218750X0.256250X-0.218750X0.256250X0.218750X-0.256250X0.218750X-0.256250X-0.218750X0*%
%ADD26RoundRect,0.100000X-0.712500X-0.100000X0.712500X-0.100000X0.712500X0.100000X-0.712500X0.100000X0*%
%ADD27RoundRect,0.140000X-0.021213X0.219203X-0.219203X0.021213X0.021213X-0.219203X0.219203X-0.021213X0*%
%ADD28RoundRect,0.225000X0.225000X0.250000X-0.225000X0.250000X-0.225000X-0.250000X0.225000X-0.250000X0*%
%ADD29RoundRect,0.150000X-0.150000X0.825000X-0.150000X-0.825000X0.150000X-0.825000X0.150000X0.825000X0*%
%ADD30RoundRect,0.140000X-0.140000X-0.170000X0.140000X-0.170000X0.140000X0.170000X-0.140000X0.170000X0*%
%ADD31RoundRect,0.250000X-0.475000X0.250000X-0.475000X-0.250000X0.475000X-0.250000X0.475000X0.250000X0*%
%ADD32RoundRect,0.218750X-0.381250X0.218750X-0.381250X-0.218750X0.381250X-0.218750X0.381250X0.218750X0*%
%ADD33RoundRect,0.075000X-0.441942X-0.548008X0.548008X0.441942X0.441942X0.548008X-0.548008X-0.441942X0*%
%ADD34RoundRect,0.075000X0.441942X-0.548008X0.548008X-0.441942X-0.441942X0.548008X-0.548008X0.441942X0*%
%ADD35RoundRect,0.250001X-2.049999X-0.799999X2.049999X-0.799999X2.049999X0.799999X-2.049999X0.799999X0*%
%ADD36R,1.800000X1.000000*%
%ADD37RoundRect,0.075000X-0.662500X-0.075000X0.662500X-0.075000X0.662500X0.075000X-0.662500X0.075000X0*%
%ADD38RoundRect,0.075000X-0.075000X-0.662500X0.075000X-0.662500X0.075000X0.662500X-0.075000X0.662500X0*%
%ADD39RoundRect,0.150000X-0.512500X-0.150000X0.512500X-0.150000X0.512500X0.150000X-0.512500X0.150000X0*%
%ADD40RoundRect,0.250000X-0.650000X1.000000X-0.650000X-1.000000X0.650000X-1.000000X0.650000X1.000000X0*%
%ADD41RoundRect,0.250000X0.250000X0.475000X-0.250000X0.475000X-0.250000X-0.475000X0.250000X-0.475000X0*%
%ADD42RoundRect,0.375000X-0.625000X-0.375000X0.625000X-0.375000X0.625000X0.375000X-0.625000X0.375000X0*%
%ADD43RoundRect,0.500000X-0.500000X-1.400000X0.500000X-1.400000X0.500000X1.400000X-0.500000X1.400000X0*%
%ADD44R,0.650000X1.525000*%
%ADD45R,3.100000X2.400000*%
%ADD46RoundRect,0.075000X0.650000X0.075000X-0.650000X0.075000X-0.650000X-0.075000X0.650000X-0.075000X0*%
%ADD47RoundRect,0.140000X-0.219203X-0.021213X-0.021213X-0.219203X0.219203X0.021213X0.021213X0.219203X0*%
%ADD48R,0.850000X0.350000*%
%ADD49R,1.650000X2.450000*%
%ADD50R,1.240000X0.600000*%
%ADD51R,1.240000X0.300000*%
%ADD52RoundRect,0.140000X0.021213X-0.219203X0.219203X-0.021213X-0.021213X0.219203X-0.219203X0.021213X0*%
%ADD53RoundRect,0.225000X-0.250000X0.225000X-0.250000X-0.225000X0.250000X-0.225000X0.250000X0.225000X0*%
%ADD54RoundRect,0.250000X-0.250000X-0.475000X0.250000X-0.475000X0.250000X0.475000X-0.250000X0.475000X0*%
%ADD55R,5.700000X2.400000*%
%ADD56RotRect,1.400000X1.200000X135.000000*%
%ADD57RoundRect,0.250000X0.325000X0.650000X-0.325000X0.650000X-0.325000X-0.650000X0.325000X-0.650000X0*%
%ADD58RoundRect,0.250000X0.475000X-0.250000X0.475000X0.250000X-0.475000X0.250000X-0.475000X-0.250000X0*%
G04 APERTURE END LIST*
D10*
%TO.C,R29*%
X108187501Y-66692496D03*
X108187501Y-65672498D03*
%TD*%
D11*
%TO.C,Q1*%
X142954999Y-64310000D03*
X142954999Y-66210000D03*
X144830000Y-65260000D03*
%TD*%
D12*
%TO.C,R2*%
X105739376Y-87039376D03*
X106460624Y-87760624D03*
%TD*%
D13*
%TO.C,C42*%
X97230000Y-74505000D03*
X97230000Y-75465000D03*
%TD*%
D14*
%TO.C,R24*%
X88230000Y-74105000D03*
X88230000Y-72455000D03*
%TD*%
D15*
%TO.C,R47*%
X154360000Y-65920000D03*
X155380000Y-65920000D03*
%TD*%
D16*
%TO.C,C49*%
X101784998Y-104700001D03*
X104735000Y-104700001D03*
%TD*%
D17*
%TO.C,C17*%
X127760000Y-73600000D03*
X126800000Y-73600000D03*
%TD*%
D18*
%TO.C,D1*%
X159400000Y-74400000D03*
X163400000Y-74400000D03*
%TD*%
D10*
%TO.C,R22*%
X142520000Y-68559999D03*
X142520000Y-67540001D03*
%TD*%
D16*
%TO.C,C46*%
X112174998Y-105700000D03*
X115125000Y-105700000D03*
%TD*%
D19*
%TO.C,Y4*%
X168250000Y-63900000D03*
X168250000Y-61700000D03*
X166550000Y-61700000D03*
X166550000Y-63900000D03*
%TD*%
D20*
%TO.C,D3*%
X104880000Y-62914997D03*
X104880000Y-64489999D03*
%TD*%
D21*
%TO.C,C58*%
X108309411Y-86049411D03*
X107630589Y-85370589D03*
%TD*%
D22*
%TO.C,R36*%
X93850000Y-72560000D03*
X92830002Y-72560000D03*
%TD*%
D23*
%TO.C,C21*%
X113100000Y-117680000D03*
X113100000Y-116720000D03*
%TD*%
D10*
%TO.C,R48*%
X162480000Y-82371998D03*
X162480000Y-81352000D03*
%TD*%
D22*
%TO.C,R34*%
X165065000Y-71770000D03*
X164045000Y-71770000D03*
%TD*%
D24*
%TO.C,R31*%
X168735000Y-68090001D03*
X168735000Y-69109999D03*
%TD*%
D13*
%TO.C,C36*%
X97220000Y-69812501D03*
X97220000Y-70772501D03*
%TD*%
%TO.C,C56*%
X101218553Y-79680050D03*
X101218553Y-80640050D03*
%TD*%
D17*
%TO.C,C43*%
X108750000Y-107750001D03*
X107790000Y-107750001D03*
%TD*%
D25*
%TO.C,D5*%
X147570000Y-65807501D03*
X147570000Y-64232499D03*
%TD*%
D26*
%TO.C,U1*%
X158232500Y-60997500D03*
X158232500Y-61632500D03*
X158232500Y-62267500D03*
X158232500Y-62902500D03*
X158232500Y-63537500D03*
X158232500Y-64172500D03*
X158232500Y-64807500D03*
X158232500Y-65442500D03*
X163507500Y-65442500D03*
X163507500Y-64807500D03*
X163507500Y-64172500D03*
X163507500Y-63537500D03*
X163507500Y-62902500D03*
X163507500Y-62267500D03*
X163507500Y-61632500D03*
X163507500Y-60997500D03*
%TD*%
D22*
%TO.C,R57*%
X112939997Y-94980001D03*
X111919999Y-94980001D03*
%TD*%
D23*
%TO.C,C40*%
X157570000Y-69499999D03*
X157570000Y-68539999D03*
%TD*%
D24*
%TO.C,R21*%
X144660000Y-62030001D03*
X144660000Y-63049999D03*
%TD*%
D17*
%TO.C,C54*%
X170580000Y-65590000D03*
X169620000Y-65590000D03*
%TD*%
D15*
%TO.C,R32*%
X168645001Y-73670000D03*
X169664999Y-73670000D03*
%TD*%
D27*
%TO.C,C3*%
X115189411Y-85370589D03*
X114510589Y-86049411D03*
%TD*%
D28*
%TO.C,C22*%
X116275000Y-111800000D03*
X114725000Y-111800000D03*
%TD*%
D22*
%TO.C,R12*%
X134909999Y-63600000D03*
X133890001Y-63600000D03*
%TD*%
D21*
%TO.C,C5*%
X104049411Y-79179411D03*
X103370589Y-78500589D03*
%TD*%
D10*
%TO.C,R9*%
X106580000Y-66799998D03*
X106580000Y-65780000D03*
%TD*%
D23*
%TO.C,C16*%
X128400000Y-72680000D03*
X128400000Y-71720000D03*
%TD*%
D22*
%TO.C,R35*%
X167165000Y-73870000D03*
X166145000Y-73870000D03*
%TD*%
D14*
%TO.C,R17*%
X142600000Y-73775000D03*
X142600000Y-72125000D03*
%TD*%
D22*
%TO.C,R11*%
X127779998Y-74700000D03*
X126760000Y-74700000D03*
%TD*%
D13*
%TO.C,C41*%
X157570000Y-66639999D03*
X157570000Y-67599999D03*
%TD*%
D29*
%TO.C,U2*%
X103182500Y-62662499D03*
X101912500Y-62662499D03*
X100642500Y-62662499D03*
X99372500Y-62662499D03*
X99372500Y-67612499D03*
X100642500Y-67612499D03*
X101912500Y-67612499D03*
X103182500Y-67612499D03*
%TD*%
D30*
%TO.C,C35*%
X111929999Y-96140001D03*
X112889999Y-96140001D03*
%TD*%
D24*
%TO.C,R20*%
X143580000Y-62030001D03*
X143580000Y-63049999D03*
%TD*%
D31*
%TO.C,C8*%
X117000000Y-64950001D03*
X117000000Y-66849999D03*
%TD*%
D32*
%TO.C,FB1*%
X119100000Y-64837500D03*
X119100000Y-66962500D03*
%TD*%
D30*
%TO.C,C18*%
X124317000Y-68393000D03*
X125277000Y-68393000D03*
%TD*%
D13*
%TO.C,C44*%
X162480000Y-79381999D03*
X162480000Y-80341999D03*
%TD*%
D27*
%TO.C,C55*%
X121489411Y-80780589D03*
X120810589Y-81459411D03*
%TD*%
D22*
%TO.C,R38*%
X98359999Y-76850000D03*
X97340001Y-76850000D03*
%TD*%
D20*
%TO.C,D2*%
X106580000Y-62914997D03*
X106580000Y-64489999D03*
%TD*%
D10*
%TO.C,R10*%
X104880000Y-66799998D03*
X104880000Y-65780000D03*
%TD*%
%TO.C,R50*%
X162480000Y-78371998D03*
X162480000Y-77352000D03*
%TD*%
D24*
%TO.C,R51*%
X97330000Y-94770001D03*
X97330000Y-95789999D03*
%TD*%
D33*
%TO.C,U9*%
X105235519Y-79561181D03*
X105589072Y-79914734D03*
X105942625Y-80268287D03*
X106296179Y-80621841D03*
X106649732Y-80975394D03*
X107003286Y-81328948D03*
X107356839Y-81682501D03*
X107710392Y-82036054D03*
X108063946Y-82389608D03*
X108417499Y-82743161D03*
X108771052Y-83096714D03*
X109124606Y-83450268D03*
X109478159Y-83803821D03*
X109831713Y-84157375D03*
X110185266Y-84510928D03*
X110538819Y-84864481D03*
D34*
X113261181Y-84864481D03*
X113614734Y-84510928D03*
X113968287Y-84157375D03*
X114321841Y-83803821D03*
X114675394Y-83450268D03*
X115028948Y-83096714D03*
X115382501Y-82743161D03*
X115736054Y-82389608D03*
X116089608Y-82036054D03*
X116443161Y-81682501D03*
X116796714Y-81328948D03*
X117150268Y-80975394D03*
X117503821Y-80621841D03*
X117857375Y-80268287D03*
X118210928Y-79914734D03*
X118564481Y-79561181D03*
D33*
X118564481Y-76838819D03*
X118210928Y-76485266D03*
X117857375Y-76131713D03*
X117503821Y-75778159D03*
X117150268Y-75424606D03*
X116796714Y-75071052D03*
X116443161Y-74717499D03*
X116089608Y-74363946D03*
X115736054Y-74010392D03*
X115382501Y-73656839D03*
X115028948Y-73303286D03*
X114675394Y-72949732D03*
X114321841Y-72596179D03*
X113968287Y-72242625D03*
X113614734Y-71889072D03*
X113261181Y-71535519D03*
D34*
X110538819Y-71535519D03*
X110185266Y-71889072D03*
X109831713Y-72242625D03*
X109478159Y-72596179D03*
X109124606Y-72949732D03*
X108771052Y-73303286D03*
X108417499Y-73656839D03*
X108063946Y-74010392D03*
X107710392Y-74363946D03*
X107356839Y-74717499D03*
X107003286Y-75071052D03*
X106649732Y-75424606D03*
X106296179Y-75778159D03*
X105942625Y-76131713D03*
X105589072Y-76485266D03*
X105235519Y-76838819D03*
%TD*%
D24*
%TO.C,R49*%
X162610000Y-92290001D03*
X162610000Y-93309999D03*
%TD*%
D15*
%TO.C,R45*%
X158460000Y-70519999D03*
X159480000Y-70519999D03*
%TD*%
D22*
%TO.C,R40*%
X155379999Y-60913000D03*
X154360001Y-60913000D03*
%TD*%
D15*
%TO.C,R56*%
X111900000Y-93910001D03*
X112919998Y-93910001D03*
%TD*%
D22*
%TO.C,R46*%
X155379999Y-64920000D03*
X154360001Y-64920000D03*
%TD*%
D30*
%TO.C,C13*%
X131320000Y-63800000D03*
X132280000Y-63800000D03*
%TD*%
D21*
%TO.C,C9*%
X105732306Y-88446518D03*
X105053484Y-87767696D03*
%TD*%
D35*
%TO.C,C47*%
X102100000Y-113950000D03*
X110900000Y-113950000D03*
%TD*%
D24*
%TO.C,R15*%
X122000000Y-65200000D03*
X122000000Y-66219998D03*
%TD*%
%TO.C,R7*%
X98020000Y-61880001D03*
X98020000Y-62899999D03*
%TD*%
%TO.C,R14*%
X123000000Y-65200000D03*
X123000000Y-66219998D03*
%TD*%
D22*
%TO.C,R33*%
X165065000Y-70770000D03*
X164045000Y-70770000D03*
%TD*%
D17*
%TO.C,C14*%
X130530000Y-65630000D03*
X129570000Y-65630000D03*
%TD*%
D36*
%TO.C,Y3*%
X99521497Y-79900000D03*
X99521497Y-82399998D03*
%TD*%
D10*
%TO.C,R16*%
X130300000Y-74900000D03*
X130300000Y-73880002D03*
%TD*%
D28*
%TO.C,C39*%
X167415000Y-68120000D03*
X165865000Y-68120000D03*
%TD*%
D37*
%TO.C,U3*%
X130787500Y-67212500D03*
X130787500Y-67712500D03*
X130787500Y-68212500D03*
X130787500Y-68712500D03*
X130787500Y-69212500D03*
X130787500Y-69712500D03*
X130787500Y-70212500D03*
X130787500Y-70712500D03*
X130787500Y-71212500D03*
X130787500Y-71712500D03*
X130787500Y-72212500D03*
X130787500Y-72712500D03*
D38*
X132200000Y-74125000D03*
X132700000Y-74125000D03*
X133200000Y-74125000D03*
X133700000Y-74125000D03*
X134200000Y-74125000D03*
X134700000Y-74125000D03*
X135200000Y-74125000D03*
X135700000Y-74125000D03*
X136200000Y-74125000D03*
X136700000Y-74125000D03*
X137200000Y-74125000D03*
X137700000Y-74125000D03*
D37*
X139112500Y-72712500D03*
X139112500Y-72212500D03*
X139112500Y-71712500D03*
X139112500Y-71212500D03*
X139112500Y-70712500D03*
X139112500Y-70212500D03*
X139112500Y-69712500D03*
X139112500Y-69212500D03*
X139112500Y-68712500D03*
X139112500Y-68212500D03*
X139112500Y-67712500D03*
X139112500Y-67212500D03*
D38*
X137700000Y-65800000D03*
X137200000Y-65800000D03*
X136700000Y-65800000D03*
X136200000Y-65800000D03*
X135700000Y-65800000D03*
X135200000Y-65800000D03*
X134700000Y-65800000D03*
X134200000Y-65800000D03*
X133700000Y-65800000D03*
X133200000Y-65800000D03*
X132700000Y-65800000D03*
X132200000Y-65800000D03*
%TD*%
D25*
%TO.C,D4*%
X147570000Y-62807501D03*
X147570000Y-61232499D03*
%TD*%
D39*
%TO.C,U6*%
X166517500Y-70450000D03*
X166517500Y-71400000D03*
X166517500Y-72350000D03*
X168792500Y-72350000D03*
X168792500Y-71400000D03*
X168792500Y-70450000D03*
%TD*%
D16*
%TO.C,C51*%
X101784998Y-107100001D03*
X104735000Y-107100001D03*
%TD*%
D24*
%TO.C,R52*%
X97350000Y-90670001D03*
X97350000Y-91689999D03*
%TD*%
D40*
%TO.C,D6*%
X107750000Y-96700000D03*
X107750000Y-100700002D03*
%TD*%
D15*
%TO.C,R42*%
X154360000Y-62913000D03*
X155380000Y-62913000D03*
%TD*%
D13*
%TO.C,C37*%
X140900000Y-66320000D03*
X140900000Y-67280000D03*
%TD*%
D24*
%TO.C,R13*%
X129200000Y-73890001D03*
X129200000Y-74909999D03*
%TD*%
D23*
%TO.C,C34*%
X108999999Y-104180001D03*
X108999999Y-103220001D03*
%TD*%
D15*
%TO.C,R30*%
X105240000Y-90500000D03*
X106260000Y-90500000D03*
%TD*%
D41*
%TO.C,C23*%
X116699999Y-110000000D03*
X114800001Y-110000000D03*
%TD*%
D15*
%TO.C,R41*%
X154360000Y-61913000D03*
X155380000Y-61913000D03*
%TD*%
D24*
%TO.C,R53*%
X97290000Y-78750001D03*
X97290000Y-79769999D03*
%TD*%
D10*
%TO.C,R37*%
X115729999Y-103720000D03*
X115729999Y-102700002D03*
%TD*%
%TO.C,R19*%
X148970000Y-62229999D03*
X148970000Y-61210001D03*
%TD*%
D42*
%TO.C,U4*%
X114920000Y-113850000D03*
X114920001Y-116150000D03*
D43*
X121219999Y-116150000D03*
D42*
X114920000Y-118450000D03*
%TD*%
D44*
%TO.C,IC3*%
X110439999Y-103150001D03*
X111709999Y-103150001D03*
X112979999Y-103150001D03*
X114249999Y-103150001D03*
X114249999Y-97726001D03*
X112979999Y-97726001D03*
X111709999Y-97726001D03*
X110439999Y-97726001D03*
D45*
X112344999Y-100438001D03*
%TD*%
D15*
%TO.C,R5*%
X99107501Y-69437499D03*
X100127499Y-69437499D03*
%TD*%
%TO.C,R43*%
X154360000Y-63913000D03*
X155380000Y-63913000D03*
%TD*%
D46*
%TO.C,U8*%
X163470000Y-69219999D03*
X163470000Y-68719998D03*
X163470000Y-68219999D03*
X163470000Y-67720000D03*
X163470000Y-67219999D03*
X159070000Y-67219999D03*
X159070000Y-67720000D03*
X159070000Y-68219999D03*
X159070000Y-68719998D03*
X159070000Y-69219999D03*
%TD*%
D19*
%TO.C,Y2*%
X123947000Y-69893000D03*
X123947000Y-72093000D03*
X125647000Y-72093000D03*
X125647000Y-69893000D03*
%TD*%
D28*
%TO.C,C53*%
X171425000Y-64320000D03*
X169875000Y-64320000D03*
%TD*%
D47*
%TO.C,C2*%
X113920589Y-69960589D03*
X114599411Y-70639411D03*
%TD*%
D28*
%TO.C,C52*%
X167425000Y-66600000D03*
X165875000Y-66600000D03*
%TD*%
D30*
%TO.C,C25*%
X102049999Y-100900000D03*
X103009999Y-100900000D03*
%TD*%
D17*
%TO.C,C15*%
X137830000Y-75700000D03*
X136870000Y-75700000D03*
%TD*%
D48*
%TO.C,IC1*%
X95970000Y-75850000D03*
X95970000Y-75200000D03*
X95970000Y-74550000D03*
X95970000Y-73900000D03*
X93070000Y-73900000D03*
X93070000Y-74550000D03*
X93070000Y-75200000D03*
X93070000Y-75850000D03*
D49*
X94520000Y-74875000D03*
%TD*%
D41*
%TO.C,C24*%
X116699999Y-107950000D03*
X114800001Y-107950000D03*
%TD*%
D23*
%TO.C,C45*%
X97340000Y-93840000D03*
X97340000Y-92880000D03*
%TD*%
D28*
%TO.C,C38*%
X171425000Y-62770000D03*
X169875000Y-62770000D03*
%TD*%
D50*
%TO.C,J4*%
X172110000Y-74600000D03*
X172110000Y-73800000D03*
D51*
X172110000Y-72650000D03*
X172110000Y-71650000D03*
X172110000Y-71150000D03*
X172110000Y-70150000D03*
D50*
X172110000Y-69000000D03*
X172110000Y-68200000D03*
X172110000Y-68200000D03*
X172110000Y-69000000D03*
D51*
X172110000Y-69650000D03*
X172110000Y-70650000D03*
X172110000Y-72150000D03*
X172110000Y-73150000D03*
D50*
X172110000Y-73800000D03*
X172110000Y-74600000D03*
%TD*%
D48*
%TO.C,IC2*%
X95970000Y-71180000D03*
X95970000Y-70530000D03*
X95970000Y-69880000D03*
X95970000Y-69230000D03*
X93070000Y-69230000D03*
X93070000Y-69880000D03*
X93070000Y-70530000D03*
X93070000Y-71180000D03*
D49*
X94520000Y-70205000D03*
%TD*%
D52*
%TO.C,C4*%
X103670589Y-76179411D03*
X104349411Y-75500589D03*
%TD*%
D17*
%TO.C,C19*%
X125257000Y-73643000D03*
X124297000Y-73643000D03*
%TD*%
%TO.C,C33*%
X168135000Y-75670000D03*
X167175000Y-75670000D03*
%TD*%
D53*
%TO.C,C7*%
X115200000Y-64925000D03*
X115200000Y-66475000D03*
%TD*%
D27*
%TO.C,C1*%
X120149411Y-80250589D03*
X119470589Y-80929411D03*
%TD*%
D24*
%TO.C,R23*%
X148970000Y-63310001D03*
X148970000Y-64329999D03*
%TD*%
D14*
%TO.C,R39*%
X88210000Y-70415000D03*
X88210000Y-68765000D03*
%TD*%
D22*
%TO.C,R4*%
X101089999Y-73090000D03*
X100070001Y-73090000D03*
%TD*%
D23*
%TO.C,C57*%
X101218553Y-82619949D03*
X101218553Y-81659949D03*
%TD*%
D54*
%TO.C,C20*%
X101709999Y-102500002D03*
X103609997Y-102500002D03*
%TD*%
D47*
%TO.C,C11*%
X101537366Y-84039447D03*
X102216188Y-84718269D03*
%TD*%
D10*
%TO.C,R18*%
X145720000Y-63049999D03*
X145720000Y-62030001D03*
%TD*%
D55*
%TO.C,L2*%
X102750000Y-92700000D03*
X102750000Y-96900000D03*
%TD*%
D56*
%TO.C,Y1*%
X102355635Y-86855635D03*
X100800000Y-85300000D03*
X99597919Y-86502081D03*
X101153554Y-88057716D03*
%TD*%
D57*
%TO.C,C48*%
X109485000Y-106000001D03*
X106534998Y-106000001D03*
%TD*%
D20*
%TO.C,D7*%
X108187500Y-62894997D03*
X108187500Y-64469999D03*
%TD*%
D21*
%TO.C,C12*%
X103616188Y-86118269D03*
X102937366Y-85439447D03*
%TD*%
D58*
%TO.C,C27*%
X127980000Y-65979999D03*
X127980000Y-64080001D03*
%TD*%
D17*
%TO.C,C10*%
X101050000Y-74100000D03*
X100090000Y-74100000D03*
%TD*%
D22*
%TO.C,R3*%
X103019999Y-73060000D03*
X102000001Y-73060000D03*
%TD*%
D53*
%TO.C,C6*%
X113700000Y-64925000D03*
X113700000Y-66475000D03*
%TD*%
D22*
%TO.C,R6*%
X102627499Y-69427499D03*
X101607501Y-69427499D03*
%TD*%
D15*
%TO.C,R27*%
X103290000Y-90500000D03*
X104310000Y-90500000D03*
%TD*%
M02*
