%TF.GenerationSoftware,KiCad,Pcbnew,9.0.1-9.0.1-0~ubuntu22.04.1*%
%TF.CreationDate,2025-04-23T20:29:42+02:00*%
%TF.ProjectId,template_board,74656d70-6c61-4746-955f-626f6172642e,rev?*%
%TF.SameCoordinates,Original*%
%TF.FileFunction,Soldermask,Top*%
%TF.FilePolarity,Negative*%
%FSLAX46Y46*%
G04 Gerber Fmt 4.6, Leading zero omitted, Abs format (unit mm)*
G04 Created by KiCad (PCBNEW 9.0.1-9.0.1-0~ubuntu22.04.1) date 2025-04-23 20:29:42*
%MOMM*%
%LPD*%
G01*
G04 APERTURE LIST*
G04 Aperture macros list*
%AMRoundRect*
0 Rectangle with rounded corners*
0 $1 Rounding radius*
0 $2 $3 $4 $5 $6 $7 $8 $9 X,Y pos of 4 corners*
0 Add a 4 corners polygon primitive as box body*
4,1,4,$2,$3,$4,$5,$6,$7,$8,$9,$2,$3,0*
0 Add four circle primitives for the rounded corners*
1,1,$1+$1,$2,$3*
1,1,$1+$1,$4,$5*
1,1,$1+$1,$6,$7*
1,1,$1+$1,$8,$9*
0 Add four rect primitives between the rounded corners*
20,1,$1+$1,$2,$3,$4,$5,0*
20,1,$1+$1,$4,$5,$6,$7,0*
20,1,$1+$1,$6,$7,$8,$9,0*
20,1,$1+$1,$8,$9,$2,$3,0*%
G04 Aperture macros list end*
%ADD10RoundRect,0.239000X0.274000X-0.239000X0.274000X0.239000X-0.274000X0.239000X-0.274000X-0.239000X0*%
%ADD11RoundRect,0.239000X0.239000X0.274000X-0.239000X0.274000X-0.239000X-0.274000X0.239000X-0.274000X0*%
%ADD12RoundRect,0.159000X0.159000X0.189000X-0.159000X0.189000X-0.159000X-0.189000X0.159000X-0.189000X0*%
%ADD13RoundRect,0.159000X-0.159000X-0.189000X0.159000X-0.189000X0.159000X0.189000X-0.159000X0.189000X0*%
%ADD14RoundRect,0.159000X0.189000X-0.159000X0.189000X0.159000X-0.189000X0.159000X-0.189000X-0.159000X0*%
%ADD15RoundRect,0.150000X0.425000X-0.150000X0.425000X0.150000X-0.425000X0.150000X-0.425000X-0.150000X0*%
%ADD16RoundRect,0.075000X0.500000X-0.075000X0.500000X0.075000X-0.500000X0.075000X-0.500000X-0.075000X0*%
%ADD17O,2.100000X1.000000*%
%ADD18O,1.800000X1.000000*%
%ADD19RoundRect,0.159000X-0.189000X0.159000X-0.189000X-0.159000X0.189000X-0.159000X0.189000X0.159000X0*%
%ADD20R,2.000000X1.050000*%
%ADD21RoundRect,0.150000X-0.587500X-0.150000X0.587500X-0.150000X0.587500X0.150000X-0.587500X0.150000X0*%
%ADD22RoundRect,0.050000X0.437500X0.050000X-0.437500X0.050000X-0.437500X-0.050000X0.437500X-0.050000X0*%
%ADD23RoundRect,0.050000X0.337500X0.050000X-0.337500X0.050000X-0.337500X-0.050000X0.337500X-0.050000X0*%
%ADD24RoundRect,0.050000X0.050000X0.337500X-0.050000X0.337500X-0.050000X-0.337500X0.050000X-0.337500X0*%
%ADD25C,1.550000*%
%ADD26RoundRect,0.250000X-0.350000X0.450000X-0.350000X-0.450000X0.350000X-0.450000X0.350000X0.450000X0*%
%ADD27RoundRect,0.250000X0.650000X0.250000X-0.650000X0.250000X-0.650000X-0.250000X0.650000X-0.250000X0*%
%ADD28RoundRect,0.062500X-0.350000X-0.062500X0.350000X-0.062500X0.350000X0.062500X-0.350000X0.062500X0*%
%ADD29RoundRect,0.062500X-0.062500X-0.350000X0.062500X-0.350000X0.062500X0.350000X-0.062500X0.350000X0*%
%ADD30R,1.700000X1.700000*%
%ADD31C,6.400000*%
%ADD32RoundRect,0.150000X-0.825000X-0.150000X0.825000X-0.150000X0.825000X0.150000X-0.825000X0.150000X0*%
%ADD33RoundRect,0.150000X-0.512500X-0.150000X0.512500X-0.150000X0.512500X0.150000X-0.512500X0.150000X0*%
%ADD34RoundRect,0.075000X-0.662500X-0.075000X0.662500X-0.075000X0.662500X0.075000X-0.662500X0.075000X0*%
%ADD35RoundRect,0.075000X-0.075000X-0.662500X0.075000X-0.662500X0.075000X0.662500X-0.075000X0.662500X0*%
%ADD36RoundRect,0.150000X0.512500X0.150000X-0.512500X0.150000X-0.512500X-0.150000X0.512500X-0.150000X0*%
%ADD37RoundRect,0.219000X0.219000X0.294000X-0.219000X0.294000X-0.219000X-0.294000X0.219000X-0.294000X0*%
%ADD38R,1.200000X1.400000*%
%ADD39RoundRect,0.244000X-0.269000X0.244000X-0.269000X-0.244000X0.269000X-0.244000X0.269000X0.244000X0*%
%ADD40R,1.500000X2.000000*%
%ADD41RoundRect,0.239000X-0.239000X-0.274000X0.239000X-0.274000X0.239000X0.274000X-0.239000X0.274000X0*%
%ADD42RoundRect,0.140000X-0.140000X-0.170000X0.140000X-0.170000X0.140000X0.170000X-0.140000X0.170000X0*%
%ADD43RoundRect,0.220000X0.255000X-0.220000X0.255000X0.220000X-0.255000X0.220000X-0.255000X-0.220000X0*%
%ADD44RoundRect,0.239000X-0.274000X0.239000X-0.274000X-0.239000X0.274000X-0.239000X0.274000X0.239000X0*%
%ADD45RoundRect,0.375000X-0.375000X0.625000X-0.375000X-0.625000X0.375000X-0.625000X0.375000X0.625000X0*%
%ADD46RoundRect,0.500000X-1.400000X0.500000X-1.400000X-0.500000X1.400000X-0.500000X1.400000X0.500000X0*%
%ADD47RoundRect,0.075000X-0.700000X-0.075000X0.700000X-0.075000X0.700000X0.075000X-0.700000X0.075000X0*%
%ADD48RoundRect,0.075000X-0.075000X-0.700000X0.075000X-0.700000X0.075000X0.700000X-0.075000X0.700000X0*%
%ADD49RoundRect,0.150000X0.150000X-0.587500X0.150000X0.587500X-0.150000X0.587500X-0.150000X-0.587500X0*%
%ADD50C,2.250000*%
%ADD51RoundRect,0.150000X0.150000X-0.512500X0.150000X0.512500X-0.150000X0.512500X-0.150000X-0.512500X0*%
G04 APERTURE END LIST*
D10*
%TO.C,D10*%
X82900000Y-41390000D03*
X82900000Y-39810000D03*
%TD*%
D11*
%TO.C,D8*%
X98529998Y-48400000D03*
X96950000Y-48400000D03*
%TD*%
D12*
%TO.C,R58*%
X98700000Y-84500000D03*
X97700002Y-84500000D03*
%TD*%
D13*
%TO.C,R5*%
X59150001Y-56349999D03*
X60149999Y-56349999D03*
%TD*%
D14*
%TO.C,R68*%
X105544999Y-42624997D03*
X105544999Y-41624999D03*
%TD*%
%TO.C,R9*%
X95850000Y-52149999D03*
X95850000Y-51150001D03*
%TD*%
D15*
%TO.C,J1*%
X100225000Y-85220000D03*
X100225000Y-84420000D03*
D16*
X100225001Y-83270000D03*
X100225000Y-82270000D03*
X100225000Y-81770000D03*
X100225001Y-80770000D03*
D15*
X100225000Y-79620000D03*
X100225000Y-78820000D03*
X100225000Y-78820000D03*
X100225000Y-79620000D03*
D16*
X100225000Y-80270000D03*
X100225000Y-81270000D03*
X100225000Y-82770000D03*
X100225000Y-83770000D03*
D15*
X100225000Y-84420000D03*
X100225000Y-85220000D03*
D17*
X100800000Y-86340000D03*
D18*
X104980000Y-86340000D03*
D17*
X100800000Y-77700000D03*
D18*
X104980000Y-77700000D03*
%TD*%
D13*
%TO.C,R16*%
X94550001Y-59999999D03*
X95549999Y-59999999D03*
%TD*%
D19*
%TO.C,R12*%
X104500000Y-70500000D03*
X104500000Y-71500000D03*
%TD*%
D20*
%TO.C,SW3*%
X103500000Y-68425000D03*
X103500000Y-63975000D03*
%TD*%
D21*
%TO.C,Q3*%
X79900000Y-35250000D03*
X79900000Y-37150000D03*
X81775001Y-36200000D03*
%TD*%
D13*
%TO.C,R67*%
X98537500Y-46255000D03*
X99537500Y-46255000D03*
%TD*%
D19*
%TO.C,R60*%
X98700000Y-62949999D03*
X98700000Y-63949997D03*
%TD*%
D12*
%TO.C,C45*%
X98700000Y-79500000D03*
X97700002Y-79500000D03*
%TD*%
D22*
%TO.C,U11*%
X97862500Y-60587499D03*
D23*
X97962500Y-60187499D03*
D24*
X97700000Y-59524999D03*
X97300000Y-59524999D03*
X96900000Y-59524999D03*
D23*
X96637500Y-60187499D03*
X96637500Y-60587499D03*
D24*
X96900000Y-61249999D03*
X97300000Y-61249999D03*
X97700000Y-61249999D03*
%TD*%
D25*
%TO.C,H2*%
X95660000Y-25560000D03*
X95660000Y-23020000D03*
X93120000Y-25560000D03*
X93120000Y-23020000D03*
X90580000Y-25560000D03*
X90580000Y-23020000D03*
X88040000Y-25560000D03*
X88040000Y-23020000D03*
X85500000Y-25560000D03*
X85500000Y-23020000D03*
X82960000Y-25560000D03*
X82960000Y-23020000D03*
X80420000Y-25560000D03*
X80420000Y-23020000D03*
X77880000Y-25560000D03*
X77880000Y-23020000D03*
X75340000Y-25560000D03*
X75340000Y-23020000D03*
X72800000Y-25560000D03*
X72800000Y-23020000D03*
X70260000Y-25560000D03*
X70260000Y-23020000D03*
X67720000Y-25560000D03*
X67720000Y-23020000D03*
X65180000Y-25560000D03*
X65180000Y-23020000D03*
X62640000Y-25560000D03*
X62640000Y-23020000D03*
X60100000Y-25560000D03*
X60100000Y-23020000D03*
X57560000Y-25560000D03*
X57560000Y-23020000D03*
X55020000Y-25560000D03*
X55020000Y-23020000D03*
X52480000Y-25560000D03*
X52480000Y-23020000D03*
X49940000Y-25560000D03*
X49940000Y-23020000D03*
X47400000Y-25560000D03*
X47400000Y-23020000D03*
X44860000Y-25560000D03*
X44860000Y-23020000D03*
X42320000Y-25560000D03*
X42320000Y-23020000D03*
X39780000Y-25560000D03*
X39780000Y-23020000D03*
X37240000Y-25560000D03*
X37240000Y-23020000D03*
X34700000Y-25560000D03*
X34700000Y-23020000D03*
X32160000Y-25560000D03*
X32160000Y-23020000D03*
%TD*%
D26*
%TO.C,Y5*%
X80600000Y-47850000D03*
X80600000Y-50050000D03*
X82200000Y-50050000D03*
X82200000Y-47850000D03*
%TD*%
D27*
%TO.C,X3*%
X59650000Y-50549997D03*
X59650000Y-48049999D03*
%TD*%
D28*
%TO.C,U12*%
X100662500Y-44425000D03*
X100662500Y-44925000D03*
X100662500Y-45425000D03*
X100662500Y-45925000D03*
D29*
X101375000Y-46637500D03*
X101875000Y-46637500D03*
X102375000Y-46637500D03*
X102875000Y-46637500D03*
D28*
X103587500Y-45925000D03*
X103587500Y-45425000D03*
X103587500Y-44925000D03*
X103587500Y-44425000D03*
D29*
X102875000Y-43712500D03*
X102375000Y-43712500D03*
X101875000Y-43712500D03*
X101375000Y-43712500D03*
D30*
X102125000Y-45175000D03*
%TD*%
D19*
%TO.C,R1*%
X81450000Y-42540001D03*
X81450000Y-43539999D03*
%TD*%
D10*
%TO.C,D1*%
X81300000Y-41390000D03*
X81300000Y-39810000D03*
%TD*%
D19*
%TO.C,C15*%
X101649999Y-36474998D03*
X101649999Y-37474996D03*
%TD*%
%TO.C,R53*%
X92000000Y-39062501D03*
X92000000Y-40062499D03*
%TD*%
%TO.C,R26*%
X84050000Y-44250001D03*
X84050000Y-45249999D03*
%TD*%
D14*
%TO.C,R4*%
X69837499Y-50146392D03*
X69837499Y-49146394D03*
%TD*%
D13*
%TO.C,C18*%
X70700000Y-48300000D03*
X71700000Y-48300000D03*
%TD*%
D12*
%TO.C,R11*%
X84749999Y-34100000D03*
X83750001Y-34100000D03*
%TD*%
%TO.C,R55*%
X93699999Y-42762500D03*
X92700001Y-42762500D03*
%TD*%
D13*
%TO.C,C28*%
X65987500Y-51825000D03*
X66987498Y-51825000D03*
%TD*%
%TO.C,R44*%
X94000000Y-53850000D03*
X95000000Y-53850000D03*
%TD*%
D19*
%TO.C,C50*%
X73387499Y-66225001D03*
X73387499Y-67224999D03*
%TD*%
%TO.C,R28*%
X84849999Y-44250001D03*
X84849999Y-45249999D03*
%TD*%
D13*
%TO.C,R52*%
X94500001Y-42762500D03*
X95499999Y-42762500D03*
%TD*%
D31*
%TO.C,M1*%
X27040000Y-23100000D03*
%TD*%
D14*
%TO.C,R69*%
X105500000Y-51000000D03*
X105500000Y-50000000D03*
%TD*%
%TO.C,R56*%
X104400000Y-76199998D03*
X104400000Y-75200000D03*
%TD*%
D19*
%TO.C,C12*%
X96700000Y-33900001D03*
X96700000Y-34899999D03*
%TD*%
D12*
%TO.C,R6*%
X60149999Y-58649999D03*
X59150001Y-58649999D03*
%TD*%
D14*
%TO.C,R7*%
X83050000Y-53099998D03*
X83050000Y-52100000D03*
%TD*%
%TO.C,R59*%
X97850000Y-63949997D03*
X97850000Y-62949999D03*
%TD*%
D19*
%TO.C,R18*%
X97500000Y-57400001D03*
X97500000Y-58399999D03*
%TD*%
D14*
%TO.C,R21*%
X99700000Y-51300000D03*
X99700000Y-50300000D03*
%TD*%
D32*
%TO.C,U6*%
X73650000Y-42750000D03*
X73650000Y-44020000D03*
X73650000Y-45290000D03*
X73650000Y-46560000D03*
X73650000Y-47830000D03*
X73650000Y-49100000D03*
X73650000Y-50370000D03*
X78600000Y-50370000D03*
X78600000Y-49100000D03*
X78600000Y-47830000D03*
X78600000Y-46560000D03*
X78600000Y-45290000D03*
X78600000Y-44020000D03*
X78600000Y-42750000D03*
%TD*%
D20*
%TO.C,SW1*%
X103500000Y-60850002D03*
X103500000Y-56400000D03*
%TD*%
D12*
%TO.C,R8*%
X95000000Y-53050000D03*
X94000002Y-53050000D03*
%TD*%
D14*
%TO.C,C59*%
X61050000Y-48849996D03*
X61050000Y-47849998D03*
%TD*%
D12*
%TO.C,R57*%
X98700000Y-80300000D03*
X97700002Y-80300000D03*
%TD*%
D14*
%TO.C,C44*%
X103500000Y-76199998D03*
X103500000Y-75200000D03*
%TD*%
%TO.C,R63*%
X105500000Y-54000000D03*
X105500000Y-53000000D03*
%TD*%
D31*
%TO.C,M3*%
X103240000Y-108825000D03*
%TD*%
D12*
%TO.C,R37*%
X89849999Y-55150000D03*
X88850001Y-55150000D03*
%TD*%
D19*
%TO.C,C31*%
X64687499Y-65415000D03*
X64687499Y-66414998D03*
%TD*%
D33*
%TO.C,U3*%
X70112500Y-34637501D03*
X70112500Y-35587500D03*
X70112500Y-36537499D03*
X72387500Y-36537499D03*
X72387500Y-35587500D03*
X72387500Y-34637501D03*
%TD*%
D12*
%TO.C,C29*%
X67587498Y-66325000D03*
X66587500Y-66325000D03*
%TD*%
D14*
%TO.C,R13*%
X105500000Y-71500000D03*
X105500000Y-70500000D03*
%TD*%
D34*
%TO.C,U7*%
X84937500Y-46600000D03*
X84937500Y-47100000D03*
X84937500Y-47600000D03*
X84937500Y-48100000D03*
X84937500Y-48600000D03*
X84937500Y-49100000D03*
X84937500Y-49600000D03*
X84937500Y-50100000D03*
X84937500Y-50600000D03*
X84937500Y-51100000D03*
X84937500Y-51600000D03*
X84937500Y-52100000D03*
D35*
X86350000Y-53512500D03*
X86850000Y-53512500D03*
X87350000Y-53512500D03*
X87850000Y-53512500D03*
X88350000Y-53512500D03*
X88850000Y-53512500D03*
X89350000Y-53512500D03*
X89850000Y-53512500D03*
X90350000Y-53512500D03*
X90850000Y-53512500D03*
X91350000Y-53512500D03*
X91850000Y-53512500D03*
D34*
X93262500Y-52100000D03*
X93262500Y-51600000D03*
X93262500Y-51100000D03*
X93262500Y-50600000D03*
X93262500Y-50100000D03*
X93262500Y-49600000D03*
X93262500Y-49100000D03*
X93262500Y-48600000D03*
X93262500Y-48100000D03*
X93262500Y-47600000D03*
X93262500Y-47100000D03*
X93262500Y-46600000D03*
D35*
X91850000Y-45187500D03*
X91350000Y-45187500D03*
X90850000Y-45187500D03*
X90350000Y-45187500D03*
X89850000Y-45187500D03*
X89350000Y-45187500D03*
X88850000Y-45187500D03*
X88350000Y-45187500D03*
X87850000Y-45187500D03*
X87350000Y-45187500D03*
X86850000Y-45187500D03*
X86350000Y-45187500D03*
%TD*%
D19*
%TO.C,C60*%
X61050000Y-53550000D03*
X61050000Y-54549998D03*
%TD*%
%TO.C,C13*%
X103449999Y-36474999D03*
X103449999Y-37474997D03*
%TD*%
D13*
%TO.C,R66*%
X98537500Y-45375000D03*
X99537500Y-45375000D03*
%TD*%
D36*
%TO.C,U2*%
X86137500Y-37249999D03*
X86137500Y-36300000D03*
X86137500Y-35350001D03*
X83862500Y-35350001D03*
X83862500Y-36300000D03*
X83862500Y-37249999D03*
%TD*%
D14*
%TO.C,R48*%
X81300000Y-53099999D03*
X81300000Y-52100001D03*
%TD*%
D31*
%TO.C,*%
X23230000Y-108825000D03*
%TD*%
D14*
%TO.C,C58*%
X61050000Y-52649998D03*
X61050000Y-51650000D03*
%TD*%
%TO.C,R65*%
X102037500Y-48824998D03*
X102037500Y-47825000D03*
%TD*%
D19*
%TO.C,C5*%
X82200000Y-52100000D03*
X82200000Y-53099998D03*
%TD*%
D12*
%TO.C,C26*%
X92299999Y-55200000D03*
X91300001Y-55200000D03*
%TD*%
D19*
%TO.C,C32*%
X65587499Y-65415000D03*
X65587499Y-66414998D03*
%TD*%
%TO.C,R61*%
X96150000Y-62950001D03*
X96150000Y-63949999D03*
%TD*%
D37*
%TO.C,R24*%
X77440002Y-40200000D03*
X75800000Y-40200000D03*
%TD*%
D12*
%TO.C,C4*%
X64687498Y-54325000D03*
X63687500Y-54325000D03*
%TD*%
D14*
%TO.C,R30*%
X105500000Y-47500000D03*
X105500000Y-46500000D03*
%TD*%
%TO.C,R64*%
X101187500Y-48824998D03*
X101187500Y-47825000D03*
%TD*%
D38*
%TO.C,Y6*%
X97387500Y-41725000D03*
X97387500Y-43925000D03*
X99087500Y-43925000D03*
X99087500Y-41725000D03*
%TD*%
D39*
%TO.C,C8*%
X72000000Y-86720000D03*
X72000000Y-88280000D03*
%TD*%
D13*
%TO.C,R15*%
X94550001Y-60849999D03*
X95549999Y-60849999D03*
%TD*%
D40*
%TO.C,U8*%
X75600000Y-91900000D03*
X77600000Y-91900000D03*
X79600000Y-91900000D03*
X81600000Y-91900000D03*
X83600000Y-91900000D03*
X85600000Y-91900000D03*
X87600000Y-91900000D03*
X89600000Y-91900000D03*
X89600000Y-75900000D03*
X87600000Y-75900000D03*
X85600000Y-75900000D03*
X83600000Y-75900000D03*
X81600000Y-75900000D03*
X79600000Y-75900000D03*
X77600000Y-75900000D03*
X75600000Y-75900000D03*
%TD*%
D13*
%TO.C,R27*%
X59150000Y-57749999D03*
X60150000Y-57749999D03*
%TD*%
D25*
%TO.C,H1*%
X95660000Y-30640000D03*
X95660000Y-28100000D03*
X93120000Y-30640000D03*
X93120000Y-28100000D03*
X90580000Y-30640000D03*
X90580000Y-28100000D03*
X88040000Y-30640000D03*
X88040000Y-28100000D03*
X85500000Y-30640000D03*
X85500000Y-28100000D03*
X82960000Y-30640000D03*
X82960000Y-28100000D03*
X80420000Y-30640000D03*
X80420000Y-28100000D03*
X77880000Y-30640000D03*
X77880000Y-28100000D03*
X75340000Y-30640000D03*
X75340000Y-28100000D03*
X72800000Y-30640000D03*
X72800000Y-28100000D03*
X70260000Y-30640000D03*
X70260000Y-28100000D03*
X67720000Y-30640000D03*
X67720000Y-28100000D03*
X65180000Y-30640000D03*
X65180000Y-28100000D03*
X62640000Y-30640000D03*
X62640000Y-28100000D03*
X60100000Y-30640000D03*
X60100000Y-28100000D03*
X57560000Y-30640000D03*
X57560000Y-28100000D03*
X55020000Y-30640000D03*
X55020000Y-28100000D03*
X52480000Y-30640000D03*
X52480000Y-28100000D03*
X49940000Y-30640000D03*
X49940000Y-28100000D03*
X47400000Y-30640000D03*
X47400000Y-28100000D03*
X44860000Y-30640000D03*
X44860000Y-28100000D03*
X42320000Y-30640000D03*
X42320000Y-28100000D03*
X39780000Y-30640000D03*
X39780000Y-28100000D03*
X37240000Y-30640000D03*
X37240000Y-28100000D03*
X34700000Y-30640000D03*
X34700000Y-28100000D03*
X32160000Y-30640000D03*
X32160000Y-28100000D03*
%TD*%
D41*
%TO.C,D3*%
X96950000Y-49950000D03*
X98529998Y-49950000D03*
%TD*%
D19*
%TO.C,C20*%
X73100000Y-86500001D03*
X73100000Y-87499999D03*
%TD*%
D42*
%TO.C,C16*%
X83495000Y-38512500D03*
X84455000Y-38512500D03*
%TD*%
D43*
%TO.C,FB1*%
X63487499Y-67104998D03*
X63487499Y-65525000D03*
%TD*%
D44*
%TO.C,D9*%
X104344999Y-40735000D03*
X104344999Y-42314998D03*
%TD*%
D13*
%TO.C,R19*%
X99100002Y-60799999D03*
X100100000Y-60799999D03*
%TD*%
D14*
%TO.C,C49*%
X102087500Y-42574998D03*
X102087500Y-41575000D03*
%TD*%
D44*
%TO.C,D2*%
X106750000Y-47960001D03*
X106750000Y-49539999D03*
%TD*%
%TO.C,D12*%
X106750000Y-44750000D03*
X106750000Y-46329998D03*
%TD*%
D45*
%TO.C,U4*%
X104700000Y-28200000D03*
X102400000Y-28200001D03*
D46*
X102400000Y-34499999D03*
D45*
X100100000Y-28200000D03*
%TD*%
D31*
%TO.C,*%
X100700000Y-23100000D03*
%TD*%
D47*
%TO.C,U5*%
X64812499Y-55275000D03*
X64812499Y-55775000D03*
X64812499Y-56275000D03*
X64812499Y-56775000D03*
X64812499Y-57275000D03*
X64812499Y-57775000D03*
X64812499Y-58275000D03*
X64812499Y-58775000D03*
X64812499Y-59275000D03*
X64812499Y-59775000D03*
X64812499Y-60275000D03*
X64812499Y-60775000D03*
X64812499Y-61275000D03*
X64812499Y-61775000D03*
X64812499Y-62275000D03*
X64812499Y-62775000D03*
D48*
X66737499Y-64700000D03*
X67237499Y-64700000D03*
X67737499Y-64700000D03*
X68237499Y-64700000D03*
X68737499Y-64700000D03*
X69237499Y-64700000D03*
X69737499Y-64700000D03*
X70237499Y-64700000D03*
X70737499Y-64700000D03*
X71237499Y-64700000D03*
X71737499Y-64700000D03*
X72237499Y-64700000D03*
X72737499Y-64700000D03*
X73237499Y-64700000D03*
X73737499Y-64700000D03*
X74237499Y-64700000D03*
D47*
X76162499Y-62775000D03*
X76162499Y-62275000D03*
X76162499Y-61775000D03*
X76162499Y-61275000D03*
X76162499Y-60775000D03*
X76162499Y-60275000D03*
X76162499Y-59775000D03*
X76162499Y-59275000D03*
X76162499Y-58775000D03*
X76162499Y-58275000D03*
X76162499Y-57775000D03*
X76162499Y-57275000D03*
X76162499Y-56775000D03*
X76162499Y-56275000D03*
X76162499Y-55775000D03*
X76162499Y-55275000D03*
D48*
X74237499Y-53350000D03*
X73737499Y-53350000D03*
X73237499Y-53350000D03*
X72737499Y-53350000D03*
X72237499Y-53350000D03*
X71737499Y-53350000D03*
X71237499Y-53350000D03*
X70737499Y-53350000D03*
X70237499Y-53350000D03*
X69737499Y-53350000D03*
X69237499Y-53350000D03*
X68737499Y-53350000D03*
X68237499Y-53350000D03*
X67737499Y-53350000D03*
X67237499Y-53350000D03*
X66737499Y-53350000D03*
%TD*%
D49*
%TO.C,Q2*%
X93250000Y-41337500D03*
X95150000Y-41337500D03*
X94200000Y-39462500D03*
%TD*%
D19*
%TO.C,C11*%
X97500000Y-33900001D03*
X97500000Y-34899999D03*
%TD*%
%TO.C,R54*%
X92000000Y-40962501D03*
X92000000Y-41962499D03*
%TD*%
D13*
%TO.C,C9*%
X74387500Y-66225000D03*
X75387498Y-66225000D03*
%TD*%
D14*
%TO.C,C34*%
X93400000Y-45699999D03*
X93400000Y-44700001D03*
%TD*%
D19*
%TO.C,R17*%
X96650000Y-57400001D03*
X96650000Y-58399999D03*
%TD*%
%TO.C,C3*%
X103500000Y-70500000D03*
X103500000Y-71500000D03*
%TD*%
D26*
%TO.C,X4*%
X58250000Y-51949999D03*
X58250000Y-54149999D03*
X59850000Y-54149999D03*
X59850000Y-51949999D03*
%TD*%
D44*
%TO.C,D7*%
X106750000Y-51210001D03*
X106750000Y-52789999D03*
%TD*%
D50*
%TO.C,J2*%
X89680000Y-98700000D03*
X92220000Y-96160000D03*
X87140000Y-96160000D03*
X92220000Y-101240000D03*
X87140000Y-101240000D03*
%TD*%
D14*
%TO.C,C30*%
X63187499Y-61824999D03*
X63187499Y-60825001D03*
%TD*%
D13*
%TO.C,C35*%
X86000000Y-43250000D03*
X87000000Y-43250000D03*
%TD*%
D14*
%TO.C,C48*%
X101237500Y-42574998D03*
X101237500Y-41575000D03*
%TD*%
%TO.C,C51*%
X61050000Y-50749996D03*
X61050000Y-49749998D03*
%TD*%
D19*
%TO.C,C46*%
X97000000Y-62950001D03*
X97000000Y-63949999D03*
%TD*%
D14*
%TO.C,C43*%
X82900000Y-46299999D03*
X82900000Y-45300001D03*
%TD*%
D12*
%TO.C,C25*%
X81399999Y-51200000D03*
X80400001Y-51200000D03*
%TD*%
D19*
%TO.C,R22*%
X99700000Y-48400000D03*
X99700000Y-49400000D03*
%TD*%
D51*
%TO.C,U1*%
X96350000Y-70137500D03*
X97300000Y-70137500D03*
X98250000Y-70137500D03*
X98250000Y-67862500D03*
X97300000Y-67862500D03*
X96350000Y-67862500D03*
%TD*%
D19*
%TO.C,R49*%
X80450000Y-52100001D03*
X80450000Y-53099999D03*
%TD*%
D12*
%TO.C,C2*%
X60149999Y-55449999D03*
X59150001Y-55449999D03*
%TD*%
D19*
%TO.C,C10*%
X77687499Y-54725001D03*
X77687499Y-55724999D03*
%TD*%
D14*
%TO.C,R3*%
X70737499Y-50146392D03*
X70737499Y-49146394D03*
%TD*%
D13*
%TO.C,C17*%
X70900000Y-46400000D03*
X71900000Y-46400000D03*
%TD*%
D19*
%TO.C,R62*%
X82850000Y-42540001D03*
X82850000Y-43539999D03*
%TD*%
D13*
%TO.C,R20*%
X99100003Y-59949999D03*
X100100001Y-59949999D03*
%TD*%
D12*
%TO.C,R10*%
X88899999Y-43250000D03*
X87900001Y-43250000D03*
%TD*%
D19*
%TO.C,C14*%
X102549999Y-36474998D03*
X102549999Y-37474996D03*
%TD*%
D14*
%TO.C,C47*%
X100387500Y-42574998D03*
X100387500Y-41575000D03*
%TD*%
%TO.C,C7*%
X82000000Y-46499999D03*
X82000000Y-45500001D03*
%TD*%
D12*
%TO.C,R14*%
X86649999Y-34100000D03*
X85650001Y-34100000D03*
%TD*%
D14*
%TO.C,C1*%
X68937499Y-50146392D03*
X68937499Y-49146394D03*
%TD*%
%TO.C,C19*%
X83400000Y-48200000D03*
X83400000Y-47200000D03*
%TD*%
D19*
%TO.C,C6*%
X83400000Y-49100000D03*
X83400000Y-50100000D03*
%TD*%
%TO.C,R25*%
X95000000Y-51150001D03*
X95000000Y-52149999D03*
%TD*%
M02*
