%TF.GenerationSoftware,KiCad,Pcbnew,8.0.7-8.0.7-0~ubuntu22.04.1*%
%TF.CreationDate,2024-12-14T16:55:50+01:00*%
%TF.ProjectId,mini_module_template,6d696e69-5f6d-46f6-9475-6c655f74656d,rev?*%
%TF.SameCoordinates,Original*%
%TF.FileFunction,Copper,L1,Top*%
%TF.FilePolarity,Positive*%
%FSLAX46Y46*%
G04 Gerber Fmt 4.6, Leading zero omitted, Abs format (unit mm)*
G04 Created by KiCad (PCBNEW 8.0.7-8.0.7-0~ubuntu22.04.1) date 2024-12-14 16:55:50*
%MOMM*%
%LPD*%
G01*
G04 APERTURE LIST*
G04 Aperture macros list*
%AMRoundRect*
0 Rectangle with rounded corners*
0 $1 Rounding radius*
0 $2 $3 $4 $5 $6 $7 $8 $9 X,Y pos of 4 corners*
0 Add a 4 corners polygon primitive as box body*
4,1,4,$2,$3,$4,$5,$6,$7,$8,$9,$2,$3,0*
0 Add four circle primitives for the rounded corners*
1,1,$1+$1,$2,$3*
1,1,$1+$1,$4,$5*
1,1,$1+$1,$6,$7*
1,1,$1+$1,$8,$9*
0 Add four rect primitives between the rounded corners*
20,1,$1+$1,$2,$3,$4,$5,0*
20,1,$1+$1,$4,$5,$6,$7,0*
20,1,$1+$1,$6,$7,$8,$9,0*
20,1,$1+$1,$8,$9,$2,$3,0*%
%AMRotRect*
0 Rectangle, with rotation*
0 The origin of the aperture is its center*
0 $1 length*
0 $2 width*
0 $3 Rotation angle, in degrees counterclockwise*
0 Add horizontal line*
21,1,$1,$2,0,0,$3*%
%AMFreePoly0*
4,1,19,0.500000,-0.750000,0.000000,-0.750000,0.000000,-0.744911,-0.071157,-0.744911,-0.207708,-0.704816,-0.327430,-0.627875,-0.420627,-0.520320,-0.479746,-0.390866,-0.500000,-0.250000,-0.500000,0.250000,-0.479746,0.390866,-0.420627,0.520320,-0.327430,0.627875,-0.207708,0.704816,-0.071157,0.744911,0.000000,0.744911,0.000000,0.750000,0.500000,0.750000,0.500000,-0.750000,0.500000,-0.750000,
$1*%
%AMFreePoly1*
4,1,19,0.000000,0.744911,0.071157,0.744911,0.207708,0.704816,0.327430,0.627875,0.420627,0.520320,0.479746,0.390866,0.500000,0.250000,0.500000,-0.250000,0.479746,-0.390866,0.420627,-0.520320,0.327430,-0.627875,0.207708,-0.704816,0.071157,-0.744911,0.000000,-0.744911,0.000000,-0.750000,-0.500000,-0.750000,-0.500000,0.750000,0.000000,0.750000,0.000000,0.744911,0.000000,0.744911,
$1*%
G04 Aperture macros list end*
%TA.AperFunction,SMDPad,CuDef*%
%ADD10RoundRect,0.135000X0.185000X-0.135000X0.185000X0.135000X-0.185000X0.135000X-0.185000X-0.135000X0*%
%TD*%
%TA.AperFunction,SMDPad,CuDef*%
%ADD11RoundRect,0.150000X-0.587500X-0.150000X0.587500X-0.150000X0.587500X0.150000X-0.587500X0.150000X0*%
%TD*%
%TA.AperFunction,SMDPad,CuDef*%
%ADD12RoundRect,0.135000X-0.226274X-0.035355X-0.035355X-0.226274X0.226274X0.035355X0.035355X0.226274X0*%
%TD*%
%TA.AperFunction,SMDPad,CuDef*%
%ADD13RoundRect,0.140000X-0.170000X0.140000X-0.170000X-0.140000X0.170000X-0.140000X0.170000X0.140000X0*%
%TD*%
%TA.AperFunction,SMDPad,CuDef*%
%ADD14RoundRect,0.200000X0.275000X-0.200000X0.275000X0.200000X-0.275000X0.200000X-0.275000X-0.200000X0*%
%TD*%
%TA.AperFunction,SMDPad,CuDef*%
%ADD15RoundRect,0.135000X-0.135000X-0.185000X0.135000X-0.185000X0.135000X0.185000X-0.135000X0.185000X0*%
%TD*%
%TA.AperFunction,SMDPad,CuDef*%
%ADD16RoundRect,0.250000X-0.325000X-0.650000X0.325000X-0.650000X0.325000X0.650000X-0.325000X0.650000X0*%
%TD*%
%TA.AperFunction,SMDPad,CuDef*%
%ADD17RoundRect,0.140000X0.140000X0.170000X-0.140000X0.170000X-0.140000X-0.170000X0.140000X-0.170000X0*%
%TD*%
%TA.AperFunction,ComponentPad*%
%ADD18R,2.000000X0.900000*%
%TD*%
%TA.AperFunction,ComponentPad*%
%ADD19RoundRect,1.025000X-1.025000X1.025000X-1.025000X-1.025000X1.025000X-1.025000X1.025000X1.025000X0*%
%TD*%
%TA.AperFunction,ComponentPad*%
%ADD20C,4.100000*%
%TD*%
%TA.AperFunction,SMDPad,CuDef*%
%ADD21RoundRect,0.250000X-1.000000X-0.650000X1.000000X-0.650000X1.000000X0.650000X-1.000000X0.650000X0*%
%TD*%
%TA.AperFunction,SMDPad,CuDef*%
%ADD22R,1.200000X1.400000*%
%TD*%
%TA.AperFunction,SMDPad,CuDef*%
%ADD23RoundRect,0.218750X-0.256250X0.218750X-0.256250X-0.218750X0.256250X-0.218750X0.256250X0.218750X0*%
%TD*%
%TA.AperFunction,SMDPad,CuDef*%
%ADD24RoundRect,0.140000X0.219203X0.021213X0.021213X0.219203X-0.219203X-0.021213X-0.021213X-0.219203X0*%
%TD*%
%TA.AperFunction,SMDPad,CuDef*%
%ADD25RoundRect,0.135000X0.135000X0.185000X-0.135000X0.185000X-0.135000X-0.185000X0.135000X-0.185000X0*%
%TD*%
%TA.AperFunction,SMDPad,CuDef*%
%ADD26RoundRect,0.140000X0.170000X-0.140000X0.170000X0.140000X-0.170000X0.140000X-0.170000X-0.140000X0*%
%TD*%
%TA.AperFunction,ComponentPad*%
%ADD27R,1.600000X1.600000*%
%TD*%
%TA.AperFunction,ComponentPad*%
%ADD28O,1.600000X1.600000*%
%TD*%
%TA.AperFunction,SMDPad,CuDef*%
%ADD29RoundRect,0.135000X-0.185000X0.135000X-0.185000X-0.135000X0.185000X-0.135000X0.185000X0.135000X0*%
%TD*%
%TA.AperFunction,ComponentPad*%
%ADD30R,1.500000X1.500000*%
%TD*%
%TA.AperFunction,ComponentPad*%
%ADD31C,1.500000*%
%TD*%
%TA.AperFunction,ComponentPad*%
%ADD32C,2.300000*%
%TD*%
%TA.AperFunction,SMDPad,CuDef*%
%ADD33RoundRect,0.218750X0.256250X-0.218750X0.256250X0.218750X-0.256250X0.218750X-0.256250X-0.218750X0*%
%TD*%
%TA.AperFunction,SMDPad,CuDef*%
%ADD34RoundRect,0.100000X-0.712500X-0.100000X0.712500X-0.100000X0.712500X0.100000X-0.712500X0.100000X0*%
%TD*%
%TA.AperFunction,SMDPad,CuDef*%
%ADD35RoundRect,0.140000X-0.021213X0.219203X-0.219203X0.021213X0.021213X-0.219203X0.219203X-0.021213X0*%
%TD*%
%TA.AperFunction,SMDPad,CuDef*%
%ADD36RoundRect,0.225000X0.225000X0.250000X-0.225000X0.250000X-0.225000X-0.250000X0.225000X-0.250000X0*%
%TD*%
%TA.AperFunction,SMDPad,CuDef*%
%ADD37RoundRect,0.150000X-0.150000X0.825000X-0.150000X-0.825000X0.150000X-0.825000X0.150000X0.825000X0*%
%TD*%
%TA.AperFunction,SMDPad,CuDef*%
%ADD38RoundRect,0.140000X-0.140000X-0.170000X0.140000X-0.170000X0.140000X0.170000X-0.140000X0.170000X0*%
%TD*%
%TA.AperFunction,SMDPad,CuDef*%
%ADD39RoundRect,0.250000X-0.475000X0.250000X-0.475000X-0.250000X0.475000X-0.250000X0.475000X0.250000X0*%
%TD*%
%TA.AperFunction,SMDPad,CuDef*%
%ADD40RoundRect,0.218750X-0.381250X0.218750X-0.381250X-0.218750X0.381250X-0.218750X0.381250X0.218750X0*%
%TD*%
%TA.AperFunction,SMDPad,CuDef*%
%ADD41RoundRect,0.075000X-0.441942X-0.548008X0.548008X0.441942X0.441942X0.548008X-0.548008X-0.441942X0*%
%TD*%
%TA.AperFunction,SMDPad,CuDef*%
%ADD42RoundRect,0.075000X0.441942X-0.548008X0.548008X-0.441942X-0.441942X0.548008X-0.548008X0.441942X0*%
%TD*%
%TA.AperFunction,SMDPad,CuDef*%
%ADD43FreePoly0,90.000000*%
%TD*%
%TA.AperFunction,SMDPad,CuDef*%
%ADD44FreePoly1,90.000000*%
%TD*%
%TA.AperFunction,ComponentPad*%
%ADD45C,2.100000*%
%TD*%
%TA.AperFunction,ComponentPad*%
%ADD46C,1.750000*%
%TD*%
%TA.AperFunction,SMDPad,CuDef*%
%ADD47RoundRect,0.250001X-2.049999X-0.799999X2.049999X-0.799999X2.049999X0.799999X-2.049999X0.799999X0*%
%TD*%
%TA.AperFunction,SMDPad,CuDef*%
%ADD48FreePoly0,180.000000*%
%TD*%
%TA.AperFunction,SMDPad,CuDef*%
%ADD49FreePoly1,180.000000*%
%TD*%
%TA.AperFunction,SMDPad,CuDef*%
%ADD50R,1.000000X1.000000*%
%TD*%
%TA.AperFunction,SMDPad,CuDef*%
%ADD51R,1.800000X1.000000*%
%TD*%
%TA.AperFunction,SMDPad,CuDef*%
%ADD52RoundRect,0.075000X-0.662500X-0.075000X0.662500X-0.075000X0.662500X0.075000X-0.662500X0.075000X0*%
%TD*%
%TA.AperFunction,SMDPad,CuDef*%
%ADD53RoundRect,0.075000X-0.075000X-0.662500X0.075000X-0.662500X0.075000X0.662500X-0.075000X0.662500X0*%
%TD*%
%TA.AperFunction,SMDPad,CuDef*%
%ADD54RoundRect,0.150000X-0.512500X-0.150000X0.512500X-0.150000X0.512500X0.150000X-0.512500X0.150000X0*%
%TD*%
%TA.AperFunction,SMDPad,CuDef*%
%ADD55RoundRect,0.250000X-0.650000X1.000000X-0.650000X-1.000000X0.650000X-1.000000X0.650000X1.000000X0*%
%TD*%
%TA.AperFunction,SMDPad,CuDef*%
%ADD56RoundRect,0.250000X0.250000X0.475000X-0.250000X0.475000X-0.250000X-0.475000X0.250000X-0.475000X0*%
%TD*%
%TA.AperFunction,SMDPad,CuDef*%
%ADD57RoundRect,0.375000X-0.625000X-0.375000X0.625000X-0.375000X0.625000X0.375000X-0.625000X0.375000X0*%
%TD*%
%TA.AperFunction,SMDPad,CuDef*%
%ADD58RoundRect,0.500000X-0.500000X-1.400000X0.500000X-1.400000X0.500000X1.400000X-0.500000X1.400000X0*%
%TD*%
%TA.AperFunction,SMDPad,CuDef*%
%ADD59R,0.650000X1.525000*%
%TD*%
%TA.AperFunction,SMDPad,CuDef*%
%ADD60R,3.100000X2.400000*%
%TD*%
%TA.AperFunction,SMDPad,CuDef*%
%ADD61RoundRect,0.075000X0.650000X0.075000X-0.650000X0.075000X-0.650000X-0.075000X0.650000X-0.075000X0*%
%TD*%
%TA.AperFunction,SMDPad,CuDef*%
%ADD62RoundRect,0.140000X-0.219203X-0.021213X-0.021213X-0.219203X0.219203X0.021213X0.021213X0.219203X0*%
%TD*%
%TA.AperFunction,SMDPad,CuDef*%
%ADD63R,0.850000X0.350000*%
%TD*%
%TA.AperFunction,SMDPad,CuDef*%
%ADD64R,1.650000X2.450000*%
%TD*%
%TA.AperFunction,SMDPad,CuDef*%
%ADD65R,1.240000X0.600000*%
%TD*%
%TA.AperFunction,SMDPad,CuDef*%
%ADD66R,1.240000X0.300000*%
%TD*%
%TA.AperFunction,ComponentPad*%
%ADD67O,2.100000X1.000000*%
%TD*%
%TA.AperFunction,ComponentPad*%
%ADD68O,1.800000X1.000000*%
%TD*%
%TA.AperFunction,SMDPad,CuDef*%
%ADD69RoundRect,0.140000X0.021213X-0.219203X0.219203X-0.021213X-0.021213X0.219203X-0.219203X0.021213X0*%
%TD*%
%TA.AperFunction,SMDPad,CuDef*%
%ADD70RoundRect,0.225000X-0.250000X0.225000X-0.250000X-0.225000X0.250000X-0.225000X0.250000X0.225000X0*%
%TD*%
%TA.AperFunction,ComponentPad*%
%ADD71RoundRect,1.025000X1.025000X-1.025000X1.025000X1.025000X-1.025000X1.025000X-1.025000X-1.025000X0*%
%TD*%
%TA.AperFunction,SMDPad,CuDef*%
%ADD72RoundRect,0.250000X-0.250000X-0.475000X0.250000X-0.475000X0.250000X0.475000X-0.250000X0.475000X0*%
%TD*%
%TA.AperFunction,SMDPad,CuDef*%
%ADD73R,5.700000X2.400000*%
%TD*%
%TA.AperFunction,SMDPad,CuDef*%
%ADD74RotRect,1.400000X1.200000X135.000000*%
%TD*%
%TA.AperFunction,SMDPad,CuDef*%
%ADD75RoundRect,0.250000X0.325000X0.650000X-0.325000X0.650000X-0.325000X-0.650000X0.325000X-0.650000X0*%
%TD*%
%TA.AperFunction,SMDPad,CuDef*%
%ADD76RoundRect,0.250000X0.475000X-0.250000X0.475000X0.250000X-0.475000X0.250000X-0.475000X-0.250000X0*%
%TD*%
%TA.AperFunction,ComponentPad*%
%ADD77R,1.700000X1.700000*%
%TD*%
%TA.AperFunction,ComponentPad*%
%ADD78O,1.700000X1.700000*%
%TD*%
%TA.AperFunction,ViaPad*%
%ADD79C,0.550000*%
%TD*%
%TA.AperFunction,ViaPad*%
%ADD80C,0.600000*%
%TD*%
%TA.AperFunction,ViaPad*%
%ADD81C,0.650000*%
%TD*%
%TA.AperFunction,Conductor*%
%ADD82C,0.200000*%
%TD*%
%TA.AperFunction,Conductor*%
%ADD83C,0.254000*%
%TD*%
%TA.AperFunction,Conductor*%
%ADD84C,0.300000*%
%TD*%
%TA.AperFunction,Conductor*%
%ADD85C,0.750000*%
%TD*%
%TA.AperFunction,Conductor*%
%ADD86C,0.508000*%
%TD*%
%TA.AperFunction,Conductor*%
%ADD87C,2.000000*%
%TD*%
G04 APERTURE END LIST*
D10*
%TO.P,R29,1*%
%TO.N,+3V3*%
X108187501Y-66692496D03*
%TO.P,R29,2*%
%TO.N,Net-(D7-A)*%
X108187501Y-65672498D03*
%TD*%
D11*
%TO.P,Q1,1,B*%
%TO.N,Net-(Q1-B)*%
X142954999Y-64310000D03*
%TO.P,Q1,2,E*%
%TO.N,Net-(Q1-E)*%
X142954999Y-66210000D03*
%TO.P,Q1,3,C*%
%TO.N,+3V3*%
X144830000Y-65260000D03*
%TD*%
D12*
%TO.P,R2,1*%
%TO.N,+3V3*%
X105739376Y-87039376D03*
%TO.P,R2,2*%
%TO.N,/MCU/NRST*%
X106460624Y-87760624D03*
%TD*%
D13*
%TO.P,C42,1*%
%TO.N,+5V*%
X97230000Y-74505000D03*
%TO.P,C42,2*%
%TO.N,GND*%
X97230000Y-75465000D03*
%TD*%
D14*
%TO.P,R24,1*%
%TO.N,/CAN/CAN1-*%
X88230000Y-74105000D03*
%TO.P,R24,2*%
%TO.N,Net-(R24-Pad2)*%
X88230000Y-72455000D03*
%TD*%
D15*
%TO.P,R47,1*%
%TO.N,/CAN/USB_DOWNSTREAM_D+*%
X154360000Y-65920000D03*
%TO.P,R47,2*%
%TO.N,Net-(U1-DP1)*%
X155380000Y-65920000D03*
%TD*%
D16*
%TO.P,C49,1*%
%TO.N,+5V*%
X101784998Y-104700001D03*
%TO.P,C49,2*%
%TO.N,GND*%
X104735000Y-104700001D03*
%TD*%
D17*
%TO.P,C17,1*%
%TO.N,Net-(U3-NRST)*%
X127760000Y-73600000D03*
%TO.P,C17,2*%
%TO.N,GND*%
X126800000Y-73600000D03*
%TD*%
D18*
%TO.P,J2,*%
%TO.N,*%
X169150000Y-97950000D03*
X169150000Y-111450000D03*
D19*
%TO.P,J2,1,Pin_1*%
%TO.N,GND*%
X163150000Y-101100000D03*
D20*
%TO.P,J2,2,Pin_2*%
%TO.N,VCC*%
X163150000Y-108300000D03*
%TD*%
D21*
%TO.P,D1,1,K*%
%TO.N,+5V*%
X159400000Y-74400000D03*
%TO.P,D1,2,A*%
%TO.N,/USB/VBUS*%
X163400000Y-74400000D03*
%TD*%
D10*
%TO.P,R22,1*%
%TO.N,/STLINK/USB_D+*%
X142520000Y-68559999D03*
%TO.P,R22,2*%
%TO.N,Net-(Q1-E)*%
X142520000Y-67540001D03*
%TD*%
D16*
%TO.P,C46,1*%
%TO.N,VCC*%
X112174998Y-105700000D03*
%TO.P,C46,2*%
%TO.N,GND*%
X115125000Y-105700000D03*
%TD*%
D22*
%TO.P,Y4,1,1*%
%TO.N,Net-(U1-XO)*%
X168250000Y-63900000D03*
%TO.P,Y4,2,2*%
%TO.N,GND*%
X168250000Y-61700000D03*
%TO.P,Y4,3,3*%
%TO.N,Net-(U1-XI)*%
X166550000Y-61700000D03*
%TO.P,Y4,4,4*%
%TO.N,GND*%
X166550000Y-63900000D03*
%TD*%
D23*
%TO.P,D3,1,K*%
%TO.N,GND*%
X104880000Y-62914997D03*
%TO.P,D3,2,A*%
%TO.N,Net-(D3-A)*%
X104880000Y-64489999D03*
%TD*%
D24*
%TO.P,C58,1*%
%TO.N,/MCU/3V3_MCU*%
X108309411Y-86049411D03*
%TO.P,C58,2*%
%TO.N,GND*%
X107630589Y-85370589D03*
%TD*%
D25*
%TO.P,R36,1*%
%TO.N,GND*%
X93850000Y-72560000D03*
%TO.P,R36,2*%
%TO.N,Net-(IC2-STB)*%
X92830002Y-72560000D03*
%TD*%
D26*
%TO.P,C21,1*%
%TO.N,+5V*%
X113100000Y-117680000D03*
%TO.P,C21,2*%
%TO.N,GND*%
X113100000Y-116720000D03*
%TD*%
D10*
%TO.P,R48,1*%
%TO.N,/CAN/RXD1_LED*%
X162480000Y-82371998D03*
%TO.P,R48,2*%
%TO.N,Net-(J7-Pad10)*%
X162480000Y-81352000D03*
%TD*%
D25*
%TO.P,R34,1*%
%TO.N,/USB/USB_CONN_D+*%
X165065000Y-71770000D03*
%TO.P,R34,2*%
%TO.N,/USB/USB_PROT_D+*%
X164045000Y-71770000D03*
%TD*%
D27*
%TO.P,SW5,1*%
%TO.N,Net-(R24-Pad2)*%
X88770000Y-63010000D03*
D28*
%TO.P,SW5,2*%
%TO.N,Net-(R39-Pad2)*%
X88770000Y-65550000D03*
%TO.P,SW5,3*%
%TO.N,/CAN/CAN2-*%
X96390000Y-65550000D03*
%TO.P,SW5,4*%
%TO.N,/CAN/CAN1+*%
X96390000Y-63010000D03*
%TD*%
D29*
%TO.P,R31,1*%
%TO.N,GND*%
X168735000Y-68090001D03*
%TO.P,R31,2*%
%TO.N,Net-(J4-CC2)*%
X168735000Y-69109999D03*
%TD*%
D13*
%TO.P,C36,1*%
%TO.N,+5V*%
X97220000Y-69812501D03*
%TO.P,C36,2*%
%TO.N,GND*%
X97220000Y-70772501D03*
%TD*%
%TO.P,C56,1*%
%TO.N,GND*%
X101218553Y-79680050D03*
%TO.P,C56,2*%
%TO.N,Net-(U9-PC14)*%
X101218553Y-80640050D03*
%TD*%
D30*
%TO.P,J8,1*%
%TO.N,/CAN/CAN1-*%
X88519999Y-90116000D03*
D31*
%TO.P,J8,2*%
%TO.N,/CAN/CAN1+*%
X90300000Y-89100000D03*
%TO.P,J8,3*%
%TO.N,GND*%
X88519999Y-88084000D03*
%TO.P,J8,4*%
%TO.N,/CAN/CAN2-*%
X90300000Y-87068000D03*
%TO.P,J8,5*%
%TO.N,/CAN/CAN2+*%
X88519999Y-86052000D03*
%TO.P,J8,6*%
%TO.N,+12V*%
X90300000Y-85036000D03*
%TO.P,J8,7*%
%TO.N,/CAN/USB_DOWNSTREAM_D-*%
X88519999Y-84020000D03*
%TO.P,J8,8*%
%TO.N,/CAN/USB_DOWNSTREAM_D+*%
X90299999Y-83004001D03*
%TO.P,J8,9*%
%TO.N,GND*%
X95119999Y-93416000D03*
%TO.P,J8,10*%
%TO.N,Net-(J8-Pad10)*%
X95119999Y-91126000D03*
%TO.P,J8,11*%
%TO.N,GND*%
X95119999Y-81986000D03*
%TO.P,J8,12*%
%TO.N,Net-(J8-Pad12)*%
X95119999Y-79696000D03*
D32*
%TO.P,J8,SH*%
%TO.N,Net-(C45-Pad1)*%
X89409999Y-94686000D03*
X89409999Y-78426000D03*
%TD*%
D17*
%TO.P,C43,1*%
%TO.N,VCC*%
X108750000Y-107750001D03*
%TO.P,C43,2*%
%TO.N,GND*%
X107790000Y-107750001D03*
%TD*%
D33*
%TO.P,D5,1,K*%
%TO.N,Net-(D5-K)*%
X147570000Y-65807501D03*
%TO.P,D5,2,A*%
%TO.N,/STLINK/LED*%
X147570000Y-64232499D03*
%TD*%
D34*
%TO.P,U1,1,DM4*%
%TO.N,unconnected-(U1-DM4-Pad1)*%
X158232500Y-60997500D03*
%TO.P,U1,2,DP4*%
%TO.N,unconnected-(U1-DP4-Pad2)*%
X158232500Y-61632500D03*
%TO.P,U1,3,DM3*%
%TO.N,Net-(U1-DM3)*%
X158232500Y-62267500D03*
%TO.P,U1,4,DP3*%
%TO.N,Net-(U1-DP3)*%
X158232500Y-62902500D03*
%TO.P,U1,5,DM2*%
%TO.N,Net-(U1-DM2)*%
X158232500Y-63537500D03*
%TO.P,U1,6,DP2*%
%TO.N,Net-(U1-DP2)*%
X158232500Y-64172500D03*
%TO.P,U1,7,DM1*%
%TO.N,Net-(U1-DM1)*%
X158232500Y-64807500D03*
%TO.P,U1,8,DP1*%
%TO.N,Net-(U1-DP1)*%
X158232500Y-65442500D03*
%TO.P,U1,9,RESET#/CDP*%
%TO.N,unconnected-(U1-RESET#{slash}CDP-Pad9)*%
X163507500Y-65442500D03*
%TO.P,U1,10,DMU*%
%TO.N,/USB/USB_UPSTREAM_D-*%
X163507500Y-64807500D03*
%TO.P,U1,11,DPU*%
%TO.N,/USB/USB_UPSTREAM_D+*%
X163507500Y-64172500D03*
%TO.P,U1,12,V5*%
%TO.N,+5V*%
X163507500Y-63537500D03*
%TO.P,U1,13,VDD33*%
%TO.N,Net-(U1-VDD33)*%
X163507500Y-62902500D03*
%TO.P,U1,14,GND*%
%TO.N,GND*%
X163507500Y-62267500D03*
%TO.P,U1,15,XO*%
%TO.N,Net-(U1-XO)*%
X163507500Y-61632500D03*
%TO.P,U1,16,XI*%
%TO.N,Net-(U1-XI)*%
X163507500Y-60997500D03*
%TD*%
D25*
%TO.P,R57,1*%
%TO.N,Net-(IC3-FB)*%
X112939997Y-94980001D03*
%TO.P,R57,2*%
%TO.N,GND*%
X111919999Y-94980001D03*
%TD*%
D26*
%TO.P,C40,1*%
%TO.N,+3V3*%
X157570000Y-69499999D03*
%TO.P,C40,2*%
%TO.N,GND*%
X157570000Y-68539999D03*
%TD*%
D29*
%TO.P,R21,1*%
%TO.N,GND*%
X144660000Y-62030001D03*
%TO.P,R21,2*%
%TO.N,Net-(Q1-B)*%
X144660000Y-63049999D03*
%TD*%
D17*
%TO.P,C54,1*%
%TO.N,GND*%
X170580000Y-65590000D03*
%TO.P,C54,2*%
%TO.N,Net-(U1-VDD33)*%
X169620000Y-65590000D03*
%TD*%
D15*
%TO.P,R32,1*%
%TO.N,GND*%
X168645001Y-73670000D03*
%TO.P,R32,2*%
%TO.N,Net-(J4-CC1)*%
X169664999Y-73670000D03*
%TD*%
D35*
%TO.P,C3,1*%
%TO.N,/MCU/3V3_MCU*%
X115189411Y-85370589D03*
%TO.P,C3,2*%
%TO.N,GND*%
X114510589Y-86049411D03*
%TD*%
D36*
%TO.P,C22,1*%
%TO.N,+3V3*%
X116275000Y-111800000D03*
%TO.P,C22,2*%
%TO.N,GND*%
X114725000Y-111800000D03*
%TD*%
D25*
%TO.P,R12,1*%
%TO.N,GND*%
X134909999Y-63600000D03*
%TO.P,R12,2*%
%TO.N,/STLINK/BOOT*%
X133890001Y-63600000D03*
%TD*%
D24*
%TO.P,C5,1*%
%TO.N,/MCU/3V3_MCU*%
X104049411Y-79179411D03*
%TO.P,C5,2*%
%TO.N,GND*%
X103370589Y-78500589D03*
%TD*%
D10*
%TO.P,R9,1*%
%TO.N,/MCU/USR_LED1*%
X106580000Y-66799998D03*
%TO.P,R9,2*%
%TO.N,Net-(D2-A)*%
X106580000Y-65780000D03*
%TD*%
D26*
%TO.P,C16,1*%
%TO.N,+3V3*%
X128400000Y-72680000D03*
%TO.P,C16,2*%
%TO.N,GND*%
X128400000Y-71720000D03*
%TD*%
D25*
%TO.P,R35,1*%
%TO.N,Net-(J4-SHIELD)*%
X167165000Y-73870000D03*
%TO.P,R35,2*%
%TO.N,GND*%
X166145000Y-73870000D03*
%TD*%
D14*
%TO.P,R17,1*%
%TO.N,Net-(U3-PB12)*%
X142600000Y-73775000D03*
%TO.P,R17,2*%
%TO.N,/STLINK/SWDIO*%
X142600000Y-72125000D03*
%TD*%
D25*
%TO.P,R11,1*%
%TO.N,Net-(U3-NRST)*%
X127779998Y-74700000D03*
%TO.P,R11,2*%
%TO.N,+3V3*%
X126760000Y-74700000D03*
%TD*%
D13*
%TO.P,C41,1*%
%TO.N,+3V3*%
X157570000Y-66639999D03*
%TO.P,C41,2*%
%TO.N,GND*%
X157570000Y-67599999D03*
%TD*%
D37*
%TO.P,U2,1,NC*%
%TO.N,unconnected-(U2-NC-Pad1)*%
X103182500Y-62662499D03*
%TO.P,U2,2,NC*%
%TO.N,unconnected-(U2-NC-Pad2)*%
X101912500Y-62662499D03*
%TO.P,U2,3,NC*%
%TO.N,unconnected-(U2-NC-Pad3)*%
X100642500Y-62662499D03*
%TO.P,U2,4,VSS*%
%TO.N,GND*%
X99372500Y-62662499D03*
%TO.P,U2,5,SDA*%
%TO.N,/MCU/I2C3_SDA*%
X99372500Y-67612499D03*
%TO.P,U2,6,SCL*%
%TO.N,/MCU/I2C3_SCL*%
X100642500Y-67612499D03*
%TO.P,U2,7,WP*%
%TO.N,Net-(U2-WP)*%
X101912500Y-67612499D03*
%TO.P,U2,8,VDD*%
%TO.N,+3V3*%
X103182500Y-67612499D03*
%TD*%
D38*
%TO.P,C35,1*%
%TO.N,GND*%
X111929999Y-96140001D03*
%TO.P,C35,2*%
%TO.N,Net-(IC3-SS)*%
X112889999Y-96140001D03*
%TD*%
D29*
%TO.P,R20,1*%
%TO.N,/STLINK/USB_RENUM*%
X143580000Y-62030001D03*
%TO.P,R20,2*%
%TO.N,Net-(Q1-B)*%
X143580000Y-63049999D03*
%TD*%
D39*
%TO.P,C8,1*%
%TO.N,/MCU/3V3_MCU*%
X117000000Y-64950001D03*
%TO.P,C8,2*%
%TO.N,GND*%
X117000000Y-66849999D03*
%TD*%
D40*
%TO.P,FB1,1*%
%TO.N,/MCU/3V3_MCU*%
X119100000Y-64837500D03*
%TO.P,FB1,2*%
%TO.N,+3V3*%
X119100000Y-66962500D03*
%TD*%
D38*
%TO.P,C18,1*%
%TO.N,Net-(U3-PD0)*%
X124317000Y-68393000D03*
%TO.P,C18,2*%
%TO.N,GND*%
X125277000Y-68393000D03*
%TD*%
D13*
%TO.P,C44,1*%
%TO.N,Net-(C44-Pad1)*%
X162480000Y-79381999D03*
%TO.P,C44,2*%
%TO.N,GND*%
X162480000Y-80341999D03*
%TD*%
D35*
%TO.P,C55,1*%
%TO.N,GND*%
X121489411Y-80780589D03*
%TO.P,C55,2*%
%TO.N,Net-(U9-VCAP_1)*%
X120810589Y-81459411D03*
%TD*%
D25*
%TO.P,R38,1*%
%TO.N,GND*%
X98359999Y-76850000D03*
%TO.P,R38,2*%
%TO.N,Net-(IC1-STB)*%
X97340001Y-76850000D03*
%TD*%
D23*
%TO.P,D2,1,K*%
%TO.N,GND*%
X106580000Y-62914997D03*
%TO.P,D2,2,A*%
%TO.N,Net-(D2-A)*%
X106580000Y-64489999D03*
%TD*%
D10*
%TO.P,R10,1*%
%TO.N,/MCU/USR_LED2*%
X104880000Y-66799998D03*
%TO.P,R10,2*%
%TO.N,Net-(D3-A)*%
X104880000Y-65780000D03*
%TD*%
%TO.P,R50,1*%
%TO.N,Net-(C44-Pad1)*%
X162480000Y-78371998D03*
%TO.P,R50,2*%
%TO.N,GND*%
X162480000Y-77352000D03*
%TD*%
D29*
%TO.P,R51,1*%
%TO.N,Net-(C45-Pad1)*%
X97330000Y-94770001D03*
%TO.P,R51,2*%
%TO.N,GND*%
X97330000Y-95789999D03*
%TD*%
D41*
%TO.P,U9,1,VBAT*%
%TO.N,/MCU/3V3_MCU*%
X105235519Y-79561181D03*
%TO.P,U9,2,PC13*%
%TO.N,/MCU/USR_LED2*%
X105589072Y-79914734D03*
%TO.P,U9,3,PC14*%
%TO.N,Net-(U9-PC14)*%
X105942625Y-80268287D03*
%TO.P,U9,4,PC15*%
%TO.N,Net-(U9-PC15)*%
X106296179Y-80621841D03*
%TO.P,U9,5,PH0*%
%TO.N,Net-(U9-PH0)*%
X106649732Y-80975394D03*
%TO.P,U9,6,PH1*%
%TO.N,Net-(U9-PH1)*%
X107003286Y-81328948D03*
%TO.P,U9,7,NRST*%
%TO.N,/MCU/NRST*%
X107356839Y-81682501D03*
%TO.P,U9,8,PC0*%
%TO.N,/MCU/V_SENSE*%
X107710392Y-82036054D03*
%TO.P,U9,9,PC1*%
%TO.N,PC1*%
X108063946Y-82389608D03*
%TO.P,U9,10,PC2*%
%TO.N,PC2*%
X108417499Y-82743161D03*
%TO.P,U9,11,PC3*%
%TO.N,PC3*%
X108771052Y-83096714D03*
%TO.P,U9,12,VSSA*%
%TO.N,GND*%
X109124606Y-83450268D03*
%TO.P,U9,13,VDDA*%
%TO.N,/MCU/3V3_MCU*%
X109478159Y-83803821D03*
%TO.P,U9,14,PA0*%
%TO.N,PA0*%
X109831713Y-84157375D03*
%TO.P,U9,15,PA1*%
%TO.N,PA1*%
X110185266Y-84510928D03*
%TO.P,U9,16,PA2*%
%TO.N,PA2*%
X110538819Y-84864481D03*
D42*
%TO.P,U9,17,PA3*%
%TO.N,PA3*%
X113261181Y-84864481D03*
%TO.P,U9,18,VSS*%
%TO.N,GND*%
X113614734Y-84510928D03*
%TO.P,U9,19,VDD*%
%TO.N,/MCU/3V3_MCU*%
X113968287Y-84157375D03*
%TO.P,U9,20,PA4*%
%TO.N,PA4*%
X114321841Y-83803821D03*
%TO.P,U9,21,PA5*%
%TO.N,PA5*%
X114675394Y-83450268D03*
%TO.P,U9,22,PA6*%
%TO.N,PA6*%
X115028948Y-83096714D03*
%TO.P,U9,23,PA7*%
%TO.N,PA7*%
X115382501Y-82743161D03*
%TO.P,U9,24,PC4*%
%TO.N,PC4*%
X115736054Y-82389608D03*
%TO.P,U9,25,PC5*%
%TO.N,PC5*%
X116089608Y-82036054D03*
%TO.P,U9,26,PB0*%
%TO.N,PB0*%
X116443161Y-81682501D03*
%TO.P,U9,27,PB1*%
%TO.N,PB1*%
X116796714Y-81328948D03*
%TO.P,U9,28,PB2*%
%TO.N,PB2*%
X117150268Y-80975394D03*
%TO.P,U9,29,PB10*%
%TO.N,PB10*%
X117503821Y-80621841D03*
%TO.P,U9,30,VCAP_1*%
%TO.N,Net-(U9-VCAP_1)*%
X117857375Y-80268287D03*
%TO.P,U9,31,VSS*%
%TO.N,GND*%
X118210928Y-79914734D03*
%TO.P,U9,32,VDD*%
%TO.N,/MCU/3V3_MCU*%
X118564481Y-79561181D03*
D41*
%TO.P,U9,33,PB12*%
%TO.N,PB12*%
X118564481Y-76838819D03*
%TO.P,U9,34,PB13*%
%TO.N,PB13*%
X118210928Y-76485266D03*
%TO.P,U9,35,PB14*%
%TO.N,PB14*%
X117857375Y-76131713D03*
%TO.P,U9,36,PB15*%
%TO.N,PB15*%
X117503821Y-75778159D03*
%TO.P,U9,37,PC6*%
%TO.N,PC6*%
X117150268Y-75424606D03*
%TO.P,U9,38,PC7*%
%TO.N,/CAN/TXD1_LED*%
X116796714Y-75071052D03*
%TO.P,U9,39,PC8*%
%TO.N,/CAN/RXD1_LED*%
X116443161Y-74717499D03*
%TO.P,U9,40,PC9*%
%TO.N,/MCU/I2C3_SDA*%
X116089608Y-74363946D03*
%TO.P,U9,41,PA8*%
%TO.N,/MCU/I2C3_SCL*%
X115736054Y-74010392D03*
%TO.P,U9,42,PA9*%
%TO.N,/CAN/RXD2_LED*%
X115382501Y-73656839D03*
%TO.P,U9,43,PA10*%
%TO.N,/CAN/TXD2_LED*%
X115028948Y-73303286D03*
%TO.P,U9,44,PA11*%
%TO.N,/MCU/USB_D-*%
X114675394Y-72949732D03*
%TO.P,U9,45,PA12*%
%TO.N,/MCU/USB_D+*%
X114321841Y-72596179D03*
%TO.P,U9,46,PA13*%
%TO.N,/MCU/SWDIO*%
X113968287Y-72242625D03*
%TO.P,U9,47,VSS*%
%TO.N,GND*%
X113614734Y-71889072D03*
%TO.P,U9,48,VDD*%
%TO.N,/MCU/3V3_MCU*%
X113261181Y-71535519D03*
D42*
%TO.P,U9,49,PA14*%
%TO.N,/MCU/SWCLK*%
X110538819Y-71535519D03*
%TO.P,U9,50,PA15*%
%TO.N,/MCU/USR_LED1*%
X110185266Y-71889072D03*
%TO.P,U9,51,PC10*%
%TO.N,PC10*%
X109831713Y-72242625D03*
%TO.P,U9,52,PC11*%
%TO.N,PC11*%
X109478159Y-72596179D03*
%TO.P,U9,53,PC12*%
%TO.N,PC12*%
X109124606Y-72949732D03*
%TO.P,U9,54,PD2*%
%TO.N,PD2*%
X108771052Y-73303286D03*
%TO.P,U9,55,PB3*%
%TO.N,PB3*%
X108417499Y-73656839D03*
%TO.P,U9,56,PB4*%
%TO.N,PB4*%
X108063946Y-74010392D03*
%TO.P,U9,57,PB5*%
%TO.N,/CAN/CAN2_RXD*%
X107710392Y-74363946D03*
%TO.P,U9,58,PB6*%
%TO.N,/CAN/CAN2_TXD*%
X107356839Y-74717499D03*
%TO.P,U9,59,PB7*%
%TO.N,/MCU/BOOT_EN*%
X107003286Y-75071052D03*
%TO.P,U9,60,BOOT0*%
%TO.N,/MCU/BOOT0*%
X106649732Y-75424606D03*
%TO.P,U9,61,PB8*%
%TO.N,/CAN/CAN1_RXD*%
X106296179Y-75778159D03*
%TO.P,U9,62,PB9*%
%TO.N,/CAN/CAN1_TXD*%
X105942625Y-76131713D03*
%TO.P,U9,63,VSS*%
%TO.N,GND*%
X105589072Y-76485266D03*
%TO.P,U9,64,VDD*%
%TO.N,/MCU/3V3_MCU*%
X105235519Y-76838819D03*
%TD*%
D29*
%TO.P,R49,1*%
%TO.N,/CAN/TXD1_LED*%
X162610000Y-92290001D03*
%TO.P,R49,2*%
%TO.N,Net-(J7-Pad12)*%
X162610000Y-93309999D03*
%TD*%
D15*
%TO.P,R45,1*%
%TO.N,GND*%
X158460000Y-70519999D03*
%TO.P,R45,2*%
%TO.N,Net-(U8-~{OE})*%
X159480000Y-70519999D03*
%TD*%
D25*
%TO.P,R40,1*%
%TO.N,Net-(U1-DM3)*%
X155379999Y-60913000D03*
%TO.P,R40,2*%
%TO.N,/STLINK/USB_D-*%
X154360001Y-60913000D03*
%TD*%
D15*
%TO.P,R56,1*%
%TO.N,+5V*%
X111900000Y-93910001D03*
%TO.P,R56,2*%
%TO.N,Net-(IC3-FB)*%
X112919998Y-93910001D03*
%TD*%
D25*
%TO.P,R46,1*%
%TO.N,Net-(U1-DM1)*%
X155379999Y-64920000D03*
%TO.P,R46,2*%
%TO.N,/CAN/USB_DOWNSTREAM_D-*%
X154360001Y-64920000D03*
%TD*%
D38*
%TO.P,C13,1*%
%TO.N,+3V3*%
X131320000Y-63800000D03*
%TO.P,C13,2*%
%TO.N,GND*%
X132280000Y-63800000D03*
%TD*%
D43*
%TO.P,JP3,1,A*%
%TO.N,/MCU/NRST*%
X140100000Y-75749998D03*
D44*
%TO.P,JP3,2,B*%
%TO.N,/STLINK/NRST*%
X140100000Y-74450000D03*
%TD*%
D45*
%TO.P,SW2,*%
%TO.N,*%
X85300000Y-75400000D03*
X85300000Y-68390000D03*
D46*
%TO.P,SW2,1,1*%
%TO.N,GND*%
X82810000Y-74150000D03*
%TO.P,SW2,2,2*%
%TO.N,/MCU/NRST*%
X82810000Y-69650000D03*
%TD*%
D24*
%TO.P,C9,1*%
%TO.N,/MCU/NRST*%
X105732306Y-88446518D03*
%TO.P,C9,2*%
%TO.N,GND*%
X105053484Y-87767696D03*
%TD*%
D47*
%TO.P,C47,1*%
%TO.N,VCC*%
X102100000Y-113950000D03*
%TO.P,C47,2*%
%TO.N,GND*%
X110900000Y-113950000D03*
%TD*%
D30*
%TO.P,J7,1*%
%TO.N,/CAN/CAN1-*%
X171460000Y-83050000D03*
D31*
%TO.P,J7,2*%
%TO.N,/CAN/CAN1+*%
X169679999Y-84066000D03*
%TO.P,J7,3*%
%TO.N,GND*%
X171460000Y-85082000D03*
%TO.P,J7,4*%
%TO.N,/CAN/CAN2-*%
X169679999Y-86098000D03*
%TO.P,J7,5*%
%TO.N,/CAN/CAN2+*%
X171460000Y-87114000D03*
%TO.P,J7,6*%
%TO.N,+12V*%
X169679999Y-88130000D03*
%TO.P,J7,7*%
%TO.N,/CAN/USB_UPSTREAM_D-*%
X171460000Y-89146000D03*
%TO.P,J7,8*%
%TO.N,/CAN/USB_UPSTREAM_D+*%
X169680000Y-90161999D03*
%TO.P,J7,9*%
%TO.N,GND*%
X164860000Y-79750000D03*
%TO.P,J7,10*%
%TO.N,Net-(J7-Pad10)*%
X164860000Y-82040000D03*
%TO.P,J7,11*%
%TO.N,GND*%
X164860000Y-91180000D03*
%TO.P,J7,12*%
%TO.N,Net-(J7-Pad12)*%
X164860000Y-93470000D03*
D32*
%TO.P,J7,SH*%
%TO.N,Net-(C44-Pad1)*%
X170570000Y-78480000D03*
X170570000Y-94740000D03*
%TD*%
D29*
%TO.P,R15,1*%
%TO.N,GND*%
X122000000Y-65200000D03*
%TO.P,R15,2*%
%TO.N,Net-(U3-PC14)*%
X122000000Y-66219998D03*
%TD*%
%TO.P,R7,1*%
%TO.N,GND*%
X98020000Y-61880001D03*
%TO.P,R7,2*%
%TO.N,Net-(U2-WP)*%
X98020000Y-62899999D03*
%TD*%
%TO.P,R14,1*%
%TO.N,GND*%
X123000000Y-65200000D03*
%TO.P,R14,2*%
%TO.N,Net-(U3-PC13)*%
X123000000Y-66219998D03*
%TD*%
D25*
%TO.P,R33,1*%
%TO.N,/USB/USB_CONN_D-*%
X165065000Y-70770000D03*
%TO.P,R33,2*%
%TO.N,/USB/USB_PROT_D-*%
X164045000Y-70770000D03*
%TD*%
D48*
%TO.P,JP1,1,A*%
%TO.N,/MCU/SWCLK*%
X145999998Y-75300000D03*
D49*
%TO.P,JP1,2,B*%
%TO.N,/STLINK/SWCLK*%
X144700000Y-75300000D03*
%TD*%
D50*
%TO.P,TP2,1,1*%
%TO.N,/STLINK/BOOT*%
X133810000Y-62030000D03*
%TD*%
D17*
%TO.P,C14,1*%
%TO.N,+3V3*%
X130530000Y-65630000D03*
%TO.P,C14,2*%
%TO.N,GND*%
X129570000Y-65630000D03*
%TD*%
D51*
%TO.P,Y3,1,1*%
%TO.N,Net-(U9-PC14)*%
X99521497Y-79900000D03*
%TO.P,Y3,2,2*%
%TO.N,Net-(U9-PC15)*%
X99521497Y-82399998D03*
%TD*%
D10*
%TO.P,R16,1*%
%TO.N,GND*%
X130300000Y-74900000D03*
%TO.P,R16,2*%
%TO.N,Net-(U3-PA0)*%
X130300000Y-73880002D03*
%TD*%
D36*
%TO.P,C39,1*%
%TO.N,GND*%
X167415000Y-68120000D03*
%TO.P,C39,2*%
%TO.N,+5V*%
X165865000Y-68120000D03*
%TD*%
D52*
%TO.P,U3,1,VBAT*%
%TO.N,+3V3*%
X130787500Y-67212500D03*
%TO.P,U3,2,PC13*%
%TO.N,Net-(U3-PC13)*%
X130787500Y-67712500D03*
%TO.P,U3,3,PC14*%
%TO.N,Net-(U3-PC14)*%
X130787500Y-68212500D03*
%TO.P,U3,4,PC15*%
%TO.N,unconnected-(U3-PC15-Pad4)*%
X130787500Y-68712500D03*
%TO.P,U3,5,PD0*%
%TO.N,Net-(U3-PD0)*%
X130787500Y-69212500D03*
%TO.P,U3,6,PD1*%
%TO.N,Net-(U3-PD1)*%
X130787500Y-69712500D03*
%TO.P,U3,7,NRST*%
%TO.N,Net-(U3-NRST)*%
X130787500Y-70212500D03*
%TO.P,U3,8,VSSA*%
%TO.N,GND*%
X130787500Y-70712500D03*
%TO.P,U3,9,VDDA*%
%TO.N,+3V3*%
X130787500Y-71212500D03*
%TO.P,U3,10,PA0*%
%TO.N,Net-(U3-PA0)*%
X130787500Y-71712500D03*
%TO.P,U3,11,PA1*%
%TO.N,unconnected-(U3-PA1-Pad11)*%
X130787500Y-72212500D03*
%TO.P,U3,12,PA2*%
%TO.N,/STLINK/TARGET_TX*%
X130787500Y-72712500D03*
D53*
%TO.P,U3,13,PA3*%
%TO.N,/STLINK/TARGET_RX*%
X132200000Y-74125000D03*
%TO.P,U3,14,PA4*%
%TO.N,unconnected-(U3-PA4-Pad14)*%
X132700000Y-74125000D03*
%TO.P,U3,15,PA5*%
%TO.N,/STLINK/SWCLK*%
X133200000Y-74125000D03*
%TO.P,U3,16,PA6*%
%TO.N,unconnected-(U3-PA6-Pad16)*%
X133700000Y-74125000D03*
%TO.P,U3,17,PA7*%
%TO.N,unconnected-(U3-PA7-Pad17)*%
X134200000Y-74125000D03*
%TO.P,U3,18,PB0*%
%TO.N,/STLINK/NRST*%
X134700000Y-74125000D03*
%TO.P,U3,19,PB1*%
%TO.N,unconnected-(U3-PB1-Pad19)*%
X135200000Y-74125000D03*
%TO.P,U3,20,PB2*%
%TO.N,unconnected-(U3-PB2-Pad20)*%
X135700000Y-74125000D03*
%TO.P,U3,21,PB10*%
%TO.N,unconnected-(U3-PB10-Pad21)*%
X136200000Y-74125000D03*
%TO.P,U3,22,PB11*%
%TO.N,unconnected-(U3-PB11-Pad22)*%
X136700000Y-74125000D03*
%TO.P,U3,23,VSS*%
%TO.N,GND*%
X137200000Y-74125000D03*
%TO.P,U3,24,VDD*%
%TO.N,+3V3*%
X137700000Y-74125000D03*
D52*
%TO.P,U3,25,PB12*%
%TO.N,Net-(U3-PB12)*%
X139112500Y-72712500D03*
%TO.P,U3,26,PB13*%
%TO.N,/STLINK/SWCLK*%
X139112500Y-72212500D03*
%TO.P,U3,27,PB14*%
%TO.N,/STLINK/SWDIO*%
X139112500Y-71712500D03*
%TO.P,U3,28,PB15*%
%TO.N,unconnected-(U3-PB15-Pad28)*%
X139112500Y-71212500D03*
%TO.P,U3,29,PA8*%
%TO.N,unconnected-(U3-PA8-Pad29)*%
X139112500Y-70712500D03*
%TO.P,U3,30,PA9*%
%TO.N,/STLINK/LED*%
X139112500Y-70212500D03*
%TO.P,U3,31,PA10*%
%TO.N,/STLINK/SWO*%
X139112500Y-69712500D03*
%TO.P,U3,32,PA11*%
%TO.N,/STLINK/USB_D-*%
X139112500Y-69212500D03*
%TO.P,U3,33,PA12*%
%TO.N,/STLINK/USB_D+*%
X139112500Y-68712500D03*
%TO.P,U3,34,PA13*%
%TO.N,/STLINK/DIO*%
X139112500Y-68212500D03*
%TO.P,U3,35,VSS*%
%TO.N,GND*%
X139112500Y-67712500D03*
%TO.P,U3,36,VDD*%
%TO.N,+3V3*%
X139112500Y-67212500D03*
D53*
%TO.P,U3,37,PA14*%
%TO.N,/STLINK/CLK*%
X137700000Y-65800000D03*
%TO.P,U3,38,PA15*%
%TO.N,/STLINK/USB_RENUM*%
X137200000Y-65800000D03*
%TO.P,U3,39,PB3*%
%TO.N,unconnected-(U3-PB3-Pad39)*%
X136700000Y-65800000D03*
%TO.P,U3,40,PB4*%
%TO.N,unconnected-(U3-PB4-Pad40)*%
X136200000Y-65800000D03*
%TO.P,U3,41,PB5*%
%TO.N,unconnected-(U3-PB5-Pad41)*%
X135700000Y-65800000D03*
%TO.P,U3,42,PB6*%
%TO.N,unconnected-(U3-PB6-Pad42)*%
X135200000Y-65800000D03*
%TO.P,U3,43,PB7*%
%TO.N,unconnected-(U3-PB7-Pad43)*%
X134700000Y-65800000D03*
%TO.P,U3,44,BOOT0*%
%TO.N,/STLINK/BOOT*%
X134200000Y-65800000D03*
%TO.P,U3,45,PB8*%
%TO.N,unconnected-(U3-PB8-Pad45)*%
X133700000Y-65800000D03*
%TO.P,U3,46,PB9*%
%TO.N,unconnected-(U3-PB9-Pad46)*%
X133200000Y-65800000D03*
%TO.P,U3,47,VSS*%
%TO.N,GND*%
X132700000Y-65800000D03*
%TO.P,U3,48,VDD*%
%TO.N,+3V3*%
X132200000Y-65800000D03*
%TD*%
D33*
%TO.P,D4,1,K*%
%TO.N,/STLINK/LED*%
X147570000Y-62807501D03*
%TO.P,D4,2,A*%
%TO.N,Net-(D4-A)*%
X147570000Y-61232499D03*
%TD*%
D54*
%TO.P,U6,1,I/O1*%
%TO.N,/USB/USB_CONN_D-*%
X166517500Y-70450000D03*
%TO.P,U6,2,GND*%
%TO.N,GND*%
X166517500Y-71400000D03*
%TO.P,U6,3,I/O2*%
%TO.N,/USB/USB_CONN_D+*%
X166517500Y-72350000D03*
%TO.P,U6,4,I/O2*%
X168792500Y-72350000D03*
%TO.P,U6,5,VBUS*%
%TO.N,/USB/VBUS*%
X168792500Y-71400000D03*
%TO.P,U6,6,I/O1*%
%TO.N,/USB/USB_CONN_D-*%
X168792500Y-70450000D03*
%TD*%
D16*
%TO.P,C51,1*%
%TO.N,+5V*%
X101784998Y-107100001D03*
%TO.P,C51,2*%
%TO.N,GND*%
X104735000Y-107100001D03*
%TD*%
D29*
%TO.P,R52,1*%
%TO.N,/CAN/RXD2_LED*%
X97350000Y-90670001D03*
%TO.P,R52,2*%
%TO.N,Net-(J8-Pad10)*%
X97350000Y-91689999D03*
%TD*%
D55*
%TO.P,D6,1,K*%
%TO.N,/POWER/5V_COIL*%
X107750000Y-96700000D03*
%TO.P,D6,2,A*%
%TO.N,GND*%
X107750000Y-100700002D03*
%TD*%
D15*
%TO.P,R42,1*%
%TO.N,/MCU/USB_D-*%
X154360000Y-62913000D03*
%TO.P,R42,2*%
%TO.N,Net-(U1-DM2)*%
X155380000Y-62913000D03*
%TD*%
D13*
%TO.P,C37,1*%
%TO.N,+3V3*%
X140900000Y-66320000D03*
%TO.P,C37,2*%
%TO.N,GND*%
X140900000Y-67280000D03*
%TD*%
D29*
%TO.P,R13,1*%
%TO.N,Net-(U3-PA0)*%
X129200000Y-73890001D03*
%TO.P,R13,2*%
%TO.N,+3V3*%
X129200000Y-74909999D03*
%TD*%
D26*
%TO.P,C34,1*%
%TO.N,Net-(IC3-BOOT)*%
X108999999Y-104180001D03*
%TO.P,C34,2*%
%TO.N,/POWER/5V_COIL*%
X108999999Y-103220001D03*
%TD*%
D15*
%TO.P,R30,1*%
%TO.N,/MCU/V_SENSE*%
X105240000Y-90500000D03*
%TO.P,R30,2*%
%TO.N,GND*%
X106260000Y-90500000D03*
%TD*%
D56*
%TO.P,C23,1*%
%TO.N,+3V3*%
X116699999Y-110000000D03*
%TO.P,C23,2*%
%TO.N,GND*%
X114800001Y-110000000D03*
%TD*%
D15*
%TO.P,R41,1*%
%TO.N,/STLINK/USB_D+*%
X154360000Y-61913000D03*
%TO.P,R41,2*%
%TO.N,Net-(U1-DP3)*%
X155380000Y-61913000D03*
%TD*%
D29*
%TO.P,R53,1*%
%TO.N,/CAN/TXD2_LED*%
X97290000Y-78750001D03*
%TO.P,R53,2*%
%TO.N,Net-(J8-Pad12)*%
X97290000Y-79769999D03*
%TD*%
D10*
%TO.P,R37,1*%
%TO.N,Net-(IC3-RT{slash}SYNC)*%
X115729999Y-103720000D03*
%TO.P,R37,2*%
%TO.N,GND*%
X115729999Y-102700002D03*
%TD*%
%TO.P,R19,1*%
%TO.N,Net-(D4-A)*%
X148970000Y-62229999D03*
%TO.P,R19,2*%
%TO.N,+3V3*%
X148970000Y-61210001D03*
%TD*%
D57*
%TO.P,U4,1,GND*%
%TO.N,GND*%
X114920000Y-113850000D03*
%TO.P,U4,2,VO*%
%TO.N,+3V3*%
X114920001Y-116150000D03*
D58*
X121219999Y-116150000D03*
D57*
%TO.P,U4,3,VI*%
%TO.N,+5V*%
X114920000Y-118450000D03*
%TD*%
D59*
%TO.P,IC3,1,BOOT*%
%TO.N,Net-(IC3-BOOT)*%
X110439999Y-103150001D03*
%TO.P,IC3,2,VIN*%
%TO.N,VCC*%
X111709999Y-103150001D03*
%TO.P,IC3,3,EN*%
%TO.N,unconnected-(IC3-EN-Pad3)*%
X112979999Y-103150001D03*
%TO.P,IC3,4,RT/SYNC*%
%TO.N,Net-(IC3-RT{slash}SYNC)*%
X114249999Y-103150001D03*
%TO.P,IC3,5,FB*%
%TO.N,Net-(IC3-FB)*%
X114249999Y-97726001D03*
%TO.P,IC3,6,SS*%
%TO.N,Net-(IC3-SS)*%
X112979999Y-97726001D03*
%TO.P,IC3,7,GND*%
%TO.N,GND*%
X111709999Y-97726001D03*
%TO.P,IC3,8,SW*%
%TO.N,/POWER/5V_COIL*%
X110439999Y-97726001D03*
D60*
%TO.P,IC3,9,EP*%
%TO.N,GND*%
X112344999Y-100438001D03*
%TD*%
D15*
%TO.P,R5,1*%
%TO.N,+3V3*%
X99107501Y-69437499D03*
%TO.P,R5,2*%
%TO.N,/MCU/I2C3_SDA*%
X100127499Y-69437499D03*
%TD*%
%TO.P,R43,1*%
%TO.N,/MCU/USB_D+*%
X154360000Y-63913000D03*
%TO.P,R43,2*%
%TO.N,Net-(U1-DP2)*%
X155380000Y-63913000D03*
%TD*%
D61*
%TO.P,U8,1,S*%
%TO.N,/USB/VBUS*%
X163470000Y-69219999D03*
%TO.P,U8,2,D1+*%
%TO.N,/CAN/USB_UPSTREAM_D+*%
X163470000Y-68719998D03*
%TO.P,U8,3,D2+*%
%TO.N,/USB/USB_PROT_D+*%
X163470000Y-68219999D03*
%TO.P,U8,4,D+*%
%TO.N,/USB/USB_UPSTREAM_D+*%
X163470000Y-67720000D03*
%TO.P,U8,5,GND*%
%TO.N,GND*%
X163470000Y-67219999D03*
%TO.P,U8,6,D-*%
%TO.N,/USB/USB_UPSTREAM_D-*%
X159070000Y-67219999D03*
%TO.P,U8,7,D2-*%
%TO.N,/USB/USB_PROT_D-*%
X159070000Y-67720000D03*
%TO.P,U8,8,D1-*%
%TO.N,/CAN/USB_UPSTREAM_D-*%
X159070000Y-68219999D03*
%TO.P,U8,9,~{OE}*%
%TO.N,Net-(U8-~{OE})*%
X159070000Y-68719998D03*
%TO.P,U8,10,VCC*%
%TO.N,+3V3*%
X159070000Y-69219999D03*
%TD*%
D22*
%TO.P,Y2,1,1*%
%TO.N,Net-(U3-PD0)*%
X123947000Y-69893000D03*
%TO.P,Y2,2,2*%
%TO.N,GND*%
X123947000Y-72093000D03*
%TO.P,Y2,3,3*%
%TO.N,Net-(U3-PD1)*%
X125647000Y-72093000D03*
%TO.P,Y2,4,4*%
%TO.N,GND*%
X125647000Y-69893000D03*
%TD*%
D36*
%TO.P,C53,1*%
%TO.N,GND*%
X171425000Y-64320000D03*
%TO.P,C53,2*%
%TO.N,Net-(U1-VDD33)*%
X169875000Y-64320000D03*
%TD*%
D62*
%TO.P,C2,1*%
%TO.N,/MCU/3V3_MCU*%
X113920589Y-69960589D03*
%TO.P,C2,2*%
%TO.N,GND*%
X114599411Y-70639411D03*
%TD*%
D36*
%TO.P,C52,1*%
%TO.N,GND*%
X167425000Y-66600000D03*
%TO.P,C52,2*%
%TO.N,+5V*%
X165875000Y-66600000D03*
%TD*%
D38*
%TO.P,C25,1*%
%TO.N,+5V*%
X102049999Y-100900000D03*
%TO.P,C25,2*%
%TO.N,GND*%
X103009999Y-100900000D03*
%TD*%
D17*
%TO.P,C15,1*%
%TO.N,+3V3*%
X137830000Y-75700000D03*
%TO.P,C15,2*%
%TO.N,GND*%
X136870000Y-75700000D03*
%TD*%
D63*
%TO.P,IC1,1,TXD*%
%TO.N,/CAN/CAN1_TXD*%
X95970000Y-75850000D03*
%TO.P,IC1,2,GND*%
%TO.N,GND*%
X95970000Y-75200000D03*
%TO.P,IC1,3,VCC*%
%TO.N,+5V*%
X95970000Y-74550000D03*
%TO.P,IC1,4,RXD*%
%TO.N,/CAN/CAN1_RXD*%
X95970000Y-73900000D03*
%TO.P,IC1,5,VIO*%
%TO.N,+3V3*%
X93070000Y-73900000D03*
%TO.P,IC1,6,CANL*%
%TO.N,/CAN/CAN1-*%
X93070000Y-74550000D03*
%TO.P,IC1,7,CANH*%
%TO.N,/CAN/CAN1+*%
X93070000Y-75200000D03*
%TO.P,IC1,8,STB*%
%TO.N,Net-(IC1-STB)*%
X93070000Y-75850000D03*
D64*
%TO.P,IC1,9,EP*%
%TO.N,unconnected-(IC1-EP-Pad9)*%
X94520000Y-74875000D03*
%TD*%
D56*
%TO.P,C24,1*%
%TO.N,+3V3*%
X116699999Y-107950000D03*
%TO.P,C24,2*%
%TO.N,GND*%
X114800001Y-107950000D03*
%TD*%
D26*
%TO.P,C45,1*%
%TO.N,Net-(C45-Pad1)*%
X97340000Y-93840000D03*
%TO.P,C45,2*%
%TO.N,GND*%
X97340000Y-92880000D03*
%TD*%
D36*
%TO.P,C38,1*%
%TO.N,GND*%
X171425000Y-62770000D03*
%TO.P,C38,2*%
%TO.N,Net-(U1-VDD33)*%
X169875000Y-62770000D03*
%TD*%
D65*
%TO.P,J4,A1,GND*%
%TO.N,GND*%
X172110000Y-74600000D03*
%TO.P,J4,A4,VBUS*%
%TO.N,/USB/VBUS*%
X172110000Y-73800000D03*
D66*
%TO.P,J4,A5,CC1*%
%TO.N,Net-(J4-CC1)*%
X172110000Y-72650000D03*
%TO.P,J4,A6,D+*%
%TO.N,/USB/USB_CONN_D+*%
X172110000Y-71650000D03*
%TO.P,J4,A7,D-*%
%TO.N,/USB/USB_CONN_D-*%
X172110000Y-71150000D03*
%TO.P,J4,A8,SBU1*%
%TO.N,unconnected-(J4-SBU1-PadA8)*%
X172110000Y-70150000D03*
D65*
%TO.P,J4,A9,VBUS*%
%TO.N,/USB/VBUS*%
X172110000Y-69000000D03*
%TO.P,J4,A12,GND*%
%TO.N,GND*%
X172110000Y-68200000D03*
%TO.P,J4,B1,GND*%
X172110000Y-68200000D03*
%TO.P,J4,B4,VBUS*%
%TO.N,/USB/VBUS*%
X172110000Y-69000000D03*
D66*
%TO.P,J4,B5,CC2*%
%TO.N,Net-(J4-CC2)*%
X172110000Y-69650000D03*
%TO.P,J4,B6,D+*%
%TO.N,/USB/USB_CONN_D+*%
X172110000Y-70650000D03*
%TO.P,J4,B7,D-*%
%TO.N,/USB/USB_CONN_D-*%
X172110000Y-72150000D03*
%TO.P,J4,B8,SBU2*%
%TO.N,unconnected-(J4-SBU2-PadB8)*%
X172110000Y-73150000D03*
D65*
%TO.P,J4,B9,VBUS*%
%TO.N,/USB/VBUS*%
X172110000Y-73800000D03*
%TO.P,J4,B12,GND*%
%TO.N,GND*%
X172110000Y-74600000D03*
D67*
%TO.P,J4,S1,SHIELD*%
%TO.N,Net-(J4-SHIELD)*%
X172710000Y-75720000D03*
D68*
X176910000Y-75720000D03*
D67*
X172710000Y-67080000D03*
D68*
X176910000Y-67080000D03*
%TD*%
D63*
%TO.P,IC2,1,TXD*%
%TO.N,/CAN/CAN2_TXD*%
X95970000Y-71180000D03*
%TO.P,IC2,2,GND*%
%TO.N,GND*%
X95970000Y-70530000D03*
%TO.P,IC2,3,VCC*%
%TO.N,+5V*%
X95970000Y-69880000D03*
%TO.P,IC2,4,RXD*%
%TO.N,/CAN/CAN2_RXD*%
X95970000Y-69230000D03*
%TO.P,IC2,5,VIO*%
%TO.N,+3V3*%
X93070000Y-69230000D03*
%TO.P,IC2,6,CANL*%
%TO.N,/CAN/CAN2-*%
X93070000Y-69880000D03*
%TO.P,IC2,7,CANH*%
%TO.N,/CAN/CAN2+*%
X93070000Y-70530000D03*
%TO.P,IC2,8,STB*%
%TO.N,Net-(IC2-STB)*%
X93070000Y-71180000D03*
D64*
%TO.P,IC2,9,EP*%
%TO.N,unconnected-(IC2-EP-Pad9)*%
X94520000Y-70205000D03*
%TD*%
D50*
%TO.P,TP3,1,1*%
%TO.N,/STLINK/DIO*%
X136350000Y-62020000D03*
%TD*%
D69*
%TO.P,C4,1*%
%TO.N,/MCU/3V3_MCU*%
X103670589Y-76179411D03*
%TO.P,C4,2*%
%TO.N,GND*%
X104349411Y-75500589D03*
%TD*%
D17*
%TO.P,C19,1*%
%TO.N,Net-(U3-PD1)*%
X125257000Y-73643000D03*
%TO.P,C19,2*%
%TO.N,GND*%
X124297000Y-73643000D03*
%TD*%
%TO.P,C33,1*%
%TO.N,Net-(J4-SHIELD)*%
X168135000Y-75670000D03*
%TO.P,C33,2*%
%TO.N,GND*%
X167175000Y-75670000D03*
%TD*%
D70*
%TO.P,C7,1*%
%TO.N,/MCU/3V3_MCU*%
X115200000Y-64925000D03*
%TO.P,C7,2*%
%TO.N,GND*%
X115200000Y-66475000D03*
%TD*%
D35*
%TO.P,C1,1*%
%TO.N,/MCU/3V3_MCU*%
X120149411Y-80250589D03*
%TO.P,C1,2*%
%TO.N,GND*%
X119470589Y-80929411D03*
%TD*%
D29*
%TO.P,R23,1*%
%TO.N,GND*%
X148970000Y-63310001D03*
%TO.P,R23,2*%
%TO.N,Net-(D5-K)*%
X148970000Y-64329999D03*
%TD*%
D14*
%TO.P,R39,1*%
%TO.N,/CAN/CAN2+*%
X88210000Y-70415000D03*
%TO.P,R39,2*%
%TO.N,Net-(R39-Pad2)*%
X88210000Y-68765000D03*
%TD*%
D25*
%TO.P,R4,1*%
%TO.N,/MCU/BOOT0*%
X101089999Y-73090000D03*
%TO.P,R4,2*%
%TO.N,GND*%
X100070001Y-73090000D03*
%TD*%
D18*
%TO.P,J6,*%
%TO.N,*%
X90900000Y-111400000D03*
X90900000Y-97900000D03*
D71*
%TO.P,J6,1,Pin_1*%
%TO.N,GND*%
X96900000Y-108250000D03*
D20*
%TO.P,J6,2,Pin_2*%
%TO.N,VCC*%
X96900000Y-101050000D03*
%TD*%
D26*
%TO.P,C57,1*%
%TO.N,GND*%
X101218553Y-82619949D03*
%TO.P,C57,2*%
%TO.N,Net-(U9-PC15)*%
X101218553Y-81659949D03*
%TD*%
D72*
%TO.P,C20,1*%
%TO.N,+5V*%
X101709999Y-102500002D03*
%TO.P,C20,2*%
%TO.N,GND*%
X103609997Y-102500002D03*
%TD*%
D50*
%TO.P,TP5,1,1*%
%TO.N,GND*%
X141430000Y-62020000D03*
%TD*%
D62*
%TO.P,C11,1*%
%TO.N,GND*%
X101537366Y-84039447D03*
%TO.P,C11,2*%
%TO.N,Net-(U9-PH0)*%
X102216188Y-84718269D03*
%TD*%
D10*
%TO.P,R18,1*%
%TO.N,Net-(Q1-B)*%
X145720000Y-63049999D03*
%TO.P,R18,2*%
%TO.N,+5V*%
X145720000Y-62030001D03*
%TD*%
D73*
%TO.P,L2,1,1*%
%TO.N,/POWER/5V_COIL*%
X102750000Y-92700000D03*
%TO.P,L2,2,2*%
%TO.N,+5V*%
X102750000Y-96900000D03*
%TD*%
D48*
%TO.P,JP2,1,A*%
%TO.N,/MCU/SWDIO*%
X145999998Y-72700000D03*
D49*
%TO.P,JP2,2,B*%
%TO.N,/STLINK/SWDIO*%
X144700000Y-72700000D03*
%TD*%
D74*
%TO.P,Y1,1,1*%
%TO.N,Net-(U9-PH1)*%
X102355635Y-86855635D03*
%TO.P,Y1,2,2*%
%TO.N,GND*%
X100800000Y-85300000D03*
%TO.P,Y1,3,3*%
%TO.N,Net-(U9-PH0)*%
X99597919Y-86502081D03*
%TO.P,Y1,4,4*%
%TO.N,GND*%
X101153554Y-88057716D03*
%TD*%
D75*
%TO.P,C48,1*%
%TO.N,VCC*%
X109485000Y-106000001D03*
%TO.P,C48,2*%
%TO.N,GND*%
X106534998Y-106000001D03*
%TD*%
D23*
%TO.P,D7,1,K*%
%TO.N,GND*%
X108187500Y-62894997D03*
%TO.P,D7,2,A*%
%TO.N,Net-(D7-A)*%
X108187500Y-64469999D03*
%TD*%
D24*
%TO.P,C12,1*%
%TO.N,GND*%
X103616188Y-86118269D03*
%TO.P,C12,2*%
%TO.N,Net-(U9-PH1)*%
X102937366Y-85439447D03*
%TD*%
D76*
%TO.P,C27,1*%
%TO.N,+3V3*%
X127980000Y-65979999D03*
%TO.P,C27,2*%
%TO.N,GND*%
X127980000Y-64080001D03*
%TD*%
D50*
%TO.P,TP1,1,1*%
%TO.N,+3V3*%
X131270000Y-62020000D03*
%TD*%
D17*
%TO.P,C10,1*%
%TO.N,/MCU/BOOT0*%
X101050000Y-74100000D03*
%TO.P,C10,2*%
%TO.N,GND*%
X100090000Y-74100000D03*
%TD*%
D25*
%TO.P,R3,1*%
%TO.N,/MCU/BOOT_EN*%
X103019999Y-73060000D03*
%TO.P,R3,2*%
%TO.N,/MCU/BOOT0*%
X102000001Y-73060000D03*
%TD*%
D50*
%TO.P,TP4,1,1*%
%TO.N,/STLINK/CLK*%
X138890000Y-62040000D03*
%TD*%
D77*
%TO.P,J1,1,Pin_1*%
%TO.N,+3V3*%
X124379999Y-62000000D03*
D78*
%TO.P,J1,2,Pin_2*%
%TO.N,/MCU/NRST*%
X121839999Y-62000000D03*
%TO.P,J1,3,Pin_3*%
%TO.N,/MCU/SWDIO*%
X119300000Y-62000000D03*
%TO.P,J1,4,Pin_4*%
%TO.N,/MCU/SWCLK*%
X116759999Y-62000000D03*
%TO.P,J1,5,Pin_5*%
%TO.N,GND*%
X114219999Y-62000000D03*
%TD*%
D70*
%TO.P,C6,1*%
%TO.N,/MCU/3V3_MCU*%
X113700000Y-64925000D03*
%TO.P,C6,2*%
%TO.N,GND*%
X113700000Y-66475000D03*
%TD*%
D25*
%TO.P,R6,1*%
%TO.N,+3V3*%
X102627499Y-69427499D03*
%TO.P,R6,2*%
%TO.N,/MCU/I2C3_SCL*%
X101607501Y-69427499D03*
%TD*%
D15*
%TO.P,R27,1*%
%TO.N,VCC*%
X103290000Y-90500000D03*
%TO.P,R27,2*%
%TO.N,/MCU/V_SENSE*%
X104310000Y-90500000D03*
%TD*%
D79*
%TO.N,GND*%
X115709999Y-101200001D03*
X94610000Y-72550000D03*
X107010000Y-107350001D03*
X107759999Y-105100001D03*
X104100000Y-85600000D03*
X129560000Y-66900000D03*
X167430000Y-68070000D03*
X107049999Y-108850001D03*
X99400000Y-73130000D03*
X114009999Y-99700001D03*
X98140000Y-75390000D03*
D80*
X166550000Y-63900000D03*
D79*
X136300000Y-64400000D03*
X107759999Y-102850001D03*
X112344999Y-100438001D03*
X166100000Y-82110000D03*
X107010000Y-108100001D03*
X126798001Y-72253356D03*
X123947000Y-72093000D03*
X148400000Y-70825000D03*
X107759999Y-106600001D03*
X169735000Y-68998000D03*
D80*
X157689998Y-70439998D03*
D79*
X133440000Y-67280000D03*
D81*
X166517500Y-71400000D03*
D79*
X171430000Y-62770000D03*
X141480000Y-63625000D03*
X124300000Y-66598000D03*
X106259999Y-108100002D03*
X114909999Y-101200001D03*
X100800000Y-85300000D03*
X107009999Y-105850001D03*
D81*
X166200000Y-73200000D03*
D79*
X111509999Y-99600001D03*
X131200000Y-75320000D03*
X128740000Y-62520000D03*
X107010000Y-77320000D03*
X106259999Y-105100001D03*
X167700000Y-73100000D03*
X98640000Y-71110000D03*
X114500000Y-67600000D03*
X127980000Y-62520000D03*
X110709999Y-99600001D03*
X114009999Y-101200001D03*
D80*
X168250000Y-61700000D03*
D79*
X113700000Y-67600000D03*
D80*
X146100000Y-67700000D03*
D79*
X96500000Y-95820000D03*
X114909999Y-99700001D03*
X112690000Y-73000000D03*
X107009999Y-104350001D03*
X148200000Y-68925000D03*
X115200000Y-67600000D03*
X107759999Y-105850001D03*
X120100000Y-69500000D03*
X101854949Y-82657716D03*
D81*
X107300000Y-90500000D03*
D79*
X99130000Y-76850000D03*
X106259999Y-102821367D03*
X111509999Y-101200001D03*
X145600000Y-69800000D03*
X161470000Y-68806826D03*
X100841441Y-79178023D03*
D80*
X144579600Y-67912800D03*
X132300000Y-69410000D03*
D79*
X107009999Y-105100001D03*
D81*
X170700000Y-74100000D03*
D79*
X102900000Y-79170000D03*
X104615077Y-86905026D03*
X148300000Y-73200000D03*
X107009999Y-102850001D03*
D80*
X137400000Y-68200000D03*
D79*
X120800000Y-72000000D03*
X106924321Y-84796000D03*
X134750000Y-75500000D03*
X106259999Y-106601186D03*
X96500000Y-92840000D03*
X127000000Y-68400000D03*
X110009999Y-99600000D03*
X157570000Y-68119999D03*
D81*
X170200000Y-67400000D03*
D79*
X171430000Y-64290000D03*
X120900000Y-79660000D03*
X107759999Y-104350001D03*
X106259999Y-104350001D03*
X164820000Y-66610000D03*
X101200000Y-88000000D03*
X110009999Y-101200001D03*
D80*
X162000000Y-63000000D03*
D79*
X167420000Y-66640000D03*
X113084558Y-99700002D03*
D80*
X160200000Y-76700000D03*
D79*
X99970000Y-64420000D03*
X110709999Y-101200001D03*
D80*
X150800000Y-60800000D03*
X146370000Y-66720000D03*
D79*
X107010000Y-106600001D03*
X163200000Y-80400000D03*
X117110000Y-78960000D03*
X143900000Y-60775000D03*
X109670000Y-62894997D03*
X106260000Y-103573891D03*
X107009999Y-103600001D03*
X113009999Y-101200001D03*
X106260000Y-107350001D03*
X106249999Y-108850002D03*
X111200000Y-62894997D03*
X106259999Y-105852962D03*
X110360000Y-62894997D03*
X107759999Y-103600001D03*
X115710000Y-99700001D03*
X112670000Y-83440000D03*
X162800000Y-70100000D03*
%TO.N,/MCU/NRST*%
X106500000Y-86400000D03*
X124804652Y-75195348D03*
%TO.N,+5V*%
X100530000Y-105810000D03*
X98150000Y-70540000D03*
X150370000Y-74520000D03*
X149690000Y-75170000D03*
X100530000Y-100910000D03*
X100520000Y-100120000D03*
X151270000Y-74400000D03*
X164550000Y-72700000D03*
X98000000Y-74505000D03*
X100530000Y-102460000D03*
X163800000Y-72700000D03*
X149160000Y-75710000D03*
X100530000Y-104180000D03*
X148575000Y-76285000D03*
X100530000Y-101640000D03*
X152260000Y-74400000D03*
X145740000Y-61170000D03*
X100530000Y-103310000D03*
X164920000Y-68180000D03*
X100530000Y-104970000D03*
X100530000Y-99240000D03*
X111209999Y-93900001D03*
X95345000Y-88445000D03*
X95345000Y-87480000D03*
X101809998Y-96900001D03*
X100530000Y-98380000D03*
X94350000Y-77950000D03*
X162950000Y-72700000D03*
%TO.N,+3V3*%
X119250001Y-108200000D03*
X118450000Y-108210001D03*
X120000000Y-107450000D03*
X137370000Y-67310000D03*
X129970000Y-62860000D03*
X120000000Y-111950000D03*
X132230000Y-68180000D03*
X119250001Y-108950000D03*
X117750000Y-109700000D03*
X132520000Y-67280000D03*
X126400000Y-66598000D03*
X119200001Y-111200000D03*
X118450000Y-109710000D03*
X117750000Y-110450000D03*
X156770000Y-68119999D03*
X118450000Y-108960001D03*
X117750000Y-111950000D03*
X132800000Y-71975000D03*
X149770000Y-60825000D03*
X91870000Y-68030000D03*
D80*
X98100000Y-65200000D03*
D79*
X119250001Y-109700000D03*
X128500000Y-75300000D03*
X120000000Y-111200000D03*
X117750000Y-107450000D03*
X120000000Y-109700000D03*
X117750000Y-111154002D03*
X126800000Y-75400000D03*
X120000000Y-108950000D03*
X103800000Y-69200000D03*
X93000190Y-73404543D03*
X118450000Y-111960000D03*
X117750000Y-108950000D03*
X116600000Y-68110000D03*
D80*
X144770000Y-64375000D03*
D79*
X105180763Y-86339340D03*
X118200000Y-68110000D03*
X119250001Y-107450000D03*
X120000000Y-110450000D03*
X138262500Y-74687500D03*
X119250000Y-111950000D03*
X118450000Y-111164003D03*
X120000000Y-108200000D03*
X118450000Y-110460000D03*
X108200000Y-67624997D03*
X117400000Y-68110000D03*
X117750000Y-108200000D03*
X119250000Y-110450000D03*
X118450000Y-107460001D03*
X119100000Y-68110000D03*
%TO.N,/USB/USB_CONN_D-*%
X170735000Y-71048000D03*
X170735000Y-72252000D03*
%TO.N,/MCU/USR_LED1*%
X106590000Y-67609999D03*
%TO.N,/MCU/USR_LED2*%
X101620000Y-76780000D03*
X104880000Y-67569999D03*
D80*
%TO.N,/USB/USB_PROT_D-*%
X159243114Y-71427170D03*
D79*
X160776587Y-67326587D03*
%TO.N,/USB/USB_PROT_D+*%
X161511768Y-67474942D03*
D80*
X159192074Y-72225542D03*
D79*
%TO.N,Net-(C45-Pad1)*%
X96200000Y-94800000D03*
D81*
%TO.N,VCC*%
X101000000Y-116700000D03*
X107500000Y-115000000D03*
X104900000Y-115000000D03*
X102700000Y-116700000D03*
X105700000Y-115000000D03*
X106600000Y-115900000D03*
X102700000Y-115800000D03*
X104900000Y-114100000D03*
X107500000Y-114100000D03*
X106600000Y-114100000D03*
X105700000Y-115900000D03*
X107500000Y-115900000D03*
X106600000Y-115000000D03*
X104900000Y-115900000D03*
X101800000Y-115800000D03*
X105700000Y-113200000D03*
X105700000Y-114100000D03*
X106600000Y-116700000D03*
X103600000Y-115800000D03*
X107500000Y-116700000D03*
X104900000Y-113200000D03*
X107500000Y-113200000D03*
X101800000Y-116700000D03*
X101000000Y-115800000D03*
X104900000Y-116700000D03*
X103600000Y-116700000D03*
X105700000Y-116700000D03*
X106600000Y-113200000D03*
D80*
%TO.N,/STLINK/USB_D+*%
X147193541Y-67303432D03*
X143614400Y-68268400D03*
D79*
%TO.N,/MCU/USB_D+*%
X120800000Y-70300000D03*
X146700000Y-70100000D03*
%TO.N,/MCU/USB_D-*%
X147526711Y-69550000D03*
X120593958Y-71021146D03*
%TO.N,/MCU/SWCLK*%
X121998000Y-69200000D03*
X109085000Y-68185000D03*
D80*
%TO.N,/STLINK/USB_D-*%
X147900000Y-66928038D03*
X143507705Y-69425872D03*
D79*
%TO.N,/CAN/CAN1-*%
X166700000Y-80850000D03*
D80*
X93066404Y-78595363D03*
X91010000Y-74550000D03*
D79*
%TO.N,/POWER/5V_COIL*%
X109000000Y-102560001D03*
X108999999Y-98305001D03*
%TO.N,/USB/VBUS*%
X167755000Y-71470000D03*
D80*
X167300000Y-69200000D03*
D79*
X170955000Y-69048000D03*
D80*
%TO.N,/USB/USB_UPSTREAM_D-*%
X160655228Y-65964132D03*
X162258333Y-64915000D03*
X160269479Y-64620521D03*
%TO.N,/USB/USB_UPSTREAM_D+*%
X160870521Y-64019479D03*
X162258333Y-64065000D03*
X161454013Y-65920000D03*
%TO.N,/CAN/CAN1+*%
X92430006Y-77958965D03*
X91720000Y-75200000D03*
D79*
X165800000Y-80850000D03*
D80*
%TO.N,/CAN/CAN2+*%
X91217377Y-70589602D03*
%TO.N,/CAN/CAN2-*%
X91257628Y-69712839D03*
D79*
%TO.N,/CAN/USB_UPSTREAM_D-*%
X161149997Y-70300000D03*
%TO.N,/CAN/USB_UPSTREAM_D+*%
X161900000Y-70300000D03*
%TO.N,/CAN/USB_DOWNSTREAM_D-*%
X148400000Y-71575000D03*
%TO.N,/CAN/USB_DOWNSTREAM_D+*%
X148400000Y-72425000D03*
%TO.N,/CAN/RXD2_LED*%
X100700000Y-78400000D03*
X118600000Y-71326472D03*
%TO.N,/CAN/TXD2_LED*%
X100700000Y-77649997D03*
X117701472Y-70701472D03*
%TO.N,/MCU/I2C3_SDA*%
X119200000Y-72798000D03*
X105000000Y-70722499D03*
%TO.N,/MCU/I2C3_SCL*%
X105800000Y-70700000D03*
X119093636Y-72055578D03*
%TD*%
D82*
%TO.N,/MCU/USR_LED2*%
X105589072Y-79914734D02*
X105018148Y-80485658D01*
X105018148Y-80485658D02*
X103165658Y-80485658D01*
X103165658Y-80485658D02*
X101620000Y-78940000D01*
X101620000Y-78940000D02*
X101620000Y-76780000D01*
D83*
%TO.N,Net-(U9-PC14)*%
X105942625Y-80268287D02*
X105070912Y-81140000D01*
X105070912Y-81140000D02*
X101718503Y-81140000D01*
X101718503Y-81140000D02*
X101218553Y-80640050D01*
%TO.N,GND*%
X101218553Y-79555135D02*
X101218553Y-79680050D01*
X100841441Y-79178023D02*
X101218553Y-79555135D01*
%TO.N,/MCU/BOOT0*%
X106649732Y-75424606D02*
X104975126Y-73750000D01*
D84*
X101970001Y-73090000D02*
X102000001Y-73060000D01*
X101100000Y-74140000D02*
X101100000Y-73100001D01*
D83*
X102690001Y-73750000D02*
X102000001Y-73060000D01*
X104975126Y-73750000D02*
X102690001Y-73750000D01*
D84*
X101100000Y-73100001D02*
X101089999Y-73090000D01*
X101089999Y-73090000D02*
X101970001Y-73090000D01*
D83*
%TO.N,GND*%
X98065000Y-75465000D02*
X97230000Y-75465000D01*
X98640000Y-71110000D02*
X98552499Y-71197501D01*
D84*
X166145000Y-73870000D02*
X166145000Y-73255000D01*
X167415000Y-68085000D02*
X167430000Y-68070000D01*
D85*
X114500000Y-67600000D02*
X115200000Y-67600000D01*
D86*
X170700000Y-74100000D02*
X171200000Y-74600000D01*
D83*
X137887500Y-67712500D02*
X137400000Y-68200000D01*
D84*
X121300000Y-80060000D02*
X121300000Y-80591178D01*
D83*
X128929552Y-70712500D02*
X130787500Y-70712500D01*
D84*
X99372500Y-63822500D02*
X99372500Y-62662499D01*
D83*
X134900000Y-75650000D02*
X136770000Y-75650000D01*
X123000000Y-65200000D02*
X122000000Y-65200000D01*
D84*
X102900000Y-79170000D02*
X102900000Y-78971178D01*
D83*
X168270000Y-73670000D02*
X168645001Y-73670000D01*
X127000000Y-68400000D02*
X125284000Y-68400000D01*
X130780000Y-74900000D02*
X130300000Y-74900000D01*
D84*
X170580000Y-65590000D02*
X170580000Y-65165000D01*
X100070001Y-74070001D02*
X100140000Y-74140000D01*
D83*
X124297000Y-72443000D02*
X123947000Y-72093000D01*
X104604395Y-75500589D02*
X105589072Y-76485266D01*
X113614734Y-71889072D02*
X114599411Y-70904395D01*
X143900000Y-60775000D02*
X144660000Y-61535000D01*
X124300000Y-66500000D02*
X124300000Y-66598000D01*
X128400000Y-71720000D02*
X128400000Y-71242052D01*
D85*
X113700000Y-66475000D02*
X116625001Y-66475000D01*
D83*
X158359998Y-70620001D02*
X158460000Y-70519999D01*
D84*
X166950000Y-75670000D02*
X167175000Y-75670000D01*
X104615077Y-86905026D02*
X104615077Y-87329290D01*
D83*
X93850000Y-72560000D02*
X94600000Y-72560000D01*
X94600000Y-72560000D02*
X94610000Y-72550000D01*
X137200000Y-74125000D02*
X137200000Y-75520000D01*
D85*
X113700000Y-67600000D02*
X114500000Y-67600000D01*
D84*
X99970000Y-64420000D02*
X99372500Y-63822500D01*
D85*
X115200000Y-66475000D02*
X113700000Y-66475000D01*
D83*
X140900000Y-67280000D02*
X140467500Y-67712500D01*
X114599411Y-70904395D02*
X114599411Y-70639411D01*
D84*
X171425000Y-64320000D02*
X171425000Y-64295000D01*
X150800000Y-61418419D02*
X148970000Y-63248419D01*
D83*
X158460000Y-70519999D02*
X157769999Y-70519999D01*
D85*
X111200000Y-62894997D02*
X104900000Y-62894997D01*
D86*
X113100000Y-116720000D02*
X113100000Y-115100000D01*
X127980000Y-62520000D02*
X127980000Y-64080001D01*
D84*
X99440000Y-73090000D02*
X99400000Y-73130000D01*
D86*
X170785000Y-67400000D02*
X171585000Y-68200000D01*
D83*
X106423806Y-77320000D02*
X107010000Y-77320000D01*
D84*
X148970000Y-63248419D02*
X148970000Y-63310001D01*
D85*
X116625001Y-66475000D02*
X117000000Y-66849999D01*
D83*
X96965000Y-75200000D02*
X95970000Y-75200000D01*
D84*
X97300000Y-92840000D02*
X97340000Y-92880000D01*
D83*
X134750000Y-75500000D02*
X134900000Y-75650000D01*
D84*
X98862499Y-62662499D02*
X98117500Y-61917500D01*
D83*
X125647000Y-68763000D02*
X125277000Y-68393000D01*
X133440000Y-67280000D02*
X133371908Y-67280000D01*
D84*
X107300000Y-90500000D02*
X106310000Y-90500000D01*
D83*
X96977499Y-70530000D02*
X95970000Y-70530000D01*
X97220000Y-70772501D02*
X96977499Y-70530000D01*
X114500464Y-85396658D02*
X114500464Y-86039286D01*
X136770000Y-75650000D02*
X136920000Y-75800000D01*
X112690000Y-72813806D02*
X112690000Y-73000000D01*
X126798001Y-73598001D02*
X126800000Y-73600000D01*
D86*
X171200000Y-74600000D02*
X172110000Y-74600000D01*
X171585000Y-68200000D02*
X172110000Y-68200000D01*
D83*
X103616188Y-86118269D02*
X103616188Y-86083812D01*
D85*
X113700000Y-66475000D02*
X113700000Y-67600000D01*
D82*
X162480000Y-77352000D02*
X160852000Y-77352000D01*
D83*
X106924321Y-84796000D02*
X107351598Y-85223276D01*
X112670000Y-83566194D02*
X112670000Y-83440000D01*
X135500000Y-63600000D02*
X134909999Y-63600000D01*
X129560000Y-65640000D02*
X129570000Y-65630000D01*
D85*
X115200000Y-67600000D02*
X115200000Y-66475000D01*
D84*
X171425000Y-62770000D02*
X171430000Y-62770000D01*
D85*
X114825000Y-67600000D02*
X114462500Y-67237500D01*
D83*
X167700000Y-73100000D02*
X168270000Y-73670000D01*
X129570000Y-65630000D02*
X129570000Y-65590000D01*
D84*
X106310000Y-90500000D02*
X106260000Y-90450000D01*
D83*
X157769999Y-70519999D02*
X157689998Y-70439998D01*
X98552499Y-71197501D02*
X97645000Y-71197501D01*
X126798001Y-72253356D02*
X126798001Y-73598001D01*
X97297679Y-75532679D02*
X97230000Y-75465000D01*
X136300000Y-64400000D02*
X135500000Y-63600000D01*
X103616188Y-86083812D02*
X104100000Y-85600000D01*
X133371908Y-67280000D02*
X132700000Y-66608092D01*
D84*
X98117500Y-61917500D02*
X97957500Y-61917500D01*
D83*
X168827001Y-68090001D02*
X169735000Y-68998000D01*
X144660000Y-61535000D02*
X144660000Y-62030001D01*
D84*
X104615077Y-87329290D02*
X105053484Y-87767696D01*
D83*
X131200000Y-75320000D02*
X130780000Y-74900000D01*
D84*
X150800000Y-60800000D02*
X150800000Y-61418419D01*
X166145000Y-73255000D02*
X166200000Y-73200000D01*
D83*
X137200000Y-75520000D02*
X136920000Y-75800000D01*
D86*
X170200000Y-67400000D02*
X170785000Y-67400000D01*
D84*
X166150000Y-73875000D02*
X166150000Y-74870000D01*
X102900000Y-78971178D02*
X103370589Y-78500589D01*
X162480000Y-80341999D02*
X163141999Y-80341999D01*
D83*
X101256321Y-82657716D02*
X101854949Y-82657716D01*
X132300000Y-70008092D02*
X131595592Y-70712500D01*
D84*
X141430000Y-63575000D02*
X141480000Y-63625000D01*
D85*
X115200000Y-66500000D02*
X114462500Y-67237500D01*
D84*
X97299999Y-95820000D02*
X97330000Y-95789999D01*
D83*
X113614734Y-84510928D02*
X114500464Y-85396658D01*
X107351598Y-85223276D02*
X109124606Y-83450268D01*
X97230000Y-75465000D02*
X96965000Y-75200000D01*
X131595592Y-70712500D02*
X130787500Y-70712500D01*
X139112500Y-67712500D02*
X137887500Y-67712500D01*
X114500464Y-86039286D02*
X114510589Y-86049411D01*
X101537366Y-84562634D02*
X100800000Y-85300000D01*
X113614734Y-84510928D02*
X112670000Y-83566194D01*
X157570000Y-68539999D02*
X157570000Y-67599999D01*
D84*
X171425000Y-64295000D02*
X171430000Y-64290000D01*
X120900000Y-79660000D02*
X121300000Y-80060000D01*
D83*
X105589072Y-76485266D02*
X106423806Y-77320000D01*
X129560000Y-66900000D02*
X129560000Y-65640000D01*
X101218553Y-82619948D02*
X101256321Y-82657716D01*
X118210928Y-79914734D02*
X119225605Y-80929411D01*
D84*
X167425000Y-66600000D02*
X167425000Y-66635000D01*
D85*
X115200000Y-67600000D02*
X114825000Y-67600000D01*
D84*
X166045000Y-73770000D02*
X166150000Y-73875000D01*
D85*
X104900000Y-62894997D02*
X104880000Y-62914997D01*
D84*
X96500000Y-92840000D02*
X97300000Y-92840000D01*
X109124606Y-83450268D02*
X107570589Y-85004285D01*
D83*
X117256194Y-78960000D02*
X117110000Y-78960000D01*
D84*
X162000000Y-62958332D02*
X162690832Y-62267500D01*
D83*
X99130000Y-76850000D02*
X98359999Y-76850000D01*
D85*
X115200000Y-66475000D02*
X115200000Y-66500000D01*
D83*
X97645000Y-71197501D02*
X97220000Y-70772501D01*
X119225605Y-80929411D02*
X119470589Y-80929411D01*
X101153554Y-88046446D02*
X101200000Y-88000000D01*
D82*
X160852000Y-77352000D02*
X160200000Y-76700000D01*
D85*
X109670000Y-62894997D02*
X108187500Y-62894997D01*
D84*
X167415000Y-68120000D02*
X167415000Y-68085000D01*
D83*
X163470000Y-67219999D02*
X164210001Y-67219999D01*
X101537366Y-84039447D02*
X101537366Y-84562634D01*
X128400000Y-71242052D02*
X128929552Y-70712500D01*
X101153554Y-88057716D02*
X101153554Y-88046446D01*
X124297000Y-73643000D02*
X124297000Y-72443000D01*
X104349411Y-75500589D02*
X104604395Y-75500589D01*
X132700000Y-66608092D02*
X132700000Y-65800000D01*
D86*
X128740000Y-62520000D02*
X127980000Y-62520000D01*
D84*
X162000000Y-63000000D02*
X162000000Y-62958332D01*
D83*
X123000000Y-65200000D02*
X124300000Y-66500000D01*
D84*
X141430000Y-62020000D02*
X141430000Y-63575000D01*
D83*
X132280000Y-63800000D02*
X132700000Y-64220000D01*
D85*
X114462500Y-67237500D02*
X113700000Y-66475000D01*
D83*
X140467500Y-67712500D02*
X139112500Y-67712500D01*
X132700000Y-64220000D02*
X132700000Y-65800000D01*
X132300000Y-69410000D02*
X132300000Y-70008092D01*
D84*
X166150000Y-74870000D02*
X166950000Y-75670000D01*
X121300000Y-80591178D02*
X121489411Y-80780589D01*
D83*
X125647000Y-69893000D02*
X125647000Y-68763000D01*
X118210928Y-79914734D02*
X117256194Y-78960000D01*
D84*
X167425000Y-66635000D02*
X167420000Y-66640000D01*
D83*
X164210001Y-67219999D02*
X164820000Y-66610000D01*
D84*
X107570589Y-85004285D02*
X107570589Y-85430589D01*
X100070001Y-73090000D02*
X99440000Y-73090000D01*
X96500000Y-95820000D02*
X97299999Y-95820000D01*
X100070001Y-73090000D02*
X100070001Y-74070001D01*
D86*
X127980000Y-62520000D02*
X127980000Y-63370000D01*
D84*
X170580000Y-65165000D02*
X171425000Y-64320000D01*
X162690832Y-62267500D02*
X163507500Y-62267500D01*
D83*
X98140000Y-75390000D02*
X98065000Y-75465000D01*
X113614734Y-71889072D02*
X112690000Y-72813806D01*
D84*
X99372500Y-62662499D02*
X98862499Y-62662499D01*
X163141999Y-80341999D02*
X163200000Y-80400000D01*
D83*
X125284000Y-68400000D02*
X125277000Y-68393000D01*
%TO.N,/MCU/NRST*%
X105774730Y-88446518D02*
X106460624Y-87760624D01*
X121250000Y-62589999D02*
X121839999Y-62000000D01*
X122600000Y-73200000D02*
X122600000Y-68894800D01*
X122600000Y-68894800D02*
X121250000Y-67544800D01*
X140100000Y-75749998D02*
X139439998Y-76410000D01*
X87177000Y-60823000D02*
X120662999Y-60823000D01*
X139439998Y-76410000D02*
X125810000Y-76410000D01*
X106800000Y-86700000D02*
X106500000Y-86400000D01*
X120662999Y-60823000D02*
X121839999Y-62000000D01*
X106500000Y-86400000D02*
X105623000Y-85523000D01*
X125810000Y-76410000D02*
X122600000Y-73200000D01*
X85900000Y-65300000D02*
X85900000Y-62100000D01*
X107356839Y-81682501D02*
X105623000Y-83416340D01*
X106460624Y-87760624D02*
X106800000Y-87421248D01*
X106800000Y-87421248D02*
X106800000Y-86700000D01*
X121250000Y-67544800D02*
X121250000Y-62589999D01*
X105623000Y-85523000D02*
X105623000Y-83416340D01*
X82810000Y-68390000D02*
X85900000Y-65300000D01*
X85900000Y-62100000D02*
X87177000Y-60823000D01*
X105732306Y-88446518D02*
X105774730Y-88446518D01*
X82810000Y-69650000D02*
X82810000Y-68390000D01*
%TO.N,Net-(U9-PH0)*%
X102216188Y-85336210D02*
X102216188Y-84718269D01*
X100092894Y-86997056D02*
X100555342Y-86997056D01*
X99597919Y-86502081D02*
X100092894Y-86997056D01*
X102216188Y-84718269D02*
X102906857Y-84718269D01*
X100555342Y-86997056D02*
X102216188Y-85336210D01*
X102906857Y-84718269D02*
X106649732Y-80975394D01*
%TO.N,Net-(U9-PH1)*%
X107003286Y-81328948D02*
X102355635Y-85976599D01*
X102355635Y-85976599D02*
X102355635Y-86855635D01*
D85*
%TO.N,/MCU/3V3_MCU*%
X112080000Y-66482394D02*
X112080000Y-68480000D01*
D84*
X108600000Y-85758822D02*
X108600000Y-84681982D01*
D85*
X119100000Y-64837500D02*
X113787500Y-64837500D01*
X113700000Y-64925000D02*
X113637394Y-64925000D01*
X113637394Y-64925000D02*
X112080000Y-66482394D01*
D84*
X108249411Y-86109411D02*
X108600000Y-85758822D01*
X108600000Y-84681982D02*
X108910991Y-84370991D01*
D85*
X113787500Y-64837500D02*
X113700000Y-64925000D01*
D87*
%TO.N,+5V*%
X98600000Y-111920000D02*
X101400000Y-109120000D01*
D85*
X150370000Y-74520000D02*
X150490000Y-74400000D01*
D86*
X145740000Y-61170000D02*
X145740000Y-62010001D01*
D87*
X100450000Y-118450000D02*
X98600000Y-116600000D01*
D85*
X162200000Y-72700000D02*
X160500000Y-74400000D01*
D83*
X97220000Y-69812501D02*
X97573000Y-70165501D01*
D87*
X98600000Y-116600000D02*
X98600000Y-111920000D01*
D85*
X162950000Y-72700000D02*
X162200000Y-72700000D01*
D86*
X93950000Y-83070000D02*
X95345000Y-84465000D01*
D83*
X97775501Y-70165501D02*
X98150000Y-70540000D01*
D84*
X165875000Y-66600000D02*
X164820000Y-65545000D01*
X165865000Y-68120000D02*
X164980000Y-68120000D01*
D86*
X93950000Y-78350000D02*
X93950000Y-83070000D01*
D84*
X111219999Y-93910001D02*
X111900000Y-93910001D01*
X165875000Y-68110000D02*
X165865000Y-68120000D01*
D85*
X151270000Y-74400000D02*
X152260000Y-74400000D01*
X149690000Y-75170000D02*
X149160000Y-75700000D01*
D86*
X145740000Y-62010001D02*
X145720000Y-62030001D01*
X95345000Y-84465000D02*
X95345000Y-88445000D01*
D85*
X149160000Y-75700000D02*
X149160000Y-75710000D01*
D84*
X164347500Y-63537500D02*
X163507500Y-63537500D01*
D85*
X164550000Y-72700000D02*
X163800000Y-72700000D01*
D86*
X94350000Y-77950000D02*
X93950000Y-78350000D01*
D85*
X163800000Y-72700000D02*
X162950000Y-72700000D01*
X148575000Y-76285000D02*
X148520000Y-76340000D01*
X149160000Y-75710000D02*
X149150000Y-75710000D01*
D87*
X114920000Y-118450000D02*
X100450000Y-118450000D01*
D85*
X149690000Y-75170000D02*
X150340000Y-74520000D01*
D84*
X164980000Y-68120000D02*
X164920000Y-68180000D01*
D83*
X96015000Y-74505000D02*
X95970000Y-74550000D01*
X97573000Y-70165501D02*
X97775501Y-70165501D01*
D85*
X149150000Y-75710000D02*
X148575000Y-76285000D01*
D83*
X97230000Y-74505000D02*
X96015000Y-74505000D01*
D87*
X101400000Y-109120000D02*
X101400000Y-106000000D01*
D84*
X111209999Y-93900001D02*
X111219999Y-93910001D01*
D83*
X97878642Y-74505000D02*
X97230000Y-74505000D01*
D84*
X165875000Y-66600000D02*
X165875000Y-68110000D01*
D83*
X95970000Y-69880000D02*
X97152501Y-69880000D01*
D85*
X150340000Y-74520000D02*
X150370000Y-74520000D01*
D83*
X98000000Y-74505000D02*
X97230000Y-74505000D01*
X97152501Y-69880000D02*
X97220000Y-69812501D01*
D85*
X160500000Y-74400000D02*
X159400000Y-74400000D01*
X150490000Y-74400000D02*
X151270000Y-74400000D01*
X152260000Y-74400000D02*
X159400000Y-74400000D01*
D84*
X164820000Y-64010000D02*
X164347500Y-63537500D01*
X164820000Y-65545000D02*
X164820000Y-64010000D01*
D85*
%TO.N,+3V3*%
X119100000Y-66962500D02*
X119100000Y-68110000D01*
D83*
X129237000Y-71857318D02*
X129237000Y-71563000D01*
X103182500Y-68582500D02*
X103182500Y-67312499D01*
D82*
X148970000Y-61210001D02*
X149370000Y-61210001D01*
D83*
X102537499Y-69587499D02*
X102537499Y-69517499D01*
X130550000Y-65650000D02*
X130550000Y-66975000D01*
X93000190Y-73404543D02*
X93070000Y-73474353D01*
D85*
X130810000Y-62020000D02*
X129970000Y-62860000D01*
D83*
X132520000Y-67280000D02*
X132200000Y-66960000D01*
D82*
X98100000Y-68419998D02*
X99267501Y-69587499D01*
X98100000Y-65200000D02*
X98100000Y-68419998D01*
D83*
X129587500Y-71212500D02*
X130787500Y-71212500D01*
D84*
X127980000Y-65979999D02*
X127018001Y-65979999D01*
D85*
X118200000Y-68110000D02*
X117400000Y-68110000D01*
D86*
X144770000Y-65200000D02*
X144830000Y-65260000D01*
D83*
X132230000Y-67846908D02*
X131595592Y-67212500D01*
X137880000Y-75800000D02*
X137700000Y-75620000D01*
X128890001Y-74909999D02*
X129200000Y-74909999D01*
X103800000Y-69200000D02*
X103182500Y-68582500D01*
D84*
X105180763Y-86339340D02*
X105522921Y-86681498D01*
D83*
X126800000Y-74740000D02*
X126760000Y-74700000D01*
D82*
X149384999Y-61210001D02*
X148970000Y-61210001D01*
D83*
X102537499Y-69517499D02*
X103182500Y-68872498D01*
X132200000Y-65800000D02*
X132200000Y-64800000D01*
X157570000Y-69499999D02*
X157850000Y-69219999D01*
X130530000Y-65630000D02*
X130550000Y-65650000D01*
D85*
X119100000Y-68110000D02*
X118200000Y-68110000D01*
D83*
X108200000Y-66704995D02*
X108187501Y-66692496D01*
X130550000Y-66975000D02*
X130787500Y-67212500D01*
X131320000Y-63800000D02*
X131320000Y-63920000D01*
D85*
X116400000Y-68110000D02*
X116600000Y-68110000D01*
D83*
X140280000Y-66320000D02*
X140900000Y-66320000D01*
D84*
X105522921Y-86681498D02*
X105522921Y-86822919D01*
D83*
X132200000Y-66960000D02*
X132200000Y-65800000D01*
X156770000Y-69009998D02*
X157260001Y-69499999D01*
D84*
X105522921Y-86822919D02*
X105739377Y-87039377D01*
D83*
X156770000Y-67129999D02*
X156770000Y-68119999D01*
X157570000Y-66639999D02*
X157260001Y-66639999D01*
D85*
X116400000Y-68110000D02*
X117400000Y-68110000D01*
D83*
X131595592Y-67212500D02*
X130787500Y-67212500D01*
X157260001Y-66639999D02*
X156925000Y-66974999D01*
X132800000Y-71975000D02*
X132037500Y-71212500D01*
X132200000Y-64800000D02*
X132000000Y-64600000D01*
X156925000Y-66974999D02*
X156770000Y-67129999D01*
X129237000Y-71563000D02*
X129587500Y-71212500D01*
D82*
X149770000Y-60825000D02*
X149384999Y-61210001D01*
D83*
X126800000Y-75400000D02*
X126800000Y-74740000D01*
X139112500Y-67212500D02*
X139387500Y-67212500D01*
X91870000Y-68030000D02*
X93070000Y-69230000D01*
X138262500Y-74687500D02*
X137700000Y-74125000D01*
X128614318Y-72480000D02*
X129237000Y-71857318D01*
X157260001Y-69499999D02*
X157570000Y-69499999D01*
X139112500Y-67212500D02*
X137467500Y-67212500D01*
X131320000Y-63920000D02*
X132000000Y-64600000D01*
X108200000Y-67624997D02*
X108200000Y-66704995D01*
D84*
X127018001Y-65979999D02*
X126400000Y-66598000D01*
D83*
X103182500Y-68872498D02*
X103182500Y-67612499D01*
X132037500Y-71212500D02*
X130787500Y-71212500D01*
X93070000Y-73474353D02*
X93070000Y-73900000D01*
D86*
X144770000Y-64375000D02*
X144770000Y-65200000D01*
D83*
X157850000Y-69219999D02*
X159070000Y-69219999D01*
D85*
X131270000Y-62020000D02*
X130810000Y-62020000D01*
D83*
X128500000Y-75300000D02*
X128890001Y-74909999D01*
X137467500Y-67212500D02*
X137370000Y-67310000D01*
X139387500Y-67212500D02*
X140280000Y-66320000D01*
X132230000Y-68180000D02*
X132230000Y-67846908D01*
X156770000Y-68119999D02*
X156770000Y-69009998D01*
X137700000Y-75620000D02*
X137700000Y-74125000D01*
X128600000Y-72480000D02*
X128614318Y-72480000D01*
%TO.N,Net-(D2-A)*%
X106580000Y-64477500D02*
X106580000Y-65780000D01*
%TO.N,Net-(D3-A)*%
X104880000Y-64477500D02*
X104880000Y-65780000D01*
D82*
%TO.N,Net-(D4-A)*%
X148567500Y-62229999D02*
X147570000Y-61232499D01*
X148970000Y-62229999D02*
X148567500Y-62229999D01*
D84*
X147570000Y-60932499D02*
X147870000Y-61232499D01*
D83*
%TO.N,Net-(D7-A)*%
X108187500Y-64469999D02*
X108187500Y-65672497D01*
X108187500Y-65672497D02*
X108187501Y-65672498D01*
D86*
%TO.N,Net-(C44-Pad1)*%
X162480000Y-78371998D02*
X170461998Y-78371998D01*
X162479999Y-79381999D02*
X162479999Y-78700000D01*
X162440000Y-78660001D02*
X162480000Y-78620000D01*
X162480000Y-78620000D02*
X162480000Y-78371998D01*
X170461998Y-78371998D02*
X170570000Y-78480000D01*
X162479999Y-78700000D02*
X162440000Y-78660001D01*
D83*
%TO.N,/STLINK/LED*%
X145370000Y-68520000D02*
X145370000Y-66620000D01*
X143570000Y-70212500D02*
X143700001Y-70212500D01*
X139112500Y-70212500D02*
X143570000Y-70212500D01*
X147570000Y-64032499D02*
X147570000Y-62507501D01*
X143677500Y-70212500D02*
X145370000Y-68520000D01*
X145370000Y-66620000D02*
X146170000Y-65820000D01*
X143570000Y-70212500D02*
X143677500Y-70212500D01*
X146170000Y-65220000D02*
X147357501Y-64032499D01*
X147357501Y-64032499D02*
X147570000Y-64032499D01*
X146170000Y-65820000D02*
X146170000Y-65220000D01*
%TO.N,Net-(IC1-STB)*%
X93801000Y-76860000D02*
X97330001Y-76860000D01*
X93070000Y-75850000D02*
X93070000Y-76129000D01*
X93070000Y-76129000D02*
X93801000Y-76860000D01*
X97330001Y-76860000D02*
X97340001Y-76850000D01*
%TO.N,/USB/USB_CONN_D+*%
X169375000Y-72350000D02*
X168222500Y-72350000D01*
X172110000Y-71650000D02*
X170075000Y-71650000D01*
D82*
X164901000Y-72040000D02*
X165001000Y-72040000D01*
D83*
X173335000Y-70951000D02*
X173335000Y-71400000D01*
X173085000Y-71650000D02*
X172110000Y-71650000D01*
D82*
X165594448Y-72350000D02*
X165034448Y-71790000D01*
D83*
X173034000Y-70650000D02*
X173335000Y-70951000D01*
D82*
X166517500Y-72350000D02*
X168792500Y-72350000D01*
X166517500Y-72350000D02*
X165594448Y-72350000D01*
D83*
X170075000Y-71650000D02*
X169375000Y-72350000D01*
X172110000Y-70650000D02*
X173034000Y-70650000D01*
X173335000Y-71400000D02*
X173085000Y-71650000D01*
%TO.N,/USB/USB_CONN_D-*%
X168222500Y-70450000D02*
X169435000Y-70450000D01*
X170837000Y-72150000D02*
X172110000Y-72150000D01*
D82*
X165165000Y-70770000D02*
X165485000Y-70450000D01*
X166517500Y-70450000D02*
X168792500Y-70450000D01*
D83*
X170735000Y-72252000D02*
X170837000Y-72150000D01*
X170135000Y-71150000D02*
X170735000Y-71150000D01*
X170735000Y-71150000D02*
X172110000Y-71150000D01*
D82*
X165485000Y-70450000D02*
X166517500Y-70450000D01*
D83*
X169435000Y-70450000D02*
X170135000Y-71150000D01*
X170735000Y-71048000D02*
X170735000Y-71150000D01*
D86*
%TO.N,Net-(Q1-B)*%
X143580000Y-63049999D02*
X143580000Y-63684999D01*
X145720000Y-63049999D02*
X143580000Y-63049999D01*
X143580000Y-63684999D02*
X142954999Y-64310000D01*
%TO.N,Net-(Q1-E)*%
X142580000Y-67470001D02*
X142520000Y-67530001D01*
X142580000Y-66584999D02*
X142580000Y-67470001D01*
X142954999Y-66210000D02*
X142580000Y-66584999D01*
D83*
%TO.N,/MCU/USR_LED1*%
X109548150Y-71268150D02*
X106570000Y-68290000D01*
X106580000Y-67599999D02*
X106590000Y-67609999D01*
X109564342Y-71268150D02*
X109548150Y-71268150D01*
X106960000Y-68680000D02*
X106590000Y-68310000D01*
X110185266Y-71889072D02*
X109564342Y-71268150D01*
X106580000Y-66799998D02*
X106580000Y-67599999D01*
X106590000Y-68310000D02*
X106590000Y-67609999D01*
%TO.N,/MCU/USR_LED2*%
X104880000Y-66799998D02*
X104880000Y-67569999D01*
D84*
%TO.N,Net-(IC3-BOOT)*%
X109409998Y-104180001D02*
X110439998Y-103150001D01*
D83*
%TO.N,/USB/USB_PROT_D-*%
X160383174Y-67720000D02*
X159070000Y-67720000D01*
D84*
X159375944Y-71560000D02*
X159449633Y-71560000D01*
X159449633Y-71560000D02*
X159909633Y-71100000D01*
X159243114Y-71427170D02*
X159375944Y-71560000D01*
X163902988Y-71100000D02*
X164045000Y-70957988D01*
X159909633Y-71100000D02*
X163902988Y-71100000D01*
D83*
X160776587Y-67326587D02*
X160383174Y-67720000D01*
D84*
%TO.N,/USB/USB_PROT_D+*%
X159340446Y-72077170D02*
X159639570Y-72077170D01*
D83*
X161511768Y-67474942D02*
X162256825Y-68219999D01*
X162256825Y-68219999D02*
X163470000Y-68219999D01*
D82*
X163998988Y-71957988D02*
X163881000Y-71840000D01*
D84*
X160116740Y-71600000D02*
X163687012Y-71600000D01*
X163687012Y-71600000D02*
X164045000Y-71957988D01*
X159192074Y-72225542D02*
X159340446Y-72077170D01*
X159639570Y-72077170D02*
X160116740Y-71600000D01*
%TO.N,Net-(C45-Pad1)*%
X97300001Y-94800000D02*
X97330000Y-94770001D01*
X96200000Y-94800000D02*
X97300001Y-94800000D01*
X97340000Y-94760001D02*
X97330000Y-94770001D01*
X89494000Y-94770001D02*
X89409999Y-94686000D01*
D86*
X89409999Y-94686000D02*
X96086000Y-94686000D01*
X97245999Y-94686000D02*
X97330000Y-94770001D01*
X96086000Y-94686000D02*
X96200000Y-94800000D01*
D84*
X97340000Y-93840000D02*
X97340000Y-94760001D01*
D83*
%TO.N,/MCU/BOOT_EN*%
X105670000Y-73737766D02*
X107003286Y-75071052D01*
D84*
X104992234Y-73060000D02*
X103019999Y-73060000D01*
X105670000Y-73737766D02*
X104992234Y-73060000D01*
%TO.N,Net-(U2-WP)*%
X101912500Y-66637500D02*
X101912500Y-67612499D01*
X100962499Y-65687499D02*
X101912500Y-66637500D01*
X99863616Y-65687499D02*
X100962499Y-65687499D01*
X98020000Y-63843883D02*
X99863616Y-65687499D01*
X98020000Y-62899999D02*
X98020000Y-63843883D01*
D83*
%TO.N,/CAN/CAN1_TXD*%
X104622554Y-74811642D02*
X102888358Y-74811642D01*
X96242000Y-76122000D02*
X95970000Y-75850000D01*
X101578000Y-76122000D02*
X96242000Y-76122000D01*
X105942625Y-76131713D02*
X104622554Y-74811642D01*
X102888358Y-74811642D02*
X101578000Y-76122000D01*
D84*
%TO.N,VCC*%
X99400000Y-90700000D02*
X103090000Y-90700000D01*
X96900000Y-99200000D02*
X98600000Y-97500000D01*
X103090000Y-90700000D02*
X103290000Y-90500000D01*
X96900000Y-101050000D02*
X96900000Y-99200000D01*
X98600000Y-97500000D02*
X98600000Y-91500000D01*
D87*
X96900000Y-101050000D02*
X96450000Y-101050000D01*
D84*
X98600000Y-91500000D02*
X99400000Y-90700000D01*
%TO.N,/MCU/V_SENSE*%
X107600000Y-88100366D02*
X105200366Y-90500000D01*
X106299321Y-85199321D02*
X107600000Y-86500000D01*
X107600000Y-86500000D02*
X107600000Y-88100366D01*
X105200366Y-90500000D02*
X104310000Y-90500000D01*
X107710392Y-82036054D02*
X106299321Y-83447125D01*
X106299321Y-83447125D02*
X106299321Y-85199321D01*
D83*
%TO.N,/STLINK/BOOT*%
X134200000Y-63909999D02*
X134200000Y-65800000D01*
X133890001Y-63600000D02*
X133890001Y-61809999D01*
X133890001Y-63600000D02*
X134200000Y-63909999D01*
X133890001Y-61809999D02*
X133900000Y-61800000D01*
%TO.N,/STLINK/USB_D+*%
X154071000Y-61624000D02*
X154360000Y-61913000D01*
X139112500Y-68712500D02*
X143170300Y-68712500D01*
X147445147Y-67555038D02*
X149144962Y-67555038D01*
X147193541Y-67303432D02*
X147445147Y-67555038D01*
X149144962Y-67555038D02*
X150600000Y-66100000D01*
X150600000Y-62935051D02*
X151911051Y-61624000D01*
X150600000Y-66100000D02*
X150600000Y-62935051D01*
X143170300Y-68712500D02*
X143614400Y-68268400D01*
X151911051Y-61624000D02*
X154071000Y-61624000D01*
D82*
X139112500Y-68712500D02*
X139137499Y-68737499D01*
D83*
%TO.N,/STLINK/USB_RENUM*%
X143580000Y-61440000D02*
X143580000Y-62030001D01*
X135100000Y-62348600D02*
X135100000Y-60900000D01*
X135373000Y-60627000D02*
X142767000Y-60627000D01*
X135100000Y-60900000D02*
X135373000Y-60627000D01*
X137200000Y-65800000D02*
X137200000Y-64448600D01*
X142767000Y-60627000D02*
X143580000Y-61440000D01*
X137200000Y-64448600D02*
X135100000Y-62348600D01*
%TO.N,/MCU/SWDIO*%
X117398912Y-68812000D02*
X119380000Y-68812000D01*
X147200000Y-76100000D02*
X145982000Y-77318000D01*
X120027000Y-68812000D02*
X120027000Y-62727000D01*
X119380000Y-68812000D02*
X120027000Y-68812000D01*
X125325948Y-77318000D02*
X121600000Y-73592052D01*
X145999998Y-72700000D02*
X147200000Y-73900002D01*
X120027000Y-62727000D02*
X119300000Y-62000000D01*
X113968287Y-72242625D02*
X117398912Y-68812000D01*
X145982000Y-77318000D02*
X125325948Y-77318000D01*
X121600000Y-73592052D02*
X121600000Y-69800000D01*
X121600000Y-69800000D02*
X120612000Y-68812000D01*
X120612000Y-68812000D02*
X119380000Y-68812000D01*
X147200000Y-73900002D02*
X147200000Y-76100000D01*
%TO.N,/STLINK/DIO*%
X140270000Y-61440000D02*
X140043000Y-61213000D01*
X140270000Y-64170000D02*
X141600000Y-65500000D01*
X140043000Y-61213000D02*
X137157000Y-61213000D01*
X141600000Y-67558500D02*
X140946000Y-68212500D01*
X141600000Y-65500000D02*
X141600000Y-67558500D01*
X140270000Y-61440000D02*
X140270000Y-64170000D01*
X137157000Y-61213000D02*
X136350000Y-62020000D01*
X140946000Y-68212500D02*
X139112500Y-68212500D01*
%TO.N,/STLINK/CLK*%
X139110000Y-61830000D02*
X139110000Y-62020000D01*
X139110000Y-62020000D02*
X137700000Y-63430000D01*
X137700000Y-63430000D02*
X137700000Y-65800000D01*
D82*
%TO.N,/MCU/USB_D+*%
X120700000Y-70400000D02*
X120000000Y-70400000D01*
D84*
X151900000Y-67350000D02*
X149050000Y-70200000D01*
D82*
X120800000Y-70300000D02*
X120700000Y-70400000D01*
D84*
X154167000Y-63720000D02*
X152750000Y-63720000D01*
X151900000Y-64570000D02*
X151900000Y-67350000D01*
D82*
X117318020Y-69600000D02*
X114321841Y-72596179D01*
D84*
X146800000Y-70200000D02*
X146700000Y-70100000D01*
X149050000Y-70200000D02*
X146800000Y-70200000D01*
D82*
X119200000Y-69600000D02*
X117318020Y-69600000D01*
D84*
X154360000Y-63913000D02*
X154167000Y-63720000D01*
X152750000Y-63720000D02*
X151900000Y-64570000D01*
D82*
X120000000Y-70400000D02*
X119200000Y-69600000D01*
D84*
%TO.N,/MCU/USB_D-*%
X151400000Y-67100000D02*
X151400000Y-64362893D01*
X154123000Y-63150000D02*
X154360000Y-62913000D01*
D82*
X115337753Y-72252017D02*
X115337753Y-72287373D01*
X117589770Y-70000000D02*
X115337753Y-72252017D01*
D83*
X147700000Y-69550000D02*
X147737764Y-69587764D01*
D82*
X120372812Y-70800000D02*
X119600000Y-70800000D01*
D84*
X152612893Y-63150000D02*
X154123000Y-63150000D01*
X147526711Y-69550000D02*
X148950000Y-69550000D01*
X148950000Y-69550000D02*
X151400000Y-67100000D01*
D82*
X120593958Y-71021146D02*
X120372812Y-70800000D01*
D84*
X151400000Y-64362893D02*
X152612893Y-63150000D01*
D83*
X147526711Y-69550000D02*
X147700000Y-69550000D01*
D82*
X118800000Y-70000000D02*
X117589770Y-70000000D01*
X115337753Y-72287373D02*
X114675394Y-72949732D01*
X119600000Y-70800000D02*
X118800000Y-70000000D01*
D83*
%TO.N,/MCU/SWCLK*%
X114070000Y-63200000D02*
X109030000Y-68240000D01*
X145186000Y-76864000D02*
X145999998Y-76050002D01*
X116759999Y-62000000D02*
X115559999Y-63200000D01*
X115559999Y-63200000D02*
X114070000Y-63200000D01*
X121998000Y-69200000D02*
X122146000Y-69348000D01*
X122146000Y-73388053D02*
X125621947Y-76864000D01*
X122146000Y-69348000D02*
X122146000Y-73388053D01*
X109030000Y-70026700D02*
X110538819Y-71535519D01*
X145999998Y-76050002D02*
X145999998Y-75300000D01*
X125621947Y-76864000D02*
X145186000Y-76864000D01*
X109030000Y-68240000D02*
X109030000Y-70026700D01*
%TO.N,/STLINK/USB_D-*%
X147987412Y-67015450D02*
X149042498Y-67015450D01*
X143507705Y-69425872D02*
X143307705Y-69225872D01*
X149042498Y-67015450D02*
X150100000Y-65957948D01*
D82*
X139699423Y-69187501D02*
X139137499Y-69187501D01*
D83*
X150100000Y-62792999D02*
X151722999Y-61170000D01*
X143307705Y-69225872D02*
X139125872Y-69225872D01*
D82*
X139112500Y-69212500D02*
X139137499Y-69187501D01*
D83*
X151722999Y-61170000D02*
X154103001Y-61170000D01*
X139125872Y-69225872D02*
X139112500Y-69212500D01*
X154103001Y-61170000D02*
X154360001Y-60913000D01*
X150100000Y-65957948D02*
X150100000Y-62792999D01*
X147900000Y-66928038D02*
X147987412Y-67015450D01*
D84*
%TO.N,Net-(IC3-SS)*%
X112889999Y-97636001D02*
X112979999Y-97726001D01*
X112889999Y-96140000D02*
X112889999Y-97636001D01*
%TO.N,Net-(U1-VDD33)*%
X166180000Y-65460000D02*
X169490000Y-65460000D01*
X164510067Y-62902500D02*
X165320000Y-63712433D01*
X165320000Y-64600000D02*
X166180000Y-65460000D01*
X169620000Y-63025000D02*
X169875000Y-62770000D01*
X163507500Y-62902500D02*
X164510067Y-62902500D01*
X169620000Y-65590000D02*
X169620000Y-63025000D01*
X165320000Y-63712433D02*
X165320000Y-64600000D01*
X169490000Y-65460000D02*
X169620000Y-65590000D01*
D83*
%TO.N,Net-(U3-NRST)*%
X127400000Y-73225682D02*
X127400000Y-71600000D01*
X128787500Y-70212500D02*
X130787500Y-70212500D01*
X127779998Y-74700000D02*
X127779998Y-73605680D01*
X127779998Y-73605680D02*
X127400000Y-73225682D01*
X127400000Y-71600000D02*
X128787500Y-70212500D01*
%TO.N,Net-(U3-PD0)*%
X128237500Y-69212500D02*
X130787500Y-69212500D01*
X123947000Y-69893000D02*
X123947000Y-70147000D01*
X123947000Y-69893000D02*
X123947000Y-68763000D01*
X123947000Y-70147000D02*
X124853000Y-71053000D01*
X124853000Y-71053000D02*
X126397000Y-71053000D01*
X126397000Y-71053000D02*
X128237500Y-69212500D01*
X123947000Y-68763000D02*
X124317000Y-68393000D01*
%TO.N,Net-(U3-PD1)*%
X125647000Y-72093000D02*
X126107000Y-72093000D01*
X126107000Y-72093000D02*
X128487500Y-69712500D01*
X125647000Y-72093000D02*
X125647000Y-73253000D01*
X128487500Y-69712500D02*
X130787500Y-69712500D01*
X125647000Y-73253000D02*
X125257000Y-73643000D01*
D84*
%TO.N,Net-(IC3-RT{slash}SYNC)*%
X114819999Y-103720001D02*
X114249999Y-103150001D01*
X115729999Y-103720001D02*
X114819999Y-103720001D01*
D85*
%TO.N,Net-(J4-SHIELD)*%
X172680000Y-75750000D02*
X168215000Y-75750000D01*
X172710000Y-75720000D02*
X172680000Y-75750000D01*
X168215000Y-75750000D02*
X168135000Y-75670000D01*
X168135000Y-75670000D02*
X168135000Y-74840000D01*
X168135000Y-74840000D02*
X167165000Y-73870000D01*
D84*
%TO.N,Net-(D5-K)*%
X147570000Y-65807501D02*
X148947502Y-64429999D01*
X148947502Y-64429999D02*
X148970000Y-64429999D01*
%TO.N,/CAN/CAN1-*%
X92740000Y-89380000D02*
X92740000Y-84347160D01*
X92240000Y-83847160D02*
X92240000Y-79421767D01*
X88675000Y-74550000D02*
X91010000Y-74550000D01*
X91980000Y-90140000D02*
X92740000Y-89380000D01*
X92240000Y-79421767D02*
X93066404Y-78595363D01*
X166700000Y-80850000D02*
X168590000Y-82740000D01*
X92740000Y-84347160D02*
X92240000Y-83847160D01*
X91010000Y-74550000D02*
X93070000Y-74550000D01*
X88230000Y-74105000D02*
X88675000Y-74550000D01*
X88519999Y-90116000D02*
X88543999Y-90140000D01*
X88543999Y-90140000D02*
X91980000Y-90140000D01*
X171150000Y-82740000D02*
X171460000Y-83050000D01*
X168590000Y-82740000D02*
X171150000Y-82740000D01*
D83*
%TO.N,Net-(J4-CC2)*%
X169275001Y-69650000D02*
X168735000Y-69109999D01*
X172110000Y-69650000D02*
X169275001Y-69650000D01*
%TO.N,Net-(J4-CC1)*%
X170768357Y-73070000D02*
X171188357Y-72650000D01*
X171188357Y-72650000D02*
X172110000Y-72650000D01*
X170264999Y-73070000D02*
X170768357Y-73070000D01*
X169664999Y-73670000D02*
X170264999Y-73070000D01*
D84*
%TO.N,/POWER/5V_COIL*%
X108999999Y-103220001D02*
X109000000Y-102560001D01*
D83*
%TO.N,Net-(U3-PA0)*%
X129209999Y-73880002D02*
X129200000Y-73890001D01*
X129691000Y-71909000D02*
X129887500Y-71712500D01*
X129400000Y-72336371D02*
X129691000Y-72045371D01*
X130300000Y-73880002D02*
X129209999Y-73880002D01*
X129691000Y-72045371D02*
X129691000Y-71909000D01*
X129400000Y-73690001D02*
X129400000Y-72336371D01*
X129887500Y-71712500D02*
X130787500Y-71712500D01*
X129200000Y-73890001D02*
X129400000Y-73690001D01*
%TO.N,Net-(U3-PC13)*%
X129490842Y-67712500D02*
X128978342Y-67200000D01*
X123980002Y-67200000D02*
X123000000Y-66219998D01*
X130787500Y-67712500D02*
X129490842Y-67712500D01*
X128978342Y-67200000D02*
X123980002Y-67200000D01*
%TO.N,Net-(U3-PC14)*%
X122744001Y-67654000D02*
X128790290Y-67654000D01*
X128790290Y-67654000D02*
X129348790Y-68212500D01*
X122000000Y-66909999D02*
X122744001Y-67654000D01*
X129348790Y-68212500D02*
X130787500Y-68212500D01*
X122000000Y-66219998D02*
X122000000Y-66909999D01*
D84*
%TO.N,Net-(U3-PB12)*%
X141225000Y-73775000D02*
X142600000Y-73775000D01*
D83*
X140162500Y-72712500D02*
X140550000Y-73100000D01*
X139112500Y-72712500D02*
X140162500Y-72712500D01*
D84*
X140550000Y-73100000D02*
X141225000Y-73775000D01*
%TO.N,Net-(U1-DM3)*%
X155963000Y-60913000D02*
X157317500Y-62267500D01*
X155379999Y-60913000D02*
X155963000Y-60913000D01*
X157317500Y-62267500D02*
X158232500Y-62267500D01*
%TO.N,Net-(U1-DP3)*%
X157245394Y-62902500D02*
X158232500Y-62902500D01*
X155380000Y-61913000D02*
X156255894Y-61913000D01*
X156255894Y-61913000D02*
X157245394Y-62902500D01*
%TO.N,Net-(R39-Pad2)*%
X88660000Y-65550000D02*
X88210000Y-66000000D01*
X88770000Y-65550000D02*
X88660000Y-65550000D01*
X88210000Y-66000000D02*
X88210000Y-68765000D01*
%TO.N,Net-(U1-DM2)*%
X156270000Y-63220000D02*
X156587500Y-63537500D01*
X156587500Y-63537500D02*
X158232500Y-63537500D01*
X155687000Y-63220000D02*
X156270000Y-63220000D01*
X155380000Y-62913000D02*
X155687000Y-63220000D01*
%TO.N,Net-(U1-DP2)*%
X156062893Y-63720000D02*
X156380393Y-64037500D01*
X156380393Y-64037500D02*
X157280832Y-64037500D01*
X157415832Y-64172500D02*
X158232500Y-64172500D01*
X157280832Y-64037500D02*
X157415832Y-64172500D01*
X155380000Y-63913000D02*
X155573000Y-63720000D01*
X155573000Y-63720000D02*
X156062893Y-63720000D01*
%TO.N,Net-(U1-DM1)*%
X157415832Y-64807500D02*
X158232500Y-64807500D01*
X157303332Y-64920000D02*
X157415832Y-64807500D01*
X155379999Y-64920000D02*
X157303332Y-64920000D01*
%TO.N,Net-(U1-DP1)*%
X155710000Y-65590000D02*
X155380000Y-65920000D01*
X155889633Y-65420000D02*
X155719633Y-65590000D01*
X158210000Y-65420000D02*
X155889633Y-65420000D01*
X155719633Y-65590000D02*
X155710000Y-65590000D01*
X158232500Y-65442500D02*
X158210000Y-65420000D01*
%TO.N,Net-(IC3-FB)*%
X114249999Y-97726001D02*
X114249999Y-96290002D01*
X112919998Y-94960001D02*
X112939998Y-94980001D01*
X112919998Y-93910001D02*
X112919998Y-94960001D01*
X114249999Y-96290002D02*
X112939998Y-94980001D01*
%TO.N,Net-(R24-Pad2)*%
X88770000Y-63010000D02*
X87385000Y-64395000D01*
X87385000Y-71610000D02*
X88230000Y-72455000D01*
X87385000Y-64395000D02*
X87385000Y-71610000D01*
%TO.N,/STLINK/SWDIO*%
X142600000Y-72125000D02*
X144125000Y-72125000D01*
D83*
X142187500Y-71712500D02*
X142600000Y-72125000D01*
D84*
X144125000Y-72125000D02*
X144700000Y-72700000D01*
D83*
X139112500Y-71712500D02*
X142187500Y-71712500D01*
%TO.N,/STLINK/NRST*%
X134700000Y-74125000D02*
X134700000Y-73316908D01*
X134700000Y-73316908D02*
X135266908Y-72750000D01*
X135266908Y-72750000D02*
X137633092Y-72750000D01*
X137633092Y-72750000D02*
X139333092Y-74450000D01*
X139333092Y-74450000D02*
X140100000Y-74450000D01*
D84*
%TO.N,/STLINK/SWCLK*%
X142975000Y-72875000D02*
X144700000Y-74600000D01*
D83*
X139112500Y-72212500D02*
X134304408Y-72212500D01*
X139112500Y-72212500D02*
X140862500Y-72212500D01*
D84*
X144700000Y-74600000D02*
X144700000Y-75300000D01*
D83*
X140862500Y-72212500D02*
X141400000Y-72750000D01*
X134304408Y-72212500D02*
X133200000Y-73316908D01*
D84*
X141400000Y-72750000D02*
X141525000Y-72875000D01*
X141525000Y-72875000D02*
X142975000Y-72875000D01*
D83*
X133200000Y-73316908D02*
X133200000Y-74125000D01*
D82*
%TO.N,Net-(U1-XI)*%
X165947500Y-60997500D02*
X163507500Y-60997500D01*
X166550000Y-61700000D02*
X166550000Y-61600000D01*
X166550000Y-61600000D02*
X165947500Y-60997500D01*
%TO.N,Net-(U1-XO)*%
X165600000Y-62800000D02*
X167550000Y-62800000D01*
X164432500Y-61632500D02*
X165600000Y-62800000D01*
X168250000Y-63500000D02*
X168250000Y-63900000D01*
X163507500Y-61632500D02*
X164432500Y-61632500D01*
X167550000Y-62800000D02*
X168250000Y-63500000D01*
D83*
%TO.N,/USB/VBUS*%
X172721565Y-69000000D02*
X172110000Y-69000000D01*
D85*
X163400000Y-74400000D02*
X165700000Y-76700000D01*
D83*
X172062000Y-69048000D02*
X172110000Y-69000000D01*
X168792500Y-71400000D02*
X167825000Y-71400000D01*
X170955000Y-69048000D02*
X172062000Y-69048000D01*
D85*
X171600000Y-76700000D02*
X171800000Y-76900000D01*
D84*
X163470000Y-69219999D02*
X167280001Y-69219999D01*
D85*
X165700000Y-76700000D02*
X171600000Y-76700000D01*
X171800000Y-76900000D02*
X171800000Y-77000000D01*
D84*
X167280001Y-69219999D02*
X167300000Y-69200000D01*
D83*
X167825000Y-71400000D02*
X167755000Y-71470000D01*
%TO.N,Net-(U8-~{OE})*%
X159865591Y-68719998D02*
X160122000Y-68976407D01*
X160122000Y-68976407D02*
X160122000Y-69877999D01*
X160122000Y-69877999D02*
X159480000Y-70519999D01*
X159070000Y-68719998D02*
X159865591Y-68719998D01*
D82*
%TO.N,/USB/USB_UPSTREAM_D-*%
X162458332Y-64715001D02*
X162258333Y-64915000D01*
X163507500Y-64807500D02*
X163415001Y-64715001D01*
X160552322Y-64620521D02*
X160269479Y-64620521D01*
X160655228Y-65964132D02*
X160854013Y-65765347D01*
X163415001Y-64715001D02*
X162458332Y-64715001D01*
X160070001Y-67219999D02*
X159070000Y-67219999D01*
X160854013Y-64922212D02*
X160552322Y-64620521D01*
X160655228Y-66634772D02*
X160070001Y-67219999D01*
X160854013Y-65765347D02*
X160854013Y-64922212D01*
X160655228Y-65964132D02*
X160655228Y-66634772D01*
%TO.N,/USB/USB_UPSTREAM_D+*%
X162519999Y-67669999D02*
X163419999Y-67669999D01*
X161304015Y-65770002D02*
X161304015Y-64735816D01*
X160870521Y-64302322D02*
X160870521Y-64019479D01*
X161454013Y-66604013D02*
X162519999Y-67669999D01*
X161454013Y-65920000D02*
X161454013Y-66604013D01*
X163415001Y-64264999D02*
X162458332Y-64264999D01*
X163419999Y-67669999D02*
X163470000Y-67720000D01*
X161304015Y-64735816D02*
X160870521Y-64302322D01*
X161454013Y-65920000D02*
X161304015Y-65770002D01*
X162458332Y-64264999D02*
X162258333Y-64065000D01*
X163507500Y-64172500D02*
X163415001Y-64264999D01*
D84*
%TO.N,/CAN/CAN1+*%
X166050000Y-81119239D02*
X168360761Y-83430000D01*
X90300000Y-89100000D02*
X90840000Y-89640000D01*
X92240000Y-84554266D02*
X91590000Y-83904266D01*
X91720000Y-75200000D02*
X88066642Y-75200000D01*
X91590000Y-83904266D02*
X91590000Y-79011104D01*
X91720000Y-75200000D02*
X93070000Y-75200000D01*
X90840000Y-89640000D02*
X91600000Y-89640000D01*
X166050000Y-81100000D02*
X166050000Y-81119239D01*
X91590000Y-79011104D02*
X92430006Y-78171098D01*
X168360761Y-83430000D02*
X169043999Y-83430000D01*
X87600000Y-61700000D02*
X95080000Y-61700000D01*
X86700000Y-73833358D02*
X86700000Y-62600000D01*
X88066642Y-75200000D02*
X86700000Y-73833358D01*
X92430006Y-78171098D02*
X92430006Y-77958965D01*
X169043999Y-83430000D02*
X169679999Y-84066000D01*
X95080000Y-61700000D02*
X96390000Y-63010000D01*
X91600000Y-89640000D02*
X92240000Y-89000000D01*
X86700000Y-62600000D02*
X87600000Y-61700000D01*
X92240000Y-89000000D02*
X92240000Y-84554266D01*
X165800000Y-80850000D02*
X166050000Y-81100000D01*
D83*
%TO.N,/CAN/CAN1_RXD*%
X104788020Y-74270000D02*
X106296179Y-75778159D01*
X99436357Y-75090000D02*
X101810000Y-75090000D01*
X96065000Y-73805000D02*
X98029999Y-73805000D01*
X101810000Y-75090000D02*
X102630000Y-74270000D01*
X95970000Y-73900000D02*
X96065000Y-73805000D01*
X98029999Y-73805000D02*
X98151357Y-73805000D01*
X98151357Y-73805000D02*
X99436357Y-75090000D01*
X102630000Y-74270000D02*
X104788020Y-74270000D01*
D84*
%TO.N,/CAN/CAN2+*%
X93020000Y-70480000D02*
X93070000Y-70530000D01*
X91107775Y-70480000D02*
X88275000Y-70480000D01*
X91217377Y-70589602D02*
X91107775Y-70480000D01*
X88275000Y-70480000D02*
X88210000Y-70415000D01*
X91217377Y-70589602D02*
X91326979Y-70480000D01*
X91326979Y-70480000D02*
X93020000Y-70480000D01*
D83*
%TO.N,Net-(IC2-STB)*%
X93070000Y-72320002D02*
X92830002Y-72560000D01*
X93070000Y-71180000D02*
X93070000Y-72320002D01*
%TO.N,/CAN/CAN2_TXD*%
X104829670Y-72190330D02*
X104530000Y-72190330D01*
X107356839Y-74717499D02*
X104829670Y-72190330D01*
X96980330Y-72190330D02*
X104829670Y-72190330D01*
X95970000Y-71180000D02*
X96980330Y-72190330D01*
%TO.N,/CAN/CAN2_RXD*%
X97745501Y-69205501D02*
X100130000Y-71590000D01*
X95994499Y-69205501D02*
X97745501Y-69205501D01*
X95970000Y-69230000D02*
X95994499Y-69205501D01*
X104936446Y-71590000D02*
X107710392Y-74363946D01*
X100130000Y-71590000D02*
X104936446Y-71590000D01*
D84*
%TO.N,/CAN/CAN2-*%
X91090000Y-69545211D02*
X91090000Y-66600000D01*
X91257628Y-69712839D02*
X91504789Y-69960000D01*
X91090000Y-66600000D02*
X92140000Y-65550000D01*
X91257628Y-69712839D02*
X91090000Y-69545211D01*
X91504789Y-69960000D02*
X92990000Y-69960000D01*
X92990000Y-69960000D02*
X93070000Y-69880000D01*
X92140000Y-65550000D02*
X96390000Y-65550000D01*
D86*
%TO.N,Net-(J7-Pad10)*%
X164860000Y-82040000D02*
X164172000Y-81352000D01*
X164172000Y-81352000D02*
X162479999Y-81352000D01*
D83*
%TO.N,/CAN/USB_UPSTREAM_D-*%
X160007644Y-68219999D02*
X161300000Y-69512355D01*
X159070000Y-68219999D02*
X160007644Y-68219999D01*
X161300000Y-69900000D02*
X161300000Y-70149997D01*
X161300000Y-69512355D02*
X161300000Y-69900000D01*
X161300000Y-70149997D02*
X161149997Y-70300000D01*
D86*
%TO.N,Net-(J7-Pad12)*%
X164860000Y-93470001D02*
X162770001Y-93470000D01*
D83*
%TO.N,/CAN/USB_UPSTREAM_D+*%
X163470000Y-68719998D02*
X162674409Y-68719998D01*
X161900000Y-69494407D02*
X161900000Y-69900000D01*
X161900000Y-69900000D02*
X161900000Y-70300000D01*
X162674409Y-68719998D02*
X161900000Y-69494407D01*
D84*
%TO.N,Net-(J8-Pad12)*%
X97216001Y-79696000D02*
X97290000Y-79769999D01*
X95119999Y-79696000D02*
X97216001Y-79696000D01*
%TO.N,/CAN/USB_DOWNSTREAM_D-*%
X149300001Y-71699999D02*
X148524999Y-71699999D01*
X154140001Y-65140000D02*
X153540000Y-65140000D01*
X152900000Y-68100000D02*
X149300001Y-71699999D01*
X148524999Y-71699999D02*
X148400000Y-71575000D01*
X152900000Y-65780000D02*
X152900000Y-68100000D01*
X154360001Y-64920000D02*
X154140001Y-65140000D01*
X153540000Y-65140000D02*
X152900000Y-65780000D01*
%TO.N,/CAN/USB_DOWNSTREAM_D+*%
X153550000Y-65840000D02*
X153550000Y-68307106D01*
X149432106Y-72425000D02*
X148400000Y-72425000D01*
X153550000Y-68307106D02*
X149432106Y-72425000D01*
X154080000Y-65640000D02*
X153750000Y-65640000D01*
X154360000Y-65920000D02*
X154080000Y-65640000D01*
X153750000Y-65640000D02*
X153550000Y-65840000D01*
%TO.N,Net-(J8-Pad10)*%
X97350000Y-91689999D02*
X95683998Y-91689999D01*
X95683998Y-91689999D02*
X95119999Y-91126000D01*
D83*
%TO.N,/CAN/RXD1_LED*%
X125105368Y-77772000D02*
X157880002Y-77772000D01*
X116443161Y-74717499D02*
X117760660Y-73400000D01*
X157880002Y-77772000D02*
X162480000Y-82371998D01*
X117760660Y-73400000D02*
X120733368Y-73400000D01*
X120733368Y-73400000D02*
X125105368Y-77772000D01*
D84*
%TO.N,/CAN/TXD1_LED*%
X162600000Y-84000000D02*
X162600000Y-92280001D01*
X161550448Y-82950448D02*
X162600000Y-84000000D01*
D83*
X157650896Y-78250000D02*
X161550448Y-82149552D01*
X124876261Y-78250000D02*
X157650896Y-78250000D01*
X117967766Y-73900000D02*
X120526261Y-73900000D01*
X120526261Y-73900000D02*
X124876261Y-78250000D01*
D84*
X162600000Y-92280001D02*
X162610000Y-92290001D01*
X161550448Y-82149552D02*
X161550448Y-82950448D01*
D83*
X116796714Y-75071052D02*
X117967766Y-73900000D01*
D84*
%TO.N,/CAN/RXD2_LED*%
X98700000Y-78400000D02*
X98271497Y-78828503D01*
D83*
X118577000Y-71303472D02*
X117735866Y-71303472D01*
D84*
X97350000Y-90350000D02*
X97350000Y-90670001D01*
D83*
X117735866Y-71303472D02*
X116339338Y-72700000D01*
D84*
X96900000Y-81300000D02*
X96900000Y-89900000D01*
X116339338Y-72700000D02*
X116003423Y-73035915D01*
X100700000Y-78400000D02*
X98700000Y-78400000D01*
D83*
X118600000Y-71326472D02*
X118577000Y-71303472D01*
D84*
X116003423Y-73035915D02*
X115382501Y-73656839D01*
X96900000Y-89900000D02*
X97350000Y-90350000D01*
X98271497Y-78828503D02*
X98271497Y-79928503D01*
X98271497Y-79928503D02*
X96900000Y-81300000D01*
D83*
%TO.N,/CAN/TXD2_LED*%
X117630762Y-70701472D02*
X115028948Y-73303286D01*
D84*
X100574997Y-77775000D02*
X98265001Y-77775000D01*
D83*
X117701472Y-70701472D02*
X117630762Y-70701472D01*
D84*
X100700000Y-77649997D02*
X100574997Y-77775000D01*
X98265001Y-77775000D02*
X97290000Y-78750001D01*
%TO.N,Net-(U9-VCAP_1)*%
X119489088Y-81900000D02*
X120370000Y-81900000D01*
X117857375Y-80268287D02*
X119489088Y-81900000D01*
X120370000Y-81900000D02*
X120810589Y-81459411D01*
D82*
%TO.N,Net-(U9-PC14)*%
X100478503Y-79900000D02*
X101218553Y-80640049D01*
X99521497Y-79900000D02*
X100478503Y-79900000D01*
%TO.N,Net-(U9-PC15)*%
X99521497Y-82399999D02*
X100478503Y-82399999D01*
D83*
X101218553Y-81659949D02*
X105258071Y-81659949D01*
X105258071Y-81659949D02*
X106296179Y-80621841D01*
D82*
X100478503Y-82399999D02*
X101218553Y-81659949D01*
D84*
%TO.N,/MCU/I2C3_SDA*%
X100247499Y-69167498D02*
X99372500Y-68292499D01*
X100712884Y-70782883D02*
X100247499Y-70317498D01*
X99372500Y-68292499D02*
X99372500Y-67612499D01*
X105000000Y-70722499D02*
X104939616Y-70782883D01*
D83*
X119200000Y-72798000D02*
X117655554Y-72798000D01*
D84*
X100247499Y-70317498D02*
X100247499Y-69167498D01*
D83*
X117655554Y-72798000D02*
X116089608Y-74363946D01*
D84*
X104939616Y-70782883D02*
X100712884Y-70782883D01*
%TO.N,/MCU/I2C3_SCL*%
X100642500Y-68432499D02*
X100642500Y-67612499D01*
X105800000Y-70700000D02*
X105800000Y-70638615D01*
X105258884Y-70097499D02*
X102027501Y-70097499D01*
X101517501Y-69307500D02*
X100642500Y-68432499D01*
X102027501Y-70097499D02*
X101517501Y-69587499D01*
D83*
X117690868Y-72055578D02*
X115736054Y-74010392D01*
X119093636Y-72055578D02*
X117690868Y-72055578D01*
D84*
X105800000Y-70638615D02*
X105258884Y-70097499D01*
X101517501Y-69587499D02*
X101517501Y-69307500D01*
%TD*%
%TA.AperFunction,Conductor*%
%TO.N,VCC*%
G36*
X112015677Y-102419685D02*
G01*
X112036319Y-102436319D01*
X112263681Y-102663681D01*
X112297166Y-102725004D01*
X112300000Y-102751362D01*
X112300000Y-104800000D01*
X112848638Y-104800000D01*
X112915677Y-104819685D01*
X112936319Y-104836319D01*
X113163681Y-105063681D01*
X113197166Y-105125004D01*
X113200000Y-105151362D01*
X113200000Y-111548638D01*
X113180315Y-111615677D01*
X113163681Y-111636319D01*
X112936319Y-111863681D01*
X112874996Y-111897166D01*
X112848638Y-111900000D01*
X107900000Y-111900000D01*
X107900000Y-112199999D01*
X107900000Y-117048638D01*
X107880315Y-117115677D01*
X107863681Y-117136319D01*
X107786819Y-117213181D01*
X107725496Y-117246666D01*
X107699138Y-117249500D01*
X100998626Y-117249500D01*
X100931587Y-117229815D01*
X100910945Y-117213181D01*
X100136319Y-116438555D01*
X100102834Y-116377232D01*
X100100000Y-116350874D01*
X100100000Y-113329063D01*
X100112913Y-113273966D01*
X100179768Y-113139172D01*
X100325926Y-112844493D01*
X100361971Y-112800877D01*
X102205000Y-111400000D01*
X104054982Y-109993836D01*
X104090426Y-109975048D01*
X104590737Y-109806490D01*
X104630327Y-109800000D01*
X108220000Y-109800000D01*
X108520000Y-109800000D01*
X108520000Y-105201363D01*
X108539685Y-105134324D01*
X108556319Y-105113682D01*
X108783681Y-104886320D01*
X108845004Y-104852835D01*
X108871362Y-104850001D01*
X110700000Y-104850001D01*
X111000000Y-104850001D01*
X111000000Y-102751362D01*
X111019685Y-102684323D01*
X111036319Y-102663681D01*
X111263681Y-102436319D01*
X111325004Y-102402834D01*
X111351362Y-102400000D01*
X111948638Y-102400000D01*
X112015677Y-102419685D01*
G37*
%TD.AperFunction*%
%TD*%
%TA.AperFunction,Conductor*%
%TO.N,/USB/VBUS*%
G36*
X175143039Y-68689685D02*
G01*
X175188794Y-68742489D01*
X175200000Y-68794000D01*
X175200000Y-77346000D01*
X175180315Y-77413039D01*
X175127511Y-77458794D01*
X175076000Y-77470000D01*
X171629000Y-77470000D01*
X171561961Y-77450315D01*
X171516206Y-77397511D01*
X171505000Y-77346000D01*
X171505000Y-76449500D01*
X171524685Y-76382461D01*
X171577489Y-76336706D01*
X171629000Y-76325500D01*
X171768551Y-76325500D01*
X171822342Y-76338973D01*
X171822562Y-76338444D01*
X171826131Y-76339922D01*
X171827000Y-76340140D01*
X171828183Y-76340772D01*
X171828186Y-76340773D01*
X171828189Y-76340775D01*
X171955672Y-76393580D01*
X171955676Y-76393580D01*
X171955677Y-76393581D01*
X172091004Y-76420500D01*
X172091007Y-76420500D01*
X173328995Y-76420500D01*
X173420041Y-76402389D01*
X173464328Y-76393580D01*
X173591811Y-76340775D01*
X173706542Y-76264114D01*
X173804114Y-76166542D01*
X173880775Y-76051811D01*
X173933580Y-75924328D01*
X173942389Y-75880041D01*
X173960500Y-75788995D01*
X173960500Y-75651004D01*
X173933581Y-75515677D01*
X173933580Y-75515676D01*
X173933580Y-75515672D01*
X173933578Y-75515667D01*
X173880778Y-75388195D01*
X173880771Y-75388182D01*
X173804114Y-75273458D01*
X173804111Y-75273454D01*
X173706545Y-75175888D01*
X173706541Y-75175885D01*
X173591817Y-75099228D01*
X173591808Y-75099223D01*
X173472180Y-75049672D01*
X173417777Y-75005831D01*
X173395712Y-74939537D01*
X173412991Y-74871837D01*
X173457631Y-74827725D01*
X173585821Y-74753715D01*
X173693715Y-74645821D01*
X173770008Y-74513678D01*
X173809500Y-74366293D01*
X173809500Y-74213707D01*
X173770008Y-74066322D01*
X173693715Y-73934179D01*
X173585821Y-73826285D01*
X173585819Y-73826284D01*
X173585817Y-73826282D01*
X173453681Y-73749993D01*
X173453682Y-73749993D01*
X173441595Y-73746754D01*
X173306293Y-73710500D01*
X173153707Y-73710500D01*
X173018404Y-73746754D01*
X173006318Y-73749993D01*
X172874182Y-73826282D01*
X172874176Y-73826287D01*
X172766287Y-73934176D01*
X172766282Y-73934182D01*
X172706632Y-74037500D01*
X172656065Y-74085716D01*
X172599245Y-74099500D01*
X171629000Y-74099500D01*
X171561961Y-74079815D01*
X171516206Y-74027011D01*
X171505000Y-73975500D01*
X171505000Y-73624500D01*
X171524685Y-73557461D01*
X171577489Y-73511706D01*
X171629000Y-73500500D01*
X172749750Y-73500500D01*
X172749751Y-73500499D01*
X172764568Y-73497552D01*
X172808229Y-73488868D01*
X172808229Y-73488867D01*
X172808231Y-73488867D01*
X172874552Y-73444552D01*
X172918867Y-73378231D01*
X172918867Y-73378229D01*
X172918868Y-73378229D01*
X172930499Y-73319752D01*
X172930500Y-73319750D01*
X172930500Y-72980249D01*
X172919349Y-72924192D01*
X172919349Y-72875808D01*
X172930500Y-72819750D01*
X172930500Y-72480249D01*
X172919349Y-72424192D01*
X172919349Y-72375808D01*
X172930500Y-72319750D01*
X172930500Y-72101500D01*
X172950185Y-72034461D01*
X173002989Y-71988706D01*
X173054500Y-71977500D01*
X173128114Y-71977500D01*
X173128116Y-71977500D01*
X173211410Y-71955181D01*
X173286090Y-71912065D01*
X173597065Y-71601090D01*
X173640181Y-71526410D01*
X173662500Y-71443116D01*
X173662500Y-71356884D01*
X173662500Y-70907884D01*
X173640181Y-70824590D01*
X173597065Y-70749910D01*
X173536090Y-70688935D01*
X173235090Y-70387935D01*
X173160410Y-70344819D01*
X173160411Y-70344819D01*
X173132645Y-70337379D01*
X173077116Y-70322500D01*
X173077114Y-70322500D01*
X173054500Y-70322500D01*
X172987461Y-70302815D01*
X172941706Y-70250011D01*
X172930500Y-70198500D01*
X172930500Y-69980249D01*
X172919349Y-69924192D01*
X172919349Y-69875808D01*
X172930500Y-69819750D01*
X172930500Y-69480249D01*
X172930499Y-69480247D01*
X172918868Y-69421770D01*
X172918867Y-69421769D01*
X172874552Y-69355447D01*
X172808230Y-69311132D01*
X172808229Y-69311131D01*
X172749752Y-69299500D01*
X172749748Y-69299500D01*
X171629000Y-69299500D01*
X171561961Y-69279815D01*
X171516206Y-69227011D01*
X171505000Y-69175500D01*
X171505000Y-68824500D01*
X171524685Y-68757461D01*
X171577489Y-68711706D01*
X171629000Y-68700500D01*
X172599245Y-68700500D01*
X172666284Y-68720185D01*
X172706632Y-68762500D01*
X172766282Y-68865817D01*
X172766284Y-68865819D01*
X172766285Y-68865821D01*
X172874179Y-68973715D01*
X172874180Y-68973716D01*
X172874182Y-68973717D01*
X173006318Y-69050006D01*
X173006319Y-69050006D01*
X173006322Y-69050008D01*
X173153707Y-69089500D01*
X173153710Y-69089500D01*
X173306290Y-69089500D01*
X173306293Y-69089500D01*
X173453678Y-69050008D01*
X173585821Y-68973715D01*
X173693715Y-68865821D01*
X173770008Y-68733678D01*
X173770007Y-68733678D01*
X173770977Y-68732000D01*
X173821544Y-68683784D01*
X173878364Y-68670000D01*
X175076000Y-68670000D01*
X175143039Y-68689685D01*
G37*
%TD.AperFunction*%
%TD*%
%TA.AperFunction,Conductor*%
%TO.N,+5V*%
G36*
X105425676Y-95419685D02*
G01*
X105446318Y-95436319D01*
X105673680Y-95663681D01*
X105707165Y-95725004D01*
X105709999Y-95751362D01*
X105709999Y-97949752D01*
X105690314Y-98016791D01*
X105675018Y-98036075D01*
X105445121Y-98273154D01*
X105384320Y-98307578D01*
X105359916Y-98310772D01*
X102759858Y-98390774D01*
X102759856Y-98390774D01*
X102459999Y-98400001D01*
X102459999Y-98700000D01*
X102459999Y-107848638D01*
X102440314Y-107915677D01*
X102423680Y-107936319D01*
X102196318Y-108163681D01*
X102134995Y-108197166D01*
X102108637Y-108200000D01*
X100151320Y-108200000D01*
X100084281Y-108180315D01*
X100063690Y-108163733D01*
X100063638Y-108163681D01*
X99835956Y-107936265D01*
X99802436Y-107874963D01*
X99799587Y-107848686D01*
X99785410Y-95751404D01*
X99805016Y-95684343D01*
X99821677Y-95663630D01*
X100048671Y-95436370D01*
X100109975Y-95402849D01*
X100136404Y-95400000D01*
X105358637Y-95400000D01*
X105425676Y-95419685D01*
G37*
%TD.AperFunction*%
%TD*%
%TA.AperFunction,Conductor*%
%TO.N,+3V3*%
G36*
X120243039Y-107119685D02*
G01*
X120288794Y-107172489D01*
X120300000Y-107224000D01*
X120300000Y-112600000D01*
X122343876Y-112552906D01*
X122411351Y-112571041D01*
X122458310Y-112622777D01*
X122470730Y-112676155D01*
X122499274Y-117604666D01*
X122479978Y-117671818D01*
X122427440Y-117717878D01*
X122374666Y-117729383D01*
X116523390Y-117700606D01*
X116456448Y-117680591D01*
X116410954Y-117627563D01*
X116400000Y-117576607D01*
X116400000Y-116910001D01*
X116400000Y-116910000D01*
X115924700Y-116908098D01*
X114023504Y-116900494D01*
X113956544Y-116880541D01*
X113911000Y-116827555D01*
X113900000Y-116776495D01*
X113900000Y-115529500D01*
X113919685Y-115462461D01*
X113972489Y-115416706D01*
X114024000Y-115405500D01*
X114245565Y-115405500D01*
X114245594Y-115405500D01*
X114252330Y-115405390D01*
X114258218Y-115405196D01*
X114261455Y-115405091D01*
X114261455Y-115405112D01*
X114266010Y-115405000D01*
X115399139Y-115405000D01*
X115401680Y-115404863D01*
X115421107Y-115403822D01*
X115421114Y-115403821D01*
X115421118Y-115403821D01*
X115450044Y-115400711D01*
X115463301Y-115400000D01*
X116249999Y-115400000D01*
X116250000Y-115400000D01*
X116200751Y-107224745D01*
X116220032Y-107157590D01*
X116272559Y-107111518D01*
X116324749Y-107100000D01*
X120176000Y-107100000D01*
X120243039Y-107119685D01*
G37*
%TD.AperFunction*%
%TD*%
%TA.AperFunction,Conductor*%
%TO.N,/MCU/3V3_MCU*%
G36*
X112228106Y-67786543D02*
G01*
X112295121Y-67806310D01*
X112313349Y-67820635D01*
X114510214Y-69907256D01*
X114545266Y-69967697D01*
X114542076Y-70037494D01*
X114501658Y-70094486D01*
X114467231Y-70113685D01*
X114447752Y-70120775D01*
X114447747Y-70120777D01*
X114447745Y-70120778D01*
X114447742Y-70120780D01*
X114408076Y-70151217D01*
X114408067Y-70151225D01*
X114111228Y-70448065D01*
X114111220Y-70448074D01*
X114080779Y-70487743D01*
X114080775Y-70487750D01*
X114039708Y-70600584D01*
X114039708Y-70720663D01*
X114080779Y-70833507D01*
X114080810Y-70833563D01*
X114080825Y-70833633D01*
X114084022Y-70842416D01*
X114082847Y-70842843D01*
X114095792Y-70901807D01*
X114071499Y-70967318D01*
X114059772Y-70980877D01*
X113983555Y-71057094D01*
X113958647Y-71073739D01*
X113959334Y-71074766D01*
X113949182Y-71081548D01*
X113949181Y-71081549D01*
X113920819Y-71100500D01*
X113881051Y-71127071D01*
X113881050Y-71127072D01*
X112852736Y-72155389D01*
X112852733Y-72155393D01*
X112800426Y-72233673D01*
X112799400Y-72232987D01*
X112782754Y-72257895D01*
X112488911Y-72551739D01*
X112488908Y-72551743D01*
X112464013Y-72576636D01*
X112443375Y-72593266D01*
X112375411Y-72636944D01*
X112285870Y-72740282D01*
X112285867Y-72740285D01*
X112229070Y-72864654D01*
X112229068Y-72864662D01*
X112209610Y-73000000D01*
X112229068Y-73135337D01*
X112229070Y-73135345D01*
X112285867Y-73259714D01*
X112285872Y-73259721D01*
X112375409Y-73363053D01*
X112375413Y-73363057D01*
X112414832Y-73388389D01*
X112490439Y-73436978D01*
X112543244Y-73452483D01*
X112621632Y-73475500D01*
X112621633Y-73475500D01*
X112758367Y-73475500D01*
X112889561Y-73436978D01*
X113004589Y-73363055D01*
X113094130Y-73259718D01*
X113150931Y-73135342D01*
X113157583Y-73089070D01*
X113186607Y-73025516D01*
X113245384Y-72987740D01*
X113315254Y-72987739D01*
X113349214Y-73003616D01*
X113350720Y-73004622D01*
X113350723Y-73004625D01*
X113418851Y-73050148D01*
X113418853Y-73050149D01*
X113430136Y-73054823D01*
X113429537Y-73056268D01*
X113479122Y-73082202D01*
X113508971Y-73134612D01*
X113509645Y-73134333D01*
X113511865Y-73139694D01*
X113513700Y-73142915D01*
X113514254Y-73145461D01*
X113514317Y-73145612D01*
X113514318Y-73145615D01*
X113559839Y-73213743D01*
X113701002Y-73354904D01*
X113704277Y-73358179D01*
X113704279Y-73358181D01*
X113772403Y-73403701D01*
X113783689Y-73408376D01*
X113783090Y-73409821D01*
X113832679Y-73435760D01*
X113862521Y-73488164D01*
X113863197Y-73487885D01*
X113865425Y-73493264D01*
X113867254Y-73496476D01*
X113867806Y-73499012D01*
X113867870Y-73499168D01*
X113913388Y-73567291D01*
X113913389Y-73567292D01*
X113913392Y-73567296D01*
X114055058Y-73708960D01*
X114057830Y-73711732D01*
X114057832Y-73711734D01*
X114125957Y-73757255D01*
X114137243Y-73761930D01*
X114136644Y-73763375D01*
X114186229Y-73789309D01*
X114216078Y-73841719D01*
X114216752Y-73841440D01*
X114218972Y-73846801D01*
X114220807Y-73850022D01*
X114221361Y-73852568D01*
X114221424Y-73852719D01*
X114221425Y-73852722D01*
X114266946Y-73920850D01*
X114411384Y-74065286D01*
X114411386Y-74065288D01*
X114479510Y-74110808D01*
X114490796Y-74115483D01*
X114490197Y-74116928D01*
X114539786Y-74142867D01*
X114569628Y-74195271D01*
X114570304Y-74194992D01*
X114572532Y-74200371D01*
X114574361Y-74203583D01*
X114574913Y-74206119D01*
X114574977Y-74206275D01*
X114620495Y-74274398D01*
X114620496Y-74274399D01*
X114620499Y-74274403D01*
X114764937Y-74418839D01*
X114764939Y-74418841D01*
X114833063Y-74464361D01*
X114844349Y-74469036D01*
X114843750Y-74470481D01*
X114893339Y-74496420D01*
X114923181Y-74548824D01*
X114923857Y-74548545D01*
X114926085Y-74553924D01*
X114927914Y-74557136D01*
X114928466Y-74559672D01*
X114928530Y-74559828D01*
X114974048Y-74627951D01*
X114974049Y-74627952D01*
X114974052Y-74627956D01*
X115108598Y-74762500D01*
X115118490Y-74772392D01*
X115118492Y-74772394D01*
X115186617Y-74817915D01*
X115197903Y-74822590D01*
X115197304Y-74824035D01*
X115246889Y-74849969D01*
X115276738Y-74902379D01*
X115277412Y-74902100D01*
X115279632Y-74907461D01*
X115281467Y-74910682D01*
X115282021Y-74913228D01*
X115282084Y-74913379D01*
X115282085Y-74913382D01*
X115327606Y-74981510D01*
X115392981Y-75046884D01*
X115472044Y-75125946D01*
X115472046Y-75125948D01*
X115540170Y-75171468D01*
X115551456Y-75176143D01*
X115550857Y-75177588D01*
X115600446Y-75203527D01*
X115630288Y-75255931D01*
X115630964Y-75255652D01*
X115633192Y-75261031D01*
X115635021Y-75264243D01*
X115635573Y-75266779D01*
X115635637Y-75266935D01*
X115681155Y-75335058D01*
X115681156Y-75335059D01*
X115681159Y-75335063D01*
X115825597Y-75479499D01*
X115825599Y-75479501D01*
X115893723Y-75525021D01*
X115905009Y-75529696D01*
X115904410Y-75531141D01*
X115953999Y-75557080D01*
X115983841Y-75609484D01*
X115984517Y-75609205D01*
X115986745Y-75614584D01*
X115988574Y-75617796D01*
X115989126Y-75620332D01*
X115989190Y-75620488D01*
X116034708Y-75688611D01*
X116034709Y-75688612D01*
X116034712Y-75688616D01*
X116162917Y-75816819D01*
X116179150Y-75833052D01*
X116179152Y-75833054D01*
X116247277Y-75878575D01*
X116258563Y-75883250D01*
X116257964Y-75884695D01*
X116307549Y-75910629D01*
X116337398Y-75963039D01*
X116338072Y-75962760D01*
X116340292Y-75968121D01*
X116342127Y-75971342D01*
X116342681Y-75973888D01*
X116342744Y-75974039D01*
X116342745Y-75974042D01*
X116388266Y-76042170D01*
X116496917Y-76150819D01*
X116532704Y-76186606D01*
X116532706Y-76186608D01*
X116600830Y-76232128D01*
X116612116Y-76236803D01*
X116611517Y-76238248D01*
X116661106Y-76264187D01*
X116690948Y-76316591D01*
X116691624Y-76316312D01*
X116693852Y-76321691D01*
X116695681Y-76324903D01*
X116696233Y-76327439D01*
X116696297Y-76327595D01*
X116741815Y-76395718D01*
X116741816Y-76395719D01*
X116741819Y-76395723D01*
X116795597Y-76449500D01*
X116886257Y-76540159D01*
X116886259Y-76540161D01*
X116954384Y-76585682D01*
X116965670Y-76590357D01*
X116965071Y-76591802D01*
X117014656Y-76617736D01*
X117044505Y-76670146D01*
X117045179Y-76669867D01*
X117047399Y-76675228D01*
X117049234Y-76678449D01*
X117049788Y-76680995D01*
X117049851Y-76681146D01*
X117049852Y-76681149D01*
X117095373Y-76749277D01*
X117204207Y-76858109D01*
X117239811Y-76893713D01*
X117239813Y-76893715D01*
X117307937Y-76939235D01*
X117319223Y-76943910D01*
X117318624Y-76945355D01*
X117368213Y-76971294D01*
X117398055Y-77023698D01*
X117398731Y-77023419D01*
X117400959Y-77028798D01*
X117402788Y-77032010D01*
X117403340Y-77034546D01*
X117403404Y-77034702D01*
X117448922Y-77102825D01*
X117448923Y-77102826D01*
X117448926Y-77102830D01*
X117562762Y-77216664D01*
X117593364Y-77247266D01*
X117593366Y-77247268D01*
X117661490Y-77292788D01*
X117672776Y-77297463D01*
X117672177Y-77298908D01*
X117721766Y-77324847D01*
X117751608Y-77377251D01*
X117752284Y-77376972D01*
X117754512Y-77382351D01*
X117756341Y-77385563D01*
X117756893Y-77388099D01*
X117756957Y-77388255D01*
X117802475Y-77456378D01*
X117802476Y-77456379D01*
X117802479Y-77456383D01*
X117865187Y-77519090D01*
X117946917Y-77600819D01*
X117946919Y-77600821D01*
X118015044Y-77646342D01*
X118015046Y-77646343D01*
X118122537Y-77667724D01*
X118122539Y-77667724D01*
X118122541Y-77667724D01*
X118230031Y-77646343D01*
X118230031Y-77646342D01*
X118230034Y-77646342D01*
X118298161Y-77600821D01*
X119326481Y-76572499D01*
X119372004Y-76504372D01*
X119372004Y-76504370D01*
X119372005Y-76504370D01*
X119393386Y-76396879D01*
X119393386Y-76396874D01*
X119372004Y-76289383D01*
X119372004Y-76289382D01*
X119326486Y-76221259D01*
X119326485Y-76221258D01*
X119326483Y-76221255D01*
X119182045Y-76076819D01*
X119182044Y-76076818D01*
X119182042Y-76076816D01*
X119113917Y-76031295D01*
X119102632Y-76026621D01*
X119103230Y-76025175D01*
X119053637Y-75999232D01*
X119023800Y-75946831D01*
X119023124Y-75947112D01*
X119020892Y-75941725D01*
X119019065Y-75938515D01*
X119018514Y-75935983D01*
X119018450Y-75935827D01*
X118972933Y-75867706D01*
X118972932Y-75867705D01*
X118972930Y-75867702D01*
X118828492Y-75723266D01*
X118828491Y-75723265D01*
X118828489Y-75723263D01*
X118760364Y-75677742D01*
X118749079Y-75673068D01*
X118749677Y-75671622D01*
X118700084Y-75645679D01*
X118670247Y-75593278D01*
X118669571Y-75593559D01*
X118667339Y-75588172D01*
X118665512Y-75584962D01*
X118664961Y-75582430D01*
X118664897Y-75582274D01*
X118619380Y-75514153D01*
X118619379Y-75514152D01*
X118619377Y-75514149D01*
X118474939Y-75369713D01*
X118474938Y-75369712D01*
X118474936Y-75369710D01*
X118406811Y-75324189D01*
X118395530Y-75319517D01*
X118396127Y-75318073D01*
X118346525Y-75292121D01*
X118316694Y-75239723D01*
X118316017Y-75240004D01*
X118313781Y-75234606D01*
X118311957Y-75231402D01*
X118311407Y-75228874D01*
X118311344Y-75228722D01*
X118273130Y-75171531D01*
X118265823Y-75160595D01*
X118121385Y-75016159D01*
X118121384Y-75016158D01*
X118121382Y-75016156D01*
X118053257Y-74970635D01*
X118041972Y-74965961D01*
X118042570Y-74964515D01*
X117992977Y-74938572D01*
X117963140Y-74886171D01*
X117962464Y-74886452D01*
X117960232Y-74881065D01*
X117958405Y-74877855D01*
X117957854Y-74875323D01*
X117957790Y-74875167D01*
X117912273Y-74807046D01*
X117912272Y-74807045D01*
X117912270Y-74807042D01*
X117805753Y-74700526D01*
X117772269Y-74639205D01*
X117777253Y-74569513D01*
X117805749Y-74525170D01*
X118067104Y-74263816D01*
X118128425Y-74230334D01*
X118154783Y-74227500D01*
X119009210Y-74227500D01*
X119076249Y-74247185D01*
X119094605Y-74261591D01*
X119632398Y-74772396D01*
X122764367Y-77747196D01*
X122799419Y-77807637D01*
X122802966Y-77835956D01*
X122805855Y-78148033D01*
X122786792Y-78215252D01*
X122768909Y-78237489D01*
X122584417Y-78419336D01*
X121518836Y-79469635D01*
X121457272Y-79502676D01*
X121387618Y-79497189D01*
X121331989Y-79454915D01*
X121318997Y-79432837D01*
X121304130Y-79400282D01*
X121301267Y-79396978D01*
X121214590Y-79296946D01*
X121214586Y-79296942D01*
X121099559Y-79223021D01*
X120968368Y-79184500D01*
X120968367Y-79184500D01*
X120831633Y-79184500D01*
X120831632Y-79184500D01*
X120700440Y-79223021D01*
X120585413Y-79296942D01*
X120585409Y-79296946D01*
X120495872Y-79400278D01*
X120495867Y-79400285D01*
X120439070Y-79524654D01*
X120439068Y-79524662D01*
X120419610Y-79660000D01*
X120439068Y-79795337D01*
X120439070Y-79795345D01*
X120495867Y-79919714D01*
X120495872Y-79919721D01*
X120569143Y-80004281D01*
X120585411Y-80023055D01*
X120680155Y-80083942D01*
X120725910Y-80136746D01*
X120735854Y-80205904D01*
X120706830Y-80269460D01*
X120700162Y-80276570D01*
X120176382Y-80792838D01*
X120114818Y-80825879D01*
X120045164Y-80820392D01*
X119990960Y-80780012D01*
X119989223Y-80777749D01*
X119989223Y-80777747D01*
X119958776Y-80738069D01*
X119661931Y-80441225D01*
X119661928Y-80441222D01*
X119661925Y-80441220D01*
X119622256Y-80410779D01*
X119622254Y-80410778D01*
X119622253Y-80410777D01*
X119622251Y-80410776D01*
X119622249Y-80410775D01*
X119509415Y-80369708D01*
X119389337Y-80369708D01*
X119389336Y-80369708D01*
X119272743Y-80412144D01*
X119203014Y-80416575D01*
X119142652Y-80383303D01*
X119042908Y-80283559D01*
X119026263Y-80258649D01*
X119025237Y-80259336D01*
X118972933Y-80181058D01*
X118972927Y-80181050D01*
X117944610Y-79152736D01*
X117944608Y-79152734D01*
X117876481Y-79107211D01*
X117876480Y-79107210D01*
X117866327Y-79100426D01*
X117867012Y-79099399D01*
X117842103Y-79082754D01*
X117575758Y-78816409D01*
X117550645Y-78780239D01*
X117514131Y-78700285D01*
X117514130Y-78700282D01*
X117506896Y-78691934D01*
X117424590Y-78596946D01*
X117424586Y-78596942D01*
X117309559Y-78523021D01*
X117178368Y-78484500D01*
X117178367Y-78484500D01*
X117041633Y-78484500D01*
X117041632Y-78484500D01*
X116910440Y-78523021D01*
X116795413Y-78596942D01*
X116795409Y-78596946D01*
X116705872Y-78700278D01*
X116705867Y-78700285D01*
X116649070Y-78824654D01*
X116649068Y-78824662D01*
X116629610Y-78960000D01*
X116649068Y-79095337D01*
X116649070Y-79095345D01*
X116705867Y-79219714D01*
X116705872Y-79219721D01*
X116795409Y-79323053D01*
X116795413Y-79323057D01*
X116850206Y-79358269D01*
X116910439Y-79396978D01*
X116921702Y-79400285D01*
X117049022Y-79437670D01*
X117107800Y-79475444D01*
X117136825Y-79539000D01*
X117126881Y-79608158D01*
X117101772Y-79644324D01*
X117095381Y-79650715D01*
X117095376Y-79650721D01*
X117049851Y-79718850D01*
X117045180Y-79730130D01*
X117043736Y-79729532D01*
X117017781Y-79779138D01*
X116965386Y-79808965D01*
X116965668Y-79809645D01*
X116960255Y-79811887D01*
X116957062Y-79813705D01*
X116954544Y-79814252D01*
X116954384Y-79814318D01*
X116886257Y-79859839D01*
X116741820Y-80004277D01*
X116741818Y-80004279D01*
X116696297Y-80072404D01*
X116691623Y-80083690D01*
X116690178Y-80083091D01*
X116664232Y-80132686D01*
X116611832Y-80162520D01*
X116612113Y-80163198D01*
X116606713Y-80165434D01*
X116603514Y-80167256D01*
X116600990Y-80167804D01*
X116600831Y-80167870D01*
X116532706Y-80213390D01*
X116388268Y-80357829D01*
X116342744Y-80425957D01*
X116338073Y-80437237D01*
X116336629Y-80436639D01*
X116310674Y-80486245D01*
X116258279Y-80516072D01*
X116258561Y-80516752D01*
X116253148Y-80518994D01*
X116249955Y-80520812D01*
X116247437Y-80521359D01*
X116247277Y-80521425D01*
X116179150Y-80566946D01*
X116034713Y-80711384D01*
X116034711Y-80711386D01*
X115989190Y-80779511D01*
X115984516Y-80790797D01*
X115983071Y-80790198D01*
X115957125Y-80839793D01*
X115904725Y-80869627D01*
X115905006Y-80870305D01*
X115899606Y-80872541D01*
X115896407Y-80874363D01*
X115893883Y-80874911D01*
X115893724Y-80874977D01*
X115825599Y-80920497D01*
X115681160Y-81064937D01*
X115681158Y-81064939D01*
X115635637Y-81133064D01*
X115630963Y-81144350D01*
X115629518Y-81143751D01*
X115603572Y-81193346D01*
X115551172Y-81223180D01*
X115551453Y-81223858D01*
X115546053Y-81226094D01*
X115542854Y-81227916D01*
X115540330Y-81228464D01*
X115540171Y-81228530D01*
X115472046Y-81274050D01*
X115327608Y-81418489D01*
X115282084Y-81486617D01*
X115277413Y-81497897D01*
X115275969Y-81497299D01*
X115250014Y-81546905D01*
X115197619Y-81576732D01*
X115197901Y-81577412D01*
X115192488Y-81579654D01*
X115189295Y-81581472D01*
X115186777Y-81582019D01*
X115186617Y-81582085D01*
X115118490Y-81627606D01*
X114974053Y-81772044D01*
X114974051Y-81772046D01*
X114928530Y-81840171D01*
X114923856Y-81851457D01*
X114922411Y-81850858D01*
X114896465Y-81900453D01*
X114844065Y-81930287D01*
X114844346Y-81930965D01*
X114838946Y-81933201D01*
X114835747Y-81935023D01*
X114833223Y-81935571D01*
X114833064Y-81935637D01*
X114764939Y-81981157D01*
X114620500Y-82125597D01*
X114620498Y-82125599D01*
X114574977Y-82193724D01*
X114570303Y-82205010D01*
X114568858Y-82204411D01*
X114542912Y-82254006D01*
X114490512Y-82283840D01*
X114490793Y-82284518D01*
X114485393Y-82286754D01*
X114482194Y-82288576D01*
X114479670Y-82289124D01*
X114479511Y-82289190D01*
X114411386Y-82334710D01*
X114266948Y-82479149D01*
X114221424Y-82547277D01*
X114216753Y-82558557D01*
X114215309Y-82557959D01*
X114189354Y-82607565D01*
X114136959Y-82637392D01*
X114137241Y-82638072D01*
X114131828Y-82640314D01*
X114128635Y-82642132D01*
X114126117Y-82642679D01*
X114125957Y-82642745D01*
X114057830Y-82688266D01*
X113913393Y-82832704D01*
X113913391Y-82832706D01*
X113867870Y-82900831D01*
X113863196Y-82912117D01*
X113861751Y-82911518D01*
X113835805Y-82961113D01*
X113783405Y-82990947D01*
X113783686Y-82991625D01*
X113778286Y-82993861D01*
X113775087Y-82995683D01*
X113772563Y-82996231D01*
X113772404Y-82996297D01*
X113704279Y-83041817D01*
X113559840Y-83186257D01*
X113559838Y-83186259D01*
X113514317Y-83254384D01*
X113514316Y-83254386D01*
X113492936Y-83361876D01*
X113492936Y-83361881D01*
X113514316Y-83469371D01*
X113559840Y-83537503D01*
X113559841Y-83537504D01*
X114429521Y-84407181D01*
X114588161Y-84565821D01*
X114611392Y-84581344D01*
X114656288Y-84611344D01*
X114656289Y-84611345D01*
X114763781Y-84632726D01*
X114763783Y-84632726D01*
X114763785Y-84632726D01*
X114835445Y-84618471D01*
X114871277Y-84611344D01*
X114939405Y-84565823D01*
X115083841Y-84421385D01*
X115129364Y-84353257D01*
X115129364Y-84353254D01*
X115134038Y-84341973D01*
X115135484Y-84342571D01*
X115161421Y-84292984D01*
X115213827Y-84263138D01*
X115213548Y-84262464D01*
X115218913Y-84260241D01*
X115222135Y-84258407D01*
X115224678Y-84257853D01*
X115224832Y-84257790D01*
X115261129Y-84233537D01*
X115292958Y-84212270D01*
X115437394Y-84067832D01*
X115482917Y-83999704D01*
X115487592Y-83988419D01*
X115489037Y-83989017D01*
X115514971Y-83939433D01*
X115567379Y-83909584D01*
X115567101Y-83908911D01*
X115572459Y-83906691D01*
X115575684Y-83904855D01*
X115578233Y-83904299D01*
X115578384Y-83904237D01*
X115594657Y-83893364D01*
X115646512Y-83858716D01*
X115790948Y-83714278D01*
X115836471Y-83646150D01*
X115836471Y-83646147D01*
X115841145Y-83634866D01*
X115842591Y-83635464D01*
X115868528Y-83585877D01*
X115920934Y-83556031D01*
X115920655Y-83555357D01*
X115926020Y-83553134D01*
X115929242Y-83551300D01*
X115931785Y-83550746D01*
X115931939Y-83550683D01*
X115976643Y-83520813D01*
X116000065Y-83505163D01*
X116144501Y-83360725D01*
X116190024Y-83292597D01*
X116190024Y-83292594D01*
X116194698Y-83281313D01*
X116196144Y-83281911D01*
X116222081Y-83232324D01*
X116274487Y-83202478D01*
X116274208Y-83201804D01*
X116279573Y-83199581D01*
X116282795Y-83197747D01*
X116285338Y-83197193D01*
X116285492Y-83197130D01*
X116319325Y-83174522D01*
X116353618Y-83151610D01*
X116498054Y-83007172D01*
X116543577Y-82939044D01*
X116548252Y-82927759D01*
X116549697Y-82928357D01*
X116575631Y-82878773D01*
X116628039Y-82848924D01*
X116627761Y-82848251D01*
X116633119Y-82846031D01*
X116636344Y-82844195D01*
X116638893Y-82843639D01*
X116639044Y-82843577D01*
X116655317Y-82832704D01*
X116707172Y-82798056D01*
X116851608Y-82653618D01*
X116897131Y-82585490D01*
X116897131Y-82585487D01*
X116901805Y-82574206D01*
X116903251Y-82574804D01*
X116929188Y-82525217D01*
X116981594Y-82495371D01*
X116981315Y-82494697D01*
X116986680Y-82492474D01*
X116989902Y-82490640D01*
X116992445Y-82490086D01*
X116992599Y-82490023D01*
X117026432Y-82467415D01*
X117060725Y-82444503D01*
X117205161Y-82300065D01*
X117250684Y-82231937D01*
X117250684Y-82231934D01*
X117255358Y-82220653D01*
X117256804Y-82221251D01*
X117282741Y-82171664D01*
X117335147Y-82141818D01*
X117334868Y-82141144D01*
X117340233Y-82138921D01*
X117343455Y-82137087D01*
X117345998Y-82136533D01*
X117346152Y-82136470D01*
X117379985Y-82113862D01*
X117414278Y-82090950D01*
X117558714Y-81946512D01*
X117604237Y-81878384D01*
X117608912Y-81867099D01*
X117610357Y-81867697D01*
X117636291Y-81818113D01*
X117688699Y-81788264D01*
X117688421Y-81787591D01*
X117693779Y-81785371D01*
X117697004Y-81783535D01*
X117699553Y-81782979D01*
X117699704Y-81782917D01*
X117715977Y-81772044D01*
X117767832Y-81737396D01*
X117912268Y-81592958D01*
X117957791Y-81524830D01*
X117957791Y-81524827D01*
X117962465Y-81513546D01*
X117963911Y-81514144D01*
X117989848Y-81464557D01*
X118042254Y-81434711D01*
X118041975Y-81434037D01*
X118047340Y-81431814D01*
X118050562Y-81429980D01*
X118053105Y-81429426D01*
X118053259Y-81429363D01*
X118087092Y-81406755D01*
X118121385Y-81383843D01*
X118211635Y-81293591D01*
X118272957Y-81260106D01*
X118342648Y-81265090D01*
X118386997Y-81293591D01*
X118934727Y-81841321D01*
X118968212Y-81902644D01*
X118963228Y-81972336D01*
X118934092Y-82017314D01*
X115105653Y-85790850D01*
X115044089Y-85823891D01*
X114974436Y-85818404D01*
X114930927Y-85790220D01*
X114864282Y-85723575D01*
X114830798Y-85662251D01*
X114827964Y-85635894D01*
X114827964Y-85353543D01*
X114824411Y-85340282D01*
X114805645Y-85270248D01*
X114762529Y-85195568D01*
X114701554Y-85134593D01*
X114446714Y-84879753D01*
X114430069Y-84854843D01*
X114429043Y-84855530D01*
X114376739Y-84777252D01*
X114376733Y-84777244D01*
X113348416Y-83748930D01*
X113348414Y-83748928D01*
X113280287Y-83703405D01*
X113280286Y-83703404D01*
X113270133Y-83696620D01*
X113270818Y-83695593D01*
X113245909Y-83678948D01*
X113176250Y-83609289D01*
X113142765Y-83547966D01*
X113141193Y-83503964D01*
X113150390Y-83440000D01*
X113130931Y-83304658D01*
X113118677Y-83277827D01*
X113074132Y-83180285D01*
X113074127Y-83180278D01*
X112984590Y-83076946D01*
X112984586Y-83076942D01*
X112877814Y-83008326D01*
X112869561Y-83003022D01*
X112869560Y-83003021D01*
X112869559Y-83003021D01*
X112738368Y-82964500D01*
X112738367Y-82964500D01*
X112601633Y-82964500D01*
X112601632Y-82964500D01*
X112470440Y-83003021D01*
X112355413Y-83076942D01*
X112355409Y-83076946D01*
X112265872Y-83180278D01*
X112265867Y-83180285D01*
X112209070Y-83304654D01*
X112209068Y-83304662D01*
X112189610Y-83440000D01*
X112209068Y-83575337D01*
X112209070Y-83575345D01*
X112265867Y-83699714D01*
X112265872Y-83699721D01*
X112308509Y-83748927D01*
X112355411Y-83803055D01*
X112470439Y-83876978D01*
X112506876Y-83887676D01*
X112559623Y-83918972D01*
X112605692Y-83965041D01*
X112639177Y-84026364D01*
X112634193Y-84096056D01*
X112605693Y-84140402D01*
X112499185Y-84246911D01*
X112499178Y-84246919D01*
X112453657Y-84315044D01*
X112453656Y-84315046D01*
X112432276Y-84422536D01*
X112432276Y-84422541D01*
X112453656Y-84530031D01*
X112499180Y-84598163D01*
X112499181Y-84598164D01*
X113365678Y-85464658D01*
X113527501Y-85626481D01*
X113581032Y-85662251D01*
X113595628Y-85672004D01*
X113595629Y-85672005D01*
X113703121Y-85693386D01*
X113703123Y-85693386D01*
X113703125Y-85693386D01*
X113774785Y-85679131D01*
X113810617Y-85672004D01*
X113846941Y-85647733D01*
X113913616Y-85626855D01*
X113980997Y-85645339D01*
X114027687Y-85697317D01*
X114038864Y-85766287D01*
X114014208Y-85826320D01*
X113991958Y-85855317D01*
X113991953Y-85855325D01*
X113950886Y-85968158D01*
X113950886Y-86088237D01*
X113966327Y-86130663D01*
X113991955Y-86201075D01*
X113991957Y-86201078D01*
X113991958Y-86201079D01*
X114022395Y-86240745D01*
X114022403Y-86240754D01*
X114245223Y-86463574D01*
X114278708Y-86524897D01*
X114273724Y-86594589D01*
X114244588Y-86639567D01*
X112810063Y-88053521D01*
X112748499Y-88086562D01*
X112722541Y-88089208D01*
X112399081Y-88087967D01*
X112332118Y-88068025D01*
X112311836Y-88051609D01*
X110143043Y-85880824D01*
X110109586Y-85819485D01*
X110114602Y-85749796D01*
X110156499Y-85693882D01*
X110193400Y-85677437D01*
X110193086Y-85676679D01*
X110204366Y-85672005D01*
X110204372Y-85672004D01*
X110272499Y-85626483D01*
X111300819Y-84598161D01*
X111346342Y-84530034D01*
X111346342Y-84530032D01*
X111346343Y-84530032D01*
X111367724Y-84422541D01*
X111367724Y-84422536D01*
X111346342Y-84315045D01*
X111346342Y-84315044D01*
X111300824Y-84246921D01*
X111300823Y-84246920D01*
X111300822Y-84246919D01*
X111300821Y-84246917D01*
X111156383Y-84102481D01*
X111156382Y-84102480D01*
X111156380Y-84102478D01*
X111088255Y-84056957D01*
X111076970Y-84052283D01*
X111077568Y-84050837D01*
X111027975Y-84024894D01*
X110998138Y-83972493D01*
X110997462Y-83972774D01*
X110995230Y-83967387D01*
X110993403Y-83964177D01*
X110992852Y-83961645D01*
X110992788Y-83961489D01*
X110947271Y-83893368D01*
X110947270Y-83893367D01*
X110947268Y-83893364D01*
X110802830Y-83748928D01*
X110802829Y-83748927D01*
X110802827Y-83748925D01*
X110734702Y-83703404D01*
X110723417Y-83698730D01*
X110724015Y-83697284D01*
X110674422Y-83671341D01*
X110644585Y-83618940D01*
X110643909Y-83619221D01*
X110641677Y-83613834D01*
X110639850Y-83610624D01*
X110639299Y-83608092D01*
X110639235Y-83607936D01*
X110593718Y-83539815D01*
X110593717Y-83539814D01*
X110593715Y-83539811D01*
X110449277Y-83395375D01*
X110449276Y-83395374D01*
X110449274Y-83395372D01*
X110381149Y-83349851D01*
X110381147Y-83349850D01*
X110273657Y-83328470D01*
X110273653Y-83328470D01*
X110166162Y-83349850D01*
X110166162Y-83349851D01*
X110166160Y-83349851D01*
X110166160Y-83349852D01*
X110149892Y-83360722D01*
X110098030Y-83395374D01*
X110098029Y-83395375D01*
X109069715Y-84423692D01*
X109069712Y-84423696D01*
X109024189Y-84491822D01*
X109019516Y-84503105D01*
X109017648Y-84502331D01*
X108992437Y-84550520D01*
X108931719Y-84585090D01*
X108861950Y-84581344D01*
X108815491Y-84552053D01*
X108754663Y-84491169D01*
X108721208Y-84429833D01*
X108726224Y-84360144D01*
X108754702Y-84315853D01*
X109405076Y-83665480D01*
X109405076Y-83665478D01*
X109415280Y-83655275D01*
X109415284Y-83655270D01*
X109886606Y-83183948D01*
X109932129Y-83115821D01*
X109932129Y-83115819D01*
X109932130Y-83115819D01*
X109953511Y-83008328D01*
X109953511Y-83008323D01*
X109932129Y-82900832D01*
X109932129Y-82900831D01*
X109886611Y-82832708D01*
X109886610Y-82832707D01*
X109886609Y-82832706D01*
X109886608Y-82832704D01*
X109742170Y-82688268D01*
X109742169Y-82688267D01*
X109742167Y-82688265D01*
X109674042Y-82642744D01*
X109662761Y-82638072D01*
X109663358Y-82636628D01*
X109613756Y-82610676D01*
X109583925Y-82558278D01*
X109583248Y-82558559D01*
X109581012Y-82553161D01*
X109579188Y-82549957D01*
X109578638Y-82547429D01*
X109578575Y-82547277D01*
X109540361Y-82490086D01*
X109533054Y-82479150D01*
X109388616Y-82334714D01*
X109388615Y-82334713D01*
X109388613Y-82334711D01*
X109320488Y-82289190D01*
X109309203Y-82284516D01*
X109309801Y-82283070D01*
X109260208Y-82257127D01*
X109230371Y-82204726D01*
X109229695Y-82205007D01*
X109227463Y-82199620D01*
X109225636Y-82196410D01*
X109225085Y-82193878D01*
X109225021Y-82193722D01*
X109179504Y-82125601D01*
X109179503Y-82125600D01*
X109179502Y-82125599D01*
X109179501Y-82125597D01*
X109035063Y-81981161D01*
X109035062Y-81981160D01*
X109035060Y-81981158D01*
X108966935Y-81935637D01*
X108955650Y-81930963D01*
X108956248Y-81929517D01*
X108906655Y-81903574D01*
X108876818Y-81851173D01*
X108876142Y-81851454D01*
X108873910Y-81846067D01*
X108872083Y-81842857D01*
X108871532Y-81840325D01*
X108871468Y-81840169D01*
X108825951Y-81772048D01*
X108825950Y-81772047D01*
X108825949Y-81772046D01*
X108825948Y-81772044D01*
X108681510Y-81627608D01*
X108681509Y-81627607D01*
X108681507Y-81627605D01*
X108613382Y-81582084D01*
X108602101Y-81577412D01*
X108602698Y-81575968D01*
X108553096Y-81550016D01*
X108523265Y-81497618D01*
X108522588Y-81497899D01*
X108520352Y-81492501D01*
X108518528Y-81489297D01*
X108517978Y-81486769D01*
X108517915Y-81486617D01*
X108479701Y-81429426D01*
X108472394Y-81418490D01*
X108327956Y-81274054D01*
X108327955Y-81274053D01*
X108327953Y-81274051D01*
X108259828Y-81228530D01*
X108248543Y-81223856D01*
X108249141Y-81222410D01*
X108199548Y-81196467D01*
X108169711Y-81144066D01*
X108169035Y-81144347D01*
X108166803Y-81138960D01*
X108164976Y-81135750D01*
X108164425Y-81133218D01*
X108164361Y-81133062D01*
X108118844Y-81064941D01*
X108118843Y-81064940D01*
X108118842Y-81064939D01*
X108118841Y-81064937D01*
X107974403Y-80920501D01*
X107974402Y-80920500D01*
X107974400Y-80920498D01*
X107906275Y-80874977D01*
X107894990Y-80870303D01*
X107895588Y-80868857D01*
X107845995Y-80842914D01*
X107816158Y-80790513D01*
X107815482Y-80790794D01*
X107813250Y-80785407D01*
X107811423Y-80782197D01*
X107810872Y-80779665D01*
X107810808Y-80779509D01*
X107765291Y-80711388D01*
X107765290Y-80711387D01*
X107765289Y-80711386D01*
X107765288Y-80711384D01*
X107620850Y-80566948D01*
X107620849Y-80566947D01*
X107620847Y-80566945D01*
X107552722Y-80521424D01*
X107541441Y-80516752D01*
X107542038Y-80515308D01*
X107492436Y-80489356D01*
X107462605Y-80436958D01*
X107461928Y-80437239D01*
X107459692Y-80431841D01*
X107457868Y-80428637D01*
X107457318Y-80426109D01*
X107457255Y-80425957D01*
X107426976Y-80380642D01*
X107411734Y-80357830D01*
X107267296Y-80213394D01*
X107267295Y-80213393D01*
X107267293Y-80213391D01*
X107199168Y-80167870D01*
X107187883Y-80163196D01*
X107188481Y-80161750D01*
X107138888Y-80135807D01*
X107109051Y-80083406D01*
X107108375Y-80083687D01*
X107106143Y-80078300D01*
X107104316Y-80075090D01*
X107103765Y-80072558D01*
X107103701Y-80072402D01*
X107058184Y-80004281D01*
X107058183Y-80004280D01*
X107058182Y-80004279D01*
X107058181Y-80004277D01*
X106913743Y-79859841D01*
X106913742Y-79859840D01*
X106913740Y-79859838D01*
X106845615Y-79814317D01*
X106834334Y-79809645D01*
X106834931Y-79808201D01*
X106785329Y-79782249D01*
X106755498Y-79729851D01*
X106754821Y-79730132D01*
X106752585Y-79724734D01*
X106750761Y-79721530D01*
X106750211Y-79719002D01*
X106750148Y-79718850D01*
X106719869Y-79673535D01*
X106704627Y-79650723D01*
X106560189Y-79506287D01*
X106560188Y-79506286D01*
X106560186Y-79506284D01*
X106492061Y-79460763D01*
X106480776Y-79456089D01*
X106481374Y-79454643D01*
X106431781Y-79428700D01*
X106401944Y-79376299D01*
X106401268Y-79376580D01*
X106399036Y-79371193D01*
X106397209Y-79367983D01*
X106396658Y-79365451D01*
X106396594Y-79365295D01*
X106351077Y-79297174D01*
X106351076Y-79297173D01*
X106351074Y-79297170D01*
X106206636Y-79152734D01*
X106206635Y-79152733D01*
X106206633Y-79152731D01*
X106138508Y-79107210D01*
X106138506Y-79107209D01*
X106031016Y-79085829D01*
X106031012Y-79085829D01*
X105923521Y-79107209D01*
X105923521Y-79107210D01*
X105923519Y-79107210D01*
X105923519Y-79107211D01*
X105906430Y-79118629D01*
X105855389Y-79152733D01*
X105855388Y-79152734D01*
X104859286Y-80148839D01*
X104797963Y-80182324D01*
X104771605Y-80185158D01*
X104503998Y-80185158D01*
X104436959Y-80165473D01*
X104416277Y-80148799D01*
X104350629Y-80083091D01*
X103487544Y-79219213D01*
X103454088Y-79157875D01*
X103459104Y-79088186D01*
X103501001Y-79032272D01*
X103515628Y-79022857D01*
X103522250Y-79019223D01*
X103522253Y-79019223D01*
X103561931Y-78988776D01*
X103858775Y-78691931D01*
X103889223Y-78652253D01*
X103930292Y-78539415D01*
X103930292Y-78419337D01*
X103889223Y-78306499D01*
X103858776Y-78266820D01*
X103604358Y-78012403D01*
X103604357Y-78012402D01*
X103604350Y-78012396D01*
X103564683Y-77981958D01*
X103564682Y-77981957D01*
X103564679Y-77981955D01*
X103540322Y-77973090D01*
X103451841Y-77940886D01*
X103331763Y-77940886D01*
X103331762Y-77940886D01*
X103218929Y-77981953D01*
X103218920Y-77981958D01*
X103179254Y-78012395D01*
X103179245Y-78012403D01*
X102882406Y-78309243D01*
X102882398Y-78309252D01*
X102851955Y-78348924D01*
X102848589Y-78355060D01*
X102799085Y-78404366D01*
X102730782Y-78419081D01*
X102665367Y-78394533D01*
X102652155Y-78383056D01*
X101956779Y-77687041D01*
X101923322Y-77625702D01*
X101920500Y-77599400D01*
X101920500Y-77216664D01*
X101940185Y-77149625D01*
X101959326Y-77126546D01*
X101984424Y-77102825D01*
X103613879Y-75562762D01*
X103676117Y-75531022D01*
X103745641Y-75537969D01*
X103800372Y-75581401D01*
X103815569Y-75610470D01*
X103830777Y-75652253D01*
X103830779Y-75652256D01*
X103830780Y-75652257D01*
X103861217Y-75691923D01*
X103861223Y-75691930D01*
X103861224Y-75691931D01*
X104158069Y-75988775D01*
X104197747Y-76019223D01*
X104310585Y-76060292D01*
X104310587Y-76060292D01*
X104430661Y-76060292D01*
X104430663Y-76060292D01*
X104543501Y-76019223D01*
X104543501Y-76019222D01*
X104552416Y-76015978D01*
X104553561Y-76019123D01*
X104605315Y-76007747D01*
X104670833Y-76032021D01*
X104684420Y-76043769D01*
X104757091Y-76116440D01*
X104773737Y-76141350D01*
X104774764Y-76140665D01*
X104827069Y-76218945D01*
X104827072Y-76218949D01*
X105710951Y-77102825D01*
X105855392Y-77247266D01*
X105923519Y-77292789D01*
X105933675Y-77299575D01*
X105932987Y-77300603D01*
X105957896Y-77317245D01*
X106222716Y-77582065D01*
X106297396Y-77625181D01*
X106380690Y-77647500D01*
X106466922Y-77647500D01*
X106608128Y-77647500D01*
X106675167Y-77667185D01*
X106689329Y-77677785D01*
X106695413Y-77683057D01*
X106755979Y-77721979D01*
X106810439Y-77756978D01*
X106876036Y-77776239D01*
X106941632Y-77795500D01*
X106941633Y-77795500D01*
X107078367Y-77795500D01*
X107209561Y-77756978D01*
X107324589Y-77683055D01*
X107414130Y-77579718D01*
X107470931Y-77455342D01*
X107490390Y-77320000D01*
X107470931Y-77184658D01*
X107454932Y-77149625D01*
X107414132Y-77060285D01*
X107414127Y-77060278D01*
X107324590Y-76956946D01*
X107324586Y-76956942D01*
X107209559Y-76883021D01*
X107078368Y-76844500D01*
X107078367Y-76844500D01*
X106941633Y-76844500D01*
X106911837Y-76853248D01*
X106895281Y-76858110D01*
X106825411Y-76858109D01*
X106766633Y-76820334D01*
X106737609Y-76756778D01*
X106745787Y-76691676D01*
X106754823Y-76669863D01*
X106756269Y-76670462D01*
X106782202Y-76620878D01*
X106834610Y-76591029D01*
X106834332Y-76590356D01*
X106839690Y-76588136D01*
X106842915Y-76586300D01*
X106845464Y-76585744D01*
X106845615Y-76585682D01*
X106865348Y-76572497D01*
X106913743Y-76540161D01*
X107058179Y-76395723D01*
X107103702Y-76327595D01*
X107103702Y-76327592D01*
X107108376Y-76316311D01*
X107109822Y-76316909D01*
X107135759Y-76267322D01*
X107188165Y-76237476D01*
X107187886Y-76236802D01*
X107193251Y-76234579D01*
X107196473Y-76232745D01*
X107199016Y-76232191D01*
X107199170Y-76232128D01*
X107233918Y-76208910D01*
X107267296Y-76186608D01*
X107411732Y-76042170D01*
X107457255Y-75974042D01*
X107457256Y-75974039D01*
X107461930Y-75962757D01*
X107463375Y-75963355D01*
X107489309Y-75913771D01*
X107541717Y-75883922D01*
X107541439Y-75883249D01*
X107546797Y-75881029D01*
X107550022Y-75879193D01*
X107552571Y-75878637D01*
X107552722Y-75878575D01*
X107580619Y-75859935D01*
X107620850Y-75833054D01*
X107765286Y-75688616D01*
X107810809Y-75620488D01*
X107810809Y-75620485D01*
X107815483Y-75609204D01*
X107816929Y-75609802D01*
X107842866Y-75560215D01*
X107895272Y-75530369D01*
X107894993Y-75529695D01*
X107900358Y-75527472D01*
X107903580Y-75525638D01*
X107906123Y-75525084D01*
X107906277Y-75525021D01*
X107940110Y-75502413D01*
X107974403Y-75479501D01*
X108118839Y-75335063D01*
X108164362Y-75266935D01*
X108164362Y-75266932D01*
X108169036Y-75255651D01*
X108170482Y-75256249D01*
X108196419Y-75206662D01*
X108248825Y-75176816D01*
X108248546Y-75176142D01*
X108253911Y-75173919D01*
X108257133Y-75172085D01*
X108259676Y-75171531D01*
X108259830Y-75171468D01*
X108317228Y-75133116D01*
X108327956Y-75125948D01*
X108472392Y-74981510D01*
X108517915Y-74913382D01*
X108517916Y-74913379D01*
X108522590Y-74902097D01*
X108524035Y-74902695D01*
X108549969Y-74853111D01*
X108602377Y-74823262D01*
X108602099Y-74822589D01*
X108607457Y-74820369D01*
X108610682Y-74818533D01*
X108613231Y-74817977D01*
X108613382Y-74817915D01*
X108662914Y-74784819D01*
X108681510Y-74772394D01*
X108825946Y-74627956D01*
X108871469Y-74559828D01*
X108871469Y-74559825D01*
X108876143Y-74548544D01*
X108877589Y-74549142D01*
X108903526Y-74499555D01*
X108955932Y-74469709D01*
X108955653Y-74469035D01*
X108961018Y-74466812D01*
X108964240Y-74464978D01*
X108966783Y-74464424D01*
X108966937Y-74464361D01*
X109000770Y-74441753D01*
X109035063Y-74418841D01*
X109179499Y-74274403D01*
X109225022Y-74206275D01*
X109225022Y-74206272D01*
X109229696Y-74194991D01*
X109231142Y-74195589D01*
X109257079Y-74146002D01*
X109309485Y-74116156D01*
X109309206Y-74115482D01*
X109314571Y-74113259D01*
X109317793Y-74111425D01*
X109320336Y-74110871D01*
X109320490Y-74110808D01*
X109354323Y-74088200D01*
X109388616Y-74065288D01*
X109533052Y-73920850D01*
X109578575Y-73852722D01*
X109578576Y-73852719D01*
X109583250Y-73841437D01*
X109584695Y-73842035D01*
X109610629Y-73792451D01*
X109663037Y-73762602D01*
X109662759Y-73761929D01*
X109668117Y-73759709D01*
X109671342Y-73757873D01*
X109673891Y-73757317D01*
X109674042Y-73757255D01*
X109712312Y-73731684D01*
X109742170Y-73711734D01*
X109886606Y-73567296D01*
X109932129Y-73499168D01*
X109932129Y-73499165D01*
X109936803Y-73487884D01*
X109938249Y-73488482D01*
X109964186Y-73438895D01*
X110016592Y-73409049D01*
X110016313Y-73408375D01*
X110021678Y-73406152D01*
X110024900Y-73404318D01*
X110027443Y-73403764D01*
X110027597Y-73403701D01*
X110061430Y-73381093D01*
X110095723Y-73358181D01*
X110240159Y-73213743D01*
X110285682Y-73145615D01*
X110285683Y-73145612D01*
X110290357Y-73134330D01*
X110291802Y-73134928D01*
X110317736Y-73085344D01*
X110370144Y-73055495D01*
X110369866Y-73054822D01*
X110375224Y-73052602D01*
X110378449Y-73050766D01*
X110380998Y-73050210D01*
X110381149Y-73050148D01*
X110418014Y-73025516D01*
X110449277Y-73004627D01*
X110593713Y-72860189D01*
X110639236Y-72792061D01*
X110639236Y-72792058D01*
X110643910Y-72780777D01*
X110645356Y-72781375D01*
X110671293Y-72731788D01*
X110723699Y-72701942D01*
X110723420Y-72701268D01*
X110728785Y-72699045D01*
X110732007Y-72697211D01*
X110734550Y-72696657D01*
X110734704Y-72696594D01*
X110785493Y-72662658D01*
X110802830Y-72651074D01*
X110947266Y-72506636D01*
X110992789Y-72438508D01*
X110992789Y-72438505D01*
X110997463Y-72427224D01*
X110998909Y-72427822D01*
X111024846Y-72378235D01*
X111077252Y-72348389D01*
X111076973Y-72347715D01*
X111082338Y-72345492D01*
X111085560Y-72343658D01*
X111088103Y-72343104D01*
X111088257Y-72343041D01*
X111129780Y-72315296D01*
X111156383Y-72297521D01*
X111300819Y-72153083D01*
X111346342Y-72084955D01*
X111346343Y-72084953D01*
X111367724Y-71977463D01*
X111367724Y-71977458D01*
X111346343Y-71869968D01*
X111322428Y-71834177D01*
X111300821Y-71801839D01*
X111300819Y-71801836D01*
X111300818Y-71801835D01*
X110272501Y-70773521D01*
X110272499Y-70773519D01*
X110204372Y-70727996D01*
X110204371Y-70727995D01*
X110194218Y-70721211D01*
X110194903Y-70720184D01*
X110169994Y-70703539D01*
X109572714Y-70106259D01*
X109539229Y-70044936D01*
X109544213Y-69975244D01*
X109575215Y-69928467D01*
X111806062Y-67820006D01*
X111868300Y-67788266D01*
X111891375Y-67786127D01*
X112228106Y-67786543D01*
G37*
%TD.AperFunction*%
%TD*%
%TA.AperFunction,Conductor*%
%TO.N,GND*%
G36*
X111925676Y-94669686D02*
G01*
X111946318Y-94686320D01*
X112173680Y-94913682D01*
X112207165Y-94975005D01*
X112209999Y-95001363D01*
X112209999Y-99250001D01*
X112509949Y-99255405D01*
X112509950Y-99255406D01*
X112509949Y-99255406D01*
X112658217Y-99258077D01*
X114984999Y-99300001D01*
X117409298Y-99343681D01*
X117475971Y-99364570D01*
X117495590Y-99380834D01*
X117724048Y-99613764D01*
X117756937Y-99675408D01*
X117759521Y-99700760D01*
X117750477Y-106348686D01*
X117730701Y-106415698D01*
X117714099Y-106436258D01*
X117486308Y-106663741D01*
X117424962Y-106697184D01*
X117398686Y-106700000D01*
X115750000Y-106700000D01*
X115750000Y-106999999D01*
X115750000Y-111196889D01*
X115730315Y-111263928D01*
X115713681Y-111284570D01*
X115701476Y-111296774D01*
X115701473Y-111296778D01*
X115640279Y-111416878D01*
X115624500Y-111516506D01*
X115624500Y-112083493D01*
X115640279Y-112183121D01*
X115640280Y-112183124D01*
X115640281Y-112183126D01*
X115701472Y-112303220D01*
X115713680Y-112315428D01*
X115747166Y-112376749D01*
X115750000Y-112403110D01*
X115750000Y-114848638D01*
X115730315Y-114915677D01*
X115713681Y-114936319D01*
X115486819Y-115163181D01*
X115425496Y-115196666D01*
X115399138Y-115199500D01*
X114257275Y-115199500D01*
X114253705Y-115199734D01*
X114245594Y-115200000D01*
X108851362Y-115200000D01*
X108784323Y-115180315D01*
X108763681Y-115163681D01*
X108536319Y-114936319D01*
X108502834Y-114874996D01*
X108500000Y-114848638D01*
X108500000Y-112801362D01*
X108519685Y-112734323D01*
X108536319Y-112713681D01*
X108763681Y-112486319D01*
X108825004Y-112452834D01*
X108851362Y-112450000D01*
X113200000Y-112450000D01*
X113500000Y-112450000D01*
X113500000Y-105051362D01*
X113519685Y-104984323D01*
X113536319Y-104963681D01*
X113763681Y-104736319D01*
X113825004Y-104702834D01*
X113851362Y-104700000D01*
X115950000Y-104700000D01*
X116250000Y-104700000D01*
X116250000Y-103905989D01*
X116250266Y-103897879D01*
X116250499Y-103894324D01*
X116250499Y-103545679D01*
X116250266Y-103542126D01*
X116250000Y-103534014D01*
X116250000Y-103250000D01*
X116250000Y-102950000D01*
X115950000Y-102950000D01*
X115627435Y-102950000D01*
X115560396Y-102930315D01*
X115538474Y-102912383D01*
X115320347Y-102687746D01*
X115287767Y-102625937D01*
X115285362Y-102597718D01*
X115291181Y-102399870D01*
X115300001Y-102100000D01*
X115000001Y-102100000D01*
X115000000Y-102100000D01*
X109138983Y-102100000D01*
X109104050Y-102094978D01*
X109082179Y-102088556D01*
X109068367Y-102084501D01*
X108931633Y-102084501D01*
X108895948Y-102094978D01*
X108861016Y-102100000D01*
X108309999Y-102100000D01*
X108309998Y-102100000D01*
X108009999Y-102100001D01*
X108009999Y-102400000D01*
X108009999Y-105525171D01*
X108009183Y-106124833D01*
X108009183Y-106125001D01*
X108000955Y-109148737D01*
X107981088Y-109215723D01*
X107964517Y-109236200D01*
X107736299Y-109463800D01*
X107674931Y-109497202D01*
X107648737Y-109500000D01*
X103111183Y-109500000D01*
X103044144Y-109480315D01*
X103023717Y-109463896D01*
X102794810Y-109236108D01*
X102761175Y-109174867D01*
X102758277Y-109148820D01*
X102730811Y-103545679D01*
X102725195Y-102400001D01*
X102711721Y-99651324D01*
X102731077Y-99584192D01*
X102747566Y-99563513D01*
X102973891Y-99334766D01*
X103035034Y-99300956D01*
X103061324Y-99297982D01*
X110724579Y-99253941D01*
X111409999Y-99250002D01*
X111409999Y-95001363D01*
X111429684Y-94934324D01*
X111446318Y-94913682D01*
X111673680Y-94686320D01*
X111735003Y-94652835D01*
X111761361Y-94650001D01*
X111858637Y-94650001D01*
X111925676Y-94669686D01*
G37*
%TD.AperFunction*%
%TD*%
%TA.AperFunction,Conductor*%
%TO.N,/POWER/5V_COIL*%
G36*
X110426190Y-91519686D02*
G01*
X110446208Y-91535700D01*
X110678044Y-91764271D01*
X110711963Y-91825355D01*
X110714975Y-91850813D01*
X110742606Y-93798883D01*
X110741356Y-93818287D01*
X110729609Y-93899999D01*
X110729609Y-93900001D01*
X110744484Y-94003464D01*
X110745734Y-94019351D01*
X110805008Y-98198158D01*
X110786276Y-98265470D01*
X110769321Y-98286974D01*
X110546422Y-98513058D01*
X110485338Y-98546977D01*
X110458121Y-98550001D01*
X106261361Y-98550001D01*
X106194322Y-98530316D01*
X106173680Y-98513682D01*
X105946318Y-98286320D01*
X105912833Y-98224997D01*
X105909999Y-98198639D01*
X105909999Y-97996873D01*
X105911261Y-97979225D01*
X105915499Y-97949750D01*
X105915499Y-95751361D01*
X105914320Y-95729383D01*
X105910836Y-95696982D01*
X105911418Y-95696919D01*
X105909999Y-95683118D01*
X105909999Y-94900001D01*
X105909999Y-94600001D01*
X105609999Y-94600001D01*
X100161362Y-94600001D01*
X100094323Y-94580316D01*
X100073681Y-94563682D01*
X99846319Y-94336320D01*
X99812834Y-94274997D01*
X99810000Y-94248639D01*
X99810000Y-91851363D01*
X99829685Y-91784324D01*
X99846319Y-91763682D01*
X100073681Y-91536320D01*
X100135004Y-91502835D01*
X100161362Y-91500001D01*
X110359151Y-91500001D01*
X110426190Y-91519686D01*
G37*
%TD.AperFunction*%
%TD*%
M02*
