%TF.GenerationSoftware,KiCad,Pcbnew,9.0.1-9.0.1-0~ubuntu22.04.1*%
%TF.CreationDate,2025-04-23T20:29:42+02:00*%
%TF.ProjectId,template_board,74656d70-6c61-4746-955f-626f6172642e,rev?*%
%TF.SameCoordinates,Original*%
%TF.FileFunction,Copper,L1,Top*%
%TF.FilePolarity,Positive*%
%FSLAX46Y46*%
G04 Gerber Fmt 4.6, Leading zero omitted, Abs format (unit mm)*
G04 Created by KiCad (PCBNEW 9.0.1-9.0.1-0~ubuntu22.04.1) date 2025-04-23 20:29:42*
%MOMM*%
%LPD*%
G01*
G04 APERTURE LIST*
G04 Aperture macros list*
%AMRoundRect*
0 Rectangle with rounded corners*
0 $1 Rounding radius*
0 $2 $3 $4 $5 $6 $7 $8 $9 X,Y pos of 4 corners*
0 Add a 4 corners polygon primitive as box body*
4,1,4,$2,$3,$4,$5,$6,$7,$8,$9,$2,$3,0*
0 Add four circle primitives for the rounded corners*
1,1,$1+$1,$2,$3*
1,1,$1+$1,$4,$5*
1,1,$1+$1,$6,$7*
1,1,$1+$1,$8,$9*
0 Add four rect primitives between the rounded corners*
20,1,$1+$1,$2,$3,$4,$5,0*
20,1,$1+$1,$4,$5,$6,$7,0*
20,1,$1+$1,$6,$7,$8,$9,0*
20,1,$1+$1,$8,$9,$2,$3,0*%
G04 Aperture macros list end*
%TA.AperFunction,SMDPad,CuDef*%
%ADD10RoundRect,0.220000X0.255000X-0.220000X0.255000X0.220000X-0.255000X0.220000X-0.255000X-0.220000X0*%
%TD*%
%TA.AperFunction,SMDPad,CuDef*%
%ADD11RoundRect,0.220000X0.220000X0.255000X-0.220000X0.255000X-0.220000X-0.255000X0.220000X-0.255000X0*%
%TD*%
%TA.AperFunction,SMDPad,CuDef*%
%ADD12RoundRect,0.140000X0.140000X0.170000X-0.140000X0.170000X-0.140000X-0.170000X0.140000X-0.170000X0*%
%TD*%
%TA.AperFunction,SMDPad,CuDef*%
%ADD13RoundRect,0.140000X-0.140000X-0.170000X0.140000X-0.170000X0.140000X0.170000X-0.140000X0.170000X0*%
%TD*%
%TA.AperFunction,SMDPad,CuDef*%
%ADD14RoundRect,0.140000X0.170000X-0.140000X0.170000X0.140000X-0.170000X0.140000X-0.170000X-0.140000X0*%
%TD*%
%TA.AperFunction,SMDPad,CuDef*%
%ADD15RoundRect,0.150000X0.425000X-0.150000X0.425000X0.150000X-0.425000X0.150000X-0.425000X-0.150000X0*%
%TD*%
%TA.AperFunction,SMDPad,CuDef*%
%ADD16RoundRect,0.075000X0.500000X-0.075000X0.500000X0.075000X-0.500000X0.075000X-0.500000X-0.075000X0*%
%TD*%
%TA.AperFunction,HeatsinkPad*%
%ADD17O,2.100000X1.000000*%
%TD*%
%TA.AperFunction,HeatsinkPad*%
%ADD18O,1.800000X1.000000*%
%TD*%
%TA.AperFunction,SMDPad,CuDef*%
%ADD19RoundRect,0.140000X-0.170000X0.140000X-0.170000X-0.140000X0.170000X-0.140000X0.170000X0.140000X0*%
%TD*%
%TA.AperFunction,SMDPad,CuDef*%
%ADD20R,2.000000X1.050000*%
%TD*%
%TA.AperFunction,SMDPad,CuDef*%
%ADD21RoundRect,0.150000X-0.587500X-0.150000X0.587500X-0.150000X0.587500X0.150000X-0.587500X0.150000X0*%
%TD*%
%TA.AperFunction,SMDPad,CuDef*%
%ADD22RoundRect,0.050000X0.437500X0.050000X-0.437500X0.050000X-0.437500X-0.050000X0.437500X-0.050000X0*%
%TD*%
%TA.AperFunction,SMDPad,CuDef*%
%ADD23RoundRect,0.050000X0.337500X0.050000X-0.337500X0.050000X-0.337500X-0.050000X0.337500X-0.050000X0*%
%TD*%
%TA.AperFunction,SMDPad,CuDef*%
%ADD24RoundRect,0.050000X0.050000X0.337500X-0.050000X0.337500X-0.050000X-0.337500X0.050000X-0.337500X0*%
%TD*%
%TA.AperFunction,ComponentPad*%
%ADD25C,1.550000*%
%TD*%
%TA.AperFunction,SMDPad,CuDef*%
%ADD26RoundRect,0.250000X-0.350000X0.450000X-0.350000X-0.450000X0.350000X-0.450000X0.350000X0.450000X0*%
%TD*%
%TA.AperFunction,SMDPad,CuDef*%
%ADD27RoundRect,0.250000X0.650000X0.250000X-0.650000X0.250000X-0.650000X-0.250000X0.650000X-0.250000X0*%
%TD*%
%TA.AperFunction,SMDPad,CuDef*%
%ADD28RoundRect,0.062500X-0.350000X-0.062500X0.350000X-0.062500X0.350000X0.062500X-0.350000X0.062500X0*%
%TD*%
%TA.AperFunction,SMDPad,CuDef*%
%ADD29RoundRect,0.062500X-0.062500X-0.350000X0.062500X-0.350000X0.062500X0.350000X-0.062500X0.350000X0*%
%TD*%
%TA.AperFunction,HeatsinkPad*%
%ADD30R,1.700000X1.700000*%
%TD*%
%TA.AperFunction,ComponentPad*%
%ADD31C,6.400000*%
%TD*%
%TA.AperFunction,SMDPad,CuDef*%
%ADD32RoundRect,0.150000X-0.825000X-0.150000X0.825000X-0.150000X0.825000X0.150000X-0.825000X0.150000X0*%
%TD*%
%TA.AperFunction,SMDPad,CuDef*%
%ADD33RoundRect,0.150000X-0.512500X-0.150000X0.512500X-0.150000X0.512500X0.150000X-0.512500X0.150000X0*%
%TD*%
%TA.AperFunction,SMDPad,CuDef*%
%ADD34RoundRect,0.075000X-0.662500X-0.075000X0.662500X-0.075000X0.662500X0.075000X-0.662500X0.075000X0*%
%TD*%
%TA.AperFunction,SMDPad,CuDef*%
%ADD35RoundRect,0.075000X-0.075000X-0.662500X0.075000X-0.662500X0.075000X0.662500X-0.075000X0.662500X0*%
%TD*%
%TA.AperFunction,SMDPad,CuDef*%
%ADD36RoundRect,0.150000X0.512500X0.150000X-0.512500X0.150000X-0.512500X-0.150000X0.512500X-0.150000X0*%
%TD*%
%TA.AperFunction,SMDPad,CuDef*%
%ADD37RoundRect,0.200000X0.200000X0.275000X-0.200000X0.275000X-0.200000X-0.275000X0.200000X-0.275000X0*%
%TD*%
%TA.AperFunction,SMDPad,CuDef*%
%ADD38R,1.200000X1.400000*%
%TD*%
%TA.AperFunction,SMDPad,CuDef*%
%ADD39RoundRect,0.225000X-0.250000X0.225000X-0.250000X-0.225000X0.250000X-0.225000X0.250000X0.225000X0*%
%TD*%
%TA.AperFunction,SMDPad,CuDef*%
%ADD40R,1.500000X2.000000*%
%TD*%
%TA.AperFunction,SMDPad,CuDef*%
%ADD41RoundRect,0.220000X-0.220000X-0.255000X0.220000X-0.255000X0.220000X0.255000X-0.220000X0.255000X0*%
%TD*%
%TA.AperFunction,SMDPad,CuDef*%
%ADD42RoundRect,0.220000X-0.255000X0.220000X-0.255000X-0.220000X0.255000X-0.220000X0.255000X0.220000X0*%
%TD*%
%TA.AperFunction,SMDPad,CuDef*%
%ADD43RoundRect,0.375000X-0.375000X0.625000X-0.375000X-0.625000X0.375000X-0.625000X0.375000X0.625000X0*%
%TD*%
%TA.AperFunction,SMDPad,CuDef*%
%ADD44RoundRect,0.500000X-1.400000X0.500000X-1.400000X-0.500000X1.400000X-0.500000X1.400000X0.500000X0*%
%TD*%
%TA.AperFunction,SMDPad,CuDef*%
%ADD45RoundRect,0.075000X-0.700000X-0.075000X0.700000X-0.075000X0.700000X0.075000X-0.700000X0.075000X0*%
%TD*%
%TA.AperFunction,SMDPad,CuDef*%
%ADD46RoundRect,0.075000X-0.075000X-0.700000X0.075000X-0.700000X0.075000X0.700000X-0.075000X0.700000X0*%
%TD*%
%TA.AperFunction,SMDPad,CuDef*%
%ADD47RoundRect,0.150000X0.150000X-0.587500X0.150000X0.587500X-0.150000X0.587500X-0.150000X-0.587500X0*%
%TD*%
%TA.AperFunction,ComponentPad*%
%ADD48C,2.250000*%
%TD*%
%TA.AperFunction,SMDPad,CuDef*%
%ADD49RoundRect,0.150000X0.150000X-0.512500X0.150000X0.512500X-0.150000X0.512500X-0.150000X-0.512500X0*%
%TD*%
%TA.AperFunction,ViaPad*%
%ADD50C,0.600000*%
%TD*%
%TA.AperFunction,ViaPad*%
%ADD51C,0.500000*%
%TD*%
%TA.AperFunction,Conductor*%
%ADD52C,0.200000*%
%TD*%
%TA.AperFunction,Conductor*%
%ADD53C,0.300000*%
%TD*%
%TA.AperFunction,Conductor*%
%ADD54C,1.000000*%
%TD*%
%TA.AperFunction,Conductor*%
%ADD55C,0.254000*%
%TD*%
%TA.AperFunction,Conductor*%
%ADD56C,0.180000*%
%TD*%
%TA.AperFunction,Conductor*%
%ADD57C,0.160000*%
%TD*%
%TA.AperFunction,Conductor*%
%ADD58C,0.400000*%
%TD*%
G04 APERTURE END LIST*
D10*
%TO.P,D10,1*%
%TO.N,Net-(D10-Pad1)*%
X82900000Y-41390000D03*
%TO.P,D10,2*%
%TO.N,+3V3*%
X82900000Y-39810000D03*
%TD*%
D11*
%TO.P,D8,1*%
%TO.N,Net-(D8-Pad1)*%
X98529998Y-48400000D03*
%TO.P,D8,2*%
%TO.N,/ST-LINK/LED*%
X96950000Y-48400000D03*
%TD*%
D12*
%TO.P,R58,1*%
%TO.N,/USB-C/CC1*%
X98700000Y-84500000D03*
%TO.P,R58,2*%
%TO.N,GND*%
X97700002Y-84500000D03*
%TD*%
D13*
%TO.P,R5,1*%
%TO.N,+3V3*%
X59150001Y-56349999D03*
%TO.P,R5,2*%
%TO.N,/MCU/SWD.~{RST}*%
X60149999Y-56349999D03*
%TD*%
D14*
%TO.P,R68,1*%
%TO.N,Net-(U12-PGANG)*%
X105544999Y-42624997D03*
%TO.P,R68,2*%
%TO.N,Net-(D9-Pad1)*%
X105544999Y-41624999D03*
%TD*%
%TO.P,R9,1*%
%TO.N,/MCU/SWD.SWDIO*%
X95850000Y-52149999D03*
%TO.P,R9,2*%
%TO.N,Net-(U7-PB14)*%
X95850000Y-51150001D03*
%TD*%
D15*
%TO.P,J1,A1,GND*%
%TO.N,GND*%
X100225000Y-85220000D03*
%TO.P,J1,A4,VBUS*%
%TO.N,/USB-C/VBUS_IN*%
X100225000Y-84420000D03*
D16*
%TO.P,J1,A5,CC1*%
%TO.N,/USB-C/CC1*%
X100225001Y-83270000D03*
%TO.P,J1,A6,D+*%
%TO.N,/USB-C/USB2S.D+*%
X100225000Y-82270000D03*
%TO.P,J1,A7,D-*%
%TO.N,/USB-C/USB2S.D-*%
X100225000Y-81770000D03*
%TO.P,J1,A8,SBU1*%
%TO.N,unconnected-(J1-SBU1-PadA8)*%
X100225001Y-80770000D03*
D15*
%TO.P,J1,A9,VBUS*%
%TO.N,/USB-C/VBUS_IN*%
X100225000Y-79620000D03*
%TO.P,J1,A12,GND*%
%TO.N,GND*%
X100225000Y-78820000D03*
%TO.P,J1,B1,GND*%
X100225000Y-78820000D03*
%TO.P,J1,B4,VBUS*%
%TO.N,/USB-C/VBUS_IN*%
X100225000Y-79620000D03*
D16*
%TO.P,J1,B5,CC2*%
%TO.N,/USB-C/CC2*%
X100225000Y-80270000D03*
%TO.P,J1,B6,D+*%
%TO.N,/USB-C/USB2S.D+*%
X100225000Y-81270000D03*
%TO.P,J1,B7,D-*%
%TO.N,/USB-C/USB2S.D-*%
X100225000Y-82770000D03*
%TO.P,J1,B8,SBU2*%
%TO.N,unconnected-(J1-SBU2-PadB8)*%
X100225000Y-83770000D03*
D15*
%TO.P,J1,B9,VBUS*%
%TO.N,/USB-C/VBUS_IN*%
X100225000Y-84420000D03*
%TO.P,J1,B12,GND*%
%TO.N,GND*%
X100225000Y-85220000D03*
D17*
%TO.P,J1,S1,SHIELD*%
%TO.N,Net-(J1-SHIELD)*%
X100800000Y-86340000D03*
D18*
X104980000Y-86340000D03*
D17*
X100800000Y-77700000D03*
D18*
X104980000Y-77700000D03*
%TD*%
D13*
%TO.P,R16,1*%
%TO.N,/USB-C/USB2S.D-*%
X94550001Y-59999999D03*
%TO.P,R16,2*%
%TO.N,Net-(U11-HSD2-)*%
X95549999Y-59999999D03*
%TD*%
D19*
%TO.P,R12,1*%
%TO.N,/can_tranciver/WAKE*%
X104500000Y-70500000D03*
%TO.P,R12,2*%
%TO.N,GND*%
X104500000Y-71500000D03*
%TD*%
D20*
%TO.P,SW3,1,1*%
%TO.N,/can_tranciver/WAKE*%
X103500000Y-68425000D03*
%TO.P,SW3,2,2*%
%TO.N,+3V3*%
X103500000Y-63975000D03*
%TD*%
D21*
%TO.P,Q3,1,G*%
%TO.N,Net-(Q3-G)*%
X79900000Y-35250000D03*
%TO.P,Q3,2,S*%
%TO.N,+5V_unprotected*%
X79900000Y-37150000D03*
%TO.P,Q3,3,D*%
%TO.N,+5V*%
X81775001Y-36200000D03*
%TD*%
D13*
%TO.P,R67,1*%
%TO.N,/ST-LINK/ST-LINK.D+*%
X98537500Y-46255000D03*
%TO.P,R67,2*%
%TO.N,/USB_HUB/USBOUT1_R.D+*%
X99537500Y-46255000D03*
%TD*%
D19*
%TO.P,R60,1*%
%TO.N,Net-(U11-SEL)*%
X98700000Y-62949999D03*
%TO.P,R60,2*%
%TO.N,GND*%
X98700000Y-63949997D03*
%TD*%
D12*
%TO.P,C45,1*%
%TO.N,/USB-C/VBUS_IN*%
X98700000Y-79500000D03*
%TO.P,C45,2*%
%TO.N,GND*%
X97700002Y-79500000D03*
%TD*%
D22*
%TO.P,U11,1,D+*%
%TO.N,Net-(U11-D+)*%
X97862500Y-60587499D03*
D23*
%TO.P,U11,2,D-*%
%TO.N,Net-(U11-D-)*%
X97962500Y-60187499D03*
D24*
%TO.P,U11,3,GND*%
%TO.N,GND*%
X97700000Y-59524999D03*
%TO.P,U11,4,HSD1-*%
%TO.N,Net-(U11-HSD1-)*%
X97300000Y-59524999D03*
%TO.P,U11,5,HSD1+*%
%TO.N,Net-(U11-HSD1+)*%
X96900000Y-59524999D03*
D23*
%TO.P,U11,6,HSD2-*%
%TO.N,Net-(U11-HSD2-)*%
X96637500Y-60187499D03*
%TO.P,U11,7,HSD2+*%
%TO.N,Net-(U11-HSD2+)*%
X96637500Y-60587499D03*
D24*
%TO.P,U11,8,~{OE}*%
%TO.N,Net-(U11-~{OE})*%
X96900000Y-61249999D03*
%TO.P,U11,9,VCC*%
%TO.N,+3V3*%
X97300000Y-61249999D03*
%TO.P,U11,10,SEL*%
%TO.N,Net-(U11-SEL)*%
X97700000Y-61249999D03*
%TD*%
D25*
%TO.P,H2,1,1*%
%TO.N,GND*%
X95660000Y-25560000D03*
%TO.P,H2,2,2*%
X95660000Y-23020000D03*
%TO.P,H2,3,3*%
%TO.N,+VBAT*%
X93120000Y-25560000D03*
%TO.P,H2,4,4*%
X93120000Y-23020000D03*
%TO.P,H2,5,5*%
X90580000Y-25560000D03*
%TO.P,H2,6,6*%
X90580000Y-23020000D03*
%TO.P,H2,7,7*%
%TO.N,GND*%
X88040000Y-25560000D03*
%TO.P,H2,8,8*%
X88040000Y-23020000D03*
%TO.P,H2,9,9*%
%TO.N,+5V_unprotected*%
X85500000Y-25560000D03*
%TO.P,H2,10,10*%
X85500000Y-23020000D03*
%TO.P,H2,11,11*%
X82960000Y-25560000D03*
%TO.P,H2,12,12*%
X82960000Y-23020000D03*
%TO.P,H2,13,13*%
%TO.N,GND*%
X80420000Y-25560000D03*
%TO.P,H2,14,14*%
X80420000Y-23020000D03*
%TO.P,H2,15,15*%
%TO.N,/BUS_CONNECTOR/CAN3.+*%
X77880000Y-25560000D03*
%TO.P,H2,16,16*%
%TO.N,/BUS_CONNECTOR/CAN4.+*%
X77880000Y-23020000D03*
%TO.P,H2,17,17*%
%TO.N,/BUS_CONNECTOR/CAN3.-*%
X75340000Y-25560000D03*
%TO.P,H2,18,18*%
%TO.N,/BUS_CONNECTOR/CAN4.-*%
X75340000Y-23020000D03*
%TO.P,H2,19,19*%
%TO.N,GND*%
X72800000Y-25560000D03*
%TO.P,H2,20,20*%
X72800000Y-23020000D03*
%TO.P,H2,21,21*%
%TO.N,/BUS_CONNECTOR/USB3.D+*%
X70260000Y-25560000D03*
%TO.P,H2,22,22*%
%TO.N,/BUS_CONNECTOR/USB4.D+*%
X70260000Y-23020000D03*
%TO.P,H2,23,23*%
%TO.N,/BUS_CONNECTOR/USB3.D-*%
X67720000Y-25560000D03*
%TO.P,H2,24,24*%
%TO.N,/BUS_CONNECTOR/USB4.D-*%
X67720000Y-23020000D03*
%TO.P,H2,25,25*%
%TO.N,/BUS_CONNECTOR/USB7.D+*%
X65180000Y-25560000D03*
%TO.P,H2,26,26*%
%TO.N,/BUS_CONNECTOR/USB8.D-*%
X65180000Y-23020000D03*
%TO.P,H2,27,27*%
%TO.N,/BUS_CONNECTOR/USB7.D-*%
X62640000Y-25560000D03*
%TO.P,H2,28,28*%
%TO.N,/BUS_CONNECTOR/USB8.D+*%
X62640000Y-23020000D03*
%TO.P,H2,29,29*%
%TO.N,/BUS_CONNECTOR/USB11.D+*%
X60100000Y-25560000D03*
%TO.P,H2,30,30*%
%TO.N,/BUS_CONNECTOR/USB12.D+*%
X60100000Y-23020000D03*
%TO.P,H2,31,31*%
%TO.N,/BUS_CONNECTOR/USB11.D-*%
X57560000Y-25560000D03*
%TO.P,H2,32,32*%
%TO.N,/BUS_CONNECTOR/USB12.D-*%
X57560000Y-23020000D03*
%TO.P,H2,33,33*%
%TO.N,GND*%
X55020000Y-25560000D03*
%TO.P,H2,34,34*%
X55020000Y-23020000D03*
%TO.P,H2,35,35*%
%TO.N,/BUS_CONNECTOR/GPIO16*%
X52480000Y-25560000D03*
%TO.P,H2,36,36*%
%TO.N,/BUS_CONNECTOR/GPIO24*%
X52480000Y-23020000D03*
%TO.P,H2,37,37*%
%TO.N,/BUS_CONNECTOR/GPIO17*%
X49940000Y-25560000D03*
%TO.P,H2,38,38*%
%TO.N,/BUS_CONNECTOR/GPIO25*%
X49940000Y-23020000D03*
%TO.P,H2,39,39*%
%TO.N,/BUS_CONNECTOR/GPIO18*%
X47400000Y-25560000D03*
%TO.P,H2,40,40*%
%TO.N,/BUS_CONNECTOR/GPIO26*%
X47400000Y-23020000D03*
%TO.P,H2,41,41*%
%TO.N,/BUS_CONNECTOR/GPIO19*%
X44860000Y-25560000D03*
%TO.P,H2,42,42*%
%TO.N,/BUS_CONNECTOR/GPIO27*%
X44860000Y-23020000D03*
%TO.P,H2,43,43*%
%TO.N,/BUS_CONNECTOR/GPIO20*%
X42320000Y-25560000D03*
%TO.P,H2,44,44*%
%TO.N,/BUS_CONNECTOR/GPIO28*%
X42320000Y-23020000D03*
%TO.P,H2,45,45*%
%TO.N,/BUS_CONNECTOR/GPIO21*%
X39780000Y-25560000D03*
%TO.P,H2,46,46*%
%TO.N,/BUS_CONNECTOR/GPIO29*%
X39780000Y-23020000D03*
%TO.P,H2,47,47*%
%TO.N,/BUS_CONNECTOR/GPIO22*%
X37240000Y-25560000D03*
%TO.P,H2,48,48*%
%TO.N,/BUS_CONNECTOR/GPIO30*%
X37240000Y-23020000D03*
%TO.P,H2,49,49*%
%TO.N,/BUS_CONNECTOR/GPIO23*%
X34700000Y-25560000D03*
%TO.P,H2,50,50*%
%TO.N,/BUS_CONNECTOR/GPIO31*%
X34700000Y-23020000D03*
%TO.P,H2,51,51*%
%TO.N,GND*%
X32160000Y-25560000D03*
%TO.P,H2,52,52*%
X32160000Y-23020000D03*
%TD*%
D26*
%TO.P,Y5,1,1*%
%TO.N,/ST-LINK/STLINK-OSC_IN*%
X80600000Y-47850000D03*
%TO.P,Y5,2,2*%
%TO.N,GND*%
X80600000Y-50050000D03*
%TO.P,Y5,3,3*%
%TO.N,/ST-LINK/STLINK-OSC_OUT*%
X82200000Y-50050000D03*
%TO.P,Y5,4,4*%
%TO.N,GND*%
X82200000Y-47850000D03*
%TD*%
D27*
%TO.P,X3,1,1*%
%TO.N,/MCU/OSC32_OUT*%
X59650000Y-50549997D03*
%TO.P,X3,2,2*%
%TO.N,/MCU/OSC32_IN*%
X59650000Y-48049999D03*
%TD*%
D28*
%TO.P,U12,1,XO*%
%TO.N,Net-(U12-XO)*%
X100662500Y-44425000D03*
%TO.P,U12,2,XI*%
%TO.N,Net-(U12-XI)*%
X100662500Y-44925000D03*
%TO.P,U12,3,DM4*%
%TO.N,/USB_HUB/USBOUT1_R.D-*%
X100662500Y-45425000D03*
%TO.P,U12,4,DP4*%
%TO.N,/USB_HUB/USBOUT1_R.D+*%
X100662500Y-45925000D03*
D29*
%TO.P,U12,5,DM3*%
%TO.N,/USB_HUB/USB_MCU_R.D-*%
X101375000Y-46637500D03*
%TO.P,U12,6,DP3*%
%TO.N,/USB_HUB/USB_MCU_R.D+*%
X101875000Y-46637500D03*
%TO.P,U12,7,DM2*%
%TO.N,unconnected-(U12-DM2-Pad7)*%
X102375000Y-46637500D03*
%TO.P,U12,8,DP2*%
%TO.N,unconnected-(U12-DP2-Pad8)*%
X102875000Y-46637500D03*
D28*
%TO.P,U12,9,DM1*%
%TO.N,unconnected-(U12-DM1-Pad9)*%
X103587500Y-45925000D03*
%TO.P,U12,10,DP1*%
%TO.N,unconnected-(U12-DP1-Pad10)*%
X103587500Y-45425000D03*
%TO.P,U12,11,DMU*%
%TO.N,/USB-C/EXTUSB.D-*%
X103587500Y-44925000D03*
%TO.P,U12,12,DPU*%
%TO.N,/USB-C/EXTUSB.D+*%
X103587500Y-44425000D03*
D29*
%TO.P,U12,13,RESET*%
%TO.N,unconnected-(U12-RESET-Pad13)*%
X102875000Y-43712500D03*
%TO.P,U12,14,PGANG*%
%TO.N,Net-(U12-PGANG)*%
X102375000Y-43712500D03*
%TO.P,U12,15,5V*%
%TO.N,+5V*%
X101875000Y-43712500D03*
%TO.P,U12,16,3V3*%
%TO.N,Net-(U12-3V3)*%
X101375000Y-43712500D03*
D30*
%TO.P,U12,17,GND*%
%TO.N,GND*%
X102125000Y-45175000D03*
%TD*%
D19*
%TO.P,R1,1*%
%TO.N,Net-(D1-Pad1)*%
X81450000Y-42540001D03*
%TO.P,R1,2*%
%TO.N,GND*%
X81450000Y-43539999D03*
%TD*%
D10*
%TO.P,D1,1*%
%TO.N,Net-(D1-Pad1)*%
X81300000Y-41390000D03*
%TO.P,D1,2*%
%TO.N,+5V_unprotected*%
X81300000Y-39810000D03*
%TD*%
D19*
%TO.P,C15,1*%
%TO.N,+3V3*%
X101649999Y-36474998D03*
%TO.P,C15,2*%
%TO.N,GND*%
X101649999Y-37474996D03*
%TD*%
%TO.P,R53,1*%
%TO.N,+5V*%
X92000000Y-39062501D03*
%TO.P,R53,2*%
%TO.N,Net-(Q2-B)*%
X92000000Y-40062499D03*
%TD*%
%TO.P,R26,1*%
%TO.N,GND*%
X84050000Y-44250001D03*
%TO.P,R26,2*%
%TO.N,Net-(U7-PC13)*%
X84050000Y-45249999D03*
%TD*%
D14*
%TO.P,R4,1*%
%TO.N,/MCU/BOOT*%
X69837499Y-50146392D03*
%TO.P,R4,2*%
%TO.N,GND*%
X69837499Y-49146394D03*
%TD*%
D13*
%TO.P,C18,1*%
%TO.N,GND*%
X70700000Y-48300000D03*
%TO.P,C18,2*%
%TO.N,+3V3*%
X71700000Y-48300000D03*
%TD*%
D12*
%TO.P,R11,1*%
%TO.N,Net-(U2-EN)*%
X84749999Y-34100000D03*
%TO.P,R11,2*%
%TO.N,GND*%
X83750001Y-34100000D03*
%TD*%
%TO.P,R55,1*%
%TO.N,Net-(Q2-B)*%
X93699999Y-42762500D03*
%TO.P,R55,2*%
%TO.N,/ST-LINK/USB_RENUM*%
X92700001Y-42762500D03*
%TD*%
D13*
%TO.P,C28,1*%
%TO.N,/MCU/+VDDA*%
X65987500Y-51825000D03*
%TO.P,C28,2*%
%TO.N,GND*%
X66987498Y-51825000D03*
%TD*%
%TO.P,R44,1*%
%TO.N,Net-(U7-PA5)*%
X94000000Y-53850000D03*
%TO.P,R44,2*%
%TO.N,/MCU/SWD.SWCLK*%
X95000000Y-53850000D03*
%TD*%
D19*
%TO.P,C50,1*%
%TO.N,Net-(U5-VCAP)*%
X73387499Y-66225001D03*
%TO.P,C50,2*%
%TO.N,GND*%
X73387499Y-67224999D03*
%TD*%
%TO.P,R28,1*%
%TO.N,GND*%
X84849999Y-44250001D03*
%TO.P,R28,2*%
%TO.N,Net-(U7-PC14)*%
X84849999Y-45249999D03*
%TD*%
D13*
%TO.P,R52,1*%
%TO.N,Net-(Q2-E)*%
X94500001Y-42762500D03*
%TO.P,R52,2*%
%TO.N,/ST-LINK/ST-LINK.D+*%
X95499999Y-42762500D03*
%TD*%
D31*
%TO.P,M1,1*%
%TO.N,N/C*%
X27040000Y-23100000D03*
%TD*%
D14*
%TO.P,R69,1*%
%TO.N,/MCU/USER_LED_2*%
X105500000Y-51000000D03*
%TO.P,R69,2*%
%TO.N,Net-(D2-Pad2)*%
X105500000Y-50000000D03*
%TD*%
%TO.P,R56,1*%
%TO.N,Net-(J1-SHIELD)*%
X104400000Y-76199998D03*
%TO.P,R56,2*%
%TO.N,GND*%
X104400000Y-75200000D03*
%TD*%
D19*
%TO.P,C12,1*%
%TO.N,+5V*%
X96700000Y-33900001D03*
%TO.P,C12,2*%
%TO.N,GND*%
X96700000Y-34899999D03*
%TD*%
D12*
%TO.P,R6,1*%
%TO.N,/MCU/V_SENSE*%
X60149999Y-58649999D03*
%TO.P,R6,2*%
%TO.N,GND*%
X59150001Y-58649999D03*
%TD*%
D14*
%TO.P,R7,1*%
%TO.N,+3V3*%
X83050000Y-53099998D03*
%TO.P,R7,2*%
%TO.N,/ST-LINK/STLINK-RST*%
X83050000Y-52100000D03*
%TD*%
%TO.P,R59,1*%
%TO.N,/USB-C/VBUS_IN*%
X97850000Y-63949997D03*
%TO.P,R59,2*%
%TO.N,Net-(U11-SEL)*%
X97850000Y-62949999D03*
%TD*%
D19*
%TO.P,R18,1*%
%TO.N,/BUS_CONNECTOR/USB1.D-*%
X97500000Y-57400001D03*
%TO.P,R18,2*%
%TO.N,Net-(U11-HSD1-)*%
X97500000Y-58399999D03*
%TD*%
D14*
%TO.P,R21,1*%
%TO.N,+3V3*%
X99700000Y-51300000D03*
%TO.P,R21,2*%
%TO.N,Net-(D3-Pad2)*%
X99700000Y-50300000D03*
%TD*%
D32*
%TO.P,U6,1,TXD*%
%TO.N,/MCU/CAN.RX*%
X73650000Y-42750000D03*
%TO.P,U6,2,GND*%
%TO.N,GND*%
X73650000Y-44020000D03*
%TO.P,U6,3,VCC*%
%TO.N,+5V_unprotected*%
X73650000Y-45290000D03*
%TO.P,U6,4,RXD*%
%TO.N,/MCU/CAN.TX*%
X73650000Y-46560000D03*
%TO.P,U6,5,VIO*%
%TO.N,+3V3*%
X73650000Y-47830000D03*
%TO.P,U6,6,SDO*%
%TO.N,/MCU/CAN_TRANSIVER.MISO*%
X73650000Y-49100000D03*
%TO.P,U6,7,INH*%
%TO.N,/POWER/POWER_EN*%
X73650000Y-50370000D03*
%TO.P,U6,8,SCK*%
%TO.N,/MCU/CAN_TRANSIVER.CLK*%
X78600000Y-50370000D03*
%TO.P,U6,9,WAKE*%
%TO.N,/can_tranciver/WAKE*%
X78600000Y-49100000D03*
%TO.P,U6,10,BAT*%
%TO.N,+5V_unprotected*%
X78600000Y-47830000D03*
%TO.P,U6,11,SDI*%
%TO.N,/MCU/CAN_TRANSIVER.MOSI*%
X78600000Y-46560000D03*
%TO.P,U6,12,CANL*%
%TO.N,/BUS_CONNECTOR/CAN1.-*%
X78600000Y-45290000D03*
%TO.P,U6,13,CANH*%
%TO.N,/BUS_CONNECTOR/CAN1.+*%
X78600000Y-44020000D03*
%TO.P,U6,14,~{SCS}*%
%TO.N,/MCU/CAN_TRANSIVER.CS*%
X78600000Y-42750000D03*
%TD*%
D20*
%TO.P,SW1,1,1*%
%TO.N,GND*%
X103500000Y-60850002D03*
%TO.P,SW1,2,2*%
%TO.N,/MCU/SWD.~{RST}*%
X103500000Y-56400000D03*
%TD*%
D12*
%TO.P,R8,1*%
%TO.N,/MCU/SWD.SWCLK*%
X95000000Y-53050000D03*
%TO.P,R8,2*%
%TO.N,Net-(U7-PB13)*%
X94000002Y-53050000D03*
%TD*%
D14*
%TO.P,C59,1*%
%TO.N,/MCU/OSC32_IN*%
X61050000Y-48849996D03*
%TO.P,C59,2*%
%TO.N,GND*%
X61050000Y-47849998D03*
%TD*%
D12*
%TO.P,R57,1*%
%TO.N,/USB-C/CC2*%
X98700000Y-80300000D03*
%TO.P,R57,2*%
%TO.N,GND*%
X97700002Y-80300000D03*
%TD*%
D14*
%TO.P,C44,1*%
%TO.N,Net-(J1-SHIELD)*%
X103500000Y-76199998D03*
%TO.P,C44,2*%
%TO.N,GND*%
X103500000Y-75200000D03*
%TD*%
%TO.P,R63,1*%
%TO.N,/MCU/STATUS_LED*%
X105500000Y-54000000D03*
%TO.P,R63,2*%
%TO.N,Net-(D7-Pad2)*%
X105500000Y-53000000D03*
%TD*%
D31*
%TO.P,M3,1*%
%TO.N,N/C*%
X103240000Y-108825000D03*
%TD*%
D12*
%TO.P,R37,1*%
%TO.N,/MCU/SWD.~{RST}*%
X89849999Y-55150000D03*
%TO.P,R37,2*%
%TO.N,Net-(U7-PB0)*%
X88850001Y-55150000D03*
%TD*%
D19*
%TO.P,C31,1*%
%TO.N,/MCU/+VDDA*%
X64687499Y-65415000D03*
%TO.P,C31,2*%
%TO.N,GND*%
X64687499Y-66414998D03*
%TD*%
D33*
%TO.P,U3,1,I/O1*%
%TO.N,/BUS_CONNECTOR/USB1.D-*%
X70112500Y-34637501D03*
%TO.P,U3,2,GND*%
%TO.N,GND*%
X70112500Y-35587500D03*
%TO.P,U3,3,I/O2*%
%TO.N,/BUS_CONNECTOR/USB1.D+*%
X70112500Y-36537499D03*
%TO.P,U3,4,I/O2*%
X72387500Y-36537499D03*
%TO.P,U3,5,VBUS*%
%TO.N,+5V*%
X72387500Y-35587500D03*
%TO.P,U3,6,I/O1*%
%TO.N,/BUS_CONNECTOR/USB1.D-*%
X72387500Y-34637501D03*
%TD*%
D12*
%TO.P,C29,1*%
%TO.N,/MCU/+VDDA*%
X67587498Y-66325000D03*
%TO.P,C29,2*%
%TO.N,GND*%
X66587500Y-66325000D03*
%TD*%
D14*
%TO.P,R13,1*%
%TO.N,+3V3*%
X105500000Y-71500000D03*
%TO.P,R13,2*%
%TO.N,/can_tranciver/WAKE*%
X105500000Y-70500000D03*
%TD*%
D34*
%TO.P,U7,1,VBAT*%
%TO.N,+3V3*%
X84937500Y-46600000D03*
%TO.P,U7,2,PC13*%
%TO.N,Net-(U7-PC13)*%
X84937500Y-47100000D03*
%TO.P,U7,3,PC14*%
%TO.N,Net-(U7-PC14)*%
X84937500Y-47600000D03*
%TO.P,U7,4,PC15*%
%TO.N,unconnected-(U7-PC15-Pad4)*%
X84937500Y-48100000D03*
%TO.P,U7,5,PD0*%
%TO.N,/ST-LINK/STLINK-OSC_IN*%
X84937500Y-48600000D03*
%TO.P,U7,6,PD1*%
%TO.N,/ST-LINK/STLINK-OSC_OUT*%
X84937500Y-49100000D03*
%TO.P,U7,7,NRST*%
%TO.N,/ST-LINK/STLINK-RST*%
X84937500Y-49600000D03*
%TO.P,U7,8,VSSA*%
%TO.N,GND*%
X84937500Y-50100000D03*
%TO.P,U7,9,VDDA*%
%TO.N,+3V3*%
X84937500Y-50600000D03*
%TO.P,U7,10,PA0*%
%TO.N,Net-(U7-PA0)*%
X84937500Y-51100000D03*
%TO.P,U7,11,PA1*%
%TO.N,unconnected-(U7-PA1-Pad11)*%
X84937500Y-51600000D03*
%TO.P,U7,12,PA2*%
%TO.N,/MCU/STLINK_UART.TX*%
X84937500Y-52100000D03*
D35*
%TO.P,U7,13,PA3*%
%TO.N,/MCU/STLINK_UART.RX*%
X86350000Y-53512500D03*
%TO.P,U7,14,PA4*%
%TO.N,unconnected-(U7-PA4-Pad14)*%
X86850000Y-53512500D03*
%TO.P,U7,15,PA5*%
%TO.N,Net-(U7-PA5)*%
X87350000Y-53512500D03*
%TO.P,U7,16,PA6*%
%TO.N,unconnected-(U7-PA6-Pad16)*%
X87850000Y-53512500D03*
%TO.P,U7,17,PA7*%
%TO.N,unconnected-(U7-PA7-Pad17)*%
X88350000Y-53512500D03*
%TO.P,U7,18,PB0*%
%TO.N,Net-(U7-PB0)*%
X88850000Y-53512500D03*
%TO.P,U7,19,PB1*%
%TO.N,unconnected-(U7-PB1-Pad19)*%
X89350000Y-53512500D03*
%TO.P,U7,20,PB2*%
%TO.N,unconnected-(U7-PB2-Pad20)*%
X89850000Y-53512500D03*
%TO.P,U7,21,PB10*%
%TO.N,unconnected-(U7-PB10-Pad21)*%
X90350000Y-53512500D03*
%TO.P,U7,22,PB11*%
%TO.N,unconnected-(U7-PB11-Pad22)*%
X90850000Y-53512500D03*
%TO.P,U7,23,VSS*%
%TO.N,GND*%
X91350000Y-53512500D03*
%TO.P,U7,24,VDD*%
%TO.N,+3V3*%
X91850000Y-53512500D03*
D34*
%TO.P,U7,25,PB12*%
%TO.N,Net-(U7-PB12)*%
X93262500Y-52100000D03*
%TO.P,U7,26,PB13*%
%TO.N,Net-(U7-PB13)*%
X93262500Y-51600000D03*
%TO.P,U7,27,PB14*%
%TO.N,Net-(U7-PB14)*%
X93262500Y-51100000D03*
%TO.P,U7,28,PB15*%
%TO.N,unconnected-(U7-PB15-Pad28)*%
X93262500Y-50600000D03*
%TO.P,U7,29,PA8*%
%TO.N,unconnected-(U7-PA8-Pad29)*%
X93262500Y-50100000D03*
%TO.P,U7,30,PA9*%
%TO.N,/ST-LINK/LED*%
X93262500Y-49600000D03*
%TO.P,U7,31,PA10*%
%TO.N,/ST-LINK/SWO*%
X93262500Y-49100000D03*
%TO.P,U7,32,PA11*%
%TO.N,/ST-LINK/ST-LINK.D-*%
X93262500Y-48600000D03*
%TO.P,U7,33,PA12*%
%TO.N,/ST-LINK/ST-LINK.D+*%
X93262500Y-48100000D03*
%TO.P,U7,34,PA13*%
%TO.N,/ST-LINK/DIO*%
X93262500Y-47600000D03*
%TO.P,U7,35,VSS*%
%TO.N,GND*%
X93262500Y-47100000D03*
%TO.P,U7,36,VDD*%
%TO.N,+3V3*%
X93262500Y-46600000D03*
D35*
%TO.P,U7,37,PA14*%
%TO.N,/ST-LINK/CLK*%
X91850000Y-45187500D03*
%TO.P,U7,38,PA15*%
%TO.N,/ST-LINK/USB_RENUM*%
X91350000Y-45187500D03*
%TO.P,U7,39,PB3*%
%TO.N,unconnected-(U7-PB3-Pad39)*%
X90850000Y-45187500D03*
%TO.P,U7,40,PB4*%
%TO.N,unconnected-(U7-PB4-Pad40)*%
X90350000Y-45187500D03*
%TO.P,U7,41,PB5*%
%TO.N,unconnected-(U7-PB5-Pad41)*%
X89850000Y-45187500D03*
%TO.P,U7,42,PB6*%
%TO.N,unconnected-(U7-PB6-Pad42)*%
X89350000Y-45187500D03*
%TO.P,U7,43,PB7*%
%TO.N,unconnected-(U7-PB7-Pad43)*%
X88850000Y-45187500D03*
%TO.P,U7,44,BOOT0*%
%TO.N,/ST-LINK/STLINK-BOOT0*%
X88350000Y-45187500D03*
%TO.P,U7,45,PB8*%
%TO.N,unconnected-(U7-PB8-Pad45)*%
X87850000Y-45187500D03*
%TO.P,U7,46,PB9*%
%TO.N,unconnected-(U7-PB9-Pad46)*%
X87350000Y-45187500D03*
%TO.P,U7,47,VSS*%
%TO.N,GND*%
X86850000Y-45187500D03*
%TO.P,U7,48,VDD*%
%TO.N,+3V3*%
X86350000Y-45187500D03*
%TD*%
D19*
%TO.P,C60,1*%
%TO.N,/MCU/OSC_OUT*%
X61050000Y-53550000D03*
%TO.P,C60,2*%
%TO.N,GND*%
X61050000Y-54549998D03*
%TD*%
%TO.P,C13,1*%
%TO.N,+3V3*%
X103449999Y-36474999D03*
%TO.P,C13,2*%
%TO.N,GND*%
X103449999Y-37474997D03*
%TD*%
D13*
%TO.P,R66,1*%
%TO.N,/ST-LINK/ST-LINK.D-*%
X98537500Y-45375000D03*
%TO.P,R66,2*%
%TO.N,/USB_HUB/USBOUT1_R.D-*%
X99537500Y-45375000D03*
%TD*%
D36*
%TO.P,U2,1,VCAP*%
%TO.N,Net-(U2-VCAP)*%
X86137500Y-37249999D03*
%TO.P,U2,2,GND*%
%TO.N,GND*%
X86137500Y-36300000D03*
%TO.P,U2,3,EN*%
%TO.N,Net-(U2-EN)*%
X86137500Y-35350001D03*
%TO.P,U2,4,CATHODE*%
%TO.N,+5V*%
X83862500Y-35350001D03*
%TO.P,U2,5,GATE*%
%TO.N,Net-(Q3-G)*%
X83862500Y-36300000D03*
%TO.P,U2,6,ANODE*%
%TO.N,+5V_unprotected*%
X83862500Y-37249999D03*
%TD*%
D14*
%TO.P,R48,1*%
%TO.N,+3V3*%
X81300000Y-53099999D03*
%TO.P,R48,2*%
%TO.N,Net-(U7-PA0)*%
X81300000Y-52100001D03*
%TD*%
D31*
%TO.P,,1*%
%TO.N,N/C*%
X23230000Y-108825000D03*
%TD*%
D14*
%TO.P,C58,1*%
%TO.N,/MCU/OSC_IN*%
X61050000Y-52649998D03*
%TO.P,C58,2*%
%TO.N,GND*%
X61050000Y-51650000D03*
%TD*%
%TO.P,R65,1*%
%TO.N,/MCU/USB_MCU.D+*%
X102037500Y-48824998D03*
%TO.P,R65,2*%
%TO.N,/USB_HUB/USB_MCU_R.D+*%
X102037500Y-47825000D03*
%TD*%
D19*
%TO.P,C5,1*%
%TO.N,/ST-LINK/STLINK-RST*%
X82200000Y-52100000D03*
%TO.P,C5,2*%
%TO.N,GND*%
X82200000Y-53099998D03*
%TD*%
D12*
%TO.P,C26,1*%
%TO.N,+3V3*%
X92299999Y-55200000D03*
%TO.P,C26,2*%
%TO.N,GND*%
X91300001Y-55200000D03*
%TD*%
D19*
%TO.P,C32,1*%
%TO.N,/MCU/+VDDA*%
X65587499Y-65415000D03*
%TO.P,C32,2*%
%TO.N,GND*%
X65587499Y-66414998D03*
%TD*%
%TO.P,R61,1*%
%TO.N,Net-(U11-~{OE})*%
X96150000Y-62950001D03*
%TO.P,R61,2*%
%TO.N,GND*%
X96150000Y-63949999D03*
%TD*%
D37*
%TO.P,R24,1*%
%TO.N,/BUS_CONNECTOR/CAN1.+*%
X77440002Y-40200000D03*
%TO.P,R24,2*%
%TO.N,/BUS_CONNECTOR/CAN1.-*%
X75800000Y-40200000D03*
%TD*%
D12*
%TO.P,C4,1*%
%TO.N,/MCU/+VDDA*%
X64687498Y-54325000D03*
%TO.P,C4,2*%
%TO.N,GND*%
X63687500Y-54325000D03*
%TD*%
D14*
%TO.P,R30,1*%
%TO.N,/MCU/USER_LED_1*%
X105500000Y-47500000D03*
%TO.P,R30,2*%
%TO.N,Net-(D12-Pad2)*%
X105500000Y-46500000D03*
%TD*%
%TO.P,R64,1*%
%TO.N,/MCU/USB_MCU.D-*%
X101187500Y-48824998D03*
%TO.P,R64,2*%
%TO.N,/USB_HUB/USB_MCU_R.D-*%
X101187500Y-47825000D03*
%TD*%
D38*
%TO.P,Y6,1,1*%
%TO.N,Net-(U12-XO)*%
X97387500Y-41725000D03*
%TO.P,Y6,2,2*%
%TO.N,GND*%
X97387500Y-43925000D03*
%TO.P,Y6,3,3*%
%TO.N,Net-(U12-XI)*%
X99087500Y-43925000D03*
%TO.P,Y6,4,4*%
%TO.N,GND*%
X99087500Y-41725000D03*
%TD*%
D39*
%TO.P,C8,1*%
%TO.N,+3V3*%
X72000000Y-86720000D03*
%TO.P,C8,2*%
%TO.N,GND*%
X72000000Y-88280000D03*
%TD*%
D13*
%TO.P,R15,1*%
%TO.N,/USB-C/USB2S.D+*%
X94550001Y-60849999D03*
%TO.P,R15,2*%
%TO.N,Net-(U11-HSD2+)*%
X95549999Y-60849999D03*
%TD*%
D40*
%TO.P,U8,1,ANT*%
%TO.N,/LORA/RF*%
X75600000Y-91900000D03*
%TO.P,U8,2,GND*%
%TO.N,GND*%
X77600000Y-91900000D03*
%TO.P,U8,3,VDD*%
%TO.N,+3V3*%
X79600000Y-91900000D03*
%TO.P,U8,4,~{RESET}*%
%TO.N,/LORA/~{LORA_RESET}*%
X81600000Y-91900000D03*
%TO.P,U8,5,DIO0*%
%TO.N,/LORA/LORA_DIO0*%
X83600000Y-91900000D03*
%TO.P,U8,6,DIO1*%
%TO.N,/LORA/LORA_DIO1*%
X85600000Y-91900000D03*
%TO.P,U8,7,DIO2*%
%TO.N,/LORA/LORA_DIO2*%
X87600000Y-91900000D03*
%TO.P,U8,8,DIO3*%
%TO.N,/LORA/LORA_DIO3*%
X89600000Y-91900000D03*
%TO.P,U8,9,GND*%
%TO.N,GND*%
X89600000Y-75900000D03*
%TO.P,U8,10,DIO4*%
%TO.N,/LORA/LORA_DIO4*%
X87600000Y-75900000D03*
%TO.P,U8,11,DIO5*%
%TO.N,/LORA/LORA_DIO5*%
X85600000Y-75900000D03*
%TO.P,U8,12,SCK*%
%TO.N,/LORA/LORA.CLK*%
X83600000Y-75900000D03*
%TO.P,U8,13,MISO*%
%TO.N,/LORA/LORA.MISO*%
X81600000Y-75900000D03*
%TO.P,U8,14,MOSI*%
%TO.N,/LORA/LORA.MOSI*%
X79600000Y-75900000D03*
%TO.P,U8,15,~{NSS}*%
%TO.N,/LORA/LORA.CS*%
X77600000Y-75900000D03*
%TO.P,U8,16,GND*%
%TO.N,GND*%
X75600000Y-75900000D03*
%TD*%
D13*
%TO.P,R27,1*%
%TO.N,+5V*%
X59150000Y-57749999D03*
%TO.P,R27,2*%
%TO.N,/MCU/V_SENSE*%
X60150000Y-57749999D03*
%TD*%
D25*
%TO.P,H1,1,1*%
%TO.N,GND*%
X95660000Y-30640000D03*
%TO.P,H1,2,2*%
X95660000Y-28100000D03*
%TO.P,H1,3,3*%
%TO.N,+VBAT*%
X93120000Y-30640000D03*
%TO.P,H1,4,4*%
X93120000Y-28100000D03*
%TO.P,H1,5,5*%
X90580000Y-30640000D03*
%TO.P,H1,6,6*%
X90580000Y-28100000D03*
%TO.P,H1,7,7*%
%TO.N,GND*%
X88040000Y-30640000D03*
%TO.P,H1,8,8*%
X88040000Y-28100000D03*
%TO.P,H1,9,9*%
%TO.N,+5V_unprotected*%
X85500000Y-30640000D03*
%TO.P,H1,10,10*%
X85500000Y-28100000D03*
%TO.P,H1,11,11*%
X82960000Y-30640000D03*
%TO.P,H1,12,12*%
X82960000Y-28100000D03*
%TO.P,H1,13,13*%
%TO.N,GND*%
X80420000Y-30640000D03*
%TO.P,H1,14,14*%
X80420000Y-28100000D03*
%TO.P,H1,15,15*%
%TO.N,/BUS_CONNECTOR/CAN1.+*%
X77880000Y-30640000D03*
%TO.P,H1,16,16*%
%TO.N,/BUS_CONNECTOR/CAN2.+*%
X77880000Y-28100000D03*
%TO.P,H1,17,17*%
%TO.N,/BUS_CONNECTOR/CAN1.-*%
X75340000Y-30640000D03*
%TO.P,H1,18,18*%
%TO.N,/BUS_CONNECTOR/CAN2.-*%
X75340000Y-28100000D03*
%TO.P,H1,19,19*%
%TO.N,GND*%
X72800000Y-30640000D03*
%TO.P,H1,20,20*%
X72800000Y-28100000D03*
%TO.P,H1,21,21*%
%TO.N,/BUS_CONNECTOR/USB1.D+*%
X70260000Y-30640000D03*
%TO.P,H1,22,22*%
%TO.N,/BUS_CONNECTOR/USB2.D+*%
X70260000Y-28100000D03*
%TO.P,H1,23,23*%
%TO.N,/BUS_CONNECTOR/USB1.D-*%
X67720000Y-30640000D03*
%TO.P,H1,24,24*%
%TO.N,/BUS_CONNECTOR/USB2.D-*%
X67720000Y-28100000D03*
%TO.P,H1,25,25*%
%TO.N,/BUS_CONNECTOR/USB5.D+*%
X65180000Y-30640000D03*
%TO.P,H1,26,26*%
%TO.N,/BUS_CONNECTOR/USB6.D+*%
X65180000Y-28100000D03*
%TO.P,H1,27,27*%
%TO.N,/BUS_CONNECTOR/USB5.D-*%
X62640000Y-30640000D03*
%TO.P,H1,28,28*%
%TO.N,/BUS_CONNECTOR/USB6.D-*%
X62640000Y-28100000D03*
%TO.P,H1,29,29*%
%TO.N,/BUS_CONNECTOR/USB9.D+*%
X60100000Y-30640000D03*
%TO.P,H1,30,30*%
%TO.N,/BUS_CONNECTOR/USB10.D+*%
X60100000Y-28100000D03*
%TO.P,H1,31,31*%
%TO.N,/BUS_CONNECTOR/USB9.D-*%
X57560000Y-30640000D03*
%TO.P,H1,32,32*%
%TO.N,/BUS_CONNECTOR/USB10.D-*%
X57560000Y-28100000D03*
%TO.P,H1,33,33*%
%TO.N,GND*%
X55020000Y-30640000D03*
%TO.P,H1,34,34*%
X55020000Y-28100000D03*
%TO.P,H1,35,35*%
%TO.N,/BUS_CONNECTOR/GPIO0*%
X52480000Y-30640000D03*
%TO.P,H1,36,36*%
%TO.N,/BUS_CONNECTOR/GPIO8*%
X52480000Y-28100000D03*
%TO.P,H1,37,37*%
%TO.N,/BUS_CONNECTOR/GPIO1*%
X49940000Y-30640000D03*
%TO.P,H1,38,38*%
%TO.N,/BUS_CONNECTOR/GPIO9*%
X49940000Y-28100000D03*
%TO.P,H1,39,39*%
%TO.N,/BUS_CONNECTOR/GPIO2*%
X47400000Y-30640000D03*
%TO.P,H1,40,40*%
%TO.N,/BUS_CONNECTOR/GPIO10*%
X47400000Y-28100000D03*
%TO.P,H1,41,41*%
%TO.N,/BUS_CONNECTOR/GPIO3*%
X44860000Y-30640000D03*
%TO.P,H1,42,42*%
%TO.N,/BUS_CONNECTOR/GPIO11*%
X44860000Y-28100000D03*
%TO.P,H1,43,43*%
%TO.N,/BUS_CONNECTOR/GPIO4*%
X42320000Y-30640000D03*
%TO.P,H1,44,44*%
%TO.N,/BUS_CONNECTOR/GPIO12*%
X42320000Y-28100000D03*
%TO.P,H1,45,45*%
%TO.N,/BUS_CONNECTOR/GPIO5*%
X39780000Y-30640000D03*
%TO.P,H1,46,46*%
%TO.N,/BUS_CONNECTOR/GPIO13*%
X39780000Y-28100000D03*
%TO.P,H1,47,47*%
%TO.N,/BUS_CONNECTOR/GPIO6*%
X37240000Y-30640000D03*
%TO.P,H1,48,48*%
%TO.N,/BUS_CONNECTOR/GPIO14*%
X37240000Y-28100000D03*
%TO.P,H1,49,49*%
%TO.N,/BUS_CONNECTOR/GPIO7*%
X34700000Y-30640000D03*
%TO.P,H1,50,50*%
%TO.N,/BUS_CONNECTOR/GPIO15*%
X34700000Y-28100000D03*
%TO.P,H1,51,51*%
%TO.N,GND*%
X32160000Y-30640000D03*
%TO.P,H1,52,52*%
X32160000Y-28100000D03*
%TD*%
D41*
%TO.P,D3,1*%
%TO.N,/ST-LINK/LED*%
X96950000Y-49950000D03*
%TO.P,D3,2*%
%TO.N,Net-(D3-Pad2)*%
X98529998Y-49950000D03*
%TD*%
D19*
%TO.P,C20,1*%
%TO.N,+3V3*%
X73100000Y-86500001D03*
%TO.P,C20,2*%
%TO.N,GND*%
X73100000Y-87499999D03*
%TD*%
D13*
%TO.P,C16,1*%
%TO.N,+5V_unprotected*%
X83495000Y-38512500D03*
%TO.P,C16,2*%
%TO.N,Net-(U2-VCAP)*%
X84455000Y-38512500D03*
%TD*%
D10*
%TO.P,FB1,1*%
%TO.N,+3V3*%
X63487499Y-67104998D03*
%TO.P,FB1,2*%
%TO.N,/MCU/+VDDA*%
X63487499Y-65525000D03*
%TD*%
D42*
%TO.P,D9,1*%
%TO.N,Net-(D9-Pad1)*%
X104344999Y-40735000D03*
%TO.P,D9,2*%
%TO.N,+5V*%
X104344999Y-42314998D03*
%TD*%
D13*
%TO.P,R19,1*%
%TO.N,Net-(U11-D+)*%
X99100002Y-60799999D03*
%TO.P,R19,2*%
%TO.N,/USB-C/EXTUSB.D+*%
X100100000Y-60799999D03*
%TD*%
D14*
%TO.P,C49,1*%
%TO.N,+5V*%
X102087500Y-42574998D03*
%TO.P,C49,2*%
%TO.N,GND*%
X102087500Y-41575000D03*
%TD*%
D42*
%TO.P,D2,1*%
%TO.N,GND*%
X106750000Y-47960001D03*
%TO.P,D2,2*%
%TO.N,Net-(D2-Pad2)*%
X106750000Y-49539999D03*
%TD*%
%TO.P,D12,1*%
%TO.N,GND*%
X106750000Y-44750000D03*
%TO.P,D12,2*%
%TO.N,Net-(D12-Pad2)*%
X106750000Y-46329998D03*
%TD*%
D43*
%TO.P,U4,1,GND*%
%TO.N,GND*%
X104700000Y-28200000D03*
%TO.P,U4,2,VO*%
%TO.N,+3V3*%
X102400000Y-28200001D03*
D44*
X102400000Y-34499999D03*
D43*
%TO.P,U4,3,VI*%
%TO.N,+5V*%
X100100000Y-28200000D03*
%TD*%
D31*
%TO.P,,1*%
%TO.N,N/C*%
X100700000Y-23100000D03*
%TD*%
D45*
%TO.P,U5,1,VBAT*%
%TO.N,/MCU/+VDDA*%
X64812499Y-55275000D03*
%TO.P,U5,2,PC13*%
%TO.N,/BUS_CONNECTOR/GPIO0*%
X64812499Y-55775000D03*
%TO.P,U5,3,PC14*%
%TO.N,/MCU/OSC32_IN*%
X64812499Y-56275000D03*
%TO.P,U5,4,PC15*%
%TO.N,/MCU/OSC32_OUT*%
X64812499Y-56775000D03*
%TO.P,U5,5,PH0*%
%TO.N,/MCU/OSC_IN*%
X64812499Y-57275000D03*
%TO.P,U5,6,PH1*%
%TO.N,/MCU/OSC_OUT*%
X64812499Y-57775000D03*
%TO.P,U5,7,NRST*%
%TO.N,/MCU/SWD.~{RST}*%
X64812499Y-58275000D03*
%TO.P,U5,8,PC0*%
%TO.N,/MCU/V_SENSE*%
X64812499Y-58775000D03*
%TO.P,U5,9,PC1*%
%TO.N,/LORA/LORA.MOSI*%
X64812499Y-59275000D03*
%TO.P,U5,10,PC2*%
%TO.N,/LORA/LORA.MISO*%
X64812499Y-59775000D03*
%TO.P,U5,11,PC3*%
%TO.N,/BUS_CONNECTOR/GPIO8*%
X64812499Y-60275000D03*
%TO.P,U5,12,VSSA*%
%TO.N,GND*%
X64812499Y-60775000D03*
%TO.P,U5,13,VDDA*%
%TO.N,/MCU/+VDDA*%
X64812499Y-61275000D03*
%TO.P,U5,14,PA0*%
%TO.N,/BUS_CONNECTOR/GPIO16*%
X64812499Y-61775000D03*
%TO.P,U5,15,PA1*%
%TO.N,/BUS_CONNECTOR/GPIO24*%
X64812499Y-62275000D03*
%TO.P,U5,16,PA2*%
%TO.N,/BUS_CONNECTOR/GPIO1*%
X64812499Y-62775000D03*
D46*
%TO.P,U5,17,PA3*%
%TO.N,/BUS_CONNECTOR/GPIO9*%
X66737499Y-64700000D03*
%TO.P,U5,18,VSS*%
%TO.N,GND*%
X67237499Y-64700000D03*
%TO.P,U5,19,VDD*%
%TO.N,/MCU/+VDDA*%
X67737499Y-64700000D03*
%TO.P,U5,20,PA4*%
%TO.N,/BUS_CONNECTOR/GPIO17*%
X68237499Y-64700000D03*
%TO.P,U5,21,PA5*%
%TO.N,/LORA/LORA_DIO0*%
X68737499Y-64700000D03*
%TO.P,U5,22,PA6*%
%TO.N,/LORA/LORA_DIO1*%
X69237499Y-64700000D03*
%TO.P,U5,23,PA7*%
%TO.N,/LORA/LORA_DIO2*%
X69737499Y-64700000D03*
%TO.P,U5,24,PC4*%
%TO.N,/LORA/LORA_DIO3*%
X70237499Y-64700000D03*
%TO.P,U5,25,PC5*%
%TO.N,/LORA/LORA_DIO4*%
X70737499Y-64700000D03*
%TO.P,U5,26,PB0*%
%TO.N,/LORA/LORA_DIO5*%
X71237499Y-64700000D03*
%TO.P,U5,27,PB1*%
%TO.N,/LORA/LORA.CS*%
X71737499Y-64700000D03*
%TO.P,U5,28,PB2*%
%TO.N,/LORA/~{LORA_RESET}*%
X72237499Y-64700000D03*
%TO.P,U5,29,PB10*%
%TO.N,/LORA/LORA.CLK*%
X72737499Y-64700000D03*
%TO.P,U5,30,VCAP*%
%TO.N,Net-(U5-VCAP)*%
X73237499Y-64700000D03*
%TO.P,U5,31,VSS*%
%TO.N,GND*%
X73737499Y-64700000D03*
%TO.P,U5,32,VDD*%
%TO.N,/MCU/+VDDA*%
X74237499Y-64700000D03*
D45*
%TO.P,U5,33,PB12*%
%TO.N,/BUS_CONNECTOR/GPIO18*%
X76162499Y-62775000D03*
%TO.P,U5,34,PB13*%
%TO.N,/BUS_CONNECTOR/GPIO26*%
X76162499Y-62275000D03*
%TO.P,U5,35,PB14*%
%TO.N,/BUS_CONNECTOR/GPIO3*%
X76162499Y-61775000D03*
%TO.P,U5,36,PB15*%
%TO.N,/BUS_CONNECTOR/GPIO11*%
X76162499Y-61275000D03*
%TO.P,U5,37,PC6*%
%TO.N,/BUS_CONNECTOR/GPIO19*%
X76162499Y-60775000D03*
%TO.P,U5,38,PC7*%
%TO.N,/BUS_CONNECTOR/GPIO27*%
X76162499Y-60275000D03*
%TO.P,U5,39,PC8*%
%TO.N,/BUS_CONNECTOR/GPIO4*%
X76162499Y-59775000D03*
%TO.P,U5,40,PC9*%
%TO.N,/BUS_CONNECTOR/GPIO12*%
X76162499Y-59275000D03*
%TO.P,U5,41,PA8*%
%TO.N,/MCU/STATUS_LED*%
X76162499Y-58775000D03*
%TO.P,U5,42,PA9*%
%TO.N,/MCU/USER_LED_2*%
X76162499Y-58275000D03*
%TO.P,U5,43,PA10*%
%TO.N,/MCU/USER_LED_1*%
X76162499Y-57775000D03*
%TO.P,U5,44,PA11*%
%TO.N,/MCU/USB_MCU.D-*%
X76162499Y-57275000D03*
%TO.P,U5,45,PA12*%
%TO.N,/MCU/USB_MCU.D+*%
X76162499Y-56775000D03*
%TO.P,U5,46,PA13*%
%TO.N,/MCU/SWD.SWDIO*%
X76162499Y-56275000D03*
%TO.P,U5,47,VSS*%
%TO.N,GND*%
X76162499Y-55775000D03*
%TO.P,U5,48,VDDUSB*%
%TO.N,/MCU/+VDDA*%
X76162499Y-55275000D03*
D46*
%TO.P,U5,49,PA14*%
%TO.N,/MCU/SWD.SWCLK*%
X74237499Y-53350000D03*
%TO.P,U5,50,PA15*%
%TO.N,/BUS_CONNECTOR/GPIO10*%
X73737499Y-53350000D03*
%TO.P,U5,51,PC10*%
%TO.N,/MCU/STLINK_UART.RX*%
X73237499Y-53350000D03*
%TO.P,U5,52,PC11*%
%TO.N,/MCU/STLINK_UART.TX*%
X72737499Y-53350000D03*
%TO.P,U5,53,PC12*%
%TO.N,/BUS_CONNECTOR/GPIO2*%
X72237499Y-53350000D03*
%TO.P,U5,54,PD2*%
%TO.N,/BUS_CONNECTOR/GPIO25*%
X71737499Y-53350000D03*
%TO.P,U5,55,PB3*%
%TO.N,/MCU/CAN_TRANSIVER.CLK*%
X71237499Y-53350000D03*
%TO.P,U5,56,PB4*%
%TO.N,/MCU/CAN_TRANSIVER.MISO*%
X70737499Y-53350000D03*
%TO.P,U5,57,PB5*%
%TO.N,/MCU/CAN_TRANSIVER.MOSI*%
X70237499Y-53350000D03*
%TO.P,U5,58,PB6*%
%TO.N,/MCU/CAN_TRANSIVER.CS*%
X69737499Y-53350000D03*
%TO.P,U5,59,PB7*%
%TO.N,/MCU/BOOT_EN*%
X69237499Y-53350000D03*
%TO.P,U5,60,PH3*%
%TO.N,/MCU/BOOT*%
X68737499Y-53350000D03*
%TO.P,U5,61,PB8*%
%TO.N,/MCU/CAN.RX*%
X68237499Y-53350000D03*
%TO.P,U5,62,PB9*%
%TO.N,/MCU/CAN.TX*%
X67737499Y-53350000D03*
%TO.P,U5,63,VSS*%
%TO.N,GND*%
X67237499Y-53350000D03*
%TO.P,U5,64,VDD*%
%TO.N,/MCU/+VDDA*%
X66737499Y-53350000D03*
%TD*%
D47*
%TO.P,Q2,1,B*%
%TO.N,Net-(Q2-B)*%
X93250000Y-41337500D03*
%TO.P,Q2,2,E*%
%TO.N,Net-(Q2-E)*%
X95150000Y-41337500D03*
%TO.P,Q2,3,C*%
%TO.N,+3V3*%
X94200000Y-39462500D03*
%TD*%
D19*
%TO.P,C11,1*%
%TO.N,+5V*%
X97500000Y-33900001D03*
%TO.P,C11,2*%
%TO.N,GND*%
X97500000Y-34899999D03*
%TD*%
%TO.P,R54,1*%
%TO.N,Net-(Q2-B)*%
X92000000Y-40962501D03*
%TO.P,R54,2*%
%TO.N,GND*%
X92000000Y-41962499D03*
%TD*%
D13*
%TO.P,C9,1*%
%TO.N,/MCU/+VDDA*%
X74387500Y-66225000D03*
%TO.P,C9,2*%
%TO.N,GND*%
X75387498Y-66225000D03*
%TD*%
D14*
%TO.P,C34,1*%
%TO.N,+3V3*%
X93400000Y-45699999D03*
%TO.P,C34,2*%
%TO.N,GND*%
X93400000Y-44700001D03*
%TD*%
D19*
%TO.P,R17,1*%
%TO.N,/BUS_CONNECTOR/USB1.D+*%
X96650000Y-57400001D03*
%TO.P,R17,2*%
%TO.N,Net-(U11-HSD1+)*%
X96650000Y-58399999D03*
%TD*%
%TO.P,C3,1*%
%TO.N,/can_tranciver/WAKE*%
X103500000Y-70500000D03*
%TO.P,C3,2*%
%TO.N,GND*%
X103500000Y-71500000D03*
%TD*%
D26*
%TO.P,X4,1,1*%
%TO.N,/MCU/OSC_IN*%
X58250000Y-51949999D03*
%TO.P,X4,2,2*%
%TO.N,GND*%
X58250000Y-54149999D03*
%TO.P,X4,3,3*%
%TO.N,/MCU/OSC_OUT*%
X59850000Y-54149999D03*
%TO.P,X4,4,4*%
%TO.N,GND*%
X59850000Y-51949999D03*
%TD*%
D42*
%TO.P,D7,1*%
%TO.N,GND*%
X106750000Y-51210001D03*
%TO.P,D7,2*%
%TO.N,Net-(D7-Pad2)*%
X106750000Y-52789999D03*
%TD*%
D48*
%TO.P,J2,1,In*%
%TO.N,/LORA/RF*%
X89680000Y-98700000D03*
%TO.P,J2,2,Ext*%
%TO.N,GND*%
X92220000Y-96160000D03*
X87140000Y-96160000D03*
X92220000Y-101240000D03*
X87140000Y-101240000D03*
%TD*%
D14*
%TO.P,C30,1*%
%TO.N,/MCU/+VDDA*%
X63187499Y-61824999D03*
%TO.P,C30,2*%
%TO.N,GND*%
X63187499Y-60825001D03*
%TD*%
D13*
%TO.P,C35,1*%
%TO.N,+3V3*%
X86000000Y-43250000D03*
%TO.P,C35,2*%
%TO.N,GND*%
X87000000Y-43250000D03*
%TD*%
D14*
%TO.P,C48,1*%
%TO.N,Net-(U12-3V3)*%
X101237500Y-42574998D03*
%TO.P,C48,2*%
%TO.N,GND*%
X101237500Y-41575000D03*
%TD*%
%TO.P,C51,1*%
%TO.N,/MCU/OSC32_OUT*%
X61050000Y-50749996D03*
%TO.P,C51,2*%
%TO.N,GND*%
X61050000Y-49749998D03*
%TD*%
D19*
%TO.P,C46,1*%
%TO.N,+3V3*%
X97000000Y-62950001D03*
%TO.P,C46,2*%
%TO.N,GND*%
X97000000Y-63949999D03*
%TD*%
D14*
%TO.P,C43,1*%
%TO.N,+3V3*%
X82900000Y-46299999D03*
%TO.P,C43,2*%
%TO.N,GND*%
X82900000Y-45300001D03*
%TD*%
D12*
%TO.P,C25,1*%
%TO.N,+3V3*%
X81399999Y-51200000D03*
%TO.P,C25,2*%
%TO.N,GND*%
X80400001Y-51200000D03*
%TD*%
D19*
%TO.P,R22,1*%
%TO.N,Net-(D8-Pad1)*%
X99700000Y-48400000D03*
%TO.P,R22,2*%
%TO.N,GND*%
X99700000Y-49400000D03*
%TD*%
D49*
%TO.P,U1,1,I/O1*%
%TO.N,/USB-C/USB2S.D-*%
X96350000Y-70137500D03*
%TO.P,U1,2,GND*%
%TO.N,GND*%
X97300000Y-70137500D03*
%TO.P,U1,3,I/O2*%
%TO.N,/USB-C/USB2S.D+*%
X98250000Y-70137500D03*
%TO.P,U1,4,I/O2*%
X98250000Y-67862500D03*
%TO.P,U1,5,VBUS*%
%TO.N,/USB-C/VBUS_IN*%
X97300000Y-67862500D03*
%TO.P,U1,6,I/O1*%
%TO.N,/USB-C/USB2S.D-*%
X96350000Y-67862500D03*
%TD*%
D19*
%TO.P,R49,1*%
%TO.N,Net-(U7-PA0)*%
X80450000Y-52100001D03*
%TO.P,R49,2*%
%TO.N,GND*%
X80450000Y-53099999D03*
%TD*%
D12*
%TO.P,C2,1*%
%TO.N,/MCU/SWD.~{RST}*%
X60149999Y-55449999D03*
%TO.P,C2,2*%
%TO.N,GND*%
X59150001Y-55449999D03*
%TD*%
D19*
%TO.P,C10,1*%
%TO.N,/MCU/+VDDA*%
X77687499Y-54725001D03*
%TO.P,C10,2*%
%TO.N,GND*%
X77687499Y-55724999D03*
%TD*%
D14*
%TO.P,R3,1*%
%TO.N,/MCU/BOOT_EN*%
X70737499Y-50146392D03*
%TO.P,R3,2*%
%TO.N,/MCU/BOOT*%
X70737499Y-49146394D03*
%TD*%
D13*
%TO.P,C17,1*%
%TO.N,GND*%
X70900000Y-46400000D03*
%TO.P,C17,2*%
%TO.N,+5V_unprotected*%
X71900000Y-46400000D03*
%TD*%
D19*
%TO.P,R62,1*%
%TO.N,Net-(D10-Pad1)*%
X82850000Y-42540001D03*
%TO.P,R62,2*%
%TO.N,GND*%
X82850000Y-43539999D03*
%TD*%
D13*
%TO.P,R20,1*%
%TO.N,Net-(U11-D-)*%
X99100003Y-59949999D03*
%TO.P,R20,2*%
%TO.N,/USB-C/EXTUSB.D-*%
X100100001Y-59949999D03*
%TD*%
D12*
%TO.P,R10,1*%
%TO.N,GND*%
X88899999Y-43250000D03*
%TO.P,R10,2*%
%TO.N,/ST-LINK/STLINK-BOOT0*%
X87900001Y-43250000D03*
%TD*%
D19*
%TO.P,C14,1*%
%TO.N,+3V3*%
X102549999Y-36474998D03*
%TO.P,C14,2*%
%TO.N,GND*%
X102549999Y-37474996D03*
%TD*%
D14*
%TO.P,C47,1*%
%TO.N,Net-(U12-3V3)*%
X100387500Y-42574998D03*
%TO.P,C47,2*%
%TO.N,GND*%
X100387500Y-41575000D03*
%TD*%
%TO.P,C7,1*%
%TO.N,+3V3*%
X82000000Y-46499999D03*
%TO.P,C7,2*%
%TO.N,GND*%
X82000000Y-45500001D03*
%TD*%
D12*
%TO.P,R14,1*%
%TO.N,/POWER/POWER_EN*%
X86649999Y-34100000D03*
%TO.P,R14,2*%
%TO.N,Net-(U2-EN)*%
X85650001Y-34100000D03*
%TD*%
D14*
%TO.P,C1,1*%
%TO.N,/MCU/BOOT*%
X68937499Y-50146392D03*
%TO.P,C1,2*%
%TO.N,GND*%
X68937499Y-49146394D03*
%TD*%
%TO.P,C19,1*%
%TO.N,/ST-LINK/STLINK-OSC_IN*%
X83400000Y-48200000D03*
%TO.P,C19,2*%
%TO.N,GND*%
X83400000Y-47200000D03*
%TD*%
D19*
%TO.P,C6,1*%
%TO.N,/ST-LINK/STLINK-OSC_OUT*%
X83400000Y-49100000D03*
%TO.P,C6,2*%
%TO.N,GND*%
X83400000Y-50100000D03*
%TD*%
%TO.P,R25,1*%
%TO.N,Net-(U7-PB14)*%
X95000000Y-51150001D03*
%TO.P,R25,2*%
%TO.N,Net-(U7-PB12)*%
X95000000Y-52149999D03*
%TD*%
D50*
%TO.N,GND*%
X94500000Y-97500000D03*
X99100000Y-78500000D03*
X84500000Y-102000000D03*
D51*
X104900000Y-32000000D03*
D50*
X97000000Y-103500000D03*
X107000000Y-90000000D03*
X89600000Y-75900000D03*
X98493261Y-85256874D03*
X99500000Y-96000000D03*
X79500000Y-96000000D03*
X74500000Y-103500000D03*
X84500000Y-96000000D03*
X99500000Y-97500000D03*
D51*
X61750000Y-47849999D03*
D50*
X74200000Y-63300000D03*
X87000000Y-103500000D03*
X99500000Y-93000000D03*
X104500000Y-102000000D03*
X58424933Y-58000233D03*
D51*
X61100000Y-55300000D03*
X104300000Y-46300000D03*
D50*
X102000000Y-99000000D03*
X107000000Y-91500000D03*
X104500000Y-91500000D03*
X102087500Y-45175000D03*
X99600000Y-64000000D03*
X104500000Y-90000000D03*
D51*
X94950000Y-45700000D03*
X105500000Y-29600000D03*
D50*
X99500000Y-103500000D03*
X102000000Y-90000000D03*
X107000000Y-93000000D03*
D51*
X74900000Y-36750000D03*
D50*
X94500000Y-100500000D03*
X97000000Y-94500000D03*
X99500000Y-91500000D03*
X82000000Y-103500000D03*
D51*
X105300000Y-44300000D03*
D50*
X94500000Y-91500000D03*
X102000000Y-91500000D03*
X82000000Y-97500000D03*
D51*
X58250000Y-53149999D03*
D50*
X98800000Y-59100000D03*
X94500000Y-99000000D03*
X97000000Y-100500000D03*
X86900000Y-42300000D03*
D51*
X78387499Y-55725000D03*
D50*
X99500000Y-102000000D03*
D51*
X105500000Y-32000000D03*
D50*
X99500000Y-94500000D03*
X92000000Y-103500000D03*
X87000000Y-94500000D03*
D51*
X105500000Y-30200000D03*
D50*
X97000000Y-102000000D03*
X82205001Y-53895000D03*
D51*
X80600000Y-50050000D03*
D50*
X104500000Y-97500000D03*
X77000000Y-102000000D03*
D51*
X61850000Y-51549999D03*
D50*
X82000000Y-100500000D03*
X77000000Y-100500000D03*
X97000000Y-96000000D03*
X95200000Y-63900000D03*
X97400000Y-42875002D03*
X82000000Y-102000000D03*
D51*
X61650000Y-49849999D03*
D50*
X104500000Y-99000000D03*
D51*
X82200000Y-47850000D03*
D50*
X104500000Y-93000000D03*
X85100000Y-35800000D03*
D51*
X75387499Y-66925000D03*
X66987499Y-51175000D03*
X63600000Y-53600000D03*
X66587499Y-67025000D03*
D50*
X89500000Y-94500000D03*
X91700000Y-42700000D03*
D51*
X95550000Y-48500000D03*
D50*
X92000000Y-91500000D03*
X97700000Y-78750000D03*
X73500000Y-93000000D03*
X89650000Y-43250000D03*
X92000000Y-90000000D03*
X74500000Y-97500000D03*
X103500000Y-74300000D03*
D51*
X74700000Y-67600000D03*
X104300000Y-31400000D03*
X91900000Y-47000000D03*
D50*
X102000000Y-103500000D03*
X75500000Y-90000000D03*
X73500000Y-91000000D03*
X94500000Y-103500000D03*
D51*
X74950000Y-34500000D03*
D50*
X104500000Y-103500000D03*
X102000000Y-97500000D03*
X77000000Y-94500000D03*
X83100000Y-44400000D03*
X97000000Y-93000000D03*
X107000000Y-99000000D03*
D51*
X104300000Y-29600000D03*
D50*
X97000000Y-97500000D03*
X92000000Y-94500000D03*
X102000000Y-96000000D03*
X104500000Y-94500000D03*
X70100000Y-46400000D03*
X82000000Y-96000000D03*
X94500000Y-102000000D03*
X97000000Y-90000000D03*
X74500000Y-96000000D03*
X69748144Y-48248144D03*
X79500000Y-103500000D03*
X84500000Y-100500000D03*
X72000000Y-44000000D03*
X107000000Y-96000000D03*
D51*
X104900000Y-30800000D03*
D50*
X77000000Y-103500000D03*
X84500000Y-94500000D03*
X97000000Y-99000000D03*
X97300000Y-69400000D03*
X82000000Y-94500000D03*
X94500000Y-94500000D03*
X84500000Y-97500000D03*
X106750000Y-43750000D03*
X107000000Y-102000000D03*
X71150000Y-35600000D03*
D51*
X104300000Y-30200000D03*
D50*
X90500000Y-51800000D03*
X104500000Y-96000000D03*
X74500000Y-102000000D03*
D51*
X105500000Y-31400000D03*
D50*
X77000000Y-99000000D03*
X92000000Y-93000000D03*
D51*
X102800000Y-59800000D03*
X104900000Y-29600000D03*
D50*
X104500000Y-100500000D03*
X79500000Y-94500000D03*
X95200000Y-35000000D03*
D51*
X104300000Y-30800000D03*
D50*
X96650000Y-47200000D03*
X74500000Y-94500000D03*
X89500000Y-103500000D03*
X94500000Y-90000000D03*
X99500000Y-99000000D03*
X84500000Y-103500000D03*
X80405001Y-53895000D03*
X74500000Y-100500000D03*
X103500000Y-72400000D03*
D51*
X84600000Y-57800000D03*
X105900000Y-45600000D03*
D50*
X95900000Y-35000000D03*
X77600000Y-90200000D03*
X99087500Y-40525000D03*
X99500000Y-100500000D03*
D51*
X104900000Y-30200000D03*
D50*
X73500000Y-90000000D03*
D51*
X87000000Y-57800000D03*
D50*
X102000000Y-94500000D03*
X107000000Y-94500000D03*
X94500000Y-96000000D03*
X79500000Y-97500000D03*
X79500000Y-100500000D03*
D51*
X62487499Y-60825000D03*
X104900000Y-31400000D03*
D50*
X97000000Y-91500000D03*
X107000000Y-100500000D03*
X79500000Y-102000000D03*
X92650000Y-44700000D03*
X107000000Y-97500000D03*
X103500000Y-59700000D03*
X74500000Y-99000000D03*
X86800000Y-50100000D03*
X102000000Y-102000000D03*
X99500000Y-90000000D03*
X100427751Y-48993796D03*
X75600000Y-75900000D03*
X94500000Y-93000000D03*
D51*
X104300000Y-32000000D03*
D50*
X81200000Y-44400000D03*
X102000000Y-100500000D03*
X73500000Y-92000000D03*
X102000000Y-93000000D03*
D51*
X105500000Y-30800000D03*
D50*
X83000000Y-34300000D03*
D51*
%TO.N,/MCU/SWD.~{RST}*%
X90525000Y-54675000D03*
X63225263Y-58300000D03*
X102900000Y-53200000D03*
%TO.N,/ST-LINK/STLINK-RST*%
X83700000Y-51950000D03*
X86350000Y-49250000D03*
D50*
%TO.N,/MCU/+VDDA*%
X62487499Y-61825000D03*
X78387499Y-54725000D03*
D51*
X63387499Y-64525000D03*
D50*
X74387499Y-66925000D03*
D51*
X65187499Y-64525000D03*
D50*
X65087499Y-51825000D03*
D51*
X64587499Y-64525000D03*
D50*
X64700000Y-53420997D03*
X67787499Y-67025000D03*
D51*
X63987499Y-64525000D03*
D50*
%TO.N,+5V*%
X59500000Y-57100000D03*
X82100000Y-35000000D03*
X72306297Y-35638929D03*
D51*
%TO.N,+3V3*%
X62387499Y-67025000D03*
D50*
X74900000Y-48400000D03*
D51*
X101600000Y-31700000D03*
D50*
X83005001Y-53895000D03*
D51*
X62395755Y-66371403D03*
X101600000Y-32900000D03*
X102800000Y-32300000D03*
D50*
X85400000Y-38600000D03*
D51*
X102800000Y-30500000D03*
X102800000Y-31100000D03*
D50*
X71100000Y-86500000D03*
D51*
X102200000Y-32300000D03*
X101600000Y-30500000D03*
D50*
X99100000Y-51050000D03*
D51*
X102200000Y-31700000D03*
D50*
X81100000Y-46500000D03*
D51*
X62387499Y-65125000D03*
D50*
X58250000Y-56349999D03*
X92600000Y-45700000D03*
X71100000Y-87300000D03*
D51*
X102200000Y-31100000D03*
D50*
X91725000Y-52087803D03*
X87200000Y-51100000D03*
D51*
X62387499Y-65725000D03*
D50*
X85300000Y-43250000D03*
D51*
X102200000Y-32900000D03*
X101600000Y-32300000D03*
D50*
X81305001Y-53895000D03*
X94200000Y-38400000D03*
D51*
X102800000Y-31700000D03*
D50*
X103500000Y-65100000D03*
D51*
X102800000Y-32900000D03*
X102200000Y-30500000D03*
D50*
X105500000Y-72400000D03*
D51*
X101600000Y-31100000D03*
D50*
X97050001Y-62149999D03*
D51*
%TO.N,/USB-C/VBUS_IN*%
X100000000Y-68700000D03*
X97300000Y-68650000D03*
%TO.N,/ST-LINK/STLINK-BOOT0*%
X88300000Y-46200000D03*
D50*
%TO.N,/ST-LINK/ST-LINK.D+*%
X95184834Y-47134834D03*
X95377283Y-45074776D03*
%TO.N,/MCU/USB_MCU.D-*%
X101237500Y-51101303D03*
X85358569Y-57772926D03*
%TO.N,/MCU/USB_MCU.D+*%
X86108569Y-57772926D03*
X101987500Y-51101303D03*
%TO.N,/ST-LINK/ST-LINK.D-*%
X95715166Y-47665166D03*
X95907615Y-44544444D03*
D51*
%TO.N,/ST-LINK/DIO*%
X91300000Y-48900000D03*
%TO.N,/ST-LINK/CLK*%
X91300000Y-46700000D03*
%TO.N,/can_tranciver/WAKE*%
X77000000Y-50900000D03*
X103500000Y-67400000D03*
D50*
%TO.N,+5V_unprotected*%
X72000000Y-45300000D03*
X77112268Y-47822268D03*
D51*
%TO.N,/LORA/LORA.MISO*%
X73600000Y-62400000D03*
X73650000Y-68850000D03*
%TO.N,/LORA/~{LORA_RESET}*%
X67200000Y-69300000D03*
X72237499Y-63600000D03*
%TO.N,/LORA/LORA.MOSI*%
X73400000Y-69900000D03*
X72900000Y-61600000D03*
D50*
%TO.N,/USB-C/EXTUSB.D-*%
X103012935Y-58079673D03*
X104734834Y-45565166D03*
%TO.N,/USB-C/EXTUSB.D+*%
X105265166Y-45034834D03*
X103500000Y-58650000D03*
D51*
%TO.N,/POWER/POWER_EN*%
X83886091Y-42786091D03*
X75200000Y-49600000D03*
%TO.N,/MCU/CAN_TRANSIVER.MISO*%
X71243749Y-51843749D03*
X72100000Y-50400000D03*
%TO.N,/MCU/CAN_TRANSIVER.CS*%
X75950000Y-42700000D03*
X77400000Y-42750000D03*
%TO.N,/BUS_CONNECTOR/GPIO2*%
X72220441Y-54706814D03*
%TO.N,/BUS_CONNECTOR/GPIO11*%
X78400000Y-62000000D03*
%TO.N,/BUS_CONNECTOR/GPIO17*%
X67800000Y-63400000D03*
%TO.N,/BUS_CONNECTOR/GPIO3*%
X77800000Y-62300000D03*
%TO.N,/BUS_CONNECTOR/GPIO18*%
X76100000Y-63500000D03*
%TO.N,/BUS_CONNECTOR/GPIO27*%
X42900000Y-34200000D03*
X80000000Y-62000000D03*
%TO.N,/BUS_CONNECTOR/GPIO12*%
X81400000Y-61800000D03*
%TO.N,/BUS_CONNECTOR/GPIO8*%
X66300000Y-60500000D03*
%TO.N,/BUS_CONNECTOR/GPIO19*%
X79300000Y-62100000D03*
%TO.N,/BUS_CONNECTOR/GPIO25*%
X47900000Y-34300000D03*
X71600000Y-54500000D03*
%TO.N,/BUS_CONNECTOR/GPIO16*%
X66100000Y-61300000D03*
%TO.N,/BUS_CONNECTOR/GPIO0*%
X66700000Y-58600000D03*
%TO.N,/BUS_CONNECTOR/GPIO26*%
X45500000Y-34300000D03*
X77400000Y-63300000D03*
%TO.N,/BUS_CONNECTOR/GPIO9*%
X66200000Y-63700000D03*
%TO.N,/BUS_CONNECTOR/GPIO1*%
X63300000Y-62700000D03*
%TO.N,/BUS_CONNECTOR/GPIO10*%
X73100000Y-54700000D03*
D50*
%TO.N,/BUS_CONNECTOR/USB1.D+*%
X74900000Y-36000000D03*
X66250000Y-35950000D03*
X96700000Y-56107347D03*
D51*
%TO.N,/BUS_CONNECTOR/GPIO24*%
X50600000Y-34300000D03*
X66100000Y-62100000D03*
%TO.N,/BUS_CONNECTOR/GPIO4*%
X80645104Y-61892483D03*
D50*
%TO.N,/BUS_CONNECTOR/USB1.D-*%
X74900000Y-35249997D03*
X97450000Y-56107347D03*
X66192477Y-35202206D03*
%TD*%
D52*
%TO.N,/BUS_CONNECTOR/GPIO0*%
X66700000Y-58600000D02*
X66700000Y-56300000D01*
X66700000Y-56300000D02*
X66175000Y-55775000D01*
X66175000Y-55775000D02*
X64812499Y-55775000D01*
D53*
%TO.N,GND*%
X58424933Y-58000233D02*
X59074699Y-58649999D01*
X59074699Y-58649999D02*
X59150001Y-58649999D01*
D52*
%TO.N,/LORA/LORA.MOSI*%
X73400000Y-69900000D02*
X77351000Y-73851000D01*
X77351000Y-73851000D02*
X79051000Y-73851000D01*
X79051000Y-73851000D02*
X79600000Y-74400000D01*
X79600000Y-74400000D02*
X79600000Y-75900000D01*
%TO.N,/LORA/LORA.CS*%
X74590000Y-73240000D02*
X74590000Y-73760000D01*
X73100000Y-74000000D02*
X73750000Y-74000000D01*
X72808147Y-73708147D02*
X73100000Y-74000000D01*
X72723293Y-73623294D02*
X72808147Y-73708147D01*
X72260000Y-69965255D02*
G75*
G02*
X72500045Y-70205255I0J-240045D01*
G01*
X72299031Y-72859620D02*
X72631370Y-72527278D01*
X71500000Y-68525255D02*
G75*
G03*
X71740000Y-68765300I240000J-45D01*
G01*
X70500000Y-70805255D02*
X70500000Y-70925255D01*
X76800000Y-74000000D02*
X77600000Y-74800000D01*
X73990000Y-73760000D02*
X73990000Y-73240000D01*
X73055634Y-72612131D02*
G75*
G02*
X73055597Y-72951506I-169734J-169669D01*
G01*
X71500000Y-72125255D02*
X71500000Y-72400000D01*
X74230000Y-73000000D02*
X74350000Y-73000000D01*
X71500000Y-72005255D02*
X71500000Y-72125255D01*
X72500000Y-70205255D02*
X72500000Y-70325255D01*
X72260000Y-70565255D02*
X71500000Y-70565255D01*
X72260000Y-71765255D02*
X71740000Y-71765255D01*
X72350000Y-69125255D02*
G75*
G02*
X72110000Y-69365300I-240000J-45D01*
G01*
X73750000Y-74000000D02*
G75*
G03*
X73990000Y-73760000I0J240000D01*
G01*
X71500000Y-69365255D02*
X70740000Y-69365255D01*
X74590000Y-73760000D02*
X74590000Y-74000000D01*
X70740000Y-69965255D02*
X71500000Y-69965255D01*
X70740000Y-71165255D02*
X71500000Y-71165255D01*
X71740000Y-69365255D02*
X71500000Y-69365255D01*
X72350000Y-69005255D02*
X72350000Y-69125255D01*
X74950000Y-74650000D02*
G75*
G03*
X75190000Y-74410000I0J240000D01*
G01*
X72500000Y-71525255D02*
G75*
G02*
X72260000Y-71765300I-240000J-45D01*
G01*
X74590000Y-74410000D02*
G75*
G03*
X74830000Y-74650000I240000J0D01*
G01*
X73055634Y-72951543D02*
X72723292Y-73283882D01*
X71740000Y-71765255D02*
G75*
G03*
X71499955Y-72005255I0J-240045D01*
G01*
X71638499Y-64799000D02*
X71638499Y-65537112D01*
X72260000Y-71165255D02*
G75*
G02*
X72500045Y-71405255I0J-240045D01*
G01*
X71500000Y-70565255D02*
X70740000Y-70565255D01*
X72970782Y-72527279D02*
X73055634Y-72612131D01*
X70500000Y-70925255D02*
G75*
G03*
X70740000Y-71165300I240000J-45D01*
G01*
X71500000Y-72400000D02*
X71959619Y-72859619D01*
X70500000Y-69605255D02*
X70500000Y-69725255D01*
X75190000Y-73240000D02*
G75*
G02*
X75430000Y-73000000I240000J0D01*
G01*
X74590000Y-74000000D02*
X74590000Y-74410000D01*
X71500000Y-71165255D02*
X71740000Y-71165255D01*
X71500000Y-65675611D02*
X71500000Y-68525255D01*
X72500000Y-70325255D02*
G75*
G02*
X72260000Y-70565300I-240000J-45D01*
G01*
X73990000Y-73240000D02*
G75*
G02*
X74230000Y-73000000I240000J0D01*
G01*
X72110000Y-68765255D02*
G75*
G02*
X72350045Y-69005255I0J-240045D01*
G01*
X74830000Y-74650000D02*
X74950000Y-74650000D01*
X72500000Y-71405255D02*
X72500000Y-71525255D01*
X71959619Y-72859619D02*
G75*
G03*
X72299006Y-72859595I169681J169719D01*
G01*
X71740000Y-68765255D02*
X72110000Y-68765255D01*
X70500000Y-69725255D02*
G75*
G03*
X70740000Y-69965300I240000J-45D01*
G01*
X71737499Y-64700000D02*
X71638499Y-64799000D01*
X72723292Y-73283882D02*
G75*
G03*
X72723280Y-73623306I169708J-169718D01*
G01*
X70740000Y-70565255D02*
G75*
G03*
X70499955Y-70805255I0J-240045D01*
G01*
X74350000Y-73000000D02*
G75*
G02*
X74590000Y-73240000I0J-240000D01*
G01*
X71500000Y-69965255D02*
X72260000Y-69965255D01*
X72631370Y-72527278D02*
G75*
G02*
X72970806Y-72527254I169730J-169722D01*
G01*
X72110000Y-69365255D02*
X71740000Y-69365255D01*
X70740000Y-69365255D02*
G75*
G03*
X70499955Y-69605255I0J-240045D01*
G01*
X75550000Y-73000000D02*
G75*
G02*
X75790000Y-73240000I0J-240000D01*
G01*
X75790000Y-73760000D02*
G75*
G03*
X76030000Y-74000000I240000J0D01*
G01*
X71740000Y-71165255D02*
X72260000Y-71165255D01*
X71638499Y-65537112D02*
X71500000Y-65675611D01*
X75190000Y-74410000D02*
X75190000Y-74000000D01*
X75190000Y-74000000D02*
X75190000Y-73760000D01*
X75190000Y-73760000D02*
X75190000Y-73240000D01*
X75430000Y-73000000D02*
X75550000Y-73000000D01*
X75790000Y-73240000D02*
X75790000Y-73760000D01*
X76030000Y-74000000D02*
X76150000Y-74000000D01*
X76150000Y-74000000D02*
X76501532Y-74000000D01*
X76501532Y-74000000D02*
X76800000Y-74000000D01*
X77600000Y-74800000D02*
X77600000Y-75900000D01*
%TO.N,/LORA/LORA.CLK*%
X81586568Y-69372354D02*
X81671420Y-69457206D01*
X79145000Y-68345000D02*
X79691525Y-68891525D01*
X80709756Y-69909755D02*
X80709756Y-69909756D01*
X80172355Y-70447157D02*
X80709756Y-69909755D01*
X79748091Y-70362305D02*
X79832943Y-70447157D01*
X80822895Y-68608682D02*
G75*
G02*
X80822907Y-68948106I-169695J-169718D01*
G01*
X80822895Y-68948094D02*
X80455198Y-69315788D01*
X80455198Y-69315788D02*
X80285492Y-69485494D01*
X81445145Y-71719948D02*
G75*
G03*
X81445098Y-72059405I169755J-169752D01*
G01*
X80738043Y-68523830D02*
X80822895Y-68608682D01*
X73640662Y-68345000D02*
X79145000Y-68345000D01*
X80030937Y-68891526D02*
X80398631Y-68523829D01*
X72737499Y-67441837D02*
X73640662Y-68345000D01*
X82237104Y-71776515D02*
G75*
G02*
X82576515Y-71776514I169706J-169707D01*
G01*
X81247156Y-69372353D02*
G75*
G02*
X81586606Y-69372315I169744J-169747D01*
G01*
X72737499Y-64700000D02*
X72737499Y-67441837D01*
X80398631Y-68523829D02*
G75*
G02*
X80738006Y-68523866I169669J-169671D01*
G01*
X79691525Y-68891525D02*
G75*
G03*
X80030906Y-68891495I169675J169725D01*
G01*
X81869409Y-72144211D02*
X82237104Y-71776515D01*
X82519947Y-70305733D02*
G75*
G02*
X82519908Y-70645106I-169747J-169667D01*
G01*
X80285492Y-69485494D02*
X80285493Y-69485493D01*
X79748091Y-70022894D02*
G75*
G03*
X79748090Y-70362305I169709J-169706D01*
G01*
X81558283Y-70758282D02*
X81558283Y-70758283D01*
X80596618Y-70871421D02*
G75*
G03*
X80596644Y-71210805I169682J-169679D01*
G01*
X80285493Y-69485493D02*
X79748091Y-70022894D01*
X82095683Y-70220880D02*
G75*
G02*
X82435106Y-70220869I169717J-169720D01*
G01*
X82661369Y-71861369D02*
X83057784Y-72257784D01*
X80709756Y-69909756D02*
X81247156Y-69372353D01*
X81671420Y-69457206D02*
G75*
G02*
X81671408Y-69796606I-169720J-169694D01*
G01*
X79832943Y-70447157D02*
G75*
G03*
X80172355Y-70447157I169706J169704D01*
G01*
X80681470Y-71295684D02*
G75*
G03*
X81020882Y-71295684I169706J169704D01*
G01*
X81982547Y-71182547D02*
X81812841Y-71352252D01*
X81529997Y-72144211D02*
G75*
G03*
X81869409Y-72144211I169706J169704D01*
G01*
X81671420Y-69796618D02*
X81134019Y-70334020D01*
X81134019Y-70334020D02*
X81134020Y-70334020D01*
X81134020Y-70334020D02*
X80596618Y-70871421D01*
X80596618Y-71210832D02*
X80681470Y-71295684D01*
X81020882Y-71295684D02*
X81558283Y-70758282D01*
X81558283Y-70758283D02*
X82095683Y-70220880D01*
X82435095Y-70220881D02*
X82519947Y-70305733D01*
X82519947Y-70645145D02*
X81982546Y-71182547D01*
X81982546Y-71182547D02*
X81982547Y-71182547D01*
X81812841Y-71352252D02*
X81445145Y-71719948D01*
X81445145Y-72059359D02*
X81529997Y-72144211D01*
X82576515Y-71776515D02*
X82661369Y-71861369D01*
X83057784Y-72257784D02*
X83600000Y-72800000D01*
X83600000Y-72800000D02*
X83600000Y-75900000D01*
%TO.N,/LORA/LORA.MISO*%
X75074138Y-70174138D02*
G75*
G02*
X75074106Y-69834694I169662J169738D01*
G01*
X75441833Y-69467030D02*
G75*
G03*
X75441858Y-69127595I-169733J169730D01*
G01*
X75074138Y-69834726D02*
X75441833Y-69467030D01*
X75441833Y-69127619D02*
X75356980Y-69042766D01*
X74023751Y-69123751D02*
X73750000Y-68850000D01*
X75626220Y-70726220D02*
X75074138Y-70174138D01*
X75017568Y-69042766D02*
X74649872Y-69410461D01*
X74310461Y-69410461D02*
X74225609Y-69325609D01*
X74225609Y-69325609D02*
X74023751Y-69123751D01*
X73750000Y-68850000D02*
X73650000Y-68850000D01*
X75356980Y-69042766D02*
G75*
G03*
X75017568Y-69042766I-169706J-169704D01*
G01*
X74649872Y-69410461D02*
G75*
G02*
X74310460Y-69410462I-169706J169703D01*
G01*
X76759061Y-71859061D02*
G75*
G02*
X76759106Y-71519694I169739J169661D01*
G01*
X76334795Y-71095384D02*
G75*
G02*
X75995385Y-71095384I-169705J169703D01*
G01*
X77126756Y-71151953D02*
G75*
G03*
X77126804Y-70812494I-169656J169753D01*
G01*
X76759061Y-71519649D02*
X77126756Y-71151953D01*
X77126756Y-70812542D02*
X77041903Y-70727689D01*
X76702491Y-70727689D02*
X76334795Y-71095384D01*
X75995384Y-71095384D02*
X75910532Y-71010532D01*
X75910532Y-71010532D02*
X75626220Y-70726220D01*
X77041903Y-70727689D02*
G75*
G03*
X76702491Y-70727689I-169706J-169704D01*
G01*
X79500000Y-72800000D02*
X79800000Y-72800000D01*
X79800000Y-72800000D02*
X81600000Y-74600000D01*
X81600000Y-74600000D02*
X81600000Y-75900000D01*
X69800000Y-62400000D02*
X67175000Y-59775000D01*
X73600000Y-62400000D02*
X69800000Y-62400000D01*
X67175000Y-59775000D02*
X64812499Y-59775000D01*
%TO.N,/LORA/LORA_DIO5*%
X84100000Y-78300000D02*
X85600000Y-76800000D01*
X74400000Y-78300000D02*
X84100000Y-78300000D01*
X69602000Y-73502000D02*
X74400000Y-78300000D01*
X70255000Y-67926943D02*
X69602000Y-68579941D01*
X70591389Y-66077000D02*
X70255000Y-66413388D01*
X70255000Y-66413388D02*
X70255000Y-67926943D01*
X70594999Y-66077000D02*
X70591389Y-66077000D01*
X70946000Y-65726000D02*
X70594999Y-66077000D01*
X71138499Y-65537112D02*
X70949611Y-65726000D01*
X70949611Y-65726000D02*
X70946000Y-65726000D01*
X69602000Y-68579941D02*
X69602000Y-73502000D01*
X71138499Y-64799000D02*
X71138499Y-65537112D01*
X71237499Y-64700000D02*
X71138499Y-64799000D01*
X85600000Y-76800000D02*
X85600000Y-75900000D01*
%TO.N,/LORA/LORA_DIO4*%
X84801000Y-78949000D02*
X87600000Y-76150000D01*
X74445388Y-78949000D02*
X84801000Y-78949000D01*
X69251000Y-73754612D02*
X74445388Y-78949000D01*
X69904000Y-67781553D02*
X69251000Y-68434552D01*
X70091388Y-66077000D02*
X69904000Y-66264389D01*
X69251000Y-68434552D02*
X69251000Y-73754612D01*
X70446000Y-65726000D02*
X70094999Y-66077000D01*
X70094999Y-66077000D02*
X70091388Y-66077000D01*
X70449611Y-65726000D02*
X70446000Y-65726000D01*
X70638499Y-65537112D02*
X70449611Y-65726000D01*
X69904000Y-66264389D02*
X69904000Y-67781553D01*
X70638499Y-64799000D02*
X70638499Y-65537112D01*
X70737499Y-64700000D02*
X70638499Y-64799000D01*
X87600000Y-76150000D02*
X87600000Y-75900000D01*
%TO.N,/LORA/LORA_DIO2*%
X87600000Y-91900000D02*
X87600000Y-90825000D01*
X69449611Y-65726000D02*
X69638499Y-65537112D01*
X87600000Y-90825000D02*
X84375000Y-87600000D01*
X84375000Y-87600000D02*
X82100000Y-87600000D01*
X69445999Y-65726000D02*
X69449611Y-65726000D01*
X82100000Y-87600000D02*
X68502000Y-74002000D01*
X69638499Y-65537112D02*
X69638499Y-64799000D01*
X68502000Y-74002000D02*
X68502000Y-68190776D01*
X68502000Y-68190776D02*
X69202000Y-67490776D01*
X69202000Y-67490776D02*
X69202000Y-65970000D01*
X69202000Y-65970000D02*
X69445999Y-65726000D01*
X69638499Y-64799000D02*
X69737499Y-64700000D01*
%TO.N,/LORA/LORA_DIO1*%
X85600000Y-91900000D02*
X85600000Y-90700000D01*
X68949611Y-65726000D02*
X69138499Y-65537112D01*
X85600000Y-90700000D02*
X82851000Y-87951000D01*
X81954611Y-87951000D02*
X68151000Y-74147388D01*
X82851000Y-87951000D02*
X81954611Y-87951000D01*
X68945999Y-65726000D02*
X68949611Y-65726000D01*
X69138499Y-64799000D02*
X69237499Y-64700000D01*
X68151000Y-74147388D02*
X68151000Y-68045387D01*
X68151000Y-68045387D02*
X68851000Y-67345388D01*
X68851000Y-67345388D02*
X68851000Y-65821000D01*
X68851000Y-65821000D02*
X68945999Y-65726000D01*
X69138499Y-65537112D02*
X69138499Y-64799000D01*
%TO.N,/LORA/LORA_DIO3*%
X69949611Y-65726000D02*
X70138499Y-65537112D01*
X69591388Y-66077000D02*
X69595000Y-66077000D01*
X69595000Y-66077000D02*
X69945999Y-65726000D01*
X69553000Y-66115389D02*
X69591388Y-66077000D01*
X74300000Y-79300000D02*
X68900000Y-73900000D01*
X69553000Y-67636164D02*
X69553000Y-66115389D01*
X69945999Y-65726000D02*
X69949611Y-65726000D01*
X68900000Y-68289164D02*
X69553000Y-67636164D01*
X70138499Y-64799000D02*
X70237499Y-64700000D01*
X70138499Y-65537112D02*
X70138499Y-64799000D01*
X68900000Y-73900000D02*
X68900000Y-68289164D01*
X89600000Y-91450000D02*
X77450000Y-79300000D01*
X77450000Y-79300000D02*
X74300000Y-79300000D01*
X89600000Y-91900000D02*
X89600000Y-91450000D01*
%TO.N,/LORA/LORA_DIO0*%
X83600000Y-91900000D02*
X83600000Y-90144975D01*
X83600000Y-90144975D02*
X67800000Y-74344975D01*
X67800000Y-74344975D02*
X67800000Y-67900000D01*
X67800000Y-67900000D02*
X68500000Y-67200000D01*
X68500000Y-67200000D02*
X68500000Y-65675611D01*
X68500000Y-65675611D02*
X68638499Y-65537112D01*
X68638499Y-65537112D02*
X68638499Y-64799000D01*
X68638499Y-64799000D02*
X68737499Y-64700000D01*
%TO.N,/LORA/~{LORA_RESET}*%
X67200000Y-69300000D02*
X67200000Y-74500000D01*
X67200000Y-74500000D02*
X81600000Y-88900000D01*
X81600000Y-88900000D02*
X81600000Y-91900000D01*
%TO.N,/LORA/LORA.MOSI*%
X72900000Y-61600000D02*
X69800000Y-61600000D01*
X69800000Y-61600000D02*
X67475000Y-59275000D01*
X67475000Y-59275000D02*
X64812499Y-59275000D01*
%TO.N,/LORA/~{LORA_RESET}*%
X72237499Y-63600000D02*
X72237499Y-64700000D01*
D53*
%TO.N,GND*%
X74200000Y-63300000D02*
X73774998Y-63300000D01*
X73737499Y-63337499D02*
X73737499Y-64700000D01*
X73774998Y-63300000D02*
X73737499Y-63337499D01*
D52*
X74576000Y-67476000D02*
X74700000Y-67600000D01*
X73387499Y-67224999D02*
X73908266Y-67224999D01*
X73908266Y-67224999D02*
X74159267Y-67476000D01*
X74159267Y-67476000D02*
X74576000Y-67476000D01*
%TO.N,/BUS_CONNECTOR/GPIO8*%
X66300000Y-60500000D02*
X66100000Y-60300000D01*
X66100000Y-60300000D02*
X65612498Y-60300000D01*
X65587498Y-60275000D02*
X64812499Y-60275000D01*
X65612498Y-60300000D02*
X65587498Y-60275000D01*
D53*
%TO.N,GND*%
X100387500Y-41575000D02*
X99237500Y-41575000D01*
X83000000Y-45550001D02*
X83000000Y-44500000D01*
D52*
X58250000Y-54149999D02*
X58250000Y-53149999D01*
X63600000Y-54212499D02*
X63587499Y-54225000D01*
X61749999Y-47849998D02*
X61750000Y-47849999D01*
D53*
X97700002Y-80300000D02*
X97700002Y-78750002D01*
X100225000Y-78820000D02*
X99420000Y-78820000D01*
X99549997Y-63949997D02*
X99600000Y-64000000D01*
X92650001Y-44700001D02*
X92650000Y-44700000D01*
X102125000Y-45175000D02*
X102087500Y-45175000D01*
D52*
X77687499Y-55724999D02*
X78387498Y-55724999D01*
D53*
X107525000Y-50435001D02*
X107525000Y-48735001D01*
X92000000Y-47100000D02*
X93262500Y-47100000D01*
X81450000Y-44150000D02*
X81200000Y-44400000D01*
X103500000Y-60850002D02*
X103500000Y-59700000D01*
X92000000Y-41962499D02*
X92000000Y-42400000D01*
X77600000Y-91900000D02*
X77600000Y-90200000D01*
X97700000Y-59524999D02*
X98375001Y-59524999D01*
D52*
X67237499Y-52075001D02*
X67237499Y-53350000D01*
X66587500Y-67024999D02*
X66587499Y-67025000D01*
D53*
X97387500Y-43925000D02*
X97387500Y-42887502D01*
X82200000Y-53889999D02*
X82205001Y-53895000D01*
X66587500Y-66325000D02*
X65677497Y-66325000D01*
X95200000Y-35000000D02*
X95900000Y-35000000D01*
X106750000Y-51210001D02*
X107525000Y-50435001D01*
X99700000Y-49400000D02*
X100021547Y-49400000D01*
D52*
X63187498Y-60825000D02*
X63187499Y-60825001D01*
D53*
X97387500Y-42887502D02*
X97400000Y-42875002D01*
X82462498Y-47700002D02*
X82312500Y-47850000D01*
X68937499Y-49058789D02*
X69748144Y-48248144D01*
X70700000Y-48300000D02*
X69800000Y-48300000D01*
X105300000Y-37500000D02*
X105274996Y-37474996D01*
D52*
X76212500Y-55724999D02*
X76162499Y-55775000D01*
D53*
X98700000Y-63949997D02*
X99549997Y-63949997D01*
X64687499Y-66414998D02*
X65587499Y-66414998D01*
X103250000Y-74950000D02*
X103500000Y-75200000D01*
D52*
X66987498Y-51175001D02*
X66987498Y-51825000D01*
D53*
X65677497Y-66325000D02*
X65587499Y-66414998D01*
X83100000Y-44400000D02*
X83249999Y-44250001D01*
X69837499Y-49146394D02*
X68937499Y-49146394D01*
X106750000Y-47960001D02*
X107525000Y-47185001D01*
D52*
X61549999Y-49749998D02*
X61650000Y-49849999D01*
D53*
X102550000Y-37474997D02*
X102549999Y-37474996D01*
D52*
X63237500Y-60775000D02*
X63187499Y-60825001D01*
D53*
X83249999Y-44250001D02*
X84849999Y-44250001D01*
X105274996Y-37474996D02*
X101649999Y-37474996D01*
X83400000Y-47200000D02*
X82850000Y-47200000D01*
X91350000Y-55150001D02*
X91300001Y-55200000D01*
X107525000Y-45525000D02*
X106750000Y-44750000D01*
X107525000Y-47185001D02*
X107525000Y-45525000D01*
D52*
X63600000Y-53600000D02*
X63600000Y-54212499D01*
D53*
X80400001Y-50249999D02*
X80600000Y-50050000D01*
X91350000Y-53512500D02*
X91350000Y-55150001D01*
D52*
X66987498Y-51825000D02*
X67237499Y-52075001D01*
D53*
X102087500Y-41575000D02*
X100387500Y-41575000D01*
X99237500Y-41575000D02*
X99087500Y-41725000D01*
X90500000Y-51800000D02*
X90500000Y-51892590D01*
X73650000Y-44020000D02*
X72020000Y-44020000D01*
D52*
X60149999Y-51650000D02*
X61749999Y-51650000D01*
X61100000Y-54599998D02*
X61050000Y-54549998D01*
D53*
X106750000Y-44750000D02*
X106750000Y-43750000D01*
X86800000Y-50100000D02*
X84937500Y-50100000D01*
X59150001Y-55449999D02*
X59150001Y-55050000D01*
X104500000Y-71500000D02*
X103500000Y-71500000D01*
X96150000Y-63949999D02*
X95249999Y-63949999D01*
D52*
X78387498Y-55724999D02*
X78387499Y-55725000D01*
D53*
X87000000Y-43250000D02*
X87000000Y-42400000D01*
X97000000Y-63949999D02*
X96150000Y-63949999D01*
X82000000Y-45550001D02*
X83000000Y-45550001D01*
D52*
X66987499Y-51175000D02*
X66987498Y-51175001D01*
D53*
X93400000Y-44700001D02*
X92650001Y-44700001D01*
X103449999Y-37474997D02*
X102550000Y-37474997D01*
D52*
X64812499Y-60775000D02*
X63237500Y-60775000D01*
X61100000Y-55300000D02*
X61100000Y-54599998D01*
D53*
X107525000Y-48735001D02*
X106750000Y-47960001D01*
X97700002Y-84500000D02*
X97736387Y-84500000D01*
X80450000Y-53099999D02*
X80450000Y-53850001D01*
X95900000Y-35000000D02*
X96000001Y-34899999D01*
D52*
X59850000Y-51949999D02*
X60149999Y-51650000D01*
X75387498Y-66225000D02*
X75387498Y-66924999D01*
D53*
X87000000Y-42400000D02*
X86900000Y-42300000D01*
D52*
X61050000Y-49749998D02*
X61549999Y-49749998D01*
D53*
X91300001Y-52692591D02*
X91300001Y-55200000D01*
D52*
X86850000Y-43400000D02*
X87000000Y-43250000D01*
D53*
X83000000Y-34300000D02*
X83200000Y-34100000D01*
X89650000Y-43250000D02*
X88899999Y-43250000D01*
D52*
X77687499Y-55724999D02*
X76212500Y-55724999D01*
X61050000Y-47849998D02*
X61749999Y-47849998D01*
D53*
X99087500Y-40525000D02*
X99087500Y-41725000D01*
X59150001Y-55050000D02*
X58250000Y-54149999D01*
X103500000Y-75200000D02*
X103500000Y-74300000D01*
X82850000Y-43539999D02*
X81450000Y-43539999D01*
X71137500Y-35587500D02*
X71150000Y-35600000D01*
D52*
X86850000Y-45187500D02*
X86850000Y-43400000D01*
D53*
X83400000Y-50100000D02*
X84937500Y-50100000D01*
D52*
X75387498Y-66924999D02*
X75387499Y-66925000D01*
X66587500Y-66325000D02*
X66587500Y-67024999D01*
X67087498Y-51825000D02*
X67237499Y-51975001D01*
D53*
X72020000Y-44020000D02*
X72000000Y-44000000D01*
X80400001Y-51200000D02*
X80400001Y-50249999D01*
X70900000Y-46400000D02*
X70100000Y-46400000D01*
X81450000Y-43539999D02*
X81450000Y-44150000D01*
X97700002Y-78750002D02*
X97700000Y-78750000D01*
D52*
X67237499Y-64700000D02*
X67237499Y-65675001D01*
D53*
X70112500Y-35587500D02*
X71137500Y-35587500D01*
X69800000Y-48300000D02*
X69748144Y-48248144D01*
X99420000Y-78820000D02*
X99100000Y-78500000D01*
D52*
X67237499Y-65675001D02*
X66587500Y-66325000D01*
D53*
X68937499Y-49146394D02*
X68937499Y-49058789D01*
X82850000Y-47200000D02*
X82200000Y-47850000D01*
X73610000Y-44060000D02*
X73650000Y-44020000D01*
X97700002Y-79500000D02*
X97700002Y-80300000D01*
X100021547Y-49400000D02*
X100427751Y-48993796D01*
X101649999Y-37474996D02*
X102549999Y-37474996D01*
X95249999Y-63949999D02*
X95200000Y-63900000D01*
X91900000Y-47000000D02*
X92000000Y-47100000D01*
X98530135Y-85220000D02*
X98493261Y-85256874D01*
X92000000Y-42400000D02*
X91700000Y-42700000D01*
X90500000Y-51892590D02*
X91300001Y-52692591D01*
D52*
X62487499Y-60825000D02*
X63187498Y-60825000D01*
D53*
X98375001Y-59524999D02*
X98800000Y-59100000D01*
X83000000Y-44500000D02*
X83100000Y-44400000D01*
D52*
X67237499Y-51975001D02*
X67237499Y-53350000D01*
D53*
X83200000Y-34100000D02*
X83750001Y-34100000D01*
X97736387Y-84500000D02*
X98493261Y-85256874D01*
X80450000Y-53850001D02*
X80405001Y-53895000D01*
X104400000Y-75200000D02*
X103500000Y-75200000D01*
X82312500Y-47850000D02*
X82200000Y-47850000D01*
X97300000Y-70137500D02*
X97300000Y-69400000D01*
X82200000Y-53099998D02*
X82200000Y-53889999D01*
D52*
X86950000Y-43300000D02*
X87000000Y-43250000D01*
D53*
X96000001Y-34899999D02*
X97500000Y-34899999D01*
X86137500Y-36162500D02*
X85462500Y-36162500D01*
D52*
X61749999Y-51650000D02*
X61850000Y-51549999D01*
D53*
X100225000Y-85220000D02*
X98530135Y-85220000D01*
X69837499Y-48337499D02*
X69748144Y-48248144D01*
X103500000Y-71500000D02*
X103500000Y-72400000D01*
X85462500Y-36162500D02*
X85100000Y-35800000D01*
D52*
%TO.N,/MCU/SWD.~{RST}*%
X60149999Y-56349999D02*
X61275262Y-56349999D01*
X64812499Y-58275000D02*
X63250263Y-58275000D01*
X60149999Y-55449999D02*
X60149999Y-56549999D01*
X103100000Y-56000000D02*
X103500000Y-56400000D01*
X102900000Y-53200000D02*
X103100000Y-53400000D01*
X103100000Y-53400000D02*
X103100000Y-56000000D01*
X63250263Y-58275000D02*
X63225263Y-58300000D01*
X89849999Y-55150000D02*
X90050000Y-55150000D01*
X90050000Y-55150000D02*
X90525000Y-54675000D01*
X61275262Y-56349999D02*
X63225263Y-58300000D01*
%TO.N,/ST-LINK/STLINK-RST*%
X82200000Y-52100000D02*
X83050000Y-52100000D01*
X83050000Y-52100000D02*
X83550000Y-52100000D01*
X83550000Y-52100000D02*
X83700000Y-51950000D01*
X86000000Y-49600000D02*
X86350000Y-49250000D01*
X84937500Y-49600000D02*
X86000000Y-49600000D01*
%TO.N,/ST-LINK/STLINK-OSC_IN*%
X80600000Y-47850000D02*
X81550000Y-48800000D01*
X82764034Y-48800000D02*
X82964034Y-48600000D01*
X82964034Y-48600000D02*
X83000000Y-48600000D01*
X83800000Y-48600000D02*
X83400000Y-48200000D01*
X84937500Y-48600000D02*
X83800000Y-48600000D01*
X81550000Y-48800000D02*
X82764034Y-48800000D01*
X83000000Y-48600000D02*
X83400000Y-48200000D01*
%TO.N,/ST-LINK/STLINK-OSC_OUT*%
X83150000Y-49100000D02*
X82200000Y-50050000D01*
X84937500Y-49100000D02*
X83150000Y-49100000D01*
D53*
%TO.N,/MCU/+VDDA*%
X64700000Y-53420997D02*
X64700000Y-54401366D01*
X65087499Y-51825000D02*
X65987500Y-51825000D01*
X62487500Y-61824999D02*
X62487499Y-61825000D01*
X65987500Y-51825000D02*
X66737499Y-52574999D01*
X77687499Y-54788865D02*
X77201364Y-55275000D01*
X74237499Y-64700000D02*
X74237499Y-66074999D01*
X77687499Y-54725001D02*
X77687499Y-54788865D01*
X67737499Y-66174999D02*
X67737499Y-64700000D01*
X77201364Y-55275000D02*
X76162499Y-55275000D01*
X63187499Y-61824999D02*
X63737498Y-61275000D01*
X67737499Y-66975000D02*
X67737499Y-64700000D01*
X74387500Y-66924999D02*
X74387499Y-66925000D01*
X64812499Y-54513865D02*
X64812499Y-55275000D01*
X67587498Y-66325000D02*
X67737499Y-66174999D01*
X63187499Y-61824999D02*
X62487500Y-61824999D01*
X64700000Y-54401366D02*
X64812499Y-54513865D01*
X67787499Y-67025000D02*
X67737499Y-66975000D01*
X74387500Y-66225000D02*
X74387500Y-66924999D01*
X78387498Y-54725001D02*
X78387499Y-54725000D01*
X74237499Y-66074999D02*
X74387500Y-66225000D01*
X77687499Y-54725001D02*
X78387498Y-54725001D01*
X66737499Y-52574999D02*
X66737499Y-53350000D01*
X63737498Y-61275000D02*
X64812499Y-61275000D01*
%TO.N,+5V*%
X81775001Y-35324999D02*
X82100000Y-35000000D01*
X98200000Y-36169999D02*
X98200000Y-33500000D01*
X83862500Y-35212501D02*
X82312501Y-35212501D01*
X104084999Y-42574998D02*
X104344999Y-42314998D01*
X101875000Y-42787498D02*
X102087500Y-42574998D01*
X59150000Y-57749999D02*
X59150000Y-57450000D01*
X59150000Y-57450000D02*
X59500000Y-57100000D01*
X101875000Y-43712500D02*
X101875000Y-42787498D01*
X72336071Y-35638929D02*
X72387500Y-35587500D01*
X72306297Y-35638929D02*
X72336071Y-35638929D01*
X92000000Y-39062501D02*
X92000000Y-33300000D01*
X82312501Y-35212501D02*
X82100000Y-35000000D01*
X104344999Y-42314998D02*
X98200000Y-36169999D01*
X102087500Y-42574998D02*
X104084999Y-42574998D01*
X81775001Y-36150000D02*
X81775001Y-35324999D01*
%TO.N,+3V3*%
X97000000Y-62950001D02*
X97000000Y-62200000D01*
X93262500Y-46337500D02*
X93262500Y-46600000D01*
X79600000Y-91900000D02*
X79600000Y-91351471D01*
X86000000Y-43250000D02*
X85300000Y-43250000D01*
X86207106Y-50600000D02*
X84937500Y-50600000D01*
X93262500Y-45837499D02*
X93400000Y-45699999D01*
X83536134Y-51050000D02*
X81549999Y-51050000D01*
X82900000Y-39810000D02*
X84190000Y-39810000D01*
X99100000Y-51050000D02*
X99350000Y-51300000D01*
X99350000Y-51300000D02*
X99700000Y-51300000D01*
X74330000Y-47830000D02*
X73650000Y-47830000D01*
X71100000Y-86500000D02*
X76100000Y-86500000D01*
X87200000Y-51100000D02*
X86707106Y-51100000D01*
X97300000Y-61249999D02*
X97300000Y-61900000D01*
X81100000Y-46500000D02*
X81100001Y-46499999D01*
X91850000Y-54750001D02*
X92299999Y-55200000D01*
X91850000Y-52606194D02*
X91850000Y-53512500D01*
X72170000Y-47830000D02*
X71700000Y-48300000D01*
X82900000Y-46299999D02*
X83200001Y-46600000D01*
X71100000Y-87300000D02*
X71100000Y-86500000D01*
X93262500Y-46600000D02*
X93262500Y-45837499D01*
X81549999Y-51050000D02*
X81399999Y-51200000D01*
X86000000Y-43250000D02*
X86350000Y-43600000D01*
X82200000Y-46299999D02*
X82000000Y-46499999D01*
X76100000Y-86500000D02*
X79600000Y-90000000D01*
X81300000Y-53099999D02*
X81300000Y-53889999D01*
X83986134Y-50600000D02*
X83536134Y-51050000D01*
X105500000Y-71500000D02*
X105500000Y-72400000D01*
X94200000Y-38400000D02*
X94200000Y-39462500D01*
X86707106Y-51100000D02*
X86207106Y-50600000D01*
X103500000Y-63975000D02*
X103500000Y-65100000D01*
X91725000Y-52481194D02*
X91850000Y-52606194D01*
X74900000Y-48400000D02*
X74330000Y-47830000D01*
X93399999Y-45700000D02*
X93400000Y-45699999D01*
X82900000Y-46299999D02*
X82200000Y-46299999D01*
X97300000Y-61900000D02*
X97050001Y-62149999D01*
X97000000Y-62200000D02*
X97050001Y-62149999D01*
X71100000Y-87000000D02*
X71100000Y-87300000D01*
X83050000Y-53099998D02*
X83050000Y-53850001D01*
X73650000Y-47830000D02*
X72170000Y-47830000D01*
X81100001Y-46499999D02*
X82200000Y-46499999D01*
X91850000Y-53512500D02*
X91850000Y-54750001D01*
X84190000Y-39810000D02*
X85400000Y-38600000D01*
X79600000Y-90000000D02*
X79600000Y-91900000D01*
X86350000Y-43600000D02*
X86350000Y-45187500D01*
X84937500Y-50600000D02*
X83986134Y-50600000D01*
X59150001Y-56349999D02*
X58250000Y-56349999D01*
X83200001Y-46600000D02*
X84937500Y-46600000D01*
X83050000Y-53850001D02*
X83005001Y-53895000D01*
X92600000Y-45700000D02*
X93399999Y-45700000D01*
X91725000Y-52087803D02*
X91725000Y-52481194D01*
X81300000Y-53889999D02*
X81305001Y-53895000D01*
D54*
%TO.N,Net-(J1-SHIELD)*%
X104980000Y-77700000D02*
X104980000Y-76779998D01*
X104980000Y-77700000D02*
X104980000Y-86340000D01*
X100800000Y-86340000D02*
X104980000Y-86340000D01*
X100800000Y-77700000D02*
X104980000Y-77700000D01*
X104980000Y-76779998D02*
X104400000Y-76199998D01*
X104400000Y-76199998D02*
X103500000Y-76199998D01*
D52*
%TO.N,/USB-C/VBUS_IN*%
X100225000Y-84420000D02*
X100799999Y-84420000D01*
X100000000Y-75600000D02*
X98550000Y-77050000D01*
X100225000Y-79620000D02*
X98820000Y-79620000D01*
X97850000Y-66230158D02*
X97850000Y-63949997D01*
X98550000Y-77050000D02*
X98550000Y-79350000D01*
X97300000Y-67862500D02*
X97300000Y-68650000D01*
X98820000Y-79620000D02*
X98700000Y-79500000D01*
X98550000Y-79350000D02*
X98700000Y-79500000D01*
X100000000Y-68700000D02*
X100000000Y-75600000D01*
X100000000Y-68380158D02*
X97850000Y-66230158D01*
X101380000Y-83839999D02*
X101380000Y-80388302D01*
X100799999Y-84420000D02*
X101380000Y-83839999D01*
X101380000Y-80388302D02*
X100611698Y-79620000D01*
X100611698Y-79620000D02*
X100225000Y-79620000D01*
X100000000Y-68700000D02*
X100000000Y-68380158D01*
%TO.N,Net-(U12-3V3)*%
X101375000Y-43712500D02*
X101375000Y-42712498D01*
X101375000Y-42712498D02*
X101237500Y-42574998D01*
X101237500Y-42574998D02*
X100387500Y-42574998D01*
%TO.N,Net-(U5-VCAP)*%
X73237499Y-66075001D02*
X73387499Y-66225001D01*
X73237499Y-64700000D02*
X73237499Y-66075001D01*
%TO.N,/MCU/OSC32_OUT*%
X62400000Y-55537501D02*
X62400000Y-51387235D01*
X63637499Y-56775000D02*
X62400000Y-55537501D01*
X59849999Y-50749996D02*
X59650000Y-50549997D01*
X61762761Y-50749996D02*
X61050000Y-50749996D01*
X62400000Y-51387235D02*
X61762761Y-50749996D01*
X61050000Y-50749996D02*
X59849999Y-50749996D01*
X63637499Y-56775000D02*
X64812499Y-56775000D01*
%TO.N,/MCU/OSC_IN*%
X62050000Y-55682476D02*
X62050000Y-53649998D01*
X62050000Y-53649998D02*
X61050000Y-52649998D01*
X61050000Y-52649998D02*
X60799999Y-52899999D01*
X64812499Y-57275000D02*
X63642524Y-57275000D01*
X63642524Y-57275000D02*
X62050000Y-55682476D01*
X60799999Y-52899999D02*
X59200000Y-52899999D01*
X58250000Y-51949999D02*
X59200000Y-52899999D01*
%TO.N,/MCU/OSC32_IN*%
X63000000Y-50166723D02*
X61683273Y-48849996D01*
X60449997Y-48849996D02*
X59650000Y-48049999D01*
X61683273Y-48849996D02*
X60449997Y-48849996D01*
X64037500Y-56275000D02*
X63000000Y-55237500D01*
X63000000Y-55237500D02*
X63000000Y-50166723D01*
X64812499Y-56275000D02*
X64037500Y-56275000D01*
%TO.N,/MCU/OSC_OUT*%
X61050000Y-53550000D02*
X60449999Y-53550000D01*
X61700000Y-54200000D02*
X61050000Y-53550000D01*
X60449999Y-53550000D02*
X59850000Y-54149999D01*
X63647549Y-57775000D02*
X61700000Y-55827451D01*
X64812499Y-57775000D02*
X63647549Y-57775000D01*
X61700000Y-55827451D02*
X61700000Y-54200000D01*
%TO.N,Net-(D2-Pad2)*%
X105500000Y-50000000D02*
X106289999Y-50000000D01*
X106289999Y-50000000D02*
X106750000Y-49539999D01*
%TO.N,Net-(D3-Pad2)*%
X98529998Y-49950000D02*
X99350000Y-49950000D01*
X99350000Y-49950000D02*
X99700000Y-50300000D01*
%TO.N,/ST-LINK/LED*%
X96600000Y-49600000D02*
X96950000Y-49950000D01*
X96950000Y-49950000D02*
X96950000Y-48400000D01*
X93262500Y-49600000D02*
X96600000Y-49600000D01*
%TO.N,Net-(D7-Pad2)*%
X105500000Y-53000000D02*
X106539999Y-53000000D01*
X106539999Y-53000000D02*
X106750000Y-52789999D01*
%TO.N,Net-(D8-Pad1)*%
X98529998Y-48400000D02*
X99700000Y-48400000D01*
X98799999Y-48129999D02*
X98529998Y-48400000D01*
%TO.N,Net-(D9-Pad1)*%
X104344999Y-40735000D02*
X104655000Y-40735000D01*
X105544999Y-41624999D02*
X105234998Y-41624999D01*
X105234998Y-41624999D02*
X104344999Y-40735000D01*
%TO.N,Net-(D10-Pad1)*%
X82900000Y-42490001D02*
X82850000Y-42540001D01*
X82900000Y-41390000D02*
X82900000Y-42490001D01*
%TO.N,Net-(D12-Pad2)*%
X106579998Y-46500000D02*
X106750000Y-46329998D01*
X105500000Y-46500000D02*
X106579998Y-46500000D01*
%TO.N,/MCU/BOOT_EN*%
X69237499Y-51974998D02*
X69237499Y-53350000D01*
X69237499Y-51974998D02*
X70737499Y-50474998D01*
D55*
X70737499Y-50150000D02*
X70737499Y-50146392D01*
D52*
X70737499Y-50474998D02*
X70737499Y-50146392D01*
D56*
%TO.N,/USB-C/USB2S.D-*%
X95735000Y-73948310D02*
X95735000Y-80568346D01*
X95735000Y-80568346D02*
X96851654Y-81685000D01*
X97150000Y-71205700D02*
X97150000Y-72533310D01*
X96533310Y-65250000D02*
X94800000Y-65250000D01*
X99410000Y-82010001D02*
X99410000Y-82477556D01*
X97095378Y-65812068D02*
X96533310Y-65250000D01*
X99650001Y-81770000D02*
X99410000Y-82010001D01*
X96350000Y-67862500D02*
X96350000Y-70137500D01*
X97150000Y-72533310D02*
X95735000Y-73948310D01*
X94250001Y-60299999D02*
X94550001Y-59999999D01*
X99410000Y-82477556D02*
X99702444Y-82770000D01*
X93100000Y-60700000D02*
X93500001Y-60299999D01*
X99277499Y-81685000D02*
X99362499Y-81770000D01*
X97095378Y-66506000D02*
X97095378Y-65812068D01*
X100225000Y-81770000D02*
X99650001Y-81770000D01*
X99702444Y-82770000D02*
X100225000Y-82770000D01*
X100225000Y-81770000D02*
X99570000Y-81770000D01*
X94800000Y-65250000D02*
X93100000Y-63550000D01*
X96350000Y-67862500D02*
X96760000Y-67452500D01*
X96760000Y-70547500D02*
X96760000Y-70815700D01*
X93100000Y-63550000D02*
X93100000Y-60700000D01*
X96760000Y-66841378D02*
X97095378Y-66506000D01*
X93500001Y-60299999D02*
X94250001Y-60299999D01*
X96350000Y-70137500D02*
X96760000Y-70547500D01*
X99362499Y-81770000D02*
X100225000Y-81770000D01*
X96760000Y-70815700D02*
X97150000Y-71205700D01*
X96851654Y-81685000D02*
X99277499Y-81685000D01*
X96760000Y-67452500D02*
X96760000Y-66841378D01*
%TO.N,/USB-C/USB2S.D+*%
X101040000Y-82035000D02*
X100805000Y-82270000D01*
X97840000Y-70815700D02*
X97480000Y-71175700D01*
X100225000Y-81270000D02*
X100799999Y-81270000D01*
X97425378Y-66426756D02*
X97425378Y-65675378D01*
X93430000Y-63413310D02*
X93430000Y-60836690D01*
X97480000Y-71175700D02*
X97480000Y-72670000D01*
X99362499Y-81270000D02*
X100225000Y-81270000D01*
X96988346Y-81355000D02*
X99277499Y-81355000D01*
X96670000Y-64920000D02*
X94936690Y-64920000D01*
X99277499Y-81355000D02*
X99362499Y-81270000D01*
X97425378Y-65675378D02*
X96670000Y-64920000D01*
X97480000Y-72670000D02*
X96065000Y-74085000D01*
X101040000Y-81510001D02*
X101040000Y-82035000D01*
X98250000Y-67862500D02*
X98250000Y-70137500D01*
X94936690Y-64920000D02*
X93430000Y-63413310D01*
X100805000Y-82270000D02*
X100225000Y-82270000D01*
X93430000Y-60836690D02*
X93636691Y-60629999D01*
X98250000Y-67862500D02*
X97840000Y-67452500D01*
X97840000Y-70547500D02*
X97840000Y-70815700D01*
X96065000Y-80431654D02*
X96988346Y-81355000D01*
X94330001Y-60629999D02*
X94550001Y-60849999D01*
X96065000Y-74085000D02*
X96065000Y-80431654D01*
X98250000Y-70137500D02*
X97840000Y-70547500D01*
X97840000Y-67452500D02*
X97840000Y-66841378D01*
X97840000Y-66841378D02*
X97425378Y-66426756D01*
X93636691Y-60629999D02*
X94330001Y-60629999D01*
X100799999Y-81270000D02*
X101040000Y-81510001D01*
D52*
%TO.N,/MCU/V_SENSE*%
X64812499Y-58775000D02*
X64037500Y-58775000D01*
X64037500Y-58775000D02*
X63912500Y-58900000D01*
X60150000Y-57749999D02*
X60150000Y-57649999D01*
X60149999Y-58649999D02*
X60149999Y-57750000D01*
X63912500Y-58900000D02*
X60400000Y-58900000D01*
X60400000Y-58900000D02*
X60149999Y-58649999D01*
%TO.N,/USB-C/CC1*%
X98700000Y-84190001D02*
X99620001Y-83270000D01*
X98700000Y-84500000D02*
X98700000Y-84190001D01*
X99620001Y-83270000D02*
X100225001Y-83270000D01*
%TO.N,/USB-C/CC2*%
X98730000Y-80270000D02*
X98700000Y-80300000D01*
X100225000Y-80270000D02*
X98730000Y-80270000D01*
%TO.N,/MCU/SWD.SWCLK*%
X95000000Y-53850000D02*
X95000000Y-53050000D01*
X79690318Y-55250000D02*
X87589602Y-55250000D01*
X95000000Y-54200000D02*
X95000000Y-53850000D01*
X77790318Y-53350000D02*
X79690318Y-55250000D01*
X88509602Y-56170000D02*
X93030000Y-56170000D01*
X87589602Y-55250000D02*
X88509602Y-56170000D01*
X74237499Y-53350000D02*
X77790318Y-53350000D01*
X93030000Y-56170000D02*
X95000000Y-54200000D01*
%TO.N,/MCU/SWD.SWDIO*%
X87444628Y-55600000D02*
X88364628Y-56520000D01*
X93230000Y-56520000D02*
X95850000Y-53900000D01*
X79545343Y-55600000D02*
X87444628Y-55600000D01*
X95850000Y-53900000D02*
X95850000Y-52149999D01*
X88364628Y-56520000D02*
X93230000Y-56520000D01*
X78870343Y-56275000D02*
X79545343Y-55600000D01*
X76162499Y-56275000D02*
X78870343Y-56275000D01*
%TO.N,Net-(Q2-E)*%
X94500001Y-42762500D02*
X94500001Y-41987499D01*
X94500001Y-41987499D02*
X95150000Y-41337500D01*
%TO.N,Net-(Q2-B)*%
X92000000Y-40062499D02*
X92000000Y-40962501D01*
X93699999Y-42762500D02*
X93699999Y-41787499D01*
X92875001Y-40962501D02*
X93250000Y-41337500D01*
X92000000Y-40962501D02*
X92875001Y-40962501D01*
X93699999Y-41787499D02*
X93250000Y-41337500D01*
D57*
%TO.N,/BUS_CONNECTOR/CAN1.+*%
X77925000Y-44020000D02*
X78600000Y-44020000D01*
X76753500Y-31766500D02*
X76753500Y-40200000D01*
X76753500Y-44000560D02*
X77264440Y-44511500D01*
X77433500Y-44511500D02*
X77925000Y-44020000D01*
X77264440Y-44511500D02*
X77433500Y-44511500D01*
X77440002Y-40200000D02*
X76753500Y-40200000D01*
X76753500Y-40200000D02*
X76753500Y-44000560D01*
X77880000Y-30640000D02*
X76753500Y-31766500D01*
D52*
%TO.N,Net-(U7-PB13)*%
X92525001Y-51600000D02*
X93262500Y-51600000D01*
X94000002Y-53050000D02*
X93013302Y-53050000D01*
X92275000Y-52311698D02*
X92275000Y-51850001D01*
X92275000Y-51850001D02*
X92525001Y-51600000D01*
X93013302Y-53050000D02*
X92275000Y-52311698D01*
%TO.N,Net-(U7-PB14)*%
X95000000Y-51150001D02*
X93312501Y-51150001D01*
X93312501Y-51150001D02*
X93262500Y-51100000D01*
X95850000Y-51150001D02*
X95000000Y-51150001D01*
%TO.N,/ST-LINK/STLINK-BOOT0*%
X87900001Y-43250000D02*
X88350000Y-43699999D01*
X88350000Y-43699999D02*
X88350000Y-45187500D01*
X88350000Y-46150000D02*
X88300000Y-46200000D01*
X88350000Y-45187500D02*
X88350000Y-46150000D01*
%TO.N,Net-(U7-PB12)*%
X94950001Y-52100000D02*
X95000000Y-52149999D01*
X93262500Y-52100000D02*
X94950001Y-52100000D01*
D57*
%TO.N,Net-(U7-PC13)*%
X84500000Y-46000000D02*
X84059999Y-45559999D01*
X85674999Y-47100000D02*
X85905000Y-46869999D01*
X85508414Y-46000000D02*
X84500000Y-46000000D01*
X84937500Y-47100000D02*
X85674999Y-47100000D01*
X85905000Y-46396586D02*
X85508414Y-46000000D01*
X85905000Y-46869999D02*
X85905000Y-46396586D01*
X84059999Y-45559999D02*
X84059999Y-45259998D01*
X84059999Y-45259998D02*
X84050000Y-45249999D01*
%TO.N,Net-(U7-PC14)*%
X85290000Y-45690000D02*
X85636820Y-45690000D01*
X86215000Y-46268180D02*
X86215000Y-47035000D01*
X85650000Y-47600000D02*
X84937500Y-47600000D01*
X85636820Y-45690000D02*
X86215000Y-46268180D01*
X84849999Y-45249999D02*
X85290000Y-45690000D01*
X86215000Y-47035000D02*
X85650000Y-47600000D01*
D52*
%TO.N,/MCU/USER_LED_1*%
X79484923Y-58400000D02*
X92400000Y-58400000D01*
X101000000Y-53100000D02*
X105500000Y-48600000D01*
X97700000Y-53100000D02*
X101000000Y-53100000D01*
X76162499Y-57775000D02*
X78859923Y-57775000D01*
X92400000Y-58400000D02*
X97700000Y-53100000D01*
X78859923Y-57775000D02*
X79484923Y-58400000D01*
X105500000Y-48600000D02*
X105500000Y-47500000D01*
%TO.N,Net-(U7-PB0)*%
X88850001Y-53512501D02*
X88850000Y-53512500D01*
X88850001Y-55150000D02*
X88850001Y-53512501D01*
%TO.N,Net-(U7-PA5)*%
X92545423Y-55820000D02*
X88654577Y-55820000D01*
X94000000Y-53850000D02*
X94000000Y-54365423D01*
X88654577Y-55820000D02*
X87350000Y-54515423D01*
X94000000Y-54365423D02*
X92545423Y-55820000D01*
X87350000Y-54515423D02*
X87350000Y-53512500D01*
D57*
%TO.N,Net-(U7-PA0)*%
X84266586Y-51100000D02*
X84937500Y-51100000D01*
X80450000Y-52100001D02*
X81300000Y-52100001D01*
X81300000Y-52100001D02*
X81362859Y-52100001D01*
X81362859Y-52100001D02*
X82032860Y-51430000D01*
X83936586Y-51430000D02*
X84266586Y-51100000D01*
X82032860Y-51430000D02*
X83936586Y-51430000D01*
D56*
%TO.N,/ST-LINK/ST-LINK.D+*%
X95184834Y-47431820D02*
X94431654Y-48185000D01*
X93935000Y-48185000D02*
X93850000Y-48100000D01*
X95499999Y-42762500D02*
X95367615Y-42894884D01*
X95367615Y-42894884D02*
X95367615Y-45065108D01*
X96579493Y-45980000D02*
X95674269Y-45074776D01*
X98537500Y-46255000D02*
X98072499Y-46255000D01*
X98072499Y-46255000D02*
X97797499Y-45980000D01*
X93850000Y-48100000D02*
X93262500Y-48100000D01*
X95184834Y-47134834D02*
X95184834Y-47431820D01*
X95367615Y-45065108D02*
X95377283Y-45074776D01*
X97797499Y-45980000D02*
X96579493Y-45980000D01*
X95674269Y-45074776D02*
X95377283Y-45074776D01*
X94431654Y-48185000D02*
X93935000Y-48185000D01*
D52*
%TO.N,/ST-LINK/USB_RENUM*%
X92700001Y-42762500D02*
X91350000Y-44112501D01*
X91350000Y-44112501D02*
X91350000Y-45187500D01*
%TO.N,Net-(U11-SEL)*%
X97700000Y-62799999D02*
X97850000Y-62949999D01*
X97700000Y-61249999D02*
X97700000Y-62799999D01*
X97850000Y-62949999D02*
X98700000Y-62949999D01*
%TO.N,Net-(U11-~{OE})*%
X96900000Y-61249999D02*
X96150000Y-61999999D01*
X96150000Y-61999999D02*
X96150000Y-62950001D01*
%TO.N,/MCU/STATUS_LED*%
X97989950Y-53800000D02*
X101294974Y-53800000D01*
X103900000Y-52400000D02*
X105500000Y-54000000D01*
X101294974Y-53800000D02*
X102694974Y-52400000D01*
X79194975Y-59100000D02*
X92689950Y-59100000D01*
X76162499Y-58775000D02*
X78869975Y-58775000D01*
X92689950Y-59100000D02*
X97989950Y-53800000D01*
X102694974Y-52400000D02*
X103900000Y-52400000D01*
X78869975Y-58775000D02*
X79194975Y-59100000D01*
D56*
%TO.N,/USB_HUB/USB_MCU_R.D-*%
X101375000Y-47637500D02*
X101187500Y-47825000D01*
X101375000Y-46637500D02*
X101375000Y-47637500D01*
%TO.N,/MCU/USB_MCU.D-*%
X101447499Y-50200001D02*
X101447499Y-50891304D01*
X77435000Y-57165000D02*
X77325000Y-57275000D01*
X85033952Y-57165000D02*
X77435000Y-57165000D01*
X101447499Y-50891304D02*
X101237500Y-51101303D01*
X85358569Y-57489617D02*
X85033952Y-57165000D01*
X101187500Y-48824998D02*
X101187500Y-49289999D01*
X101447500Y-50200000D02*
X101447499Y-50200001D01*
X101447500Y-49549999D02*
X101447500Y-50200000D01*
X101187500Y-49289999D02*
X101447500Y-49549999D01*
X85358569Y-57772926D02*
X85358569Y-57489617D01*
X77325000Y-57275000D02*
X76162499Y-57275000D01*
%TO.N,/USB_HUB/USB_MCU_R.D+*%
X101875000Y-47662500D02*
X102037500Y-47825000D01*
X101875000Y-46637500D02*
X101875000Y-47662500D01*
%TO.N,/MCU/USB_MCU.D+*%
X86108569Y-57772926D02*
X85898569Y-57562926D01*
X85582245Y-57232926D02*
X85568569Y-57232926D01*
X85898569Y-57549250D02*
X85582245Y-57232926D01*
X77385000Y-56835000D02*
X77325000Y-56775000D01*
X85170643Y-56835000D02*
X77385000Y-56835000D01*
X102037500Y-49289999D02*
X101777500Y-49549999D01*
X101777500Y-50200000D02*
X101777501Y-50200001D01*
X101777501Y-50200001D02*
X101777501Y-50891304D01*
X102037500Y-48824998D02*
X102037500Y-49289999D01*
X85898569Y-57562926D02*
X85898569Y-57549250D01*
X101777500Y-49549999D02*
X101777500Y-50200000D01*
X85568569Y-57232926D02*
X85170643Y-56835000D01*
X101777501Y-50891304D02*
X101987500Y-51101303D01*
X77325000Y-56775000D02*
X76162499Y-56775000D01*
%TO.N,/ST-LINK/ST-LINK.D-*%
X93935000Y-48515000D02*
X93850000Y-48600000D01*
X98072499Y-45375000D02*
X97797499Y-45650000D01*
X95418180Y-47665166D02*
X94568346Y-48515000D01*
X97797499Y-45650000D02*
X96716185Y-45650000D01*
X93850000Y-48600000D02*
X93262500Y-48600000D01*
X95715166Y-47665166D02*
X95418180Y-47665166D01*
X96716185Y-45650000D02*
X95907615Y-44841430D01*
X98537500Y-45375000D02*
X98072499Y-45375000D01*
X94568346Y-48515000D02*
X93935000Y-48515000D01*
X95907615Y-44841430D02*
X95907615Y-44544444D01*
%TO.N,/USB_HUB/USBOUT1_R.D-*%
X100662500Y-45425000D02*
X99587500Y-45425000D01*
X99587500Y-45425000D02*
X99537500Y-45375000D01*
%TO.N,/USB_HUB/USBOUT1_R.D+*%
X99867500Y-45925000D02*
X99537500Y-46255000D01*
X100662500Y-45925000D02*
X99867500Y-45925000D01*
D52*
%TO.N,Net-(U12-PGANG)*%
X102375000Y-43187500D02*
X102557502Y-43004998D01*
X102375000Y-43712500D02*
X102375000Y-43187500D01*
X105164998Y-43004998D02*
X105544999Y-42624997D01*
X102557502Y-43004998D02*
X105164998Y-43004998D01*
%TO.N,/MCU/USER_LED_2*%
X105500000Y-51000000D02*
X103600000Y-51000000D01*
X78864949Y-58275000D02*
X76162499Y-58275000D01*
X92544975Y-58750000D02*
X79339949Y-58750000D01*
X101150000Y-53450000D02*
X97844975Y-53450000D01*
X97844975Y-53450000D02*
X92544975Y-58750000D01*
X103600000Y-51000000D02*
X101150000Y-53450000D01*
X79339949Y-58750000D02*
X78864949Y-58275000D01*
%TO.N,/MCU/STLINK_UART.RX*%
X79730292Y-54795000D02*
X85067500Y-54795000D01*
X77185292Y-52250000D02*
X79730292Y-54795000D01*
X85067500Y-54795000D02*
X86350000Y-53512500D01*
X73237499Y-52575001D02*
X73562500Y-52250000D01*
X73237499Y-53350000D02*
X73237499Y-52575001D01*
X73562500Y-52250000D02*
X77185292Y-52250000D01*
%TO.N,/MCU/STLINK_UART.TX*%
X77280267Y-51850000D02*
X79875267Y-54445000D01*
X84937500Y-52740319D02*
X84937500Y-52100000D01*
X83232819Y-54445000D02*
X84937500Y-52740319D01*
X72737499Y-53350000D02*
X72737499Y-52575001D01*
X72737499Y-52575001D02*
X73462500Y-51850000D01*
X73462500Y-51850000D02*
X77280267Y-51850000D01*
X79875267Y-54445000D02*
X83232819Y-54445000D01*
%TO.N,/ST-LINK/DIO*%
X91300000Y-48863302D02*
X92563302Y-47600000D01*
X91300000Y-48900000D02*
X91300000Y-48863302D01*
X92563302Y-47600000D02*
X93262500Y-47600000D01*
%TO.N,/ST-LINK/CLK*%
X91300000Y-46700000D02*
X91850000Y-46150000D01*
X91850000Y-46150000D02*
X91850000Y-45187500D01*
D57*
%TO.N,/BUS_CONNECTOR/CAN1.-*%
X76466500Y-40200000D02*
X75800000Y-40200000D01*
X76466500Y-44119440D02*
X77145560Y-44798500D01*
X76466500Y-40200000D02*
X76466500Y-44119440D01*
X77145560Y-44798500D02*
X77433500Y-44798500D01*
X77433500Y-44798500D02*
X77925000Y-45290000D01*
X75340000Y-30640000D02*
X76466500Y-31766500D01*
X77925000Y-45290000D02*
X78600000Y-45290000D01*
X76466500Y-31766500D02*
X76466500Y-40200000D01*
%TO.N,/MCU/CAN.RX*%
X74855000Y-46871558D02*
X74855000Y-43565000D01*
X74855000Y-43565000D02*
X74040000Y-42750000D01*
X69710000Y-47528406D02*
X69938406Y-47300000D01*
X74040000Y-42750000D02*
X73650000Y-42750000D01*
X69710000Y-47536753D02*
X69710000Y-47528406D01*
X68237499Y-49009254D02*
X69710000Y-47536753D01*
X69938406Y-47300000D02*
X74426558Y-47300000D01*
X68237499Y-53350000D02*
X68237499Y-49009254D01*
X74426558Y-47300000D02*
X74855000Y-46871558D01*
%TO.N,/MCU/CAN.TX*%
X69400000Y-47408347D02*
X69400000Y-47400000D01*
X73220000Y-46990000D02*
X73650000Y-46560000D01*
X69400000Y-47400000D02*
X69810000Y-46990000D01*
X67737499Y-49070848D02*
X69400000Y-47408347D01*
X67737499Y-53350000D02*
X67737499Y-49070848D01*
X69810000Y-46990000D02*
X73220000Y-46990000D01*
D58*
%TO.N,/LORA/RF*%
X75600000Y-95900000D02*
X78400000Y-98700000D01*
X78400000Y-98700000D02*
X89680000Y-98700000D01*
X75600000Y-91900000D02*
X75600000Y-95900000D01*
D52*
%TO.N,/can_tranciver/WAKE*%
X103500000Y-70500000D02*
X103500000Y-68425000D01*
X103500000Y-67400000D02*
X103500000Y-68425000D01*
X78600000Y-49100000D02*
X78325158Y-49100000D01*
X105500000Y-70500000D02*
X104500000Y-70500000D01*
X104500000Y-70500000D02*
X103500000Y-70500000D01*
X77000000Y-50425158D02*
X77000000Y-50900000D01*
X78325158Y-49100000D02*
X77000000Y-50425158D01*
%TO.N,Net-(U2-VCAP)*%
X85717501Y-37112499D02*
X84455000Y-38375000D01*
X86137500Y-37112499D02*
X85717501Y-37112499D01*
X84455000Y-38375000D02*
X84530000Y-38450000D01*
D53*
%TO.N,+5V_unprotected*%
X80165256Y-37365256D02*
X79900000Y-37100000D01*
X71900000Y-45400000D02*
X72000000Y-45300000D01*
X78600000Y-47830000D02*
X77120000Y-47830000D01*
X72010000Y-45290000D02*
X72000000Y-45300000D01*
X78600000Y-47830000D02*
X78970000Y-47830000D01*
X73650000Y-45290000D02*
X72010000Y-45290000D01*
X79912499Y-37112499D02*
X79900000Y-37100000D01*
X73580000Y-45360000D02*
X73650000Y-45290000D01*
X71900000Y-46400000D02*
X71900000Y-45400000D01*
X77120000Y-47830000D02*
X77112268Y-47822268D01*
X78970000Y-47830000D02*
X80165256Y-46634744D01*
X81300000Y-39810000D02*
X81300000Y-38500000D01*
X80165256Y-46634744D02*
X80165256Y-37365256D01*
X79900000Y-37100000D02*
X80245000Y-37100000D01*
X80245000Y-37100000D02*
X81520000Y-38375000D01*
D52*
%TO.N,Net-(D1-Pad1)*%
X81300000Y-41390000D02*
X81300000Y-42390001D01*
X81300000Y-42390001D02*
X81450000Y-42540001D01*
%TO.N,/LORA/LORA_DIO5*%
X85600000Y-75900000D02*
X85600000Y-75650000D01*
%TO.N,/MCU/BOOT*%
X68737499Y-50346392D02*
X68937499Y-50146392D01*
X69837499Y-50146392D02*
X68937499Y-50146392D01*
X69837499Y-50146392D02*
X69837499Y-50046394D01*
X69837499Y-50046394D02*
X70737499Y-49146394D01*
X68737499Y-53350000D02*
X68737499Y-50346392D01*
D56*
%TO.N,/USB-C/EXTUSB.D-*%
X101040002Y-60209998D02*
X100360000Y-60209998D01*
X104291251Y-44840000D02*
X104306654Y-44840000D01*
X104306654Y-44840000D02*
X104734834Y-45268180D01*
X104206251Y-44925000D02*
X104291251Y-44840000D01*
X104734834Y-45268180D02*
X104734834Y-45565166D01*
X103587500Y-44925000D02*
X104206251Y-44925000D01*
X102810000Y-58282608D02*
X102810000Y-58440000D01*
X103012935Y-58079673D02*
X102810000Y-58282608D01*
X102810000Y-58440000D02*
X101040002Y-60209998D01*
X100360000Y-60209998D02*
X100100001Y-59949999D01*
X103587500Y-44925000D02*
X103875000Y-44925000D01*
%TO.N,/USB-C/EXTUSB.D+*%
X104206251Y-44425000D02*
X104291251Y-44510000D01*
X104443346Y-44510000D02*
X104968180Y-45034834D01*
X104291251Y-44510000D02*
X104443346Y-44510000D01*
X103587500Y-44425000D02*
X103875000Y-44425000D01*
X103500000Y-58650000D02*
X103066690Y-58650000D01*
X104968180Y-45034834D02*
X105265166Y-45034834D01*
X103066690Y-58650000D02*
X101176692Y-60539998D01*
X103587500Y-44425000D02*
X104206251Y-44425000D01*
X100360001Y-60539998D02*
X100100000Y-60799999D01*
X101176692Y-60539998D02*
X100360001Y-60539998D01*
D52*
%TO.N,Net-(U12-XI)*%
X99087500Y-43925000D02*
X100087500Y-44925000D01*
X100087500Y-44925000D02*
X100662500Y-44925000D01*
%TO.N,Net-(U12-XO)*%
X98337500Y-42675000D02*
X97387500Y-41725000D01*
X100662500Y-43800000D02*
X99537500Y-42675000D01*
X100662500Y-44425000D02*
X100662500Y-43800000D01*
X99537500Y-42675000D02*
X98337500Y-42675000D01*
%TO.N,Net-(Q3-G)*%
X79900000Y-35700000D02*
X79900000Y-35200000D01*
X83337500Y-36162500D02*
X82600000Y-36900000D01*
X82600000Y-36900000D02*
X81100000Y-36900000D01*
X81100000Y-36900000D02*
X79900000Y-35700000D01*
X83862500Y-36162500D02*
X83337500Y-36162500D01*
%TO.N,/POWER/POWER_EN*%
X83886091Y-42786091D02*
X87200000Y-39472182D01*
X74430000Y-50370000D02*
X75200000Y-49600000D01*
X87200000Y-39472182D02*
X87200000Y-34650001D01*
X87200000Y-34650001D02*
X86649999Y-34100000D01*
X73650000Y-50370000D02*
X74430000Y-50370000D01*
D57*
%TO.N,/MCU/CAN_TRANSIVER.CLK*%
X72251979Y-51520000D02*
X77450000Y-51520000D01*
X71237499Y-52534480D02*
X72251979Y-51520000D01*
X77450000Y-51520000D02*
X78600000Y-50370000D01*
X71237499Y-53350000D02*
X71237499Y-52534480D01*
%TO.N,/MCU/CAN_TRANSIVER.MISO*%
X72950000Y-49800000D02*
X73650000Y-49100000D01*
X72100000Y-50400000D02*
X72700000Y-49800000D01*
X71243749Y-51843749D02*
X70737499Y-52349999D01*
X70737499Y-52349999D02*
X70737499Y-53350000D01*
X72700000Y-49800000D02*
X72950000Y-49800000D01*
%TO.N,/MCU/CAN_TRANSIVER.CS*%
X71049093Y-50900000D02*
X74700000Y-50900000D01*
X75950000Y-49650000D02*
X75950000Y-42850000D01*
X69737499Y-52211594D02*
X71049093Y-50900000D01*
X69737499Y-53350000D02*
X69737499Y-52211594D01*
X77400000Y-42750000D02*
X78600000Y-42750000D01*
X75950000Y-42850000D02*
X75950000Y-42700000D01*
X74700000Y-50900000D02*
X75950000Y-49650000D01*
%TO.N,/MCU/CAN_TRANSIVER.MOSI*%
X74828406Y-51210000D02*
X76260000Y-49778406D01*
X70237499Y-52150000D02*
X71177499Y-51210000D01*
X70237499Y-53350000D02*
X70237499Y-52150000D01*
X76260000Y-49778406D02*
X76260000Y-47925001D01*
X71177499Y-51210000D02*
X74828406Y-51210000D01*
X77625001Y-46560000D02*
X78600000Y-46560000D01*
X76260000Y-47925001D02*
X77625001Y-46560000D01*
D52*
%TO.N,/BUS_CONNECTOR/GPIO2*%
X72237499Y-54689756D02*
X72220441Y-54706814D01*
X72237499Y-53350000D02*
X72237499Y-54689756D01*
%TO.N,/BUS_CONNECTOR/GPIO11*%
X76162499Y-61275000D02*
X77675000Y-61275000D01*
X77675000Y-61275000D02*
X78400000Y-62000000D01*
%TO.N,/BUS_CONNECTOR/GPIO17*%
X68237499Y-63837499D02*
X67800000Y-63400000D01*
X68237499Y-64700000D02*
X68237499Y-63837499D01*
%TO.N,/BUS_CONNECTOR/GPIO3*%
X76162499Y-61775000D02*
X77275000Y-61775000D01*
X77275000Y-61775000D02*
X77800000Y-62300000D01*
%TO.N,/BUS_CONNECTOR/GPIO18*%
X76162499Y-63437501D02*
X76100000Y-63500000D01*
X76162499Y-62775000D02*
X76162499Y-63437501D01*
%TO.N,/BUS_CONNECTOR/GPIO27*%
X78275000Y-60275000D02*
X80000000Y-62000000D01*
X76162499Y-60275000D02*
X78275000Y-60275000D01*
X43345000Y-33755000D02*
X43345000Y-24535000D01*
X43345000Y-24535000D02*
X44860000Y-23020000D01*
X42900000Y-34200000D02*
X43345000Y-33755000D01*
%TO.N,/BUS_CONNECTOR/GPIO12*%
X78875000Y-59275000D02*
X81400000Y-61800000D01*
X76162499Y-59275000D02*
X78875000Y-59275000D01*
%TO.N,/BUS_CONNECTOR/GPIO19*%
X76162499Y-60775000D02*
X77975000Y-60775000D01*
X77975000Y-60775000D02*
X79300000Y-62100000D01*
%TO.N,/BUS_CONNECTOR/GPIO25*%
X71737499Y-54362501D02*
X71600000Y-54500000D01*
X47900000Y-34300000D02*
X48425000Y-33775000D01*
X48425000Y-24535000D02*
X49940000Y-23020000D01*
X71737499Y-53350000D02*
X71737499Y-54362501D01*
X48425000Y-33775000D02*
X48425000Y-24535000D01*
%TO.N,/BUS_CONNECTOR/GPIO16*%
X65625000Y-61775000D02*
X66100000Y-61300000D01*
X64812499Y-61775000D02*
X65625000Y-61775000D01*
%TO.N,/BUS_CONNECTOR/GPIO26*%
X76162499Y-62275000D02*
X76899197Y-62275000D01*
X46375000Y-24045000D02*
X47400000Y-23020000D01*
X46375000Y-33425000D02*
X46375000Y-24045000D01*
X45500000Y-34300000D02*
X46375000Y-33425000D01*
X77400000Y-62775803D02*
X77400000Y-63300000D01*
X76899197Y-62275000D02*
X77400000Y-62775803D01*
%TO.N,/BUS_CONNECTOR/GPIO9*%
X66200000Y-63700000D02*
X66737499Y-64237499D01*
X66737499Y-64237499D02*
X66737499Y-64700000D01*
%TO.N,/BUS_CONNECTOR/GPIO1*%
X64812499Y-62775000D02*
X63375000Y-62775000D01*
X63375000Y-62775000D02*
X63300000Y-62700000D01*
%TO.N,/BUS_CONNECTOR/GPIO10*%
X73162498Y-54700000D02*
X73100000Y-54700000D01*
X73737499Y-53350000D02*
X73737499Y-54124999D01*
X73737499Y-54124999D02*
X73162498Y-54700000D01*
D56*
%TO.N,/BUS_CONNECTOR/USB1.D+*%
X70112500Y-36537499D02*
X72387500Y-36537499D01*
X66450000Y-35750000D02*
X68850000Y-35750000D01*
X74900000Y-36000000D02*
X74650000Y-35750000D01*
X96909999Y-56549999D02*
X96909999Y-56317346D01*
X73575000Y-35750000D02*
X72787501Y-36537499D01*
X66250000Y-35950000D02*
X66450000Y-35750000D01*
X72787501Y-36537499D02*
X72387500Y-36537499D01*
X96910000Y-56550000D02*
X96909999Y-56549999D01*
X96909999Y-56317346D02*
X96700000Y-56107347D01*
X68850000Y-35750000D02*
X69637499Y-36537499D01*
X96910000Y-56675000D02*
X96910000Y-56550000D01*
X69637499Y-36537499D02*
X70112500Y-36537499D01*
X74650000Y-35750000D02*
X73575000Y-35750000D01*
X96650000Y-56935000D02*
X96910000Y-56675000D01*
X96650000Y-57400001D02*
X96650000Y-56935000D01*
D52*
%TO.N,/BUS_CONNECTOR/GPIO24*%
X64812499Y-62275000D02*
X65925000Y-62275000D01*
X51455000Y-33445000D02*
X51455000Y-24045000D01*
X51455000Y-24045000D02*
X52480000Y-23020000D01*
X65925000Y-62275000D02*
X66100000Y-62100000D01*
X50600000Y-34300000D02*
X51455000Y-33445000D01*
%TO.N,/BUS_CONNECTOR/GPIO4*%
X78527621Y-59775000D02*
X80645104Y-61892483D01*
X76162499Y-59775000D02*
X78527621Y-59775000D01*
D56*
%TO.N,/BUS_CONNECTOR/USB1.D-*%
X97240000Y-56550000D02*
X97240001Y-56549999D01*
X66192477Y-35202206D02*
X66410271Y-35420000D01*
X66410271Y-35420000D02*
X68930000Y-35420000D01*
X74516324Y-35420000D02*
X73620000Y-35420000D01*
X97240000Y-56675000D02*
X97240000Y-56550000D01*
X69712499Y-34637501D02*
X70112500Y-34637501D01*
X74900000Y-35249997D02*
X74686327Y-35249997D01*
X97500000Y-57400001D02*
X97500000Y-56935000D01*
X73620000Y-35420000D02*
X72837501Y-34637501D01*
X72837501Y-34637501D02*
X72387500Y-34637501D01*
X97240001Y-56549999D02*
X97240001Y-56317346D01*
X97240001Y-56317346D02*
X97450000Y-56107347D01*
X70112500Y-34637501D02*
X72387500Y-34637501D01*
X97500000Y-56935000D02*
X97240000Y-56675000D01*
X68930000Y-35420000D02*
X69712499Y-34637501D01*
X74686327Y-35249997D02*
X74516324Y-35420000D01*
D52*
%TO.N,Net-(U2-EN)*%
X86137500Y-34437499D02*
X85650001Y-33950000D01*
X85650001Y-33950000D02*
X84749999Y-33950000D01*
X86137500Y-35212501D02*
X86137500Y-34437499D01*
%TO.N,Net-(U11-HSD2+)*%
X96637500Y-60587499D02*
X95812499Y-60587499D01*
X95812499Y-60587499D02*
X95549999Y-60849999D01*
%TO.N,Net-(U11-HSD2-)*%
X95737499Y-60187499D02*
X95549999Y-59999999D01*
X96637500Y-60187499D02*
X95737499Y-60187499D01*
%TO.N,Net-(U11-HSD1+)*%
X96650000Y-58399999D02*
X96900000Y-58649999D01*
X96900000Y-58649999D02*
X96900000Y-59524999D01*
%TO.N,Net-(U11-HSD1-)*%
X97300000Y-58599999D02*
X97300000Y-59524999D01*
X97500000Y-58399999D02*
X97300000Y-58599999D01*
%TO.N,Net-(U11-D+)*%
X97862500Y-60587499D02*
X98887502Y-60587499D01*
X98887502Y-60587499D02*
X99100002Y-60799999D01*
%TO.N,Net-(U11-D-)*%
X98862503Y-60187499D02*
X99100003Y-59949999D01*
X97962500Y-60187499D02*
X98862503Y-60187499D01*
%TO.N,/LORA/LORA.MISO*%
X79600000Y-72800000D02*
X77700000Y-72800000D01*
X77700000Y-72800000D02*
X76759061Y-71859061D01*
%TD*%
%TA.AperFunction,Conductor*%
%TO.N,+VBAT*%
G36*
X90117375Y-21906926D02*
G01*
X90129383Y-21915524D01*
X90143551Y-21919685D01*
X90157214Y-21935453D01*
X90174183Y-21947604D01*
X90179636Y-21961329D01*
X90189306Y-21972489D01*
X90192275Y-21993142D01*
X90194080Y-21997684D01*
X90580000Y-22383604D01*
X90580001Y-22383604D01*
X90965664Y-21997938D01*
X90966404Y-21983164D01*
X91007068Y-21926347D01*
X91042625Y-21906926D01*
X91062469Y-21900000D01*
X92637532Y-21900000D01*
X92657375Y-21906926D01*
X92669383Y-21915524D01*
X92683551Y-21919685D01*
X92697214Y-21935453D01*
X92714183Y-21947604D01*
X92719636Y-21961329D01*
X92729306Y-21972489D01*
X92732275Y-21993142D01*
X92734080Y-21997684D01*
X93120000Y-22383604D01*
X93120001Y-22383604D01*
X93505664Y-21997938D01*
X93506404Y-21983164D01*
X93547068Y-21926347D01*
X93582625Y-21906926D01*
X93602469Y-21900000D01*
X93704128Y-21900000D01*
X94076000Y-21900000D01*
X94143039Y-21919685D01*
X94188794Y-21972489D01*
X94200000Y-22024000D01*
X94200000Y-22577063D01*
X94185669Y-22593227D01*
X94178140Y-22597944D01*
X94178295Y-22598099D01*
X94163697Y-22612696D01*
X94163590Y-22612830D01*
X94163551Y-22612842D01*
X93756396Y-23019999D01*
X93756396Y-23020001D01*
X94178086Y-23441691D01*
X94185672Y-23446775D01*
X94200000Y-23462936D01*
X94200000Y-25117063D01*
X94185669Y-25133227D01*
X94178140Y-25137944D01*
X94178295Y-25138099D01*
X94163697Y-25152696D01*
X94163590Y-25152830D01*
X94163551Y-25152842D01*
X93756396Y-25559999D01*
X93756396Y-25560001D01*
X94178086Y-25981691D01*
X94185672Y-25986775D01*
X94200000Y-26002936D01*
X94200000Y-27657063D01*
X94185669Y-27673227D01*
X94178140Y-27677944D01*
X94178295Y-27678099D01*
X94163697Y-27692696D01*
X94163590Y-27692830D01*
X94163551Y-27692842D01*
X93756396Y-28099999D01*
X93756396Y-28100001D01*
X94178086Y-28521691D01*
X94185672Y-28526775D01*
X94200000Y-28542936D01*
X94200000Y-30197063D01*
X94185669Y-30213227D01*
X94178140Y-30217944D01*
X94178295Y-30218099D01*
X94163697Y-30232696D01*
X94163590Y-30232830D01*
X94163551Y-30232842D01*
X93756396Y-30639999D01*
X93756396Y-30640001D01*
X94178086Y-31061691D01*
X94185672Y-31066775D01*
X94200000Y-31082936D01*
X94200000Y-31264127D01*
X94200000Y-31576000D01*
X94180315Y-31643039D01*
X94127511Y-31688794D01*
X94076000Y-31700000D01*
X93543604Y-31700000D01*
X93541899Y-31698295D01*
X93541897Y-31698292D01*
X93120001Y-31276396D01*
X93120000Y-31276396D01*
X92698105Y-31698288D01*
X92698101Y-31698294D01*
X92696395Y-31700000D01*
X91003604Y-31700000D01*
X91001899Y-31698295D01*
X91001897Y-31698292D01*
X90580001Y-31276396D01*
X90580000Y-31276396D01*
X90158105Y-31698288D01*
X90158101Y-31698294D01*
X90156395Y-31700000D01*
X89624000Y-31700000D01*
X89556961Y-31680315D01*
X89511206Y-31627511D01*
X89500000Y-31576000D01*
X89500000Y-31264128D01*
X89500000Y-31082935D01*
X89514325Y-31066777D01*
X89521858Y-31062055D01*
X89521703Y-31061900D01*
X89536226Y-31047376D01*
X89536376Y-31047191D01*
X89536430Y-31047172D01*
X89943604Y-30640000D01*
X89876461Y-30572857D01*
X90070000Y-30572857D01*
X90070000Y-30707143D01*
X90104755Y-30836853D01*
X90171898Y-30953147D01*
X90266853Y-31048102D01*
X90383147Y-31115245D01*
X90512857Y-31150000D01*
X90647143Y-31150000D01*
X90776853Y-31115245D01*
X90893147Y-31048102D01*
X90988102Y-30953147D01*
X91055245Y-30836853D01*
X91090000Y-30707143D01*
X91090000Y-30639999D01*
X91216396Y-30639999D01*
X91216396Y-30640001D01*
X91589191Y-31012796D01*
X91589191Y-31012795D01*
X91628530Y-30891724D01*
X91655000Y-30724609D01*
X91655000Y-30555390D01*
X92045000Y-30555390D01*
X92045000Y-30724609D01*
X92071469Y-30891726D01*
X92071469Y-30891727D01*
X92110806Y-31012796D01*
X92110807Y-31012796D01*
X92483604Y-30640000D01*
X92416461Y-30572857D01*
X92610000Y-30572857D01*
X92610000Y-30707143D01*
X92644755Y-30836853D01*
X92711898Y-30953147D01*
X92806853Y-31048102D01*
X92923147Y-31115245D01*
X93052857Y-31150000D01*
X93187143Y-31150000D01*
X93316853Y-31115245D01*
X93433147Y-31048102D01*
X93528102Y-30953147D01*
X93595245Y-30836853D01*
X93630000Y-30707143D01*
X93630000Y-30572857D01*
X93595245Y-30443147D01*
X93528102Y-30326853D01*
X93433147Y-30231898D01*
X93316853Y-30164755D01*
X93187143Y-30130000D01*
X93052857Y-30130000D01*
X92923147Y-30164755D01*
X92806853Y-30231898D01*
X92711898Y-30326853D01*
X92644755Y-30443147D01*
X92610000Y-30572857D01*
X92416461Y-30572857D01*
X92110806Y-30267202D01*
X92071470Y-30388265D01*
X92071470Y-30388268D01*
X92045000Y-30555390D01*
X91655000Y-30555390D01*
X91628530Y-30388275D01*
X91589191Y-30267202D01*
X91216396Y-30639999D01*
X91090000Y-30639999D01*
X91090000Y-30572857D01*
X91055245Y-30443147D01*
X90988102Y-30326853D01*
X90893147Y-30231898D01*
X90776853Y-30164755D01*
X90647143Y-30130000D01*
X90512857Y-30130000D01*
X90383147Y-30164755D01*
X90266853Y-30231898D01*
X90171898Y-30326853D01*
X90104755Y-30443147D01*
X90070000Y-30572857D01*
X89876461Y-30572857D01*
X89521915Y-30218311D01*
X89514328Y-30213225D01*
X89500000Y-30197064D01*
X89500000Y-29630806D01*
X90207202Y-29630806D01*
X90580000Y-30003604D01*
X90580001Y-30003604D01*
X90952796Y-29630807D01*
X90952796Y-29630806D01*
X92747202Y-29630806D01*
X93120000Y-30003604D01*
X93120001Y-30003604D01*
X93492796Y-29630807D01*
X93492796Y-29630806D01*
X93371726Y-29591469D01*
X93204609Y-29565000D01*
X93035391Y-29565000D01*
X92868268Y-29591470D01*
X92868265Y-29591470D01*
X92747202Y-29630806D01*
X90952796Y-29630806D01*
X90831726Y-29591469D01*
X90664609Y-29565000D01*
X90495391Y-29565000D01*
X90328268Y-29591470D01*
X90328265Y-29591470D01*
X90207202Y-29630806D01*
X89500000Y-29630806D01*
X89500000Y-29109191D01*
X90207202Y-29109191D01*
X90328275Y-29148530D01*
X90495391Y-29175000D01*
X90664609Y-29175000D01*
X90831724Y-29148530D01*
X90952795Y-29109191D01*
X90952796Y-29109191D01*
X92747202Y-29109191D01*
X92868275Y-29148530D01*
X93035391Y-29175000D01*
X93204609Y-29175000D01*
X93371724Y-29148530D01*
X93492795Y-29109191D01*
X93492796Y-29109191D01*
X93120001Y-28736396D01*
X93120000Y-28736396D01*
X92747202Y-29109191D01*
X90952796Y-29109191D01*
X90580001Y-28736396D01*
X90580000Y-28736396D01*
X90207202Y-29109191D01*
X89500000Y-29109191D01*
X89500000Y-28542935D01*
X89514325Y-28526777D01*
X89521858Y-28522055D01*
X89521703Y-28521900D01*
X89536226Y-28507376D01*
X89536376Y-28507191D01*
X89536430Y-28507172D01*
X89943604Y-28100000D01*
X89876461Y-28032857D01*
X90070000Y-28032857D01*
X90070000Y-28167143D01*
X90104755Y-28296853D01*
X90171898Y-28413147D01*
X90266853Y-28508102D01*
X90383147Y-28575245D01*
X90512857Y-28610000D01*
X90647143Y-28610000D01*
X90776853Y-28575245D01*
X90893147Y-28508102D01*
X90988102Y-28413147D01*
X91055245Y-28296853D01*
X91090000Y-28167143D01*
X91090000Y-28099999D01*
X91216396Y-28099999D01*
X91216396Y-28100001D01*
X91589191Y-28472796D01*
X91589191Y-28472795D01*
X91628530Y-28351724D01*
X91655000Y-28184609D01*
X91655000Y-28015390D01*
X92045000Y-28015390D01*
X92045000Y-28184609D01*
X92071469Y-28351726D01*
X92071469Y-28351727D01*
X92110806Y-28472796D01*
X92110807Y-28472796D01*
X92483604Y-28100000D01*
X92416461Y-28032857D01*
X92610000Y-28032857D01*
X92610000Y-28167143D01*
X92644755Y-28296853D01*
X92711898Y-28413147D01*
X92806853Y-28508102D01*
X92923147Y-28575245D01*
X93052857Y-28610000D01*
X93187143Y-28610000D01*
X93316853Y-28575245D01*
X93433147Y-28508102D01*
X93528102Y-28413147D01*
X93595245Y-28296853D01*
X93630000Y-28167143D01*
X93630000Y-28032857D01*
X93595245Y-27903147D01*
X93528102Y-27786853D01*
X93433147Y-27691898D01*
X93316853Y-27624755D01*
X93187143Y-27590000D01*
X93052857Y-27590000D01*
X92923147Y-27624755D01*
X92806853Y-27691898D01*
X92711898Y-27786853D01*
X92644755Y-27903147D01*
X92610000Y-28032857D01*
X92416461Y-28032857D01*
X92110806Y-27727202D01*
X92071470Y-27848265D01*
X92071470Y-27848268D01*
X92045000Y-28015390D01*
X91655000Y-28015390D01*
X91628530Y-27848275D01*
X91589191Y-27727202D01*
X91216396Y-28099999D01*
X91090000Y-28099999D01*
X91090000Y-28032857D01*
X91055245Y-27903147D01*
X90988102Y-27786853D01*
X90893147Y-27691898D01*
X90776853Y-27624755D01*
X90647143Y-27590000D01*
X90512857Y-27590000D01*
X90383147Y-27624755D01*
X90266853Y-27691898D01*
X90171898Y-27786853D01*
X90104755Y-27903147D01*
X90070000Y-28032857D01*
X89876461Y-28032857D01*
X89521915Y-27678311D01*
X89514328Y-27673225D01*
X89500000Y-27657064D01*
X89500000Y-27090806D01*
X90207202Y-27090806D01*
X90580000Y-27463604D01*
X90580001Y-27463604D01*
X90952796Y-27090807D01*
X90952796Y-27090806D01*
X92747202Y-27090806D01*
X93120000Y-27463604D01*
X93120001Y-27463604D01*
X93492796Y-27090807D01*
X93492796Y-27090806D01*
X93371726Y-27051469D01*
X93204609Y-27025000D01*
X93035391Y-27025000D01*
X92868268Y-27051470D01*
X92868265Y-27051470D01*
X92747202Y-27090806D01*
X90952796Y-27090806D01*
X90831726Y-27051469D01*
X90664609Y-27025000D01*
X90495391Y-27025000D01*
X90328268Y-27051470D01*
X90328265Y-27051470D01*
X90207202Y-27090806D01*
X89500000Y-27090806D01*
X89500000Y-26569191D01*
X90207202Y-26569191D01*
X90328275Y-26608530D01*
X90495391Y-26635000D01*
X90664609Y-26635000D01*
X90831724Y-26608530D01*
X90952795Y-26569191D01*
X90952796Y-26569191D01*
X92747202Y-26569191D01*
X92868275Y-26608530D01*
X93035391Y-26635000D01*
X93204609Y-26635000D01*
X93371724Y-26608530D01*
X93492795Y-26569191D01*
X93492796Y-26569191D01*
X93120001Y-26196396D01*
X93120000Y-26196396D01*
X92747202Y-26569191D01*
X90952796Y-26569191D01*
X90580001Y-26196396D01*
X90580000Y-26196396D01*
X90207202Y-26569191D01*
X89500000Y-26569191D01*
X89500000Y-26002935D01*
X89514325Y-25986777D01*
X89521858Y-25982055D01*
X89521703Y-25981900D01*
X89536226Y-25967376D01*
X89536376Y-25967191D01*
X89536430Y-25967172D01*
X89943604Y-25560000D01*
X89876461Y-25492857D01*
X90070000Y-25492857D01*
X90070000Y-25627143D01*
X90104755Y-25756853D01*
X90171898Y-25873147D01*
X90266853Y-25968102D01*
X90383147Y-26035245D01*
X90512857Y-26070000D01*
X90647143Y-26070000D01*
X90776853Y-26035245D01*
X90893147Y-25968102D01*
X90988102Y-25873147D01*
X91055245Y-25756853D01*
X91090000Y-25627143D01*
X91090000Y-25559999D01*
X91216396Y-25559999D01*
X91216396Y-25560001D01*
X91589191Y-25932796D01*
X91589191Y-25932795D01*
X91628530Y-25811724D01*
X91655000Y-25644609D01*
X91655000Y-25475390D01*
X92045000Y-25475390D01*
X92045000Y-25644609D01*
X92071469Y-25811726D01*
X92071469Y-25811727D01*
X92110806Y-25932796D01*
X92110807Y-25932796D01*
X92483604Y-25560000D01*
X92416461Y-25492857D01*
X92610000Y-25492857D01*
X92610000Y-25627143D01*
X92644755Y-25756853D01*
X92711898Y-25873147D01*
X92806853Y-25968102D01*
X92923147Y-26035245D01*
X93052857Y-26070000D01*
X93187143Y-26070000D01*
X93316853Y-26035245D01*
X93433147Y-25968102D01*
X93528102Y-25873147D01*
X93595245Y-25756853D01*
X93630000Y-25627143D01*
X93630000Y-25492857D01*
X93595245Y-25363147D01*
X93528102Y-25246853D01*
X93433147Y-25151898D01*
X93316853Y-25084755D01*
X93187143Y-25050000D01*
X93052857Y-25050000D01*
X92923147Y-25084755D01*
X92806853Y-25151898D01*
X92711898Y-25246853D01*
X92644755Y-25363147D01*
X92610000Y-25492857D01*
X92416461Y-25492857D01*
X92110806Y-25187202D01*
X92071470Y-25308265D01*
X92071470Y-25308268D01*
X92045000Y-25475390D01*
X91655000Y-25475390D01*
X91628530Y-25308275D01*
X91589191Y-25187202D01*
X91216396Y-25559999D01*
X91090000Y-25559999D01*
X91090000Y-25492857D01*
X91055245Y-25363147D01*
X90988102Y-25246853D01*
X90893147Y-25151898D01*
X90776853Y-25084755D01*
X90647143Y-25050000D01*
X90512857Y-25050000D01*
X90383147Y-25084755D01*
X90266853Y-25151898D01*
X90171898Y-25246853D01*
X90104755Y-25363147D01*
X90070000Y-25492857D01*
X89876461Y-25492857D01*
X89521915Y-25138311D01*
X89514328Y-25133225D01*
X89500000Y-25117064D01*
X89500000Y-24550806D01*
X90207202Y-24550806D01*
X90580000Y-24923604D01*
X90580001Y-24923604D01*
X90952796Y-24550807D01*
X90952796Y-24550806D01*
X92747202Y-24550806D01*
X93120000Y-24923604D01*
X93120001Y-24923604D01*
X93492796Y-24550807D01*
X93492796Y-24550806D01*
X93371726Y-24511469D01*
X93204609Y-24485000D01*
X93035391Y-24485000D01*
X92868268Y-24511470D01*
X92868265Y-24511470D01*
X92747202Y-24550806D01*
X90952796Y-24550806D01*
X90831726Y-24511469D01*
X90664609Y-24485000D01*
X90495391Y-24485000D01*
X90328268Y-24511470D01*
X90328265Y-24511470D01*
X90207202Y-24550806D01*
X89500000Y-24550806D01*
X89500000Y-24029191D01*
X90207202Y-24029191D01*
X90328275Y-24068530D01*
X90495391Y-24095000D01*
X90664609Y-24095000D01*
X90831724Y-24068530D01*
X90952795Y-24029191D01*
X90952796Y-24029191D01*
X92747202Y-24029191D01*
X92868275Y-24068530D01*
X93035391Y-24095000D01*
X93204609Y-24095000D01*
X93371724Y-24068530D01*
X93492795Y-24029191D01*
X93492796Y-24029191D01*
X93120001Y-23656396D01*
X93120000Y-23656396D01*
X92747202Y-24029191D01*
X90952796Y-24029191D01*
X90580001Y-23656396D01*
X90580000Y-23656396D01*
X90207202Y-24029191D01*
X89500000Y-24029191D01*
X89500000Y-23462935D01*
X89514325Y-23446777D01*
X89521858Y-23442055D01*
X89521703Y-23441900D01*
X89536226Y-23427376D01*
X89536376Y-23427191D01*
X89536430Y-23427172D01*
X89943604Y-23020000D01*
X89876461Y-22952857D01*
X90070000Y-22952857D01*
X90070000Y-23087143D01*
X90104755Y-23216853D01*
X90171898Y-23333147D01*
X90266853Y-23428102D01*
X90383147Y-23495245D01*
X90512857Y-23530000D01*
X90647143Y-23530000D01*
X90776853Y-23495245D01*
X90893147Y-23428102D01*
X90988102Y-23333147D01*
X91055245Y-23216853D01*
X91090000Y-23087143D01*
X91090000Y-23019999D01*
X91216396Y-23019999D01*
X91216396Y-23020001D01*
X91589191Y-23392796D01*
X91589191Y-23392795D01*
X91628530Y-23271724D01*
X91655000Y-23104609D01*
X91655000Y-22935390D01*
X92045000Y-22935390D01*
X92045000Y-23104609D01*
X92071469Y-23271726D01*
X92071469Y-23271727D01*
X92110806Y-23392796D01*
X92110807Y-23392796D01*
X92483604Y-23020000D01*
X92416461Y-22952857D01*
X92610000Y-22952857D01*
X92610000Y-23087143D01*
X92644755Y-23216853D01*
X92711898Y-23333147D01*
X92806853Y-23428102D01*
X92923147Y-23495245D01*
X93052857Y-23530000D01*
X93187143Y-23530000D01*
X93316853Y-23495245D01*
X93433147Y-23428102D01*
X93528102Y-23333147D01*
X93595245Y-23216853D01*
X93630000Y-23087143D01*
X93630000Y-22952857D01*
X93595245Y-22823147D01*
X93528102Y-22706853D01*
X93433147Y-22611898D01*
X93316853Y-22544755D01*
X93187143Y-22510000D01*
X93052857Y-22510000D01*
X92923147Y-22544755D01*
X92806853Y-22611898D01*
X92711898Y-22706853D01*
X92644755Y-22823147D01*
X92610000Y-22952857D01*
X92416461Y-22952857D01*
X92110806Y-22647202D01*
X92071470Y-22768265D01*
X92071470Y-22768268D01*
X92045000Y-22935390D01*
X91655000Y-22935390D01*
X91628530Y-22768275D01*
X91589191Y-22647202D01*
X91216396Y-23019999D01*
X91090000Y-23019999D01*
X91090000Y-22952857D01*
X91055245Y-22823147D01*
X90988102Y-22706853D01*
X90893147Y-22611898D01*
X90776853Y-22544755D01*
X90647143Y-22510000D01*
X90512857Y-22510000D01*
X90383147Y-22544755D01*
X90266853Y-22611898D01*
X90171898Y-22706853D01*
X90104755Y-22823147D01*
X90070000Y-22952857D01*
X89876461Y-22952857D01*
X89521915Y-22598311D01*
X89514328Y-22593225D01*
X89500000Y-22577064D01*
X89500000Y-22024000D01*
X89519685Y-21956961D01*
X89572489Y-21911206D01*
X89624000Y-21900000D01*
X89995872Y-21900000D01*
X90097532Y-21900000D01*
X90117375Y-21906926D01*
G37*
%TD.AperFunction*%
%TD*%
%TA.AperFunction,Conductor*%
%TO.N,GND*%
G36*
X78539859Y-89415842D02*
G01*
X78606840Y-89435714D01*
X78627189Y-89452160D01*
X79263181Y-90088152D01*
X79296666Y-90149475D01*
X79299500Y-90175833D01*
X79299500Y-90625500D01*
X79279815Y-90692539D01*
X79227011Y-90738294D01*
X79175500Y-90749500D01*
X78835178Y-90749500D01*
X78791282Y-90758231D01*
X78791275Y-90758234D01*
X78741496Y-90791495D01*
X78741495Y-90791496D01*
X78708234Y-90841275D01*
X78708231Y-90841282D01*
X78699500Y-90885177D01*
X78699500Y-90885180D01*
X78699500Y-92914820D01*
X78699500Y-92914822D01*
X78699499Y-92914822D01*
X78708231Y-92958717D01*
X78708234Y-92958724D01*
X78737944Y-93003188D01*
X78741496Y-93008504D01*
X78791278Y-93041767D01*
X78791281Y-93041767D01*
X78791282Y-93041768D01*
X78835177Y-93050500D01*
X78835180Y-93050500D01*
X80364822Y-93050500D01*
X80408717Y-93041768D01*
X80408717Y-93041767D01*
X80408722Y-93041767D01*
X80458504Y-93008504D01*
X80491767Y-92958722D01*
X80491767Y-92958719D01*
X80496897Y-92951043D01*
X80550509Y-92906237D01*
X80619834Y-92897530D01*
X80682862Y-92927684D01*
X80703103Y-92951043D01*
X80708232Y-92958720D01*
X80708233Y-92958722D01*
X80741496Y-93008504D01*
X80791278Y-93041767D01*
X80791281Y-93041767D01*
X80791282Y-93041768D01*
X80835177Y-93050500D01*
X80835180Y-93050500D01*
X82364822Y-93050500D01*
X82408717Y-93041768D01*
X82408717Y-93041767D01*
X82408722Y-93041767D01*
X82458504Y-93008504D01*
X82491767Y-92958722D01*
X82491767Y-92958719D01*
X82496897Y-92951043D01*
X82550509Y-92906237D01*
X82619834Y-92897530D01*
X82682862Y-92927684D01*
X82703103Y-92951043D01*
X82708232Y-92958720D01*
X82708233Y-92958722D01*
X82741496Y-93008504D01*
X82791278Y-93041767D01*
X82791281Y-93041767D01*
X82791282Y-93041768D01*
X82835177Y-93050500D01*
X82835180Y-93050500D01*
X84364822Y-93050500D01*
X84408717Y-93041768D01*
X84408717Y-93041767D01*
X84408722Y-93041767D01*
X84458504Y-93008504D01*
X84491767Y-92958722D01*
X84491767Y-92958719D01*
X84496897Y-92951043D01*
X84550509Y-92906237D01*
X84619834Y-92897530D01*
X84682862Y-92927684D01*
X84703103Y-92951043D01*
X84708232Y-92958720D01*
X84708233Y-92958722D01*
X84741496Y-93008504D01*
X84791278Y-93041767D01*
X84791281Y-93041767D01*
X84791282Y-93041768D01*
X84835177Y-93050500D01*
X84835180Y-93050500D01*
X86364822Y-93050500D01*
X86408717Y-93041768D01*
X86408717Y-93041767D01*
X86408722Y-93041767D01*
X86458504Y-93008504D01*
X86491767Y-92958722D01*
X86491767Y-92958719D01*
X86496897Y-92951043D01*
X86550509Y-92906237D01*
X86619834Y-92897530D01*
X86682862Y-92927684D01*
X86703103Y-92951043D01*
X86708232Y-92958720D01*
X86708233Y-92958722D01*
X86741496Y-93008504D01*
X86791278Y-93041767D01*
X86791281Y-93041767D01*
X86791282Y-93041768D01*
X86835177Y-93050500D01*
X86835180Y-93050500D01*
X88364822Y-93050500D01*
X88408717Y-93041768D01*
X88408717Y-93041767D01*
X88408722Y-93041767D01*
X88458504Y-93008504D01*
X88491767Y-92958722D01*
X88491767Y-92958719D01*
X88496897Y-92951043D01*
X88550509Y-92906237D01*
X88619834Y-92897530D01*
X88682862Y-92927684D01*
X88703103Y-92951043D01*
X88708232Y-92958720D01*
X88708233Y-92958722D01*
X88741496Y-93008504D01*
X88791278Y-93041767D01*
X88791281Y-93041767D01*
X88791282Y-93041768D01*
X88835177Y-93050500D01*
X88835180Y-93050500D01*
X90364822Y-93050500D01*
X90408717Y-93041768D01*
X90408717Y-93041767D01*
X90408722Y-93041767D01*
X90458504Y-93008504D01*
X90491767Y-92958722D01*
X90494306Y-92945957D01*
X90500500Y-92914822D01*
X90500500Y-90885177D01*
X90491768Y-90841282D01*
X90491767Y-90841281D01*
X90491767Y-90841278D01*
X90458504Y-90791496D01*
X90458503Y-90791495D01*
X90408724Y-90758234D01*
X90408717Y-90758231D01*
X90364822Y-90749500D01*
X90364820Y-90749500D01*
X89305122Y-90749500D01*
X89238083Y-90729815D01*
X89217441Y-90713181D01*
X88159050Y-89654790D01*
X88125565Y-89593467D01*
X88130549Y-89523775D01*
X88172421Y-89467842D01*
X88237885Y-89443425D01*
X88247067Y-89443109D01*
X107745850Y-89497880D01*
X107812832Y-89517753D01*
X107858439Y-89570686D01*
X107869500Y-89621880D01*
X107869500Y-104376000D01*
X107849815Y-104443039D01*
X107797011Y-104488794D01*
X107745500Y-104500000D01*
X73123181Y-104500000D01*
X73056142Y-104480315D01*
X73010387Y-104427511D01*
X72999184Y-104376821D01*
X72999179Y-104376000D01*
X72909628Y-90854026D01*
X74369500Y-90854026D01*
X74369500Y-92945953D01*
X74369501Y-92945959D01*
X74375652Y-93003186D01*
X74375653Y-93003188D01*
X74423939Y-93132647D01*
X74451644Y-93169658D01*
X74506740Y-93243259D01*
X74561836Y-93284502D01*
X74617353Y-93326061D01*
X74746812Y-93374347D01*
X74762929Y-93376079D01*
X74807346Y-93380856D01*
X74807201Y-93382197D01*
X74867986Y-93403613D01*
X74910871Y-93458772D01*
X74919500Y-93504220D01*
X74919500Y-95967021D01*
X74945650Y-96098495D01*
X74945651Y-96098497D01*
X74981922Y-96186062D01*
X74981923Y-96186064D01*
X74996949Y-96222341D01*
X75071420Y-96333793D01*
X75071423Y-96333797D01*
X77871421Y-99133794D01*
X77966206Y-99228579D01*
X77966207Y-99228580D01*
X78077655Y-99303048D01*
X78077668Y-99303055D01*
X78096849Y-99310999D01*
X78109638Y-99316296D01*
X78109640Y-99316298D01*
X78109641Y-99316298D01*
X78201505Y-99354350D01*
X78332977Y-99380500D01*
X88148849Y-99380500D01*
X88215888Y-99400185D01*
X88259334Y-99448205D01*
X88306853Y-99541466D01*
X88455393Y-99745913D01*
X88634087Y-99924607D01*
X88838534Y-100073147D01*
X88944916Y-100127351D01*
X89063697Y-100187874D01*
X89063699Y-100187874D01*
X89063702Y-100187876D01*
X89304044Y-100265968D01*
X89432638Y-100286335D01*
X89553639Y-100305500D01*
X89553644Y-100305500D01*
X89806361Y-100305500D01*
X89916665Y-100288028D01*
X90055956Y-100265968D01*
X90296298Y-100187876D01*
X90521466Y-100073147D01*
X90725913Y-99924607D01*
X90904607Y-99745913D01*
X91053147Y-99541466D01*
X91167876Y-99316298D01*
X91245968Y-99075956D01*
X91268028Y-98936665D01*
X91285500Y-98826361D01*
X91285500Y-98573638D01*
X91264534Y-98441272D01*
X91245968Y-98324044D01*
X91167876Y-98083702D01*
X91167874Y-98083699D01*
X91167874Y-98083697D01*
X91053146Y-97858533D01*
X90904607Y-97654087D01*
X90725913Y-97475393D01*
X90521466Y-97326853D01*
X90296302Y-97212125D01*
X90055956Y-97134032D01*
X89806361Y-97094500D01*
X89806356Y-97094500D01*
X89553644Y-97094500D01*
X89553639Y-97094500D01*
X89304043Y-97134032D01*
X89063697Y-97212125D01*
X88838533Y-97326853D01*
X88721889Y-97411600D01*
X88634087Y-97475393D01*
X88634085Y-97475395D01*
X88634084Y-97475395D01*
X88455395Y-97654084D01*
X88455395Y-97654085D01*
X88455393Y-97654087D01*
X88391600Y-97741889D01*
X88306853Y-97858533D01*
X88259334Y-97951795D01*
X88211359Y-98002591D01*
X88148849Y-98019500D01*
X78733235Y-98019500D01*
X78666196Y-97999815D01*
X78645554Y-97983181D01*
X76316819Y-95654446D01*
X76283334Y-95593123D01*
X76280500Y-95566765D01*
X76280500Y-93504219D01*
X76300185Y-93437180D01*
X76352989Y-93391425D01*
X76392740Y-93381662D01*
X76392654Y-93380854D01*
X76395956Y-93380499D01*
X76453188Y-93374347D01*
X76582647Y-93326061D01*
X76693259Y-93243259D01*
X76776061Y-93132647D01*
X76824347Y-93003188D01*
X76826647Y-92981794D01*
X76830499Y-92945973D01*
X76830499Y-92945966D01*
X76830500Y-92945957D01*
X76830499Y-90854044D01*
X76824347Y-90796812D01*
X76776061Y-90667353D01*
X76694279Y-90558103D01*
X76693259Y-90556740D01*
X76600944Y-90487636D01*
X76582647Y-90473939D01*
X76453188Y-90425653D01*
X76453184Y-90425652D01*
X76395964Y-90419500D01*
X74804046Y-90419500D01*
X74804040Y-90419501D01*
X74746813Y-90425652D01*
X74682082Y-90449796D01*
X74617353Y-90473939D01*
X74617352Y-90473940D01*
X74617350Y-90473941D01*
X74506740Y-90556740D01*
X74423941Y-90667350D01*
X74423939Y-90667353D01*
X74390042Y-90758234D01*
X74375652Y-90796815D01*
X74369500Y-90854026D01*
X72909628Y-90854026D01*
X72900828Y-89525168D01*
X72920068Y-89458004D01*
X72972568Y-89411900D01*
X73025170Y-89400351D01*
X78539859Y-89415842D01*
G37*
%TD.AperFunction*%
%TD*%
%TA.AperFunction,Conductor*%
%TO.N,GND*%
G36*
X105943039Y-26919685D02*
G01*
X105988794Y-26972489D01*
X106000000Y-27024000D01*
X106000000Y-37676000D01*
X105980315Y-37743039D01*
X105927511Y-37788794D01*
X105876000Y-37800000D01*
X103924000Y-37800000D01*
X103856961Y-37780315D01*
X103811206Y-37727511D01*
X103800000Y-37676000D01*
X103800000Y-36897189D01*
X103819685Y-36830150D01*
X103836319Y-36809508D01*
X103863812Y-36782015D01*
X103907681Y-36682661D01*
X103910499Y-36658372D01*
X103910498Y-36291627D01*
X103907681Y-36267337D01*
X103863812Y-36167983D01*
X103836319Y-36140490D01*
X103802834Y-36079167D01*
X103800000Y-36052809D01*
X103800000Y-35769734D01*
X103819685Y-35702695D01*
X103872489Y-35656940D01*
X103896493Y-35649395D01*
X103896485Y-35649365D01*
X103897884Y-35648958D01*
X103901723Y-35647752D01*
X103902567Y-35647597D01*
X103902569Y-35647597D01*
X104060398Y-35601743D01*
X104201865Y-35518080D01*
X104318081Y-35401864D01*
X104401744Y-35260397D01*
X104447598Y-35102568D01*
X104450500Y-35065693D01*
X104450500Y-33934305D01*
X104447598Y-33897430D01*
X104401744Y-33739601D01*
X104318081Y-33598134D01*
X104318079Y-33598132D01*
X104318076Y-33598128D01*
X104201870Y-33481922D01*
X104201862Y-33481916D01*
X104060396Y-33398254D01*
X104060393Y-33398253D01*
X103902561Y-33352398D01*
X103901706Y-33352242D01*
X103901273Y-33352024D01*
X103896485Y-33350633D01*
X103896743Y-33349743D01*
X103839298Y-33320826D01*
X103803782Y-33260656D01*
X103800000Y-33230263D01*
X103800000Y-27024000D01*
X103819685Y-26956961D01*
X103872489Y-26911206D01*
X103924000Y-26900000D01*
X105876000Y-26900000D01*
X105943039Y-26919685D01*
G37*
%TD.AperFunction*%
%TD*%
%TA.AperFunction,Conductor*%
%TO.N,/MCU/+VDDA*%
G36*
X66229168Y-64134439D02*
G01*
X66258429Y-64143121D01*
X66288243Y-64149607D01*
X66293465Y-64153516D01*
X66296150Y-64154313D01*
X66316497Y-64170758D01*
X66392515Y-64246776D01*
X66426000Y-64308099D01*
X66428831Y-64333625D01*
X66436661Y-65500168D01*
X66417427Y-65567338D01*
X66364931Y-65613446D01*
X66312664Y-65625000D01*
X63066999Y-65625000D01*
X62999960Y-65605315D01*
X62954205Y-65552511D01*
X62942999Y-65501000D01*
X62942999Y-64949008D01*
X62942998Y-64948991D01*
X62939445Y-64915945D01*
X62928239Y-64864434D01*
X62900615Y-64809248D01*
X62887499Y-64753744D01*
X62887499Y-64249351D01*
X62907184Y-64182312D01*
X62959988Y-64136557D01*
X63011847Y-64125351D01*
X66229168Y-64134439D01*
G37*
%TD.AperFunction*%
%TD*%
%TA.AperFunction,Conductor*%
%TO.N,+5V*%
G36*
X100688870Y-26919685D02*
G01*
X100734625Y-26972489D01*
X100745824Y-27022653D01*
X100745871Y-27027030D01*
X100745871Y-27027035D01*
X100747474Y-27174500D01*
X100748072Y-27229533D01*
X100746825Y-27233956D01*
X100748424Y-27244279D01*
X100748427Y-27244294D01*
X100748986Y-27247908D01*
X100755321Y-27288803D01*
X100755322Y-27288806D01*
X100779095Y-27350488D01*
X100781357Y-27354889D01*
X100783076Y-27358037D01*
X100783425Y-27358954D01*
X100793895Y-27377847D01*
X100794116Y-27378252D01*
X100794160Y-27378456D01*
X100800642Y-27392196D01*
X100832497Y-27472976D01*
X100840257Y-27503675D01*
X100844115Y-27535790D01*
X100845000Y-27550580D01*
X100845000Y-28849418D01*
X100844115Y-28864208D01*
X100840257Y-28896323D01*
X100832497Y-28927022D01*
X100805333Y-28995907D01*
X100793648Y-29018451D01*
X100788438Y-29026389D01*
X100784608Y-29035062D01*
X100746103Y-29083769D01*
X100712294Y-29109406D01*
X100712295Y-29109407D01*
X100675271Y-29137484D01*
X100675259Y-29137492D01*
X100675245Y-29137502D01*
X100675246Y-29137503D01*
X100671619Y-29140253D01*
X100642191Y-29156797D01*
X100577021Y-29182497D01*
X100546318Y-29190258D01*
X100514206Y-29194115D01*
X100499419Y-29195000D01*
X99700580Y-29195000D01*
X99685793Y-29194115D01*
X99653680Y-29190258D01*
X99622977Y-29182497D01*
X99557807Y-29156797D01*
X99528372Y-29140247D01*
X99487704Y-29109408D01*
X99477003Y-29101293D01*
X99472118Y-29097736D01*
X99464232Y-29092225D01*
X99464231Y-29092224D01*
X99464229Y-29092223D01*
X99418973Y-29070485D01*
X99418971Y-29070484D01*
X99351931Y-29050799D01*
X99351921Y-29050797D01*
X99308122Y-29044500D01*
X99308119Y-29044500D01*
X98850280Y-29044500D01*
X98846555Y-29044910D01*
X98816447Y-29048225D01*
X98763779Y-29059966D01*
X98763778Y-29059967D01*
X98694578Y-29095274D01*
X98642249Y-29141568D01*
X98636821Y-29146604D01*
X98595638Y-29215760D01*
X98595635Y-29215766D01*
X98576643Y-29282998D01*
X98576642Y-29282999D01*
X98570794Y-29326874D01*
X98615556Y-33683771D01*
X98596562Y-33751009D01*
X98544230Y-33797304D01*
X98491067Y-33809044D01*
X89975002Y-33775000D01*
X89975000Y-33775000D01*
X87097190Y-33775000D01*
X87030151Y-33755315D01*
X87009509Y-33738681D01*
X86957015Y-33686187D01*
X86857662Y-33642318D01*
X86833372Y-33639500D01*
X86466633Y-33639500D01*
X86466610Y-33639502D01*
X86442339Y-33642317D01*
X86442336Y-33642318D01*
X86342983Y-33686186D01*
X86342982Y-33686187D01*
X86290489Y-33738681D01*
X86263561Y-33753384D01*
X86237743Y-33769977D01*
X86231542Y-33770868D01*
X86229166Y-33772166D01*
X86202808Y-33775000D01*
X86097192Y-33775000D01*
X86030153Y-33755315D01*
X86009511Y-33738681D01*
X85957017Y-33686187D01*
X85857664Y-33642318D01*
X85833374Y-33639500D01*
X85466635Y-33639500D01*
X85466612Y-33639502D01*
X85442341Y-33642317D01*
X85442338Y-33642318D01*
X85336763Y-33688934D01*
X85327048Y-33690983D01*
X85321612Y-33694477D01*
X85286677Y-33699500D01*
X85113323Y-33699500D01*
X85063236Y-33688934D01*
X85057012Y-33686186D01*
X85034521Y-33676255D01*
X84957662Y-33642318D01*
X84933372Y-33639500D01*
X84566633Y-33639500D01*
X84566610Y-33639502D01*
X84542339Y-33642317D01*
X84542336Y-33642318D01*
X84442983Y-33686186D01*
X84442982Y-33686187D01*
X84390489Y-33738681D01*
X84363561Y-33753384D01*
X84337743Y-33769977D01*
X84331542Y-33770868D01*
X84329166Y-33772166D01*
X84302808Y-33775000D01*
X84197192Y-33775000D01*
X84130153Y-33755315D01*
X84109511Y-33738681D01*
X84057017Y-33686187D01*
X83957664Y-33642318D01*
X83933374Y-33639500D01*
X83566635Y-33639500D01*
X83566612Y-33639502D01*
X83542341Y-33642317D01*
X83542338Y-33642318D01*
X83442985Y-33686186D01*
X83442984Y-33686187D01*
X83390491Y-33738681D01*
X83329168Y-33772166D01*
X83302810Y-33775000D01*
X82750000Y-33775000D01*
X82750000Y-33861535D01*
X82730315Y-33928574D01*
X82713682Y-33949216D01*
X82639511Y-34023387D01*
X82580201Y-34126114D01*
X82549500Y-34240691D01*
X82549500Y-34359309D01*
X82580201Y-34473886D01*
X82639511Y-34576613D01*
X82639513Y-34576615D01*
X82713681Y-34650783D01*
X82747166Y-34712106D01*
X82750000Y-34738464D01*
X82750000Y-36344376D01*
X82741355Y-36373816D01*
X82734832Y-36403803D01*
X82731077Y-36408818D01*
X82730315Y-36411415D01*
X82713681Y-36432057D01*
X82610514Y-36535224D01*
X82549191Y-36568709D01*
X82520954Y-36571529D01*
X81222121Y-36551849D01*
X81155388Y-36531151D01*
X81110438Y-36477660D01*
X81100000Y-36427863D01*
X81100000Y-32824000D01*
X81119685Y-32756961D01*
X81172489Y-32711206D01*
X81224000Y-32700000D01*
X87000000Y-32700000D01*
X87000000Y-32099000D01*
X87019685Y-32031961D01*
X87072489Y-31986206D01*
X87124000Y-31975000D01*
X97100000Y-31975000D01*
X97100000Y-27024000D01*
X97119685Y-26956961D01*
X97172489Y-26911206D01*
X97224000Y-26900000D01*
X100621831Y-26900000D01*
X100688870Y-26919685D01*
G37*
%TD.AperFunction*%
%TD*%
%TA.AperFunction,Conductor*%
%TO.N,+5V_unprotected*%
G36*
X86925907Y-21873367D02*
G01*
X86992682Y-21893932D01*
X87037738Y-21947333D01*
X87048264Y-21999090D01*
X86909924Y-31890345D01*
X86891818Y-31953148D01*
X86870484Y-31988148D01*
X86850799Y-32055187D01*
X86850797Y-32055197D01*
X86844500Y-32098996D01*
X86844500Y-32420500D01*
X86824815Y-32487539D01*
X86772011Y-32533294D01*
X86720500Y-32544500D01*
X81223991Y-32544500D01*
X81190944Y-32548054D01*
X81139433Y-32559260D01*
X81070657Y-32593686D01*
X81017860Y-32639436D01*
X81012376Y-32644422D01*
X80970486Y-32713145D01*
X80970483Y-32713151D01*
X80950799Y-32780187D01*
X80950797Y-32780197D01*
X80944500Y-32823996D01*
X80944500Y-34832667D01*
X80924815Y-34899706D01*
X80872011Y-34945461D01*
X80802853Y-34955405D01*
X80739297Y-34926380D01*
X80732819Y-34920348D01*
X80660265Y-34847794D01*
X80557492Y-34802415D01*
X80532365Y-34799500D01*
X79267643Y-34799500D01*
X79267617Y-34799502D01*
X79242512Y-34802413D01*
X79242508Y-34802415D01*
X79139735Y-34847793D01*
X79060294Y-34927234D01*
X79014915Y-35030006D01*
X79014915Y-35030008D01*
X79012000Y-35055131D01*
X79012000Y-35444856D01*
X79012002Y-35444882D01*
X79014913Y-35469987D01*
X79014915Y-35469991D01*
X79060293Y-35572764D01*
X79060294Y-35572765D01*
X79139735Y-35652206D01*
X79242509Y-35697585D01*
X79267635Y-35700500D01*
X79546213Y-35700499D01*
X79613252Y-35720183D01*
X79659007Y-35772987D01*
X79660773Y-35777045D01*
X79687636Y-35841897D01*
X80958103Y-37112364D01*
X81050172Y-37150500D01*
X81050174Y-37150500D01*
X82649826Y-37150500D01*
X82649828Y-37150500D01*
X82741897Y-37112364D01*
X82917942Y-36936317D01*
X82979263Y-36902834D01*
X83005622Y-36900000D01*
X84476000Y-36900000D01*
X84543039Y-36919685D01*
X84588794Y-36972489D01*
X84600000Y-37024000D01*
X84600000Y-37824376D01*
X84591355Y-37853815D01*
X84584832Y-37883803D01*
X84581077Y-37888818D01*
X84580315Y-37891415D01*
X84563685Y-37912052D01*
X84460056Y-38015682D01*
X84398733Y-38049166D01*
X84372376Y-38052000D01*
X84271635Y-38052000D01*
X84271611Y-38052002D01*
X84247340Y-38054817D01*
X84247337Y-38054818D01*
X84147984Y-38098686D01*
X84071187Y-38175483D01*
X84027318Y-38274835D01*
X84027318Y-38274837D01*
X84024500Y-38299125D01*
X84024500Y-38725865D01*
X84024502Y-38725888D01*
X84028392Y-38759428D01*
X84025166Y-38759802D01*
X84024093Y-38813313D01*
X83985148Y-38871322D01*
X83921023Y-38899067D01*
X83905840Y-38900000D01*
X78674000Y-38900000D01*
X78606961Y-38880315D01*
X78561206Y-38827511D01*
X78550000Y-38776000D01*
X78550000Y-31724000D01*
X78569685Y-31656961D01*
X78622489Y-31611206D01*
X78674000Y-31600000D01*
X81350000Y-31600000D01*
X81350000Y-21925642D01*
X81369685Y-21858603D01*
X81422489Y-21812848D01*
X81475630Y-21801653D01*
X86925907Y-21873367D01*
G37*
%TD.AperFunction*%
%TD*%
%TA.AperFunction,Conductor*%
%TO.N,+3V3*%
G36*
X103587539Y-26919685D02*
G01*
X103633294Y-26972489D01*
X103644500Y-27024000D01*
X103644500Y-33230263D01*
X103645031Y-33238838D01*
X103645689Y-33249460D01*
X103645691Y-33249479D01*
X103649471Y-33279857D01*
X103669869Y-33339697D01*
X103669871Y-33339702D01*
X103705381Y-33399861D01*
X103705386Y-33399869D01*
X103709300Y-33406154D01*
X103758521Y-33450039D01*
X103795459Y-33509343D01*
X103800000Y-33542592D01*
X103800000Y-35457367D01*
X103780315Y-35524406D01*
X103757203Y-35551080D01*
X103717856Y-35585173D01*
X103712376Y-35590156D01*
X103670486Y-35658879D01*
X103670483Y-35658885D01*
X103650799Y-35725921D01*
X103650797Y-35725931D01*
X103644500Y-35769730D01*
X103644500Y-36052809D01*
X103645390Y-36069416D01*
X103645394Y-36069468D01*
X103648224Y-36095790D01*
X103648225Y-36095792D01*
X103666354Y-36153687D01*
X103666358Y-36153697D01*
X103699836Y-36215007D01*
X103699840Y-36215014D01*
X103727349Y-36251762D01*
X103741509Y-36275970D01*
X103744426Y-36282574D01*
X103754998Y-36332675D01*
X103754998Y-36376000D01*
X103735313Y-36443039D01*
X103682509Y-36488794D01*
X103630998Y-36500000D01*
X99006334Y-36500000D01*
X98939295Y-36480315D01*
X98918653Y-36463681D01*
X98834182Y-36379210D01*
X98800697Y-36317887D01*
X98797871Y-36292815D01*
X98726287Y-29325273D01*
X98745281Y-29258036D01*
X98797612Y-29211741D01*
X98850280Y-29200000D01*
X99308119Y-29200000D01*
X99375158Y-29219685D01*
X99383044Y-29225196D01*
X99465023Y-29287363D01*
X99465024Y-29287363D01*
X99465025Y-29287364D01*
X99599410Y-29340359D01*
X99683856Y-29350500D01*
X99683862Y-29350500D01*
X100516138Y-29350500D01*
X100516144Y-29350500D01*
X100600590Y-29340359D01*
X100734975Y-29287364D01*
X100770507Y-29260418D01*
X100806257Y-29233309D01*
X100806257Y-29233308D01*
X100850078Y-29200078D01*
X100850137Y-29200000D01*
X100925000Y-29200000D01*
X100923941Y-29102674D01*
X100937364Y-29084975D01*
X100990359Y-28950590D01*
X101000500Y-28866144D01*
X101000500Y-27533856D01*
X100990359Y-27449410D01*
X100937364Y-27315025D01*
X100928778Y-27303703D01*
X100921010Y-27283267D01*
X100908989Y-27265001D01*
X100905496Y-27242452D01*
X100903954Y-27238394D01*
X100903588Y-27230161D01*
X100901362Y-27025345D01*
X100920317Y-26958098D01*
X100972621Y-26911772D01*
X101025355Y-26900000D01*
X103520500Y-26900000D01*
X103587539Y-26919685D01*
G37*
%TD.AperFunction*%
%TD*%
%TA.AperFunction,Conductor*%
%TO.N,+3V3*%
G36*
X62730538Y-64844685D02*
G01*
X62776293Y-64897489D01*
X62787499Y-64949000D01*
X62787499Y-66025000D01*
X62938513Y-66025000D01*
X63005552Y-66044685D01*
X63010564Y-66048081D01*
X63014229Y-66050698D01*
X63014232Y-66050699D01*
X63014233Y-66050700D01*
X63125320Y-66105007D01*
X63197338Y-66115500D01*
X63777659Y-66115499D01*
X63849678Y-66105007D01*
X63960765Y-66050700D01*
X63960766Y-66050698D01*
X63960768Y-66050698D01*
X63964434Y-66048081D01*
X63984065Y-66041259D01*
X64001550Y-66030023D01*
X64026887Y-66026379D01*
X64030433Y-66025148D01*
X64036485Y-66025000D01*
X64063499Y-66025000D01*
X64130538Y-66044685D01*
X64176293Y-66097489D01*
X64187499Y-66149000D01*
X64187499Y-67801000D01*
X64167814Y-67868039D01*
X64115010Y-67913794D01*
X64063499Y-67925000D01*
X62111499Y-67925000D01*
X62044460Y-67905315D01*
X61998705Y-67852511D01*
X61987499Y-67801000D01*
X61987499Y-64949000D01*
X62007184Y-64881961D01*
X62059988Y-64836206D01*
X62111499Y-64825000D01*
X62663499Y-64825000D01*
X62730538Y-64844685D01*
G37*
%TD.AperFunction*%
%TD*%
M02*
