%TF.GenerationSoftware,KiCad,Pcbnew,9.0.1-9.0.1-0~ubuntu22.04.1*%
%TF.CreationDate,2025-04-23T20:29:42+02:00*%
%TF.ProjectId,template_board,74656d70-6c61-4746-955f-626f6172642e,rev?*%
%TF.SameCoordinates,Original*%
%TF.FileFunction,Copper,L4,Bot*%
%TF.FilePolarity,Positive*%
%FSLAX46Y46*%
G04 Gerber Fmt 4.6, Leading zero omitted, Abs format (unit mm)*
G04 Created by KiCad (PCBNEW 9.0.1-9.0.1-0~ubuntu22.04.1) date 2025-04-23 20:29:42*
%MOMM*%
%LPD*%
G01*
G04 APERTURE LIST*
%TA.AperFunction,HeatsinkPad*%
%ADD10O,2.100000X1.000000*%
%TD*%
%TA.AperFunction,HeatsinkPad*%
%ADD11O,1.800000X1.000000*%
%TD*%
%TA.AperFunction,ComponentPad*%
%ADD12C,1.550000*%
%TD*%
%TA.AperFunction,ComponentPad*%
%ADD13C,6.400000*%
%TD*%
%TA.AperFunction,ComponentPad*%
%ADD14C,2.250000*%
%TD*%
%TA.AperFunction,SMDPad,CuDef*%
%ADD15C,1.000000*%
%TD*%
%TA.AperFunction,ViaPad*%
%ADD16C,0.600000*%
%TD*%
%TA.AperFunction,ViaPad*%
%ADD17C,0.500000*%
%TD*%
%TA.AperFunction,Conductor*%
%ADD18C,0.200000*%
%TD*%
%TA.AperFunction,Conductor*%
%ADD19C,0.300000*%
%TD*%
%TA.AperFunction,Conductor*%
%ADD20C,0.180000*%
%TD*%
%TA.AperFunction,Conductor*%
%ADD21C,0.160000*%
%TD*%
G04 APERTURE END LIST*
D10*
%TO.P,J1,S1,SHIELD*%
%TO.N,Net-(J1-SHIELD)*%
X100800000Y-86340000D03*
D11*
X104980000Y-86340000D03*
D10*
X100800000Y-77700000D03*
D11*
X104980000Y-77700000D03*
%TD*%
D12*
%TO.P,H2,1,1*%
%TO.N,GND*%
X95660000Y-25560000D03*
%TO.P,H2,2,2*%
X95660000Y-23020000D03*
%TO.P,H2,3,3*%
%TO.N,+VBAT*%
X93120000Y-25560000D03*
%TO.P,H2,4,4*%
X93120000Y-23020000D03*
%TO.P,H2,5,5*%
X90580000Y-25560000D03*
%TO.P,H2,6,6*%
X90580000Y-23020000D03*
%TO.P,H2,7,7*%
%TO.N,GND*%
X88040000Y-25560000D03*
%TO.P,H2,8,8*%
X88040000Y-23020000D03*
%TO.P,H2,9,9*%
%TO.N,+5V_unprotected*%
X85500000Y-25560000D03*
%TO.P,H2,10,10*%
X85500000Y-23020000D03*
%TO.P,H2,11,11*%
X82960000Y-25560000D03*
%TO.P,H2,12,12*%
X82960000Y-23020000D03*
%TO.P,H2,13,13*%
%TO.N,GND*%
X80420000Y-25560000D03*
%TO.P,H2,14,14*%
X80420000Y-23020000D03*
%TO.P,H2,15,15*%
%TO.N,/BUS_CONNECTOR/CAN3.+*%
X77880000Y-25560000D03*
%TO.P,H2,16,16*%
%TO.N,/BUS_CONNECTOR/CAN4.+*%
X77880000Y-23020000D03*
%TO.P,H2,17,17*%
%TO.N,/BUS_CONNECTOR/CAN3.-*%
X75340000Y-25560000D03*
%TO.P,H2,18,18*%
%TO.N,/BUS_CONNECTOR/CAN4.-*%
X75340000Y-23020000D03*
%TO.P,H2,19,19*%
%TO.N,GND*%
X72800000Y-25560000D03*
%TO.P,H2,20,20*%
X72800000Y-23020000D03*
%TO.P,H2,21,21*%
%TO.N,/BUS_CONNECTOR/USB3.D+*%
X70260000Y-25560000D03*
%TO.P,H2,22,22*%
%TO.N,/BUS_CONNECTOR/USB4.D+*%
X70260000Y-23020000D03*
%TO.P,H2,23,23*%
%TO.N,/BUS_CONNECTOR/USB3.D-*%
X67720000Y-25560000D03*
%TO.P,H2,24,24*%
%TO.N,/BUS_CONNECTOR/USB4.D-*%
X67720000Y-23020000D03*
%TO.P,H2,25,25*%
%TO.N,/BUS_CONNECTOR/USB7.D+*%
X65180000Y-25560000D03*
%TO.P,H2,26,26*%
%TO.N,/BUS_CONNECTOR/USB8.D-*%
X65180000Y-23020000D03*
%TO.P,H2,27,27*%
%TO.N,/BUS_CONNECTOR/USB7.D-*%
X62640000Y-25560000D03*
%TO.P,H2,28,28*%
%TO.N,/BUS_CONNECTOR/USB8.D+*%
X62640000Y-23020000D03*
%TO.P,H2,29,29*%
%TO.N,/BUS_CONNECTOR/USB11.D+*%
X60100000Y-25560000D03*
%TO.P,H2,30,30*%
%TO.N,/BUS_CONNECTOR/USB12.D+*%
X60100000Y-23020000D03*
%TO.P,H2,31,31*%
%TO.N,/BUS_CONNECTOR/USB11.D-*%
X57560000Y-25560000D03*
%TO.P,H2,32,32*%
%TO.N,/BUS_CONNECTOR/USB12.D-*%
X57560000Y-23020000D03*
%TO.P,H2,33,33*%
%TO.N,GND*%
X55020000Y-25560000D03*
%TO.P,H2,34,34*%
X55020000Y-23020000D03*
%TO.P,H2,35,35*%
%TO.N,/BUS_CONNECTOR/GPIO16*%
X52480000Y-25560000D03*
%TO.P,H2,36,36*%
%TO.N,/BUS_CONNECTOR/GPIO24*%
X52480000Y-23020000D03*
%TO.P,H2,37,37*%
%TO.N,/BUS_CONNECTOR/GPIO17*%
X49940000Y-25560000D03*
%TO.P,H2,38,38*%
%TO.N,/BUS_CONNECTOR/GPIO25*%
X49940000Y-23020000D03*
%TO.P,H2,39,39*%
%TO.N,/BUS_CONNECTOR/GPIO18*%
X47400000Y-25560000D03*
%TO.P,H2,40,40*%
%TO.N,/BUS_CONNECTOR/GPIO26*%
X47400000Y-23020000D03*
%TO.P,H2,41,41*%
%TO.N,/BUS_CONNECTOR/GPIO19*%
X44860000Y-25560000D03*
%TO.P,H2,42,42*%
%TO.N,/BUS_CONNECTOR/GPIO27*%
X44860000Y-23020000D03*
%TO.P,H2,43,43*%
%TO.N,/BUS_CONNECTOR/GPIO20*%
X42320000Y-25560000D03*
%TO.P,H2,44,44*%
%TO.N,/BUS_CONNECTOR/GPIO28*%
X42320000Y-23020000D03*
%TO.P,H2,45,45*%
%TO.N,/BUS_CONNECTOR/GPIO21*%
X39780000Y-25560000D03*
%TO.P,H2,46,46*%
%TO.N,/BUS_CONNECTOR/GPIO29*%
X39780000Y-23020000D03*
%TO.P,H2,47,47*%
%TO.N,/BUS_CONNECTOR/GPIO22*%
X37240000Y-25560000D03*
%TO.P,H2,48,48*%
%TO.N,/BUS_CONNECTOR/GPIO30*%
X37240000Y-23020000D03*
%TO.P,H2,49,49*%
%TO.N,/BUS_CONNECTOR/GPIO23*%
X34700000Y-25560000D03*
%TO.P,H2,50,50*%
%TO.N,/BUS_CONNECTOR/GPIO31*%
X34700000Y-23020000D03*
%TO.P,H2,51,51*%
%TO.N,GND*%
X32160000Y-25560000D03*
%TO.P,H2,52,52*%
X32160000Y-23020000D03*
%TD*%
D13*
%TO.P,M1,1*%
%TO.N,N/C*%
X27040000Y-23100000D03*
%TD*%
%TO.P,M3,1*%
%TO.N,N/C*%
X103240000Y-108825000D03*
%TD*%
%TO.P,,1*%
%TO.N,N/C*%
X23230000Y-108825000D03*
%TD*%
D12*
%TO.P,H1,1,1*%
%TO.N,GND*%
X95660000Y-30640000D03*
%TO.P,H1,2,2*%
X95660000Y-28100000D03*
%TO.P,H1,3,3*%
%TO.N,+VBAT*%
X93120000Y-30640000D03*
%TO.P,H1,4,4*%
X93120000Y-28100000D03*
%TO.P,H1,5,5*%
X90580000Y-30640000D03*
%TO.P,H1,6,6*%
X90580000Y-28100000D03*
%TO.P,H1,7,7*%
%TO.N,GND*%
X88040000Y-30640000D03*
%TO.P,H1,8,8*%
X88040000Y-28100000D03*
%TO.P,H1,9,9*%
%TO.N,+5V_unprotected*%
X85500000Y-30640000D03*
%TO.P,H1,10,10*%
X85500000Y-28100000D03*
%TO.P,H1,11,11*%
X82960000Y-30640000D03*
%TO.P,H1,12,12*%
X82960000Y-28100000D03*
%TO.P,H1,13,13*%
%TO.N,GND*%
X80420000Y-30640000D03*
%TO.P,H1,14,14*%
X80420000Y-28100000D03*
%TO.P,H1,15,15*%
%TO.N,/BUS_CONNECTOR/CAN1.+*%
X77880000Y-30640000D03*
%TO.P,H1,16,16*%
%TO.N,/BUS_CONNECTOR/CAN2.+*%
X77880000Y-28100000D03*
%TO.P,H1,17,17*%
%TO.N,/BUS_CONNECTOR/CAN1.-*%
X75340000Y-30640000D03*
%TO.P,H1,18,18*%
%TO.N,/BUS_CONNECTOR/CAN2.-*%
X75340000Y-28100000D03*
%TO.P,H1,19,19*%
%TO.N,GND*%
X72800000Y-30640000D03*
%TO.P,H1,20,20*%
X72800000Y-28100000D03*
%TO.P,H1,21,21*%
%TO.N,/BUS_CONNECTOR/USB1.D+*%
X70260000Y-30640000D03*
%TO.P,H1,22,22*%
%TO.N,/BUS_CONNECTOR/USB2.D+*%
X70260000Y-28100000D03*
%TO.P,H1,23,23*%
%TO.N,/BUS_CONNECTOR/USB1.D-*%
X67720000Y-30640000D03*
%TO.P,H1,24,24*%
%TO.N,/BUS_CONNECTOR/USB2.D-*%
X67720000Y-28100000D03*
%TO.P,H1,25,25*%
%TO.N,/BUS_CONNECTOR/USB5.D+*%
X65180000Y-30640000D03*
%TO.P,H1,26,26*%
%TO.N,/BUS_CONNECTOR/USB6.D+*%
X65180000Y-28100000D03*
%TO.P,H1,27,27*%
%TO.N,/BUS_CONNECTOR/USB5.D-*%
X62640000Y-30640000D03*
%TO.P,H1,28,28*%
%TO.N,/BUS_CONNECTOR/USB6.D-*%
X62640000Y-28100000D03*
%TO.P,H1,29,29*%
%TO.N,/BUS_CONNECTOR/USB9.D+*%
X60100000Y-30640000D03*
%TO.P,H1,30,30*%
%TO.N,/BUS_CONNECTOR/USB10.D+*%
X60100000Y-28100000D03*
%TO.P,H1,31,31*%
%TO.N,/BUS_CONNECTOR/USB9.D-*%
X57560000Y-30640000D03*
%TO.P,H1,32,32*%
%TO.N,/BUS_CONNECTOR/USB10.D-*%
X57560000Y-28100000D03*
%TO.P,H1,33,33*%
%TO.N,GND*%
X55020000Y-30640000D03*
%TO.P,H1,34,34*%
X55020000Y-28100000D03*
%TO.P,H1,35,35*%
%TO.N,/BUS_CONNECTOR/GPIO0*%
X52480000Y-30640000D03*
%TO.P,H1,36,36*%
%TO.N,/BUS_CONNECTOR/GPIO8*%
X52480000Y-28100000D03*
%TO.P,H1,37,37*%
%TO.N,/BUS_CONNECTOR/GPIO1*%
X49940000Y-30640000D03*
%TO.P,H1,38,38*%
%TO.N,/BUS_CONNECTOR/GPIO9*%
X49940000Y-28100000D03*
%TO.P,H1,39,39*%
%TO.N,/BUS_CONNECTOR/GPIO2*%
X47400000Y-30640000D03*
%TO.P,H1,40,40*%
%TO.N,/BUS_CONNECTOR/GPIO10*%
X47400000Y-28100000D03*
%TO.P,H1,41,41*%
%TO.N,/BUS_CONNECTOR/GPIO3*%
X44860000Y-30640000D03*
%TO.P,H1,42,42*%
%TO.N,/BUS_CONNECTOR/GPIO11*%
X44860000Y-28100000D03*
%TO.P,H1,43,43*%
%TO.N,/BUS_CONNECTOR/GPIO4*%
X42320000Y-30640000D03*
%TO.P,H1,44,44*%
%TO.N,/BUS_CONNECTOR/GPIO12*%
X42320000Y-28100000D03*
%TO.P,H1,45,45*%
%TO.N,/BUS_CONNECTOR/GPIO5*%
X39780000Y-30640000D03*
%TO.P,H1,46,46*%
%TO.N,/BUS_CONNECTOR/GPIO13*%
X39780000Y-28100000D03*
%TO.P,H1,47,47*%
%TO.N,/BUS_CONNECTOR/GPIO6*%
X37240000Y-30640000D03*
%TO.P,H1,48,48*%
%TO.N,/BUS_CONNECTOR/GPIO14*%
X37240000Y-28100000D03*
%TO.P,H1,49,49*%
%TO.N,/BUS_CONNECTOR/GPIO7*%
X34700000Y-30640000D03*
%TO.P,H1,50,50*%
%TO.N,/BUS_CONNECTOR/GPIO15*%
X34700000Y-28100000D03*
%TO.P,H1,51,51*%
%TO.N,GND*%
X32160000Y-30640000D03*
%TO.P,H1,52,52*%
X32160000Y-28100000D03*
%TD*%
D13*
%TO.P,,1*%
%TO.N,N/C*%
X100700000Y-23100000D03*
%TD*%
D14*
%TO.P,J2,1,In*%
%TO.N,/LORA/RF*%
X89680000Y-98700000D03*
%TO.P,J2,2,Ext*%
%TO.N,GND*%
X92220000Y-96160000D03*
X87140000Y-96160000D03*
X92220000Y-101240000D03*
X87140000Y-101240000D03*
%TD*%
D15*
%TO.P,TP2,1,1*%
%TO.N,/ST-LINK/STLINK-BOOT0*%
X88100000Y-48900000D03*
%TD*%
%TO.P,TP4,1,1*%
%TO.N,/ST-LINK/DIO*%
X90500000Y-48900000D03*
%TD*%
%TO.P,TP5,1,1*%
%TO.N,GND*%
X90500000Y-51000000D03*
%TD*%
%TO.P,TP1,1,1*%
%TO.N,+3V3*%
X88100000Y-51100000D03*
%TD*%
%TO.P,TP3,1,1*%
%TO.N,/ST-LINK/CLK*%
X90500000Y-46700000D03*
%TD*%
D16*
%TO.N,GND*%
X94500000Y-97500000D03*
X99100000Y-78500000D03*
X84500000Y-102000000D03*
D17*
X104900000Y-32000000D03*
D16*
X97000000Y-103500000D03*
X107000000Y-90000000D03*
X89600000Y-75900000D03*
X98493261Y-85256874D03*
X99500000Y-96000000D03*
X79500000Y-96000000D03*
X74500000Y-103500000D03*
X84500000Y-96000000D03*
X99500000Y-97500000D03*
D17*
X61750000Y-47849999D03*
D16*
X74200000Y-63300000D03*
X87000000Y-103500000D03*
X99500000Y-93000000D03*
X104500000Y-102000000D03*
X58424933Y-58000233D03*
D17*
X61100000Y-55300000D03*
X104300000Y-46300000D03*
D16*
X102000000Y-99000000D03*
X107000000Y-91500000D03*
X104500000Y-91500000D03*
X102087500Y-45175000D03*
X99600000Y-64000000D03*
X104500000Y-90000000D03*
D17*
X94950000Y-45700000D03*
X105500000Y-29600000D03*
D16*
X99500000Y-103500000D03*
X102000000Y-90000000D03*
X107000000Y-93000000D03*
D17*
X74900000Y-36750000D03*
D16*
X94500000Y-100500000D03*
X97000000Y-94500000D03*
X99500000Y-91500000D03*
X82000000Y-103500000D03*
D17*
X105300000Y-44300000D03*
D16*
X94500000Y-91500000D03*
X102000000Y-91500000D03*
X82000000Y-97500000D03*
D17*
X58250000Y-53149999D03*
D16*
X98800000Y-59100000D03*
X94500000Y-99000000D03*
X97000000Y-100500000D03*
X86900000Y-42300000D03*
D17*
X78387499Y-55725000D03*
D16*
X99500000Y-102000000D03*
D17*
X105500000Y-32000000D03*
D16*
X99500000Y-94500000D03*
X92000000Y-103500000D03*
X87000000Y-94500000D03*
D17*
X105500000Y-30200000D03*
D16*
X97000000Y-102000000D03*
X82205001Y-53895000D03*
D17*
X80600000Y-50050000D03*
D16*
X104500000Y-97500000D03*
X77000000Y-102000000D03*
D17*
X61850000Y-51549999D03*
D16*
X82000000Y-100500000D03*
X77000000Y-100500000D03*
X97000000Y-96000000D03*
X95200000Y-63900000D03*
X97400000Y-42875002D03*
X82000000Y-102000000D03*
D17*
X61650000Y-49849999D03*
D16*
X104500000Y-99000000D03*
D17*
X82200000Y-47850000D03*
D16*
X104500000Y-93000000D03*
X85100000Y-35800000D03*
D17*
X75387499Y-66925000D03*
X66987499Y-51175000D03*
X63600000Y-53600000D03*
X66587499Y-67025000D03*
D16*
X89500000Y-94500000D03*
X91700000Y-42700000D03*
D17*
X95550000Y-48500000D03*
D16*
X92000000Y-91500000D03*
X97700000Y-78750000D03*
X73500000Y-93000000D03*
X89650000Y-43250000D03*
X92000000Y-90000000D03*
X74500000Y-97500000D03*
X103500000Y-74300000D03*
D17*
X74700000Y-67600000D03*
X104300000Y-31400000D03*
X91900000Y-47000000D03*
D16*
X102000000Y-103500000D03*
X75500000Y-90000000D03*
X73500000Y-91000000D03*
X94500000Y-103500000D03*
D17*
X74950000Y-34500000D03*
D16*
X104500000Y-103500000D03*
X102000000Y-97500000D03*
X77000000Y-94500000D03*
X83100000Y-44400000D03*
X97000000Y-93000000D03*
X107000000Y-99000000D03*
D17*
X104300000Y-29600000D03*
D16*
X97000000Y-97500000D03*
X92000000Y-94500000D03*
X102000000Y-96000000D03*
X104500000Y-94500000D03*
X70100000Y-46400000D03*
X82000000Y-96000000D03*
X94500000Y-102000000D03*
X97000000Y-90000000D03*
X74500000Y-96000000D03*
X69748144Y-48248144D03*
X79500000Y-103500000D03*
X84500000Y-100500000D03*
X72000000Y-44000000D03*
X107000000Y-96000000D03*
D17*
X104900000Y-30800000D03*
D16*
X77000000Y-103500000D03*
X84500000Y-94500000D03*
X97000000Y-99000000D03*
X97300000Y-69400000D03*
X82000000Y-94500000D03*
X94500000Y-94500000D03*
X84500000Y-97500000D03*
X106750000Y-43750000D03*
X107000000Y-102000000D03*
X71150000Y-35600000D03*
D17*
X104300000Y-30200000D03*
D16*
X90500000Y-51800000D03*
X104500000Y-96000000D03*
X74500000Y-102000000D03*
D17*
X105500000Y-31400000D03*
D16*
X77000000Y-99000000D03*
X92000000Y-93000000D03*
D17*
X102800000Y-59800000D03*
X104900000Y-29600000D03*
D16*
X104500000Y-100500000D03*
X79500000Y-94500000D03*
X95200000Y-35000000D03*
D17*
X104300000Y-30800000D03*
D16*
X96650000Y-47200000D03*
X74500000Y-94500000D03*
X89500000Y-103500000D03*
X94500000Y-90000000D03*
X99500000Y-99000000D03*
X84500000Y-103500000D03*
X80405001Y-53895000D03*
X74500000Y-100500000D03*
X103500000Y-72400000D03*
D17*
X84600000Y-57800000D03*
X105900000Y-45600000D03*
D16*
X95900000Y-35000000D03*
X77600000Y-90200000D03*
X99087500Y-40525000D03*
X99500000Y-100500000D03*
D17*
X104900000Y-30200000D03*
D16*
X73500000Y-90000000D03*
D17*
X87000000Y-57800000D03*
D16*
X102000000Y-94500000D03*
X107000000Y-94500000D03*
X94500000Y-96000000D03*
X79500000Y-97500000D03*
X79500000Y-100500000D03*
D17*
X62487499Y-60825000D03*
X104900000Y-31400000D03*
D16*
X97000000Y-91500000D03*
X107000000Y-100500000D03*
X79500000Y-102000000D03*
X92650000Y-44700000D03*
X107000000Y-97500000D03*
X103500000Y-59700000D03*
X74500000Y-99000000D03*
X86800000Y-50100000D03*
X102000000Y-102000000D03*
X99500000Y-90000000D03*
X100427751Y-48993796D03*
X75600000Y-75900000D03*
X94500000Y-93000000D03*
D17*
X104300000Y-32000000D03*
D16*
X81200000Y-44400000D03*
X102000000Y-100500000D03*
X73500000Y-92000000D03*
X102000000Y-93000000D03*
D17*
X105500000Y-30800000D03*
D16*
X83000000Y-34300000D03*
D17*
%TO.N,/MCU/SWD.~{RST}*%
X90525000Y-54675000D03*
X63225263Y-58300000D03*
X102900000Y-53200000D03*
%TO.N,/ST-LINK/STLINK-RST*%
X83700000Y-51950000D03*
X86350000Y-49250000D03*
D16*
%TO.N,/MCU/+VDDA*%
X62487499Y-61825000D03*
X78387499Y-54725000D03*
D17*
X63387499Y-64525000D03*
D16*
X74387499Y-66925000D03*
D17*
X65187499Y-64525000D03*
D16*
X65087499Y-51825000D03*
D17*
X64587499Y-64525000D03*
D16*
X64700000Y-53420997D03*
X67787499Y-67025000D03*
D17*
X63987499Y-64525000D03*
D16*
%TO.N,+5V*%
X59500000Y-57100000D03*
X82100000Y-35000000D03*
X72306297Y-35638929D03*
D17*
%TO.N,+3V3*%
X62387499Y-67025000D03*
D16*
X74900000Y-48400000D03*
D17*
X101600000Y-31700000D03*
D16*
X83005001Y-53895000D03*
D17*
X62395755Y-66371403D03*
X101600000Y-32900000D03*
X102800000Y-32300000D03*
D16*
X85400000Y-38600000D03*
D17*
X102800000Y-30500000D03*
X102800000Y-31100000D03*
D16*
X71100000Y-86500000D03*
D17*
X102200000Y-32300000D03*
X101600000Y-30500000D03*
D16*
X99100000Y-51050000D03*
D17*
X102200000Y-31700000D03*
D16*
X81100000Y-46500000D03*
D17*
X62387499Y-65125000D03*
D16*
X58250000Y-56349999D03*
X92600000Y-45700000D03*
X71100000Y-87300000D03*
D17*
X102200000Y-31100000D03*
D16*
X91725000Y-52087803D03*
X87200000Y-51100000D03*
D17*
X62387499Y-65725000D03*
D16*
X85300000Y-43250000D03*
D17*
X102200000Y-32900000D03*
X101600000Y-32300000D03*
D16*
X81305001Y-53895000D03*
X94200000Y-38400000D03*
D17*
X102800000Y-31700000D03*
D16*
X103500000Y-65100000D03*
D17*
X102800000Y-32900000D03*
X102200000Y-30500000D03*
D16*
X105500000Y-72400000D03*
D17*
X101600000Y-31100000D03*
D16*
X97050001Y-62149999D03*
D17*
%TO.N,/USB-C/VBUS_IN*%
X100000000Y-68700000D03*
X97300000Y-68650000D03*
%TO.N,/ST-LINK/STLINK-BOOT0*%
X88300000Y-46200000D03*
D16*
%TO.N,/ST-LINK/ST-LINK.D+*%
X95184834Y-47134834D03*
X95377283Y-45074776D03*
%TO.N,/MCU/USB_MCU.D-*%
X101237500Y-51101303D03*
X85358569Y-57772926D03*
%TO.N,/MCU/USB_MCU.D+*%
X86108569Y-57772926D03*
X101987500Y-51101303D03*
%TO.N,/ST-LINK/ST-LINK.D-*%
X95715166Y-47665166D03*
X95907615Y-44544444D03*
D17*
%TO.N,/ST-LINK/DIO*%
X91300000Y-48900000D03*
%TO.N,/ST-LINK/CLK*%
X91300000Y-46700000D03*
%TO.N,/can_tranciver/WAKE*%
X77000000Y-50900000D03*
X103500000Y-67400000D03*
D16*
%TO.N,+5V_unprotected*%
X72000000Y-45300000D03*
X77112268Y-47822268D03*
D17*
%TO.N,/LORA/LORA.MISO*%
X73600000Y-62400000D03*
X73650000Y-68850000D03*
%TO.N,/LORA/~{LORA_RESET}*%
X67200000Y-69300000D03*
X72237499Y-63600000D03*
%TO.N,/LORA/LORA.MOSI*%
X73400000Y-69900000D03*
X72900000Y-61600000D03*
D16*
%TO.N,/USB-C/EXTUSB.D-*%
X103012935Y-58079673D03*
X104734834Y-45565166D03*
%TO.N,/USB-C/EXTUSB.D+*%
X105265166Y-45034834D03*
X103500000Y-58650000D03*
D17*
%TO.N,/POWER/POWER_EN*%
X83886091Y-42786091D03*
X75200000Y-49600000D03*
%TO.N,/MCU/CAN_TRANSIVER.MISO*%
X71243749Y-51843749D03*
X72100000Y-50400000D03*
%TO.N,/MCU/CAN_TRANSIVER.CS*%
X75950000Y-42700000D03*
X77400000Y-42750000D03*
%TO.N,/BUS_CONNECTOR/GPIO2*%
X72220441Y-54706814D03*
%TO.N,/BUS_CONNECTOR/GPIO11*%
X78400000Y-62000000D03*
%TO.N,/BUS_CONNECTOR/GPIO17*%
X67800000Y-63400000D03*
%TO.N,/BUS_CONNECTOR/GPIO3*%
X77800000Y-62300000D03*
%TO.N,/BUS_CONNECTOR/GPIO18*%
X76100000Y-63500000D03*
%TO.N,/BUS_CONNECTOR/GPIO27*%
X42900000Y-34200000D03*
X80000000Y-62000000D03*
%TO.N,/BUS_CONNECTOR/GPIO12*%
X81400000Y-61800000D03*
%TO.N,/BUS_CONNECTOR/GPIO8*%
X66300000Y-60500000D03*
%TO.N,/BUS_CONNECTOR/GPIO19*%
X79300000Y-62100000D03*
%TO.N,/BUS_CONNECTOR/GPIO25*%
X47900000Y-34300000D03*
X71600000Y-54500000D03*
%TO.N,/BUS_CONNECTOR/GPIO16*%
X66100000Y-61300000D03*
%TO.N,/BUS_CONNECTOR/GPIO0*%
X66700000Y-58600000D03*
%TO.N,/BUS_CONNECTOR/GPIO26*%
X45500000Y-34300000D03*
X77400000Y-63300000D03*
%TO.N,/BUS_CONNECTOR/GPIO9*%
X66200000Y-63700000D03*
%TO.N,/BUS_CONNECTOR/GPIO1*%
X63300000Y-62700000D03*
%TO.N,/BUS_CONNECTOR/GPIO10*%
X73100000Y-54700000D03*
D16*
%TO.N,/BUS_CONNECTOR/USB1.D+*%
X74900000Y-36000000D03*
X66250000Y-35950000D03*
X96700000Y-56107347D03*
D17*
%TO.N,/BUS_CONNECTOR/GPIO24*%
X50600000Y-34300000D03*
X66100000Y-62100000D03*
%TO.N,/BUS_CONNECTOR/GPIO4*%
X80645104Y-61892483D03*
D16*
%TO.N,/BUS_CONNECTOR/USB1.D-*%
X74900000Y-35249997D03*
X97450000Y-56107347D03*
X66192477Y-35202206D03*
%TD*%
D18*
%TO.N,/BUS_CONNECTOR/GPIO12*%
X81400000Y-61800000D02*
X81500000Y-61900000D01*
X81500000Y-71300000D02*
X78500000Y-74300000D01*
X81500000Y-61900000D02*
X81500000Y-71300000D01*
X78500000Y-74300000D02*
X60600000Y-74300000D01*
X60600000Y-74300000D02*
X41295000Y-54995000D01*
X41295000Y-54995000D02*
X41295000Y-29125000D01*
X41295000Y-29125000D02*
X42320000Y-28100000D01*
%TO.N,/BUS_CONNECTOR/GPIO0*%
X66700000Y-58600000D02*
X66496000Y-58804000D01*
X66496000Y-58804000D02*
X58404000Y-58804000D01*
X58404000Y-58804000D02*
X52500000Y-52900000D01*
X52500000Y-52900000D02*
X52500000Y-32100000D01*
X52500000Y-32100000D02*
X52480000Y-32080000D01*
X52480000Y-32080000D02*
X52480000Y-30640000D01*
%TO.N,/BUS_CONNECTOR/GPIO8*%
X66300000Y-60500000D02*
X66300000Y-60300000D01*
X51455000Y-29125000D02*
X52480000Y-28100000D01*
X66300000Y-60300000D02*
X65600000Y-59600000D01*
X65600000Y-59600000D02*
X58500000Y-59600000D01*
X58500000Y-59600000D02*
X51455000Y-52555000D01*
X51455000Y-52555000D02*
X51455000Y-29125000D01*
%TO.N,/BUS_CONNECTOR/GPIO16*%
X66100000Y-61300000D02*
X64750000Y-59950000D01*
X64750000Y-59950000D02*
X58250000Y-59950000D01*
X58250000Y-59950000D02*
X51105000Y-52805000D01*
X51105000Y-52805000D02*
X51105000Y-26935000D01*
X51105000Y-26935000D02*
X52480000Y-25560000D01*
%TO.N,/BUS_CONNECTOR/GPIO24*%
X66100000Y-62100000D02*
X64300000Y-60300000D01*
X64300000Y-60300000D02*
X58000000Y-60300000D01*
X58000000Y-60300000D02*
X50600000Y-52900000D01*
X50600000Y-52900000D02*
X50600000Y-34300000D01*
%TO.N,/BUS_CONNECTOR/GPIO1*%
X63300000Y-62700000D02*
X59700000Y-62700000D01*
X50000000Y-30700000D02*
X49940000Y-30640000D01*
X59700000Y-62700000D02*
X50000000Y-53000000D01*
X50000000Y-53000000D02*
X50000000Y-30700000D01*
%TO.N,/BUS_CONNECTOR/GPIO9*%
X66200000Y-63700000D02*
X59700000Y-63700000D01*
X59700000Y-63700000D02*
X48915000Y-52915000D01*
X48915000Y-52915000D02*
X48915000Y-29125000D01*
X48915000Y-29125000D02*
X49940000Y-28100000D01*
%TO.N,/BUS_CONNECTOR/GPIO17*%
X67800000Y-63400000D02*
X66171000Y-65029000D01*
X66171000Y-65029000D02*
X63178735Y-65029000D01*
X63178735Y-65029000D02*
X62199735Y-64050000D01*
X62199735Y-64050000D02*
X59450000Y-64050000D01*
X59450000Y-64050000D02*
X48500000Y-53100000D01*
X48500000Y-53100000D02*
X48500000Y-27000000D01*
X48500000Y-27000000D02*
X49940000Y-25560000D01*
%TO.N,/BUS_CONNECTOR/GPIO19*%
X44860000Y-25560000D02*
X43400000Y-27020000D01*
X43400000Y-27020000D02*
X43400000Y-33985822D01*
X43400000Y-33985822D02*
X43405000Y-33990822D01*
X62000000Y-73000000D02*
X77700000Y-73000000D01*
X43405000Y-33990822D02*
X43405000Y-34409178D01*
X43400000Y-34414178D02*
X43400000Y-54400000D01*
X43400000Y-54400000D02*
X62000000Y-73000000D01*
X43405000Y-34409178D02*
X43400000Y-34414178D01*
X77700000Y-73000000D02*
X79800000Y-70900000D01*
X79800000Y-62600000D02*
X79300000Y-62100000D01*
X79800000Y-70900000D02*
X79800000Y-62600000D01*
%TO.N,/BUS_CONNECTOR/GPIO11*%
X44860000Y-28100000D02*
X43835000Y-29125000D01*
X43835000Y-29125000D02*
X43835000Y-54035000D01*
X43835000Y-54035000D02*
X62300000Y-72500000D01*
X62300000Y-72500000D02*
X77400000Y-72500000D01*
X79200000Y-62800000D02*
X78400000Y-62000000D01*
X77400000Y-72500000D02*
X79200000Y-70700000D01*
X79200000Y-70700000D02*
X79200000Y-62800000D01*
%TO.N,/BUS_CONNECTOR/GPIO18*%
X76100000Y-63500000D02*
X77600000Y-65000000D01*
X77600000Y-65000000D02*
X77600000Y-70000000D01*
X46000000Y-34514178D02*
X46005000Y-34509178D01*
X77600000Y-70000000D02*
X76700000Y-70900000D01*
X76700000Y-70900000D02*
X63000000Y-70900000D01*
X46005000Y-26955000D02*
X47400000Y-25560000D01*
X63000000Y-70900000D02*
X46000000Y-53900000D01*
X46000000Y-53900000D02*
X46000000Y-34514178D01*
X46005000Y-34509178D02*
X46005000Y-26955000D01*
%TO.N,/BUS_CONNECTOR/GPIO3*%
X77800000Y-62300000D02*
X78700000Y-63200000D01*
X78700000Y-63200000D02*
X78700000Y-70300000D01*
X44860000Y-54260000D02*
X44860000Y-30640000D01*
X78700000Y-70300000D02*
X77000000Y-72000000D01*
X77000000Y-72000000D02*
X62600000Y-72000000D01*
X62600000Y-72000000D02*
X44860000Y-54260000D01*
%TO.N,/BUS_CONNECTOR/GPIO26*%
X77400000Y-63300000D02*
X78200000Y-64100000D01*
X78200000Y-64100000D02*
X78200000Y-70200000D01*
X78200000Y-70200000D02*
X77000000Y-71400000D01*
X77000000Y-71400000D02*
X62800000Y-71400000D01*
X45500000Y-54100000D02*
X45500000Y-34300000D01*
X62800000Y-71400000D02*
X45500000Y-54100000D01*
%TO.N,/BUS_CONNECTOR/GPIO10*%
X73100000Y-54700000D02*
X73100000Y-59900000D01*
X73100000Y-59900000D02*
X67091499Y-65908501D01*
X67091499Y-67233764D02*
X65925263Y-68400000D01*
X67091499Y-65908501D02*
X67091499Y-67233764D01*
X65925263Y-68400000D02*
X61300000Y-68400000D01*
X46375000Y-53475000D02*
X46375000Y-29125000D01*
X61300000Y-68400000D02*
X46375000Y-53475000D01*
X46375000Y-29125000D02*
X47400000Y-28100000D01*
%TO.N,/BUS_CONNECTOR/GPIO27*%
X80000000Y-62000000D02*
X79596000Y-61596000D01*
X79596000Y-61596000D02*
X80400000Y-62400000D01*
X61700000Y-73500000D02*
X42900000Y-54700000D01*
X80400000Y-62400000D02*
X80400000Y-71000000D01*
X42900000Y-54700000D02*
X42900000Y-34200000D01*
X80400000Y-71000000D02*
X77900000Y-73500000D01*
X77900000Y-73500000D02*
X61700000Y-73500000D01*
%TO.N,/BUS_CONNECTOR/GPIO4*%
X42320000Y-30640000D02*
X42200000Y-30760000D01*
X42200000Y-30760000D02*
X42200000Y-55000000D01*
X80900000Y-62147379D02*
X80645104Y-61892483D01*
X42200000Y-55000000D02*
X61100000Y-73900000D01*
X61100000Y-73900000D02*
X78100000Y-73900000D01*
X78100000Y-73900000D02*
X80900000Y-71100000D01*
X80900000Y-71100000D02*
X80900000Y-62147379D01*
%TO.N,/BUS_CONNECTOR/GPIO2*%
X72220441Y-54706814D02*
X72220441Y-60187298D01*
X47335000Y-53335000D02*
X47335000Y-30705000D01*
X72220441Y-60187298D02*
X64507739Y-67900000D01*
X64507739Y-67900000D02*
X61900000Y-67900000D01*
X61900000Y-67900000D02*
X47335000Y-53335000D01*
X47335000Y-30705000D02*
X47400000Y-30640000D01*
%TO.N,/LORA/LORA.MOSI*%
X73400000Y-69900000D02*
X72900000Y-69400000D01*
X72895000Y-62190822D02*
X72900000Y-62185822D01*
X72900000Y-69400000D02*
X72900000Y-62495822D01*
X72900000Y-62495822D02*
X72895000Y-62490822D01*
X72895000Y-62490822D02*
X72895000Y-62190822D01*
X72900000Y-62185822D02*
X72900000Y-61600000D01*
%TO.N,/LORA/LORA.MISO*%
X73600000Y-68800000D02*
X73650000Y-68850000D01*
X73600000Y-62400000D02*
X73600000Y-68800000D01*
%TO.N,/LORA/~{LORA_RESET}*%
X67200000Y-69300000D02*
X70800000Y-65700000D01*
X70800000Y-65700000D02*
X70800000Y-65600000D01*
X70800000Y-65600000D02*
X72237499Y-64162501D01*
X72237499Y-64162501D02*
X72237499Y-63600000D01*
D19*
%TO.N,GND*%
X90500000Y-51000000D02*
X90500000Y-51800000D01*
D18*
%TO.N,/MCU/SWD.~{RST}*%
X62437499Y-57512236D02*
X62437499Y-53162501D01*
X102200000Y-50500000D02*
X94700000Y-50500000D01*
X83277819Y-54400000D02*
X90300000Y-54400000D01*
X63225263Y-58300000D02*
X62437499Y-57512236D01*
X72808764Y-50396000D02*
X77208764Y-50396000D01*
X83232819Y-54445000D02*
X83277819Y-54400000D01*
X77504000Y-52109026D02*
X79839974Y-54445000D01*
X77504000Y-50691236D02*
X77504000Y-52109026D01*
X77208764Y-50396000D02*
X77504000Y-50691236D01*
X94700000Y-50500000D02*
X90525000Y-54675000D01*
X62437499Y-53162501D02*
X65704000Y-49896000D01*
X65704000Y-49896000D02*
X72308764Y-49896000D01*
X72308764Y-49896000D02*
X72808764Y-50396000D01*
X79839974Y-54445000D02*
X83232819Y-54445000D01*
X90300000Y-54400000D02*
X90550000Y-54650000D01*
X102900000Y-51200000D02*
X102200000Y-50500000D01*
X102900000Y-53200000D02*
X102900000Y-51200000D01*
%TO.N,/ST-LINK/STLINK-RST*%
X84400000Y-49250000D02*
X83700000Y-49950000D01*
X83700000Y-49950000D02*
X83700000Y-51950000D01*
X86350000Y-49250000D02*
X84400000Y-49250000D01*
D19*
%TO.N,+3V3*%
X88100000Y-51100000D02*
X87200000Y-51100000D01*
D18*
%TO.N,/USB-C/VBUS_IN*%
X100000000Y-68700000D02*
X97350000Y-68700000D01*
X97350000Y-68700000D02*
X97300000Y-68650000D01*
%TO.N,/ST-LINK/STLINK-BOOT0*%
X88200000Y-46300000D02*
X88200000Y-48800000D01*
X88200000Y-48800000D02*
X88100000Y-48900000D01*
X88300000Y-46200000D02*
X88200000Y-46300000D01*
D20*
%TO.N,/ST-LINK/ST-LINK.D+*%
X95377283Y-45074776D02*
X95577615Y-45275108D01*
X95577615Y-47039039D02*
X95481820Y-47134834D01*
X95577615Y-45275108D02*
X95577615Y-47039039D01*
X95481820Y-47134834D02*
X95184834Y-47134834D01*
%TO.N,/MCU/USB_MCU.D-*%
X86131654Y-56735000D02*
X85568568Y-57298086D01*
X93231654Y-56735000D02*
X86131654Y-56735000D01*
X98131654Y-51835000D02*
X93231654Y-56735000D01*
X101237500Y-51101303D02*
X101237500Y-51384612D01*
X100787112Y-51835000D02*
X98131654Y-51835000D01*
X85568568Y-57562927D02*
X85358569Y-57772926D01*
X101237500Y-51384612D02*
X100787112Y-51835000D01*
X85568568Y-57298086D02*
X85568568Y-57562927D01*
%TO.N,/MCU/USB_MCU.D+*%
X98268346Y-52165000D02*
X93368346Y-57065000D01*
X101987500Y-51101303D02*
X101777500Y-51311303D01*
X85898570Y-57562927D02*
X86108569Y-57772926D01*
X101777500Y-51324979D02*
X101461176Y-51641303D01*
X93368346Y-57065000D02*
X86268346Y-57065000D01*
X85898570Y-57434776D02*
X85898570Y-57562927D01*
X100923803Y-52165000D02*
X98268346Y-52165000D01*
X101777500Y-51311303D02*
X101777500Y-51324979D01*
X86268346Y-57065000D02*
X85898570Y-57434776D01*
X101461176Y-51641303D02*
X101447500Y-51641303D01*
X101447500Y-51641303D02*
X100923803Y-52165000D01*
%TO.N,/ST-LINK/ST-LINK.D-*%
X95917283Y-47166063D02*
X95715166Y-47368180D01*
X95907615Y-44841432D02*
X95917283Y-44851100D01*
X95907615Y-44544444D02*
X95907615Y-44841432D01*
X95715166Y-47368180D02*
X95715166Y-47665166D01*
X95917283Y-44851100D02*
X95917283Y-47166063D01*
D18*
%TO.N,/ST-LINK/DIO*%
X90500000Y-48900000D02*
X91300000Y-48900000D01*
%TO.N,/ST-LINK/CLK*%
X90300000Y-46700000D02*
X91300000Y-46700000D01*
%TO.N,/can_tranciver/WAKE*%
X103500000Y-67300000D02*
X103500000Y-67400000D01*
X77000000Y-50900000D02*
X77000000Y-52100000D01*
X102600000Y-66400000D02*
X103500000Y-67300000D01*
X91300000Y-66400000D02*
X102600000Y-66400000D01*
X77000000Y-52100000D02*
X91300000Y-66400000D01*
D19*
%TO.N,+5V_unprotected*%
X74590000Y-45300000D02*
X72000000Y-45300000D01*
X77112268Y-47822268D02*
X74590000Y-45300000D01*
D20*
%TO.N,/USB-C/EXTUSB.D-*%
X103012935Y-58079673D02*
X103353637Y-58079673D01*
X103353637Y-58079673D02*
X104935166Y-56498144D01*
X104935166Y-45765498D02*
X104734834Y-45565166D01*
X104935166Y-56498144D02*
X104935166Y-45765498D01*
%TO.N,/USB-C/EXTUSB.D+*%
X103500000Y-58650000D02*
X103500000Y-58400000D01*
X105274834Y-45341490D02*
X105265166Y-45331822D01*
X103500000Y-58400000D02*
X105274834Y-56625166D01*
X105274834Y-56625166D02*
X105274834Y-45341490D01*
X105265166Y-45331822D02*
X105265166Y-45034834D01*
D18*
%TO.N,/POWER/POWER_EN*%
X83886091Y-42786091D02*
X78076182Y-48596000D01*
X78076182Y-48596000D02*
X76204000Y-48596000D01*
X76204000Y-48596000D02*
X75200000Y-49600000D01*
D21*
%TO.N,/MCU/CAN_TRANSIVER.MISO*%
X71243749Y-51843749D02*
X71243749Y-51256251D01*
X71243749Y-51256251D02*
X72100000Y-50400000D01*
%TO.N,/MCU/CAN_TRANSIVER.CS*%
X75950000Y-42700000D02*
X77350000Y-42700000D01*
X77350000Y-42700000D02*
X77400000Y-42750000D01*
D18*
%TO.N,/BUS_CONNECTOR/GPIO25*%
X64383764Y-67529000D02*
X62178735Y-67529000D01*
X71600000Y-60312764D02*
X64383764Y-67529000D01*
X47900000Y-53250265D02*
X47900000Y-34300000D01*
X62178735Y-67529000D02*
X47900000Y-53250265D01*
X71600000Y-54500000D02*
X71600000Y-60312764D01*
D20*
%TO.N,/BUS_CONNECTOR/USB1.D+*%
X74900000Y-36000000D02*
X75120000Y-35780000D01*
X97781654Y-54335000D02*
X96909999Y-55206655D01*
X103098310Y-54335000D02*
X97781654Y-54335000D01*
X76130000Y-35780000D02*
X80315000Y-39965000D01*
X103685000Y-48268346D02*
X103685000Y-53748310D01*
X103685000Y-53748310D02*
X103098310Y-54335000D01*
X95381654Y-39965000D02*
X103685000Y-48268346D01*
X67350000Y-35750000D02*
X69155000Y-33945000D01*
X96909999Y-55206655D02*
X96909999Y-55897348D01*
X80315000Y-39965000D02*
X95381654Y-39965000D01*
X66450000Y-35750000D02*
X67350000Y-35750000D01*
X69155000Y-31745000D02*
X70260000Y-30640000D01*
X69155000Y-33945000D02*
X69155000Y-31745000D01*
X66250000Y-35950000D02*
X66450000Y-35750000D01*
X96909999Y-55897348D02*
X96700000Y-56107347D01*
X75120000Y-35780000D02*
X76130000Y-35780000D01*
%TO.N,/BUS_CONNECTOR/USB1.D-*%
X75100003Y-35450000D02*
X76266690Y-35450000D01*
X68825000Y-33808310D02*
X68825000Y-31745000D01*
X97918346Y-54665000D02*
X97240001Y-55343345D01*
X95518346Y-39635000D02*
X104015000Y-48131654D01*
X97240001Y-55897348D02*
X97450000Y-56107347D01*
X66192477Y-35202206D02*
X66390271Y-35400000D01*
X68825000Y-31745000D02*
X67720000Y-30640000D01*
X76266690Y-35450000D02*
X80451690Y-39635000D01*
X74900000Y-35249997D02*
X75100003Y-35450000D01*
X66390271Y-35400000D02*
X67233310Y-35400000D01*
X103235000Y-54665000D02*
X97918346Y-54665000D01*
X67233310Y-35400000D02*
X68825000Y-33808310D01*
X104015000Y-53885000D02*
X103235000Y-54665000D01*
X80451690Y-39635000D02*
X95518346Y-39635000D01*
X104015000Y-48131654D02*
X104015000Y-53885000D01*
X97240001Y-55343345D02*
X97240001Y-55897348D01*
%TD*%
M02*
