%TF.GenerationSoftware,KiCad,Pcbnew,9.0.1-9.0.1-0~ubuntu22.04.1*%
%TF.CreationDate,2025-04-23T20:29:42+02:00*%
%TF.ProjectId,template_board,74656d70-6c61-4746-955f-626f6172642e,rev?*%
%TF.SameCoordinates,Original*%
%TF.FileFunction,Legend,Bot*%
%TF.FilePolarity,Positive*%
%FSLAX46Y46*%
G04 Gerber Fmt 4.6, Leading zero omitted, Abs format (unit mm)*
G04 Created by KiCad (PCBNEW 9.0.1-9.0.1-0~ubuntu22.04.1) date 2025-04-23 20:29:42*
%MOMM*%
%LPD*%
G01*
G04 APERTURE LIST*
%ADD10C,0.150000*%
%ADD11C,0.120000*%
%ADD12C,0.650000*%
%ADD13O,2.100000X1.000000*%
%ADD14O,1.800000X1.000000*%
%ADD15C,1.550000*%
%ADD16C,6.400000*%
%ADD17C,2.250000*%
%ADD18C,1.000000*%
G04 APERTURE END LIST*
D10*
X87061904Y-48354819D02*
X86490476Y-48354819D01*
X86776190Y-49354819D02*
X86776190Y-48354819D01*
X86157142Y-49354819D02*
X86157142Y-48354819D01*
X86157142Y-48354819D02*
X85776190Y-48354819D01*
X85776190Y-48354819D02*
X85680952Y-48402438D01*
X85680952Y-48402438D02*
X85633333Y-48450057D01*
X85633333Y-48450057D02*
X85585714Y-48545295D01*
X85585714Y-48545295D02*
X85585714Y-48688152D01*
X85585714Y-48688152D02*
X85633333Y-48783390D01*
X85633333Y-48783390D02*
X85680952Y-48831009D01*
X85680952Y-48831009D02*
X85776190Y-48878628D01*
X85776190Y-48878628D02*
X86157142Y-48878628D01*
X85204761Y-48450057D02*
X85157142Y-48402438D01*
X85157142Y-48402438D02*
X85061904Y-48354819D01*
X85061904Y-48354819D02*
X84823809Y-48354819D01*
X84823809Y-48354819D02*
X84728571Y-48402438D01*
X84728571Y-48402438D02*
X84680952Y-48450057D01*
X84680952Y-48450057D02*
X84633333Y-48545295D01*
X84633333Y-48545295D02*
X84633333Y-48640533D01*
X84633333Y-48640533D02*
X84680952Y-48783390D01*
X84680952Y-48783390D02*
X85252380Y-49354819D01*
X85252380Y-49354819D02*
X84633333Y-49354819D01*
X94361904Y-48354819D02*
X93790476Y-48354819D01*
X94076190Y-49354819D02*
X94076190Y-48354819D01*
X93457142Y-49354819D02*
X93457142Y-48354819D01*
X93457142Y-48354819D02*
X93076190Y-48354819D01*
X93076190Y-48354819D02*
X92980952Y-48402438D01*
X92980952Y-48402438D02*
X92933333Y-48450057D01*
X92933333Y-48450057D02*
X92885714Y-48545295D01*
X92885714Y-48545295D02*
X92885714Y-48688152D01*
X92885714Y-48688152D02*
X92933333Y-48783390D01*
X92933333Y-48783390D02*
X92980952Y-48831009D01*
X92980952Y-48831009D02*
X93076190Y-48878628D01*
X93076190Y-48878628D02*
X93457142Y-48878628D01*
X92028571Y-48688152D02*
X92028571Y-49354819D01*
X92266666Y-48307200D02*
X92504761Y-49021485D01*
X92504761Y-49021485D02*
X91885714Y-49021485D01*
X94461904Y-50554819D02*
X93890476Y-50554819D01*
X94176190Y-51554819D02*
X94176190Y-50554819D01*
X93557142Y-51554819D02*
X93557142Y-50554819D01*
X93557142Y-50554819D02*
X93176190Y-50554819D01*
X93176190Y-50554819D02*
X93080952Y-50602438D01*
X93080952Y-50602438D02*
X93033333Y-50650057D01*
X93033333Y-50650057D02*
X92985714Y-50745295D01*
X92985714Y-50745295D02*
X92985714Y-50888152D01*
X92985714Y-50888152D02*
X93033333Y-50983390D01*
X93033333Y-50983390D02*
X93080952Y-51031009D01*
X93080952Y-51031009D02*
X93176190Y-51078628D01*
X93176190Y-51078628D02*
X93557142Y-51078628D01*
X92080952Y-50554819D02*
X92557142Y-50554819D01*
X92557142Y-50554819D02*
X92604761Y-51031009D01*
X92604761Y-51031009D02*
X92557142Y-50983390D01*
X92557142Y-50983390D02*
X92461904Y-50935771D01*
X92461904Y-50935771D02*
X92223809Y-50935771D01*
X92223809Y-50935771D02*
X92128571Y-50983390D01*
X92128571Y-50983390D02*
X92080952Y-51031009D01*
X92080952Y-51031009D02*
X92033333Y-51126247D01*
X92033333Y-51126247D02*
X92033333Y-51364342D01*
X92033333Y-51364342D02*
X92080952Y-51459580D01*
X92080952Y-51459580D02*
X92128571Y-51507200D01*
X92128571Y-51507200D02*
X92223809Y-51554819D01*
X92223809Y-51554819D02*
X92461904Y-51554819D01*
X92461904Y-51554819D02*
X92557142Y-51507200D01*
X92557142Y-51507200D02*
X92604761Y-51459580D01*
X86761904Y-50654819D02*
X86190476Y-50654819D01*
X86476190Y-51654819D02*
X86476190Y-50654819D01*
X85857142Y-51654819D02*
X85857142Y-50654819D01*
X85857142Y-50654819D02*
X85476190Y-50654819D01*
X85476190Y-50654819D02*
X85380952Y-50702438D01*
X85380952Y-50702438D02*
X85333333Y-50750057D01*
X85333333Y-50750057D02*
X85285714Y-50845295D01*
X85285714Y-50845295D02*
X85285714Y-50988152D01*
X85285714Y-50988152D02*
X85333333Y-51083390D01*
X85333333Y-51083390D02*
X85380952Y-51131009D01*
X85380952Y-51131009D02*
X85476190Y-51178628D01*
X85476190Y-51178628D02*
X85857142Y-51178628D01*
X84333333Y-51654819D02*
X84904761Y-51654819D01*
X84619047Y-51654819D02*
X84619047Y-50654819D01*
X84619047Y-50654819D02*
X84714285Y-50797676D01*
X84714285Y-50797676D02*
X84809523Y-50892914D01*
X84809523Y-50892914D02*
X84904761Y-50940533D01*
X94361904Y-46254819D02*
X93790476Y-46254819D01*
X94076190Y-47254819D02*
X94076190Y-46254819D01*
X93457142Y-47254819D02*
X93457142Y-46254819D01*
X93457142Y-46254819D02*
X93076190Y-46254819D01*
X93076190Y-46254819D02*
X92980952Y-46302438D01*
X92980952Y-46302438D02*
X92933333Y-46350057D01*
X92933333Y-46350057D02*
X92885714Y-46445295D01*
X92885714Y-46445295D02*
X92885714Y-46588152D01*
X92885714Y-46588152D02*
X92933333Y-46683390D01*
X92933333Y-46683390D02*
X92980952Y-46731009D01*
X92980952Y-46731009D02*
X93076190Y-46778628D01*
X93076190Y-46778628D02*
X93457142Y-46778628D01*
X92552380Y-46254819D02*
X91933333Y-46254819D01*
X91933333Y-46254819D02*
X92266666Y-46635771D01*
X92266666Y-46635771D02*
X92123809Y-46635771D01*
X92123809Y-46635771D02*
X92028571Y-46683390D01*
X92028571Y-46683390D02*
X91980952Y-46731009D01*
X91980952Y-46731009D02*
X91933333Y-46826247D01*
X91933333Y-46826247D02*
X91933333Y-47064342D01*
X91933333Y-47064342D02*
X91980952Y-47159580D01*
X91980952Y-47159580D02*
X92028571Y-47207200D01*
X92028571Y-47207200D02*
X92123809Y-47254819D01*
X92123809Y-47254819D02*
X92409523Y-47254819D01*
X92409523Y-47254819D02*
X92504761Y-47207200D01*
X92504761Y-47207200D02*
X92552380Y-47159580D01*
D11*
%TO.C,TP2*%
X88800000Y-48900000D02*
G75*
G02*
X87400000Y-48900000I-700000J0D01*
G01*
X87400000Y-48900000D02*
G75*
G02*
X88800000Y-48900000I700000J0D01*
G01*
%TO.C,TP4*%
X91200000Y-48900000D02*
G75*
G02*
X89800000Y-48900000I-700000J0D01*
G01*
X89800000Y-48900000D02*
G75*
G02*
X91200000Y-48900000I700000J0D01*
G01*
%TO.C,TP5*%
X91200000Y-51000000D02*
G75*
G02*
X89800000Y-51000000I-700000J0D01*
G01*
X89800000Y-51000000D02*
G75*
G02*
X91200000Y-51000000I700000J0D01*
G01*
%TO.C,TP1*%
X88800000Y-51100000D02*
G75*
G02*
X87400000Y-51100000I-700000J0D01*
G01*
X87400000Y-51100000D02*
G75*
G02*
X88800000Y-51100000I700000J0D01*
G01*
%TO.C,TP3*%
X91200000Y-46700000D02*
G75*
G02*
X89800000Y-46700000I-700000J0D01*
G01*
X89800000Y-46700000D02*
G75*
G02*
X91200000Y-46700000I700000J0D01*
G01*
%TD*%
%LPC*%
D12*
%TO.C,J1*%
X101300000Y-84910000D03*
X101300000Y-79130000D03*
D13*
X100800000Y-86340000D03*
D14*
X104980000Y-86340000D03*
D13*
X100800000Y-77700000D03*
D14*
X104980000Y-77700000D03*
%TD*%
D15*
%TO.C,H2*%
X95660000Y-25560000D03*
X95660000Y-23020000D03*
X93120000Y-25560000D03*
X93120000Y-23020000D03*
X90580000Y-25560000D03*
X90580000Y-23020000D03*
X88040000Y-25560000D03*
X88040000Y-23020000D03*
X85500000Y-25560000D03*
X85500000Y-23020000D03*
X82960000Y-25560000D03*
X82960000Y-23020000D03*
X80420000Y-25560000D03*
X80420000Y-23020000D03*
X77880000Y-25560000D03*
X77880000Y-23020000D03*
X75340000Y-25560000D03*
X75340000Y-23020000D03*
X72800000Y-25560000D03*
X72800000Y-23020000D03*
X70260000Y-25560000D03*
X70260000Y-23020000D03*
X67720000Y-25560000D03*
X67720000Y-23020000D03*
X65180000Y-25560000D03*
X65180000Y-23020000D03*
X62640000Y-25560000D03*
X62640000Y-23020000D03*
X60100000Y-25560000D03*
X60100000Y-23020000D03*
X57560000Y-25560000D03*
X57560000Y-23020000D03*
X55020000Y-25560000D03*
X55020000Y-23020000D03*
X52480000Y-25560000D03*
X52480000Y-23020000D03*
X49940000Y-25560000D03*
X49940000Y-23020000D03*
X47400000Y-25560000D03*
X47400000Y-23020000D03*
X44860000Y-25560000D03*
X44860000Y-23020000D03*
X42320000Y-25560000D03*
X42320000Y-23020000D03*
X39780000Y-25560000D03*
X39780000Y-23020000D03*
X37240000Y-25560000D03*
X37240000Y-23020000D03*
X34700000Y-25560000D03*
X34700000Y-23020000D03*
X32160000Y-25560000D03*
X32160000Y-23020000D03*
%TD*%
D16*
%TO.C,M1*%
X27040000Y-23100000D03*
%TD*%
%TO.C,M3*%
X103240000Y-108825000D03*
%TD*%
%TO.C,*%
X23230000Y-108825000D03*
%TD*%
D15*
%TO.C,H1*%
X95660000Y-30640000D03*
X95660000Y-28100000D03*
X93120000Y-30640000D03*
X93120000Y-28100000D03*
X90580000Y-30640000D03*
X90580000Y-28100000D03*
X88040000Y-30640000D03*
X88040000Y-28100000D03*
X85500000Y-30640000D03*
X85500000Y-28100000D03*
X82960000Y-30640000D03*
X82960000Y-28100000D03*
X80420000Y-30640000D03*
X80420000Y-28100000D03*
X77880000Y-30640000D03*
X77880000Y-28100000D03*
X75340000Y-30640000D03*
X75340000Y-28100000D03*
X72800000Y-30640000D03*
X72800000Y-28100000D03*
X70260000Y-30640000D03*
X70260000Y-28100000D03*
X67720000Y-30640000D03*
X67720000Y-28100000D03*
X65180000Y-30640000D03*
X65180000Y-28100000D03*
X62640000Y-30640000D03*
X62640000Y-28100000D03*
X60100000Y-30640000D03*
X60100000Y-28100000D03*
X57560000Y-30640000D03*
X57560000Y-28100000D03*
X55020000Y-30640000D03*
X55020000Y-28100000D03*
X52480000Y-30640000D03*
X52480000Y-28100000D03*
X49940000Y-30640000D03*
X49940000Y-28100000D03*
X47400000Y-30640000D03*
X47400000Y-28100000D03*
X44860000Y-30640000D03*
X44860000Y-28100000D03*
X42320000Y-30640000D03*
X42320000Y-28100000D03*
X39780000Y-30640000D03*
X39780000Y-28100000D03*
X37240000Y-30640000D03*
X37240000Y-28100000D03*
X34700000Y-30640000D03*
X34700000Y-28100000D03*
X32160000Y-30640000D03*
X32160000Y-28100000D03*
%TD*%
D16*
%TO.C,*%
X100700000Y-23100000D03*
%TD*%
D17*
%TO.C,J2*%
X89680000Y-98700000D03*
X92220000Y-96160000D03*
X87140000Y-96160000D03*
X92220000Y-101240000D03*
X87140000Y-101240000D03*
%TD*%
D18*
%TO.C,TP2*%
X88100000Y-48900000D03*
%TD*%
%TO.C,TP4*%
X90500000Y-48900000D03*
%TD*%
%TO.C,TP5*%
X90500000Y-51000000D03*
%TD*%
%TO.C,TP1*%
X88100000Y-51100000D03*
%TD*%
%TO.C,TP3*%
X90500000Y-46700000D03*
%TD*%
%LPD*%
M02*
